<svg width="32" height="44" viewBox="0 0 32 44" fill="none" xmlns="http://www.w3.org/2000/svg">
<path fill-rule="evenodd" clip-rule="evenodd" d="M13.7463 38.8626L12.6216 32.457H12.7749L13.9252 38.8882L13.7463 38.8626Z" fill="#79023E"/>
<path fill-rule="evenodd" clip-rule="evenodd" d="M18.1021 38.8013L19.2165 32.457H19.3852L18.2963 38.8268L18.1021 38.8013Z" fill="#79023E"/>
<path fill-rule="evenodd" clip-rule="evenodd" d="M17.458 38.5508L17.9079 32.2065H18.1022L17.6523 38.5764L17.458 38.5508Z" fill="#79023E"/>
<path fill-rule="evenodd" clip-rule="evenodd" d="M14.6154 38.5508L14.2524 32.2065H14.4467L14.8097 38.5764L14.6154 38.5508Z" fill="#79023E"/>
<path fill-rule="evenodd" clip-rule="evenodd" d="M16.0061 0.0249939V33.4079H13.2966C13.2966 33.4079 2.90853 28.5666 0.454655 17.5139C0.183707 16.2768 0.0354522 15.1061 0.00477884 13.9967C-0.220159 4.83561 7.52998 0.0249939 16.0061 0.0249939Z" fill="url(#paint0_linear_30_1770)"/>
<path fill-rule="evenodd" clip-rule="evenodd" d="M31.5526 17.5139C29.0937 28.5666 18.7107 33.4079 18.7107 33.4079H16.0063V0.0249939C23.506 0.0249939 30.4382 3.79271 31.7725 11.0061V11.0265C31.8185 11.277 31.8594 11.5275 31.8901 11.7882C32.1048 13.5111 32.0127 15.423 31.5526 17.5088V17.5139Z" fill="url(#paint1_linear_30_1770)"/>
<path fill-rule="evenodd" clip-rule="evenodd" d="M13.4807 0.163025C13.4807 0.163025 2.84211 2.075 2.20308 13.7667C1.56916 25.4635 13.0359 33.4079 13.0359 33.4079L13.9817 33.188L13.4807 0.163025Z" fill="url(#paint2_linear_30_1770)"/>
<path fill-rule="evenodd" clip-rule="evenodd" d="M18.1377 0.163025C18.1377 0.163025 28.7814 2.075 29.4153 13.7718C30.0492 25.4686 18.5825 33.413 18.5825 33.413L17.6367 33.1932L18.1377 0.163025Z" fill="url(#paint3_linear_30_1770)"/>
<path fill-rule="evenodd" clip-rule="evenodd" d="M14.5745 0.0761108L13.4856 0.163019C13.4856 0.163019 7.00839 3.05654 5.95527 11.8291C4.73345 22.0229 13.2964 33.413 13.2964 33.413H14.3598L14.5745 0.0761108Z" fill="url(#paint4_linear_30_1770)"/>
<path fill-rule="evenodd" clip-rule="evenodd" d="M17.1616 0.0761108L18.2505 0.163019C18.2505 0.163019 24.7277 3.05654 25.7808 11.8291C27.0027 22.0229 18.4397 33.413 18.4397 33.413H17.3763L17.1616 0.0761108Z" fill="url(#paint5_linear_30_1770)"/>
<path fill-rule="evenodd" clip-rule="evenodd" d="M14.3549 33.4079C14.3549 33.4079 7.05465 13.373 14.3549 0.0863399C14.3549 0.0863399 15.8579 -0.107925 17.5858 0.0863399C17.5858 0.0863399 24.0682 12.2841 17.5858 33.4079H14.3549Z" fill="url(#paint6_linear_30_1770)"/>
<path style="mix-blend-mode:multiply" opacity="0.39" fill-rule="evenodd" clip-rule="evenodd" d="M31.5525 17.5139C29.0935 28.5666 18.7105 33.4079 18.7105 33.4079H13.2916C13.2916 33.4079 2.90863 28.5666 0.454759 17.5139C0.183811 16.2768 0.0355562 15.1061 0.00488281 13.9967C0.0202195 14.1399 0.439423 18.7307 2.46387 22.3859C4.45253 25.9798 9.35005 30.5144 9.68234 30.8211C9.37049 30.4786 4.77971 26.4297 2.62235 19.8911C0.909748 14.6869 2.59167 8.9305 3.86973 7.35082C3.76749 7.53998 1.27783 11.9212 2.561 18.1019C3.87484 24.4359 7.87261 28.173 11.1035 30.4172C11.1035 30.4172 6.59455 23.2908 5.60278 16.5682C4.69791 10.4437 7.62722 6.04209 8.08732 5.34683C7.63233 6.0881 4.8615 10.9447 6.13956 17.427C7.52498 24.4717 11.855 31.3885 12.6168 31.6442C13.3836 31.8998 13.1484 29.4254 13.1484 29.4254C13.1484 29.4254 8.91551 16.1388 12.2231 5.31616C12.0493 5.94496 10.7917 10.822 11.8397 18.93C12.9593 27.585 14.9173 31.0154 15.7863 31.225C15.7812 31.225 15.7915 31.225 15.7863 31.225C16.6401 31.4192 19.4774 25.3357 20.0346 18.2297C20.5663 11.4048 19.3291 5.27526 19.2269 4.79471C19.4007 5.46952 22.3044 17.0334 18.7259 29.2516C18.7259 29.2516 18.7821 30.7649 19.6307 30.545C20.4743 30.3201 25.3718 21.8389 25.5405 15.4793C25.7041 9.31392 23.6643 5.4184 23.5416 5.18835C23.7256 5.41329 26.6754 9.24235 25.699 16.7471C24.7072 24.3643 20.7197 29.9469 20.597 30.1207C20.689 30.0951 22.1766 29.6095 23.8943 27.8611C25.6632 26.0514 28.0659 22.2325 28.9146 17.2583C29.5689 13.4395 28.9912 10.7198 28.6896 9.66155C29.1753 11.2668 30.4073 16.5989 27.7183 22.3961C24.789 28.7302 21.4354 31.3885 20.8628 31.8129C21.7063 31.2301 28.4851 26.3632 30.4482 19.9218C31.8439 15.3412 31.9615 12.9078 31.8899 11.7985C32.1046 13.5213 32.0126 15.4333 31.5525 17.5191V17.5139Z" fill="url(#paint7_linear_30_1770)"/>
<path style="mix-blend-mode:screen" opacity="0.5" fill-rule="evenodd" clip-rule="evenodd" d="M10.8379 2.19769C10.8379 2.19769 7.73987 5.2548 6.77366 9.53885C5.81256 13.8229 6.82478 17.7031 7.25932 17.7184C7.69386 17.7338 8.43513 14.9323 9.41157 11.6809C10.7714 7.15655 12.5403 3.17412 12.7601 2.47375C12.985 1.77337 10.8277 2.2028 10.8277 2.2028L10.8379 2.19769Z" fill="url(#paint8_linear_30_1770)"/>
<path style="mix-blend-mode:screen" opacity="0.5" fill-rule="evenodd" clip-rule="evenodd" d="M14.4109 1.12924C14.4109 1.12924 12.8414 3.8285 11.8036 9.01231C11.1135 12.4631 12.2177 16.3177 12.3609 16.3381C12.504 16.3586 14.8812 12.7442 15.2646 8.73113C15.6429 4.71803 14.416 1.13435 14.416 1.13435L14.4109 1.12924Z" fill="url(#paint9_linear_30_1770)"/>
<path style="mix-blend-mode:screen" opacity="0.5" fill-rule="evenodd" clip-rule="evenodd" d="M9.2377 2.06989C9.2377 2.06989 5.82273 3.58311 3.92098 7.68312C2.01923 11.7831 2.42821 15.9445 2.68382 16.2205C2.93943 16.4966 4.8514 12.4017 5.84829 9.53886C6.84517 6.68112 9.2377 2.06989 9.2377 2.06989Z" fill="url(#paint10_linear_30_1770)"/>
<path style="mix-blend-mode:screen" opacity="0.5" fill-rule="evenodd" clip-rule="evenodd" d="M7.55023 2.06989C7.55023 2.06989 3.98701 3.17924 1.99835 6.87027C0.00968778 10.5613 0.229514 14.4926 0.336871 14.7278C0.444228 14.9629 2.40733 9.64621 2.98501 7.64222C3.56269 5.63822 6.46133 2.78049 7.55023 2.06989Z" fill="url(#paint11_linear_30_1770)"/>
<path fill-rule="evenodd" clip-rule="evenodd" d="M11.819 9.67177C11.819 9.67177 11.6247 8.21479 12.2178 7.177C12.2178 7.177 12.1257 9.11454 11.819 9.67177Z" fill="#FFFBF4"/>
<path fill-rule="evenodd" clip-rule="evenodd" d="M8.04635 6.32837C8.04635 6.32837 6.88076 7.79558 6.76318 10.1012C6.76318 10.1012 7.53002 9.24745 7.88276 8.21478C8.23551 7.18211 8.04635 6.32837 8.04635 6.32837Z" fill="#FFFBF4"/>
<path fill-rule="evenodd" clip-rule="evenodd" d="M4.72305 6.32837C4.72305 6.32837 3.96644 7.08498 3.75684 8.3886C3.75684 8.3886 4.24761 7.95406 4.51345 7.3866C4.77928 6.82426 4.72305 6.32837 4.72305 6.32837Z" fill="#FFFBF4"/>
<path fill-rule="evenodd" clip-rule="evenodd" d="M2.60691 5.91429C2.60691 5.91429 2.00366 6.45108 1.83496 7.39173C1.83496 7.39173 2.22349 7.08499 2.4382 6.68113C2.65292 6.27726 2.60691 5.91429 2.60691 5.91429Z" fill="#FFFBF4"/>
<path fill-rule="evenodd" clip-rule="evenodd" d="M13.5267 43.3103L12.811 38.6581C12.811 38.6581 16.3231 37.7635 19.3445 38.6121L18.7463 43.3103C18.7463 43.3103 17.4785 43.5965 16.0778 43.5965C14.3754 43.5965 13.5267 43.3103 13.5267 43.3103Z" fill="url(#paint12_radial_30_1770)"/>
<path style="mix-blend-mode:multiply" opacity="0.39" fill-rule="evenodd" clip-rule="evenodd" d="M12.9236 39.3943C12.9236 39.3943 13.3837 42.2623 13.9256 42.8144C14.4675 43.3716 17.2076 43.3103 18.1023 42.3236C18.9969 41.3369 19.3394 38.6121 19.3394 38.6121L18.7413 43.3103C18.7413 43.3103 15.674 44.1487 13.5217 43.3103L12.9185 39.3943H12.9236Z" fill="url(#paint13_linear_30_1770)"/>
<path fill-rule="evenodd" clip-rule="evenodd" d="M13.5269 43.3103C13.5269 43.3103 15.5104 42.5332 18.7464 43.3103C18.7464 43.3103 16.1034 44.348 13.5269 43.3103Z" fill="#79023E"/>
<path fill-rule="evenodd" clip-rule="evenodd" d="M13.041 33.4079C13.041 33.4079 15.4284 32.3036 18.7156 33.4079C18.7156 33.4079 15.5153 33.776 13.041 33.4079Z" fill="#79023E"/>
<path style="mix-blend-mode:screen" opacity="0.66" fill-rule="evenodd" clip-rule="evenodd" d="M31.8897 11.7882C31.859 11.5326 31.8181 11.277 31.7721 11.0265V11.0112C30.5299 4.30904 24.4565 0.582226 17.5857 0.0914516C15.8577 -0.102813 14.3547 0.0914516 14.3547 0.0914516C14.3036 0.0914516 14.2525 0.101676 14.1963 0.106788L13.4806 0.163023C13.4806 0.163023 13.4192 0.173247 13.3119 0.198809C5.96046 1.10879 -0.194665 5.81715 0.0047118 13.9916C0.030273 15.101 0.178528 16.2768 0.449476 17.5088C2.46881 26.6188 9.87132 31.5061 12.4172 32.9427C12.5399 33.0398 12.6575 33.1267 12.7444 33.1932L13.6697 38.4792C13.1278 38.5712 12.8006 38.653 12.8006 38.653L13.5163 43.3052C16.0929 44.3429 18.7359 43.3052 18.7359 43.3052L19.3341 38.607C19.012 38.515 18.6848 38.4485 18.3576 38.3974L19.2625 33.1165C21.4454 31.9356 29.4307 27.0227 31.5421 17.5088C32.0073 15.423 32.0942 13.5111 31.8795 11.7882H31.8897ZM14.7944 38.331L14.5235 33.5408C15.776 33.6021 17.0131 33.5408 17.8157 33.4846L17.4783 38.2901C16.507 38.2083 15.5715 38.2492 14.7944 38.331ZM12.9335 33.3312C13 33.3772 13.0409 33.4079 13.0409 33.4079C13.455 33.4692 13.8946 33.5101 14.3292 33.5357L14.6052 38.3565C14.3241 38.3872 14.0736 38.423 13.8486 38.4588L12.9335 33.3363V33.3312ZM18.1787 38.3667C18.01 38.3412 17.8413 38.3207 17.6726 38.3054L18.0151 33.4692C18.4445 33.4334 18.7155 33.4028 18.7155 33.4028C18.7155 33.4028 18.8535 33.3363 19.0887 33.2136L18.1838 38.3616L18.1787 38.3667Z" fill="url(#paint14_linear_30_1770)"/>
<defs>
<linearGradient id="paint0_linear_30_1770" x1="8.00542" y1="33.4079" x2="8.00542" y2="0.0249939" gradientUnits="userSpaceOnUse">
<stop stop-color="#FF8631"/>
<stop offset="1" stop-color="#FFCC1B"/>
</linearGradient>
<linearGradient id="paint1_linear_30_1770" x1="24.0019" y1="-0.000567269" x2="24.0019" y2="-0.000567269" gradientUnits="userSpaceOnUse">
<stop stop-color="#FF8631"/>
<stop offset="1" stop-color="#FFCC1B"/>
</linearGradient>
<linearGradient id="paint2_linear_30_1770" x1="8.08215" y1="33.4079" x2="8.08215" y2="0.163025" gradientUnits="userSpaceOnUse">
<stop stop-color="#AB4AD4"/>
<stop offset="1" stop-color="#FF6FF4"/>
</linearGradient>
<linearGradient id="paint3_linear_30_1770" x1="23.5311" y1="-0.000566561" x2="23.5311" y2="-0.000566561" gradientUnits="userSpaceOnUse">
<stop stop-color="#AB4AD4"/>
<stop offset="1" stop-color="#FF6FF4"/>
</linearGradient>
<linearGradient id="paint4_linear_30_1770" x1="10.2035" y1="33.4079" x2="10.2035" y2="0.0761108" gradientUnits="userSpaceOnUse">
<stop stop-color="#FF8631"/>
<stop offset="1" stop-color="#FFCC1B"/>
</linearGradient>
<linearGradient id="paint5_linear_30_1770" x1="21.5326" y1="33.4079" x2="21.5326" y2="0.0761108" gradientUnits="userSpaceOnUse">
<stop stop-color="#FF8631"/>
<stop offset="1" stop-color="#FFCC1B"/>
</linearGradient>
<linearGradient id="paint6_linear_30_1770" x1="15.7863" y1="-0.000568026" x2="15.7863" y2="-0.000568026" gradientUnits="userSpaceOnUse">
<stop stop-color="#AB4AD4"/>
<stop offset="1" stop-color="#FF6FF4"/>
</linearGradient>
<linearGradient id="paint7_linear_30_1770" x1="16.0062" y1="33.4079" x2="16.0062" y2="4.7896" gradientUnits="userSpaceOnUse">
<stop stop-color="#9F2F70"/>
<stop offset="1" stop-color="#FFA2A8"/>
</linearGradient>
<linearGradient id="paint8_linear_30_1770" x1="9.58027" y1="17.7184" x2="9.58027" y2="2.06988" gradientUnits="userSpaceOnUse">
<stop/>
<stop offset="1" stop-color="#D99022"/>
</linearGradient>
<linearGradient id="paint9_linear_30_1770" x1="13.4549" y1="16.3381" x2="13.4549" y2="1.12924" gradientUnits="userSpaceOnUse">
<stop/>
<stop offset="1" stop-color="#D99022"/>
</linearGradient>
<linearGradient id="paint10_linear_30_1770" x1="5.84829" y1="16.2359" x2="5.84829" y2="2.06989" gradientUnits="userSpaceOnUse">
<stop/>
<stop offset="1" stop-color="#D99022"/>
</linearGradient>
<linearGradient id="paint11_linear_30_1770" x1="3.91032" y1="14.7329" x2="3.91032" y2="2.06989" gradientUnits="userSpaceOnUse">
<stop/>
<stop offset="1" stop-color="#D99022"/>
</linearGradient>
<radialGradient id="paint12_radial_30_1770" cx="0" cy="0" r="1" gradientUnits="userSpaceOnUse" gradientTransform="translate(14.6259 39.7521) scale(3.82906 3.82906)">
<stop stop-color="#FF5713"/>
<stop offset="0.99" stop-color="#AE2544"/>
</radialGradient>
<linearGradient id="paint13_linear_30_1770" x1="12.9236" y1="41.1478" x2="19.3394" y2="41.1478" gradientUnits="userSpaceOnUse">
<stop stop-color="#9F2F70"/>
<stop offset="1" stop-color="#FFA2A8"/>
</linearGradient>
<linearGradient id="paint14_linear_30_1770" x1="0.00471181" y1="21.8849" x2="32.0022" y2="21.8849" gradientUnits="userSpaceOnUse">
<stop stop-color="#46BEED"/>
<stop offset="1"/>
</linearGradient>
</defs>
</svg>
