<svg width="57" height="78" viewBox="0 0 57 78" fill="none" xmlns="http://www.w3.org/2000/svg">
<path fill-rule="evenodd" clip-rule="evenodd" d="M24.4786 69.2303L22.4771 57.8173H22.7529L24.7954 69.275L24.4786 69.2303Z" fill="#79023E"/>
<path fill-rule="evenodd" clip-rule="evenodd" d="M32.2388 69.1185L34.2217 57.8173H34.5199L32.5817 69.1632L32.2388 69.1185Z" fill="#79023E"/>
<path fill-rule="evenodd" clip-rule="evenodd" d="M31.0947 68.6749L31.8886 57.37H32.239L31.4414 68.7159L31.0947 68.6749Z" fill="#79023E"/>
<path fill-rule="evenodd" clip-rule="evenodd" d="M26.0294 68.6749L25.3809 57.37H25.7275L26.3723 68.7159L26.0294 68.6749Z" fill="#79023E"/>
<path fill-rule="evenodd" clip-rule="evenodd" d="M24.0684 77.3186L22.8086 68.865C22.8086 68.865 29.0668 67.266 34.4453 68.783L33.383 77.1508C33.383 77.1508 31.128 77.6615 28.6269 77.6615C25.5929 77.6615 24.0684 77.3186 24.0684 77.3186Z" fill="url(#paint0_radial_30_1799)"/>
<path fill-rule="evenodd" clip-rule="evenodd" d="M24.0686 77.3186C23.9121 77.5646 27.0654 77.859 29.3688 77.7994C31.7469 77.736 33.331 77.4565 33.4018 77.1508C33.4726 76.8452 30.6548 76.6178 28.7352 76.6551C26.8156 76.6924 24.3258 76.9123 24.0686 77.3186Z" fill="#79023E"/>
<path fill-rule="evenodd" clip-rule="evenodd" d="M28.5003 0.0476227V59.5095H23.6735C23.6735 59.5095 5.17481 50.8845 0.806396 31.1931C0.318118 28.9977 0.057206 26.9066 0.00875091 24.9349V24.9274C-0.397526 8.61299 13.4047 0.0476227 28.5003 0.0476227Z" fill="url(#paint1_linear_30_1799)"/>
<path fill-rule="evenodd" clip-rule="evenodd" d="M56.1982 31.1931C51.8223 50.8845 33.3236 59.5095 33.3236 59.5095H28.5005V0.0476227C41.8629 0.0476227 54.204 6.76051 56.5821 19.6123L56.5895 19.6197V19.6496C56.6753 20.0968 56.7461 20.5478 56.802 21.0026C57.1859 24.0739 57.0256 27.4732 56.2019 31.1931H56.1982Z" fill="url(#paint2_linear_30_1799)"/>
<path fill-rule="evenodd" clip-rule="evenodd" d="M24.0087 0.286179C24.0087 0.286179 5.05159 3.69295 3.91849 24.5249C2.78539 45.3568 23.2185 59.5095 23.2185 59.5095L24.907 59.1181L24.0087 0.286179Z" fill="url(#paint3_radial_30_1799)"/>
<path fill-rule="evenodd" clip-rule="evenodd" d="M32.2987 0.286179C32.2987 0.286179 51.2558 3.69295 52.3889 24.5249C53.522 45.3568 33.0889 59.5095 33.0889 59.5095L31.4004 59.1181L32.2987 0.286179Z" fill="url(#paint4_radial_30_1799)"/>
<path fill-rule="evenodd" clip-rule="evenodd" d="M25.9545 0.133362L24.0126 0.286182C24.0126 0.286182 12.4729 5.43733 10.598 21.066C8.41754 39.2254 23.6772 59.5095 23.6772 59.5095H25.5669L25.9545 0.133362Z" fill="url(#paint5_linear_30_1799)"/>
<path fill-rule="evenodd" clip-rule="evenodd" d="M30.5654 0.133362L32.5074 0.286182C32.5074 0.286182 44.0471 5.43733 45.922 21.066C48.1024 39.2254 32.8428 59.5095 32.8428 59.5095H30.9531L30.5654 0.133362Z" fill="url(#paint6_linear_30_1799)"/>
<path fill-rule="evenodd" clip-rule="evenodd" d="M25.563 59.5095C25.563 59.5095 12.5584 23.8204 25.563 0.155719C25.563 0.155719 28.243 -0.194649 31.318 0.155719C31.318 0.155719 42.8615 21.8822 31.318 59.5132H25.563V59.5095Z" fill="url(#paint7_radial_30_1799)"/>
<path style="mix-blend-mode:multiply" opacity="0.39" fill-rule="evenodd" clip-rule="evenodd" d="M56.198 31.1931C51.8222 50.8845 33.3235 59.5095 33.3235 59.5095H23.6735C23.6735 59.5095 5.17485 50.8845 0.806434 31.1931C0.318156 28.9977 0.0572441 26.9067 0.00878906 24.9349C0.0311529 25.1921 0.78407 33.3698 4.39211 39.8814C7.93306 46.2812 16.6587 54.3658 17.2513 54.9062C16.696 54.2987 8.51824 47.0863 4.67538 35.431C1.62272 26.1649 4.61947 15.9111 6.89686 13.0932C6.71795 13.4287 2.28245 21.23 4.56357 32.2404C6.90432 43.5267 14.0235 50.18 19.7859 54.1757C19.7859 54.1757 11.7498 41.4767 9.98681 29.5009C8.38033 18.591 13.5911 10.7487 14.4111 9.51501C13.606 10.8345 8.66734 19.4893 10.9373 31.0365C13.4048 43.5864 21.1166 55.9052 22.477 56.3599C23.845 56.8183 23.4275 52.4127 23.4275 52.4127C23.4275 52.4127 15.8909 28.7442 21.78 9.47028C21.4669 10.5885 19.2268 19.2768 21.0942 33.7239C23.0883 49.1401 26.5808 55.2566 28.1202 55.6219C28.109 55.6219 28.1314 55.6219 28.1202 55.6219C29.6447 55.9648 34.6989 45.1295 35.6866 32.4715C36.6334 20.3168 34.4268 9.39946 34.2479 8.53845C34.561 9.74237 39.7308 30.3358 33.3571 52.107C33.3571 52.107 33.4577 54.8056 34.9635 54.4068C36.4694 54.0079 45.1913 38.8937 45.4932 27.5664C45.7877 16.582 42.1535 9.64546 41.9373 9.23546C42.2616 9.63801 47.5171 16.4515 45.7765 29.8214C44.006 43.3888 36.9092 53.3333 36.6856 53.6427C36.8496 53.5942 39.5034 52.7332 42.5598 49.6172C45.7131 46.3968 49.9883 39.5944 51.5053 30.7271C52.6683 23.9248 51.6433 19.0793 51.1028 17.1933C51.9638 20.0521 54.1592 29.553 49.3733 39.8814C44.1551 51.164 38.1839 55.9014 37.1664 56.6581C38.6648 55.6181 50.745 46.9484 54.2375 35.4757C56.7236 27.3129 56.936 22.9855 56.8019 21.0063C57.1858 24.0776 57.0255 27.4769 56.2018 31.1968L56.198 31.1931Z" fill="url(#paint8_linear_30_1799)"/>
<path style="mix-blend-mode:screen" opacity="0.5" fill-rule="evenodd" clip-rule="evenodd" d="M19.2972 3.9203C19.2972 3.9203 13.7771 9.36963 12.0625 16.9957C10.3479 24.6218 12.152 31.536 12.931 31.5658C13.71 31.5956 15.0294 26.5973 16.7701 20.8088C19.1929 12.7466 22.3387 5.6535 22.7375 4.40485C23.1363 3.1562 19.2972 3.9203 19.2972 3.9203Z" fill="url(#paint9_linear_30_1799)"/>
<path style="mix-blend-mode:screen" opacity="0.5" fill-rule="evenodd" clip-rule="evenodd" d="M25.6638 2.01564C25.6638 2.01564 22.8646 6.8276 21.0159 16.0564C19.7858 22.2028 21.7501 29.0648 22.0036 29.102C22.2571 29.1393 26.495 22.6948 27.1734 15.5495C27.8518 8.40053 25.6638 2.01564 25.6638 2.01564Z" fill="url(#paint10_linear_30_1799)"/>
<path style="mix-blend-mode:screen" opacity="0.5" fill-rule="evenodd" clip-rule="evenodd" d="M16.4463 3.68921C16.4463 3.68921 10.3633 6.38778 6.97893 13.6896C3.59453 20.9877 4.31763 28.4013 4.77236 28.897C5.2271 29.3928 8.63386 22.091 10.4118 16.9957C12.186 11.9005 16.4463 3.68921 16.4463 3.68921Z" fill="url(#paint11_linear_30_1799)"/>
<path style="mix-blend-mode:screen" opacity="0.5" fill-rule="evenodd" clip-rule="evenodd" d="M13.4421 3.68921C13.4421 3.68921 7.09448 5.66468 3.55726 12.2434C0.0200446 18.8184 0.40023 25.8145 0.590323 26.232C0.780416 26.6495 4.27664 17.1821 5.30537 13.6113C6.33039 10.0368 11.4964 4.94904 13.4421 3.68921Z" fill="url(#paint12_linear_30_1799)"/>
<path fill-rule="evenodd" clip-rule="evenodd" d="M21.0457 17.2268C21.0457 17.2268 20.6991 14.6326 21.7539 12.7839C21.7539 12.7839 21.5899 16.2354 21.0457 17.2268Z" fill="#FFFBF4"/>
<path fill-rule="evenodd" clip-rule="evenodd" d="M14.3254 11.2706C14.3254 11.2706 12.2455 13.8834 12.0405 17.9909C12.0405 17.9909 13.4047 16.4702 14.0384 14.6326C14.672 12.795 14.3254 11.2743 14.3254 11.2743V11.2706Z" fill="#FFFBF4"/>
<path fill-rule="evenodd" clip-rule="evenodd" d="M8.40268 11.2706C8.40268 11.2706 7.05712 12.6236 6.68066 14.942C6.68066 14.942 7.55286 14.163 8.02622 13.1603C8.50332 12.1577 8.40268 11.2706 8.40268 11.2706Z" fill="#FFFBF4"/>
<path fill-rule="evenodd" clip-rule="evenodd" d="M4.64216 10.5363C4.64216 10.5363 3.56869 11.4942 3.27051 13.164C3.27051 13.164 3.96379 12.6161 4.34397 11.8968C4.72416 11.1774 4.64216 10.5363 4.64216 10.5363Z" fill="#FFFBF4"/>
<path style="mix-blend-mode:multiply" opacity="0.39" fill-rule="evenodd" clip-rule="evenodd" d="M23.0101 70.1733C23.0101 70.1733 23.8338 75.276 24.7955 76.2674C25.7571 77.2552 30.6436 77.1546 32.2352 75.3915C33.8267 73.6285 34.4417 68.783 34.4417 68.783L33.3795 77.1508C33.3795 77.1508 28.1985 78.2541 24.0649 77.3186L23.0063 70.1733H23.0101Z" fill="url(#paint13_linear_30_1799)"/>
<path fill-rule="evenodd" clip-rule="evenodd" d="M24.9597 68.0599C24.9597 68.0599 24.1061 67.6425 23.9086 67.6984C23.711 67.7543 22.686 68.1904 22.481 68.7047C22.276 69.2191 22.7755 71.5077 22.7755 71.5077L23.2265 71.2169C23.2265 71.2169 24.7808 71.5338 26.1487 71.2281L26.7115 71.5151L26.4022 68.4774C26.4022 68.4774 26.5103 68.2724 26.7115 68.2649C26.7115 68.2649 26.6221 67.84 26.5028 67.7431C26.3835 67.6424 25.5076 68.0226 24.9597 68.0599Z" fill="url(#paint14_linear_30_1799)"/>
<path fill-rule="evenodd" clip-rule="evenodd" d="M30.4688 68.1643C30.4688 68.1643 30.9794 68.2053 31.0949 68.4103L30.834 71.1349L31.0875 70.9523C31.0875 70.9523 32.4815 71.4555 33.2642 71.3176L33.3127 71.4704C33.3127 71.4704 34.1402 69.1036 33.9911 68.0003C33.842 66.897 31.9187 67.4002 31.9187 67.4002C31.9187 67.4002 32.023 67.6499 31.6466 67.7915C31.2701 67.9332 30.9682 67.7729 30.9682 67.7729C30.9682 67.7729 30.588 67.8586 30.4725 68.1643H30.4688Z" fill="url(#paint15_linear_30_1799)"/>
<defs>
<radialGradient id="paint0_radial_30_1799" cx="0" cy="0" r="1" gradientUnits="userSpaceOnUse" gradientTransform="translate(26.0514 70.8144) scale(6.82098)">
<stop stop-color="#FF5713"/>
<stop offset="0.99" stop-color="#AE2544"/>
</radialGradient>
<linearGradient id="paint1_linear_30_1799" x1="14.2508" y1="59.5094" x2="14.2508" y2="0.0476227" gradientUnits="userSpaceOnUse">
<stop stop-color="#FF8631"/>
<stop offset="1" stop-color="#FFCC1B"/>
</linearGradient>
<linearGradient id="paint2_linear_30_1799" x1="42.75" y1="-0.00083239" x2="42.75" y2="-0.00083239" gradientUnits="userSpaceOnUse">
<stop stop-color="#FF8631"/>
<stop offset="1" stop-color="#FFCC1B"/>
</linearGradient>
<radialGradient id="paint3_radial_30_1799" cx="0" cy="0" r="1" gradientUnits="userSpaceOnUse" gradientTransform="translate(9.71446 15.639) scale(22.2185)">
<stop stop-color="#FF3B3E"/>
<stop offset="0.99" stop-color="#BF0244"/>
</radialGradient>
<radialGradient id="paint4_radial_30_1799" cx="0" cy="0" r="1" gradientUnits="userSpaceOnUse" gradientTransform="translate(45.225 14.7295) rotate(-180) scale(22.2185 22.2185)">
<stop stop-color="#FF3B3E"/>
<stop offset="0.99" stop-color="#BF0244"/>
</radialGradient>
<linearGradient id="paint5_linear_30_1799" x1="18.1682" y1="59.5095" x2="18.1682" y2="0.133362" gradientUnits="userSpaceOnUse">
<stop stop-color="#FF8631"/>
<stop offset="1" stop-color="#FFCC1B"/>
</linearGradient>
<linearGradient id="paint6_linear_30_1799" x1="38.3518" y1="59.5095" x2="38.3518" y2="0.133362" gradientUnits="userSpaceOnUse">
<stop stop-color="#FF8631"/>
<stop offset="1" stop-color="#FFCC1B"/>
</linearGradient>
<radialGradient id="paint7_radial_30_1799" cx="0" cy="0" r="1" gradientUnits="userSpaceOnUse" gradientTransform="translate(29.145 15.0426) scale(21.8495 21.8495)">
<stop stop-color="#FF3B3E"/>
<stop offset="0.99" stop-color="#BF0244"/>
</radialGradient>
<linearGradient id="paint8_linear_30_1799" x1="28.5041" y1="59.5095" x2="28.5041" y2="8.53472" gradientUnits="userSpaceOnUse">
<stop stop-color="#9F2F70"/>
<stop offset="1" stop-color="#FFA2A8"/>
</linearGradient>
<linearGradient id="paint9_linear_30_1799" x1="17.0571" y1="31.5658" x2="17.0571" y2="3.6892" gradientUnits="userSpaceOnUse">
<stop/>
<stop offset="1" stop-color="#D99022"/>
</linearGradient>
<linearGradient id="paint10_linear_30_1799" x1="23.9567" y1="29.102" x2="23.9567" y2="2.01564" gradientUnits="userSpaceOnUse">
<stop/>
<stop offset="1" stop-color="#D99022"/>
</linearGradient>
<linearGradient id="paint11_linear_30_1799" x1="10.4118" y1="28.9194" x2="10.4118" y2="3.68921" gradientUnits="userSpaceOnUse">
<stop/>
<stop offset="1" stop-color="#D99022"/>
</linearGradient>
<linearGradient id="paint12_linear_30_1799" x1="6.9603" y1="26.2469" x2="6.9603" y2="3.68921" gradientUnits="userSpaceOnUse">
<stop/>
<stop offset="1" stop-color="#D99022"/>
</linearGradient>
<linearGradient id="paint13_linear_30_1799" x1="23.0101" y1="73.2371" x2="34.4455" y2="73.2371" gradientUnits="userSpaceOnUse">
<stop stop-color="#9F2F70"/>
<stop offset="1" stop-color="#FFA2A8"/>
</linearGradient>
<linearGradient id="paint14_linear_30_1799" x1="24.8412" y1="71.6725" x2="24.4853" y2="67.6366" gradientUnits="userSpaceOnUse">
<stop stop-color="#FF98A0"/>
<stop offset="1" stop-color="#FFD790"/>
</linearGradient>
<linearGradient id="paint15_linear_30_1799" x1="31.6777" y1="71.3361" x2="32.4814" y2="67.213" gradientUnits="userSpaceOnUse">
<stop stop-color="#FF98A0"/>
<stop offset="1" stop-color="#FFD790"/>
</linearGradient>
</defs>
</svg>
