<svg width="63" height="86" viewBox="0 0 63 86" fill="none" xmlns="http://www.w3.org/2000/svg">
<path fill-rule="evenodd" clip-rule="evenodd" d="M26.8895 76.0189L24.6895 63.4889H24.9895L27.2395 76.0689L26.8895 76.0189Z" fill="#79023E"/>
<path fill-rule="evenodd" clip-rule="evenodd" d="M35.4094 75.8989L37.5894 63.4889H37.9194L35.7894 75.9489L35.4094 75.8989Z" fill="#79023E"/>
<path fill-rule="evenodd" clip-rule="evenodd" d="M34.1494 75.4089L35.0294 62.9989H35.4094L34.5294 75.4589L34.1494 75.4089Z" fill="#79023E"/>
<path fill-rule="evenodd" clip-rule="evenodd" d="M28.5894 75.4089L27.8794 62.9989H28.2594L28.9694 75.4589L28.5894 75.4089Z" fill="#79023E"/>
<path fill-rule="evenodd" clip-rule="evenodd" d="M31.3093 0.0488892V65.3489H26.0093C26.0093 65.3489 5.68935 55.8789 0.889348 34.2589C0.359348 31.8389 0.0693479 29.5489 0.00934785 27.3789C-0.430652 9.45889 14.7293 0.0488892 31.3093 0.0488892Z" fill="url(#paint0_linear_4_2661)"/>
<path fill-rule="evenodd" clip-rule="evenodd" d="M61.7193 34.2589C56.9093 55.8789 36.5993 65.3489 36.5993 65.3489H31.3093V0.0488892C45.9793 0.0488892 59.5393 7.41889 62.1493 21.5289V21.5689C62.2393 22.0589 62.3193 22.5489 62.3793 23.0589C62.7993 26.4289 62.6193 30.1689 61.7193 34.2489V34.2589Z" fill="url(#paint1_linear_4_2661)"/>
<path fill-rule="evenodd" clip-rule="evenodd" d="M26.3693 0.318878C26.3693 0.318878 5.55935 4.05888 4.30935 26.9289C3.06935 49.8089 25.4993 65.3489 25.4993 65.3489L27.3493 64.9189L26.3693 0.318878Z" fill="url(#paint2_linear_4_2661)"/>
<path fill-rule="evenodd" clip-rule="evenodd" d="M35.4793 0.318878C35.4793 0.318878 56.2993 4.05888 57.5393 26.9389C58.7793 49.8189 36.3493 65.3589 36.3493 65.3589L34.4993 64.9289L35.4793 0.318878Z" fill="url(#paint3_linear_4_2661)"/>
<path fill-rule="evenodd" clip-rule="evenodd" d="M28.5094 0.148895L26.3795 0.318895C26.3795 0.318895 13.7095 5.9789 11.6495 23.1389C9.25945 43.0789 26.0094 65.3589 26.0094 65.3589H28.0894L28.5094 0.148895Z" fill="url(#paint4_linear_4_2661)"/>
<path fill-rule="evenodd" clip-rule="evenodd" d="M33.5693 0.148895L35.6993 0.318895C35.6993 0.318895 48.3693 5.9789 50.4293 23.1389C52.8193 43.0789 36.0693 65.3589 36.0693 65.3589H33.9893L33.5693 0.148895Z" fill="url(#paint5_linear_4_2661)"/>
<path fill-rule="evenodd" clip-rule="evenodd" d="M28.0793 65.3489C28.0793 65.3489 13.7993 26.1589 28.0793 0.168889C28.0793 0.168889 31.0193 -0.211111 34.3993 0.168889C34.3993 0.168889 47.0793 24.0289 34.3993 65.3489H28.0793Z" fill="url(#paint6_linear_4_2661)"/>
<path style="mix-blend-mode:multiply" opacity="0.39" fill-rule="evenodd" clip-rule="evenodd" d="M61.7193 34.2589C56.9093 55.8789 36.5993 65.3489 36.5993 65.3489H25.9993C25.9993 65.3489 5.68928 55.8789 0.889277 34.2589C0.359277 31.8389 0.0692773 29.5489 0.00927734 27.3789C0.0392773 27.6589 0.859277 36.6389 4.81928 43.7889C8.70928 50.8189 18.2893 59.6889 18.9393 60.2889C18.3293 59.6189 9.34928 51.6989 5.12928 38.9089C1.77928 28.7289 5.06928 17.4689 7.56928 14.3789C7.36928 14.7489 2.49928 23.3189 5.00928 35.4089C7.57928 47.7989 15.3993 55.1089 21.7193 59.4989C21.7193 59.4989 12.8993 45.5589 10.9593 32.4089C9.18928 20.4289 14.9193 11.8189 15.8193 10.4589C14.9293 11.9089 9.50928 21.4089 12.0093 34.0889C14.7193 47.8689 23.1893 61.3989 24.6793 61.8989C26.1793 62.3989 25.7193 57.5589 25.7193 57.5589C25.7193 57.5589 17.4393 31.5689 23.9093 10.3989C23.5693 11.6289 21.1093 21.1689 23.1593 37.0289C25.3493 53.9589 29.1793 60.6689 30.8793 61.0789C30.8693 61.0789 30.8893 61.0789 30.8793 61.0789C32.5493 61.4589 38.0993 49.5589 39.1893 35.6589C40.2293 22.3089 37.8093 10.3189 37.6093 9.37888C37.9493 10.6989 43.6293 33.3189 36.6293 57.2189C36.6293 57.2189 36.7393 60.1789 38.3993 59.7489C40.0493 59.3089 49.6293 42.7189 49.9593 30.2789C50.2793 18.2189 46.2893 10.5989 46.0493 10.1489C46.4093 10.5889 52.1793 18.0789 50.2693 32.7589C48.3293 47.6589 40.5293 58.5789 40.2893 58.9189C40.4693 58.8689 43.3793 57.9189 46.7393 54.4989C50.1993 50.9589 54.8993 43.4889 56.5593 33.7589C57.8393 26.2889 56.7093 20.9689 56.1193 18.8989C57.0693 22.0389 59.4793 32.4689 54.2193 43.8089C48.4893 56.1989 41.9293 61.3989 40.8093 62.2289C42.4593 61.0889 55.7193 51.5689 59.5593 38.9689C62.2893 30.0089 62.5193 25.2489 62.3793 23.0789C62.7993 26.4489 62.6193 30.1889 61.7193 34.2689V34.2589Z" fill="url(#paint7_linear_4_2661)"/>
<path style="mix-blend-mode:screen" opacity="0.5" fill-rule="evenodd" clip-rule="evenodd" d="M21.1994 4.29887C21.1994 4.29887 15.1394 10.2789 13.2494 18.6589C11.3694 27.0389 13.3494 34.6289 14.1994 34.6589C15.0494 34.6889 16.4994 29.2089 18.4094 22.8489C21.0694 13.9989 24.5294 6.20887 24.9594 4.83887C25.3994 3.46887 21.1794 4.30887 21.1794 4.30887L21.1994 4.29887Z" fill="url(#paint8_linear_4_2661)"/>
<path style="mix-blend-mode:screen" opacity="0.5" fill-rule="evenodd" clip-rule="evenodd" d="M28.1894 2.20889C28.1894 2.20889 25.1194 7.48889 23.0894 17.6289C21.7394 24.3789 23.8994 31.9189 24.1794 31.9589C24.4594 31.9989 29.1094 24.9289 29.8594 17.0789C30.5994 9.22889 28.1994 2.21889 28.1994 2.21889L28.1894 2.20889Z" fill="url(#paint9_linear_4_2661)"/>
<path style="mix-blend-mode:screen" opacity="0.5" fill-rule="evenodd" clip-rule="evenodd" d="M18.0694 4.04889C18.0694 4.04889 11.3894 7.00889 7.66945 15.0289C3.94945 23.0489 4.74945 31.1889 5.24945 31.7289C5.74945 32.2689 9.48945 24.2589 11.4394 18.6589C13.3895 13.0689 18.0694 4.04889 18.0694 4.04889Z" fill="url(#paint10_linear_4_2661)"/>
<path style="mix-blend-mode:screen" opacity="0.5" fill-rule="evenodd" clip-rule="evenodd" d="M14.7694 4.04889C14.7694 4.04889 7.79937 6.21889 3.90937 13.4389C0.0193744 20.6589 0.449374 28.3489 0.659374 28.8089C0.869374 29.2689 4.70937 18.8689 5.83937 14.9489C6.96937 11.0289 12.6394 5.43889 14.7694 4.04889Z" fill="url(#paint11_linear_4_2661)"/>
<path fill-rule="evenodd" clip-rule="evenodd" d="M23.1194 18.9189C23.1194 18.9189 22.7394 16.0689 23.8994 14.0389C23.8994 14.0389 23.7194 17.8289 23.1194 18.9189Z" fill="#FFFBF4"/>
<path fill-rule="evenodd" clip-rule="evenodd" d="M15.7392 12.3789C15.7392 12.3789 13.4592 15.2489 13.2292 19.7589C13.2292 19.7589 14.7292 18.0889 15.4192 16.0689C16.1092 14.0489 15.7392 12.3789 15.7392 12.3789Z" fill="#FFFBF4"/>
<path fill-rule="evenodd" clip-rule="evenodd" d="M9.23936 12.3789C9.23936 12.3789 7.75937 13.8589 7.34937 16.4089C7.34937 16.4089 8.30936 15.5589 8.82936 14.4489C9.34936 13.3489 9.23936 12.3789 9.23936 12.3789Z" fill="#FFFBF4"/>
<path fill-rule="evenodd" clip-rule="evenodd" d="M5.09936 11.5689C5.09936 11.5689 3.91936 12.6189 3.58936 14.4589C3.58936 14.4589 4.34936 13.8589 4.76936 13.0689C5.18936 12.2789 5.09936 11.5689 5.09936 11.5689Z" fill="#FFFBF4"/>
<path fill-rule="evenodd" clip-rule="evenodd" d="M26.4593 84.7189L25.0593 75.6189C25.0593 75.6189 31.9293 73.8689 37.8393 75.5289L36.6693 84.7189C36.6693 84.7189 34.1893 85.2789 31.4493 85.2789C28.1193 85.2789 26.4593 84.7189 26.4593 84.7189Z" fill="url(#paint12_radial_4_2661)"/>
<path style="mix-blend-mode:multiply" opacity="0.39" fill-rule="evenodd" clip-rule="evenodd" d="M25.2793 77.0589C25.2793 77.0589 26.1793 82.6689 27.2393 83.7489C28.2993 84.8389 33.6593 84.7189 35.4093 82.7889C37.1593 80.8589 37.8293 75.5289 37.8293 75.5289L36.6593 84.7189C36.6593 84.7189 30.6593 86.3589 26.4493 84.7189L25.2693 77.0589H25.2793Z" fill="url(#paint13_linear_4_2661)"/>
<path fill-rule="evenodd" clip-rule="evenodd" d="M26.4592 84.7189C26.4592 84.7189 30.3392 83.1989 36.6692 84.7189C36.6692 84.7189 31.4992 86.7489 26.4592 84.7189Z" fill="#79023E"/>
<path fill-rule="evenodd" clip-rule="evenodd" d="M25.5093 65.3489C25.5093 65.3489 30.1793 63.1889 36.6093 65.3489C36.6093 65.3489 30.3493 66.0689 25.5093 65.3489Z" fill="#79023E"/>
<path style="mix-blend-mode:screen" opacity="0.66" fill-rule="evenodd" clip-rule="evenodd" d="M62.3795 23.0589C62.3195 22.5589 62.2395 22.0589 62.1495 21.5689V21.5389C59.7195 8.4289 47.8395 1.1389 34.3995 0.178899C31.0195 -0.201101 28.0795 0.178899 28.0795 0.178899C27.9795 0.178899 27.8795 0.198899 27.7695 0.208899L26.3695 0.318899C26.3695 0.318899 26.2495 0.338899 26.0395 0.388899C11.6595 2.1689 -0.380539 11.3789 0.00946087 27.3689C0.0594609 29.5389 0.349461 31.8389 0.879461 34.2489C4.82946 52.0689 19.3095 61.6289 24.2895 64.4389C24.5295 64.6289 24.7595 64.7989 24.9295 64.9289L26.7395 75.2689C25.6795 75.4489 25.0395 75.6089 25.0395 75.6089L26.4395 84.7089C31.4795 86.7389 36.6495 84.7089 36.6495 84.7089L37.8195 75.5189C37.1895 75.3389 36.5495 75.2089 35.9095 75.1089L37.6795 64.7789C41.9495 62.4689 57.5695 52.8589 61.6995 34.2489C62.6095 30.1689 62.7795 26.4289 62.3595 23.0589H62.3795ZM28.9395 74.9789L28.4095 65.6089C30.8595 65.7289 33.2795 65.6089 34.8495 65.4989L34.1895 74.8989C32.2895 74.7389 30.4595 74.8189 28.9395 74.9789ZM25.2995 65.1989C25.4295 65.2889 25.5095 65.3489 25.5095 65.3489C26.3195 65.4689 27.1795 65.5489 28.0295 65.5989L28.5695 75.0289C28.0195 75.0889 27.5295 75.1589 27.0895 75.2289L25.2995 65.2089V65.1989ZM35.5595 75.0489C35.2295 74.9989 34.8995 74.9589 34.5695 74.9289L35.2395 65.4689C36.0795 65.3989 36.6095 65.3389 36.6095 65.3389C36.6095 65.3389 36.8795 65.2089 37.3395 64.9689L35.5695 75.0389L35.5595 75.0489Z" fill="url(#paint14_linear_4_2661)"/>
<defs>
<linearGradient id="paint0_linear_4_2661" x1="15.6593" y1="65.3489" x2="15.6593" y2="0.0488892" gradientUnits="userSpaceOnUse">
<stop stop-color="#FF8631"/>
<stop offset="1" stop-color="#FFCC1B"/>
</linearGradient>
<linearGradient id="paint1_linear_4_2661" x1="46.9493" y1="-0.00111084" x2="46.9493" y2="-0.00111084" gradientUnits="userSpaceOnUse">
<stop stop-color="#FF8631"/>
<stop offset="1" stop-color="#FFCC1B"/>
</linearGradient>
<linearGradient id="paint2_linear_4_2661" x1="15.8093" y1="65.3489" x2="15.8093" y2="0.318878" gradientUnits="userSpaceOnUse">
<stop stop-color="#AB4AD4"/>
<stop offset="1" stop-color="#FF6FF4"/>
</linearGradient>
<linearGradient id="paint3_linear_4_2661" x1="46.0293" y1="-0.00112182" x2="46.0293" y2="-0.00112182" gradientUnits="userSpaceOnUse">
<stop stop-color="#AB4AD4"/>
<stop offset="1" stop-color="#FF6FF4"/>
</linearGradient>
<linearGradient id="paint4_linear_4_2661" x1="19.9594" y1="65.3489" x2="19.9594" y2="0.148895" gradientUnits="userSpaceOnUse">
<stop stop-color="#FF8631"/>
<stop offset="1" stop-color="#FFCC1B"/>
</linearGradient>
<linearGradient id="paint5_linear_4_2661" x1="42.1193" y1="65.3489" x2="42.1193" y2="0.148895" gradientUnits="userSpaceOnUse">
<stop stop-color="#FF8631"/>
<stop offset="1" stop-color="#FFCC1B"/>
</linearGradient>
<linearGradient id="paint6_linear_4_2661" x1="30.8793" y1="-0.00111111" x2="30.8793" y2="-0.00111111" gradientUnits="userSpaceOnUse">
<stop stop-color="#AB4AD4"/>
<stop offset="1" stop-color="#FF6FF4"/>
</linearGradient>
<linearGradient id="paint7_linear_4_2661" x1="31.3093" y1="65.3489" x2="31.3093" y2="9.36888" gradientUnits="userSpaceOnUse">
<stop stop-color="#9F2F70"/>
<stop offset="1" stop-color="#FFA2A8"/>
</linearGradient>
<linearGradient id="paint8_linear_4_2661" x1="18.7394" y1="34.6589" x2="18.7394" y2="4.04887" gradientUnits="userSpaceOnUse">
<stop/>
<stop offset="1" stop-color="#D99022"/>
</linearGradient>
<linearGradient id="paint9_linear_4_2661" x1="26.3194" y1="31.9589" x2="26.3194" y2="2.20889" gradientUnits="userSpaceOnUse">
<stop/>
<stop offset="1" stop-color="#D99022"/>
</linearGradient>
<linearGradient id="paint10_linear_4_2661" x1="11.4394" y1="31.7589" x2="11.4394" y2="4.04889" gradientUnits="userSpaceOnUse">
<stop/>
<stop offset="1" stop-color="#D99022"/>
</linearGradient>
<linearGradient id="paint11_linear_4_2661" x1="7.64937" y1="28.8189" x2="7.64937" y2="4.04889" gradientUnits="userSpaceOnUse">
<stop/>
<stop offset="1" stop-color="#D99022"/>
</linearGradient>
<radialGradient id="paint12_radial_4_2661" cx="0" cy="0" r="1" gradientUnits="userSpaceOnUse" gradientTransform="translate(28.6093 77.7589) scale(7.49 7.49)">
<stop stop-color="#FF5713"/>
<stop offset="0.99" stop-color="#AE2544"/>
</radialGradient>
<linearGradient id="paint13_linear_4_2661" x1="25.2793" y1="80.4889" x2="37.8293" y2="80.4889" gradientUnits="userSpaceOnUse">
<stop stop-color="#9F2F70"/>
<stop offset="1" stop-color="#FFA2A8"/>
</linearGradient>
<linearGradient id="paint14_linear_4_2661" x1="0.00946087" y1="42.8089" x2="62.5995" y2="42.8089" gradientUnits="userSpaceOnUse">
<stop stop-color="#46BEED"/>
<stop offset="1"/>
</linearGradient>
</defs>
</svg>
