<svg width="153" height="209" viewBox="0 0 153 209" fill="none" xmlns="http://www.w3.org/2000/svg">
<path fill-rule="evenodd" clip-rule="evenodd" d="M65.6735 185.738L60.3035 155.118H61.0435L66.5235 185.858L65.6735 185.738Z" fill="#79023E"/>
<path fill-rule="evenodd" clip-rule="evenodd" d="M86.4934 185.438L91.8134 155.118H92.6134L87.4134 185.558L86.4934 185.438Z" fill="#79023E"/>
<path fill-rule="evenodd" clip-rule="evenodd" d="M83.4236 184.248L85.5536 153.918H86.4936L84.3536 184.358L83.4236 184.248Z" fill="#79023E"/>
<path fill-rule="evenodd" clip-rule="evenodd" d="M69.8335 184.248L68.0935 153.918H69.0235L70.7535 184.358L69.8335 184.248Z" fill="#79023E"/>
<path fill-rule="evenodd" clip-rule="evenodd" d="M64.5734 207.438L61.1934 184.758C61.1934 184.758 77.9834 180.468 92.4134 184.538L89.5634 206.988C89.5634 206.988 83.5134 208.358 76.8034 208.358C68.6634 208.358 64.5734 207.438 64.5734 207.438Z" fill="url(#paint0_radial_4_2692)"/>
<path fill-rule="evenodd" clip-rule="evenodd" d="M64.5734 207.438C64.1534 208.098 72.6134 208.888 78.7934 208.728C85.1734 208.558 89.4234 207.808 89.6134 206.988C89.8034 206.168 82.2434 205.558 77.0934 205.658C71.9434 205.758 65.2634 206.348 64.5734 207.438Z" fill="#79023E"/>
<path fill-rule="evenodd" clip-rule="evenodd" d="M76.4635 0.127777V159.658H63.5135C63.5135 159.658 13.8835 136.518 2.16348 83.6878C0.853478 77.7978 0.153478 72.1878 0.0234778 66.8978V66.8778C-1.06652 23.1078 35.9635 0.127777 76.4635 0.127777Z" fill="url(#paint1_linear_4_2692)"/>
<path fill-rule="evenodd" clip-rule="evenodd" d="M150.773 83.6878C139.033 136.518 89.4034 159.658 89.4034 159.658H76.4634V0.127777C112.313 0.127777 145.423 18.1378 151.803 52.6178L151.823 52.6378V52.7178C152.053 53.9178 152.243 55.1278 152.393 56.3478C153.423 64.5878 152.993 73.7078 150.783 83.6878H150.773Z" fill="url(#paint2_linear_4_2692)"/>
<path fill-rule="evenodd" clip-rule="evenodd" d="M64.4135 0.767776C64.4135 0.767776 13.5535 9.90778 10.5135 65.7978C7.47352 121.688 62.2935 159.658 62.2935 159.658L66.8235 158.608L64.4135 0.767776Z" fill="url(#paint3_radial_4_2692)"/>
<path fill-rule="evenodd" clip-rule="evenodd" d="M86.6534 0.767776C86.6534 0.767776 137.513 9.90778 140.553 65.7978C143.593 121.688 88.7734 159.658 88.7734 159.658L84.2434 158.608L86.6534 0.767776Z" fill="url(#paint4_radial_4_2692)"/>
<path fill-rule="evenodd" clip-rule="evenodd" d="M69.6335 0.357773L64.4235 0.767773C64.4235 0.767773 33.4635 14.5878 28.4335 56.5178C22.5835 105.238 63.5235 159.658 63.5235 159.658H68.5935L69.6335 0.357773Z" fill="url(#paint5_linear_4_2692)"/>
<path fill-rule="evenodd" clip-rule="evenodd" d="M82.0034 0.357773L87.2134 0.767773C87.2134 0.767773 118.173 14.5878 123.203 56.5178C129.053 105.238 88.1134 159.658 88.1134 159.658H83.0434L82.0034 0.357773Z" fill="url(#paint6_linear_4_2692)"/>
<path fill-rule="evenodd" clip-rule="evenodd" d="M68.5836 159.658C68.5836 159.658 33.6936 63.9078 68.5836 0.417778C68.5836 0.417778 75.7736 -0.522222 84.0236 0.417778C84.0236 0.417778 114.994 58.7078 84.0236 159.668H68.5836V159.658Z" fill="url(#paint7_radial_4_2692)"/>
<path style="mix-blend-mode:multiply" opacity="0.39" fill-rule="evenodd" clip-rule="evenodd" d="M150.773 83.6878C139.033 136.518 89.4034 159.658 89.4034 159.658H63.5134C63.5134 159.658 13.8834 136.518 2.16344 83.6878C0.853438 77.7978 0.153437 72.1878 0.0234375 66.8978C0.0834375 67.5878 2.10344 89.5278 11.7834 106.998C21.2834 124.168 44.6934 145.858 46.2834 147.308C44.7934 145.678 22.8534 126.328 12.5434 95.0578C4.35344 70.1978 12.3934 42.6878 18.5034 35.1278C18.0234 36.0278 6.12344 56.9578 12.2434 86.4978C18.5234 116.778 37.6234 134.628 53.0834 145.348C53.0834 145.348 31.5234 111.278 26.7934 79.1478C22.4834 49.8778 36.4634 28.8378 38.6634 25.5278C36.5034 29.0678 23.2534 52.2878 29.3434 83.2678C35.9634 116.938 56.6534 149.988 60.3034 151.208C63.9734 152.438 62.8534 140.618 62.8534 140.618C62.8534 140.618 42.6334 77.1178 58.4334 25.4078C57.5934 28.4078 51.5834 51.7178 56.5934 90.4778C61.9434 131.838 71.3134 148.248 75.4434 149.228C75.4134 149.228 75.4734 149.228 75.4434 149.228C79.5334 150.148 93.0934 121.078 95.7434 87.1178C98.2834 54.5078 92.3634 25.2178 91.8834 22.9078C92.7234 26.1378 106.593 81.3878 89.4934 139.798C89.4934 139.798 89.7634 147.038 93.8034 145.968C97.8434 144.898 121.243 104.348 122.053 73.9578C122.843 44.4878 113.093 25.8778 112.513 24.7778C113.383 25.8578 127.483 44.1378 122.813 80.0078C118.063 116.408 99.0234 143.088 98.4234 143.918C98.8634 143.788 105.983 141.478 114.183 133.118C122.643 124.478 134.113 106.228 138.183 82.4378C141.303 64.1878 138.553 51.1878 137.103 46.1278C139.413 53.7978 145.303 79.2878 132.463 106.998C118.463 137.268 102.443 149.978 99.7134 152.008C103.733 149.218 136.143 125.958 145.513 95.1778C152.183 73.2778 152.753 61.6678 152.393 56.3578C153.423 64.5978 152.993 73.7178 150.783 83.6978L150.773 83.6878Z" fill="url(#paint8_linear_4_2692)"/>
<path style="mix-blend-mode:screen" opacity="0.5" fill-rule="evenodd" clip-rule="evenodd" d="M51.7736 10.5178C51.7736 10.5178 36.9636 25.1378 32.3636 45.5978C27.7636 66.0578 32.6036 84.6078 34.6936 84.6878C36.7836 84.7678 40.3236 71.3578 44.9936 55.8278C51.4936 34.1978 59.9336 15.1678 61.0036 11.8178C62.0736 8.46778 51.7736 10.5178 51.7736 10.5178Z" fill="url(#paint9_linear_4_2692)"/>
<path style="mix-blend-mode:screen" opacity="0.5" fill-rule="evenodd" clip-rule="evenodd" d="M68.8534 5.40778C68.8534 5.40778 61.3434 18.3178 56.3834 43.0778C53.0834 59.5678 58.3534 77.9778 59.0334 78.0778C59.7134 78.1778 71.0834 60.8878 72.9034 41.7178C74.7234 22.5378 68.8534 5.40778 68.8534 5.40778Z" fill="url(#paint10_linear_4_2692)"/>
<path style="mix-blend-mode:screen" opacity="0.5" fill-rule="evenodd" clip-rule="evenodd" d="M44.1234 9.89778C44.1234 9.89778 27.8034 17.1378 18.7234 36.7278C9.64343 56.3078 11.5834 76.1978 12.8034 77.5278C14.0234 78.8578 23.1634 59.2678 27.9334 45.5978C32.6934 31.9278 44.1234 9.89778 44.1234 9.89778Z" fill="url(#paint11_linear_4_2692)"/>
<path style="mix-blend-mode:screen" opacity="0.5" fill-rule="evenodd" clip-rule="evenodd" d="M36.0635 9.89778C36.0635 9.89778 19.0335 15.1978 9.54346 32.8478C0.0534639 50.4878 1.07346 69.2578 1.58346 70.3778C2.09346 71.4978 11.4735 46.0978 14.2335 36.5178C16.9835 26.9278 30.8435 13.2778 36.0635 9.89778Z" fill="url(#paint12_linear_4_2692)"/>
<path fill-rule="evenodd" clip-rule="evenodd" d="M56.4634 46.2178C56.4634 46.2178 55.5334 39.2578 58.3634 34.2978C58.3634 34.2978 57.9234 43.5578 56.4634 46.2178Z" fill="#FFFBF4"/>
<path fill-rule="evenodd" clip-rule="evenodd" d="M38.4335 30.2378C38.4335 30.2378 32.8535 37.2478 32.3035 48.2678C32.3035 48.2678 35.9635 44.1878 37.6635 39.2578C39.3635 34.3278 38.4335 30.2478 38.4335 30.2478V30.2378Z" fill="#FFFBF4"/>
<path fill-rule="evenodd" clip-rule="evenodd" d="M22.5436 30.2378C22.5436 30.2378 18.9336 33.8678 17.9236 40.0878C17.9236 40.0878 20.2636 37.9978 21.5336 35.3078C22.8136 32.6178 22.5436 30.2378 22.5436 30.2378Z" fill="#FFFBF4"/>
<path fill-rule="evenodd" clip-rule="evenodd" d="M12.4534 28.2678C12.4534 28.2678 9.57344 30.8378 8.77344 35.3178C8.77344 35.3178 10.6334 33.8478 11.6534 31.9178C12.6734 29.9878 12.4534 28.2678 12.4534 28.2678Z" fill="#FFFBF4"/>
<path style="mix-blend-mode:multiply" opacity="0.39" fill-rule="evenodd" clip-rule="evenodd" d="M61.7334 188.268C61.7334 188.268 63.9434 201.958 66.5234 204.618C69.1034 207.268 82.2134 206.998 86.4834 202.268C90.7534 197.538 92.4034 184.538 92.4034 184.538L89.5534 206.988C89.5534 206.988 75.6534 209.948 64.5634 207.438L61.7234 188.268H61.7334Z" fill="url(#paint13_linear_4_2692)"/>
<path fill-rule="evenodd" clip-rule="evenodd" d="M66.9634 182.598C66.9634 182.598 64.6734 181.478 64.1434 181.628C63.6134 181.778 60.8634 182.948 60.3134 184.328C59.7634 185.708 61.1034 191.848 61.1034 191.848L62.3134 191.068C62.3134 191.068 66.4834 191.918 70.1534 191.098L71.6634 191.868L70.8334 183.718C70.8334 183.718 71.1234 183.168 71.6634 183.148C71.6634 183.148 71.4234 182.008 71.1034 181.748C70.7834 181.478 68.4334 182.498 66.9634 182.598Z" fill="url(#paint14_linear_4_2692)"/>
<path fill-rule="evenodd" clip-rule="evenodd" d="M81.7434 182.878C81.7434 182.878 83.1134 182.988 83.4234 183.538L82.7234 190.848L83.4034 190.358C83.4034 190.358 87.1434 191.708 89.2434 191.338L89.3734 191.748C89.3734 191.748 91.5934 185.398 91.1934 182.438C90.7934 179.478 85.6334 180.828 85.6334 180.828C85.6334 180.828 85.9134 181.498 84.9034 181.878C83.8934 182.258 83.0834 181.828 83.0834 181.828C83.0834 181.828 82.0634 182.058 81.7534 182.878H81.7434Z" fill="url(#paint15_linear_4_2692)"/>
<defs>
<radialGradient id="paint0_radial_4_2692" cx="0" cy="0" r="1" gradientUnits="userSpaceOnUse" gradientTransform="translate(69.8934 189.988) scale(18.3 18.3)">
<stop stop-color="#FF5713"/>
<stop offset="0.99" stop-color="#AE2544"/>
</radialGradient>
<linearGradient id="paint1_linear_4_2692" x1="38.2335" y1="159.658" x2="38.2335" y2="0.127777" gradientUnits="userSpaceOnUse">
<stop stop-color="#FF8631"/>
<stop offset="1" stop-color="#FFCC1B"/>
</linearGradient>
<linearGradient id="paint2_linear_4_2692" x1="114.693" y1="-0.0022229" x2="114.693" y2="-0.0022229" gradientUnits="userSpaceOnUse">
<stop stop-color="#FF8631"/>
<stop offset="1" stop-color="#FFCC1B"/>
</linearGradient>
<radialGradient id="paint3_radial_4_2692" cx="0" cy="0" r="1" gradientUnits="userSpaceOnUse" gradientTransform="translate(26.0635 41.9578) scale(59.61)">
<stop stop-color="#FF3B3E"/>
<stop offset="0.99" stop-color="#BF0244"/>
</radialGradient>
<radialGradient id="paint4_radial_4_2692" cx="0" cy="0" r="1" gradientUnits="userSpaceOnUse" gradientTransform="translate(121.333 39.5178) rotate(-180) scale(59.61 59.61)">
<stop stop-color="#FF3B3E"/>
<stop offset="0.99" stop-color="#BF0244"/>
</radialGradient>
<linearGradient id="paint5_linear_4_2692" x1="48.7435" y1="159.658" x2="48.7435" y2="0.357773" gradientUnits="userSpaceOnUse">
<stop stop-color="#FF8631"/>
<stop offset="1" stop-color="#FFCC1B"/>
</linearGradient>
<linearGradient id="paint6_linear_4_2692" x1="102.893" y1="159.658" x2="102.893" y2="0.357773" gradientUnits="userSpaceOnUse">
<stop stop-color="#FF8631"/>
<stop offset="1" stop-color="#FFCC1B"/>
</linearGradient>
<radialGradient id="paint7_radial_4_2692" cx="0" cy="0" r="1" gradientUnits="userSpaceOnUse" gradientTransform="translate(78.1936 40.3578) scale(58.62 58.62)">
<stop stop-color="#FF3B3E"/>
<stop offset="0.99" stop-color="#BF0244"/>
</radialGradient>
<linearGradient id="paint8_linear_4_2692" x1="76.4734" y1="159.658" x2="76.4734" y2="22.8978" gradientUnits="userSpaceOnUse">
<stop stop-color="#9F2F70"/>
<stop offset="1" stop-color="#FFA2A8"/>
</linearGradient>
<linearGradient id="paint9_linear_4_2692" x1="45.7636" y1="84.6878" x2="45.7636" y2="9.89778" gradientUnits="userSpaceOnUse">
<stop/>
<stop offset="1" stop-color="#D99022"/>
</linearGradient>
<linearGradient id="paint10_linear_4_2692" x1="64.2734" y1="78.0778" x2="64.2734" y2="5.40778" gradientUnits="userSpaceOnUse">
<stop/>
<stop offset="1" stop-color="#D99022"/>
</linearGradient>
<linearGradient id="paint11_linear_4_2692" x1="27.9334" y1="77.5878" x2="27.9334" y2="9.89778" gradientUnits="userSpaceOnUse">
<stop/>
<stop offset="1" stop-color="#D99022"/>
</linearGradient>
<linearGradient id="paint12_linear_4_2692" x1="18.6735" y1="70.4178" x2="18.6735" y2="9.89778" gradientUnits="userSpaceOnUse">
<stop/>
<stop offset="1" stop-color="#D99022"/>
</linearGradient>
<linearGradient id="paint13_linear_4_2692" x1="61.7334" y1="196.488" x2="92.4134" y2="196.488" gradientUnits="userSpaceOnUse">
<stop stop-color="#9F2F70"/>
<stop offset="1" stop-color="#FFA2A8"/>
</linearGradient>
<linearGradient id="paint14_linear_4_2692" x1="66.6456" y1="192.29" x2="65.6907" y2="181.462" gradientUnits="userSpaceOnUse">
<stop stop-color="#FF98A0"/>
<stop offset="1" stop-color="#FFD790"/>
</linearGradient>
<linearGradient id="paint15_linear_4_2692" x1="84.9869" y1="191.387" x2="87.1431" y2="180.326" gradientUnits="userSpaceOnUse">
<stop stop-color="#FF98A0"/>
<stop offset="1" stop-color="#FFD790"/>
</linearGradient>
</defs>
</svg>
