<svg viewBox="0 0 373 694" fill="none" xmlns="http://www.w3.org/2000/svg" preserveAspectRatio="none">
<path style="mix-blend-mode:multiply" opacity="0.5" fill-rule="evenodd" clip-rule="evenodd" d="M38.7554 118.515L9.16046 0.000731128C9.16046 0.000731128 -5.90826 184.003 -4.95599 408.487C-4.00762 632.97 8.61403 693.928 8.61403 693.928C8.61403 693.928 25.5132 635.204 27.3085 613.76C35.0633 521.024 38.9076 299.137 38.7554 118.515Z" fill="url(#paint0_linear_30_3927)"/>
<path fill-rule="evenodd" clip-rule="evenodd" d="M341.971 631.801C341.741 634.743 339.552 637.084 336.785 637.326C309.769 639.726 252.285 644.046 187.46 644.068L187.046 644.082L186.839 644.082C122.127 644.046 64.9975 639.739 38.1462 637.339C35.3791 637.084 33.1896 634.747 32.9594 631.815C15.0104 399.358 25.5011 188.234 31.2265 104.009C31.9134 93.9493 32.5223 85.7117 33.0179 79.4529C33.2365 76.704 35.1761 74.4611 37.7364 74C115.589 60.1393 179.314 59.7319 186.476 59.7319L188.463 59.7319C195.636 59.7319 259.361 60.1438 337.202 74C339.763 74.4566 341.714 76.6996 341.921 79.4529C342.471 86.4101 343.174 95.843 343.95 107.483L343.95 107.497C349.722 193.951 359.694 402.469 341.975 631.806L341.971 631.801Z" fill="url(#paint1_radial_30_3927)"/>
<g opacity="0.3">
<g style="mix-blend-mode:multiply" opacity="0.64">
<path fill-rule="evenodd" clip-rule="evenodd" d="M54.5814 131.256L32.6282 88.1562L54.5814 45.061L76.5386 88.1562L54.5814 131.256Z" fill="#B5779A"/>
</g>
<g style="mix-blend-mode:multiply" opacity="0.64">
<path fill-rule="evenodd" clip-rule="evenodd" d="M98.4911 131.256L76.5378 88.1562L98.4911 45.061L120.448 88.1562L98.4911 131.256Z" fill="#B5779A"/>
</g>
<g style="mix-blend-mode:multiply" opacity="0.64">
<path fill-rule="evenodd" clip-rule="evenodd" d="M142.402 131.256L120.448 88.1562L142.402 45.061L164.355 88.1562L142.402 131.256Z" fill="#B5779A"/>
</g>
<g style="mix-blend-mode:multiply" opacity="0.64">
<path fill-rule="evenodd" clip-rule="evenodd" d="M186.312 131.256L164.355 88.1562L186.312 45.061L208.266 88.1562L186.312 131.256Z" fill="#B5779A"/>
</g>
<g style="mix-blend-mode:multiply" opacity="0.64">
<path fill-rule="evenodd" clip-rule="evenodd" d="M230.219 131.256L208.265 88.1562L230.219 45.061L252.176 88.1562L230.219 131.256Z" fill="#B5779A"/>
</g>
<g style="mix-blend-mode:multiply" opacity="0.64">
<path fill-rule="evenodd" clip-rule="evenodd" d="M274.129 131.256L252.176 88.1562L274.129 45.061L296.083 88.1562L274.129 131.256Z" fill="#B5779A"/>
</g>
<g style="mix-blend-mode:multiply" opacity="0.64">
<path fill-rule="evenodd" clip-rule="evenodd" d="M318.039 131.256L296.082 88.1562L318.039 45.061L339.993 88.1562L318.039 131.256Z" fill="#B5779A"/>
</g>
<g style="mix-blend-mode:multiply" opacity="0.64">
<path fill-rule="evenodd" clip-rule="evenodd" d="M54.5814 218.194L32.6282 175.099L54.5814 131.999L76.5386 175.099L54.5814 218.194Z" fill="#B5779A"/>
</g>
<g style="mix-blend-mode:multiply" opacity="0.64">
<path fill-rule="evenodd" clip-rule="evenodd" d="M98.4911 218.194L76.5378 175.099L98.4911 131.999L120.448 175.099L98.4911 218.194Z" fill="#B5779A"/>
</g>
<g style="mix-blend-mode:multiply" opacity="0.64">
<path fill-rule="evenodd" clip-rule="evenodd" d="M142.402 218.194L120.448 175.099L142.402 131.999L164.355 175.099L142.402 218.194Z" fill="#B5779A"/>
</g>
<g style="mix-blend-mode:multiply" opacity="0.64">
<path fill-rule="evenodd" clip-rule="evenodd" d="M186.312 218.194L164.355 175.099L186.312 131.999L208.266 175.099L186.312 218.194Z" fill="#B5779A"/>
</g>
<g style="mix-blend-mode:multiply" opacity="0.64">
<path fill-rule="evenodd" clip-rule="evenodd" d="M230.219 218.194L208.265 175.099L230.219 131.999L252.176 175.099L230.219 218.194Z" fill="#B5779A"/>
</g>
<g style="mix-blend-mode:multiply" opacity="0.64">
<path fill-rule="evenodd" clip-rule="evenodd" d="M274.129 218.194L252.176 175.099L274.129 131.999L296.083 175.099L274.129 218.194Z" fill="#B5779A"/>
</g>
<g style="mix-blend-mode:multiply" opacity="0.64">
<path fill-rule="evenodd" clip-rule="evenodd" d="M318.039 218.194L296.082 175.099L318.039 131.999L339.993 175.099L318.039 218.194Z" fill="#B5779A"/>
</g>
<g style="mix-blend-mode:multiply" opacity="0.64">
<path fill-rule="evenodd" clip-rule="evenodd" d="M54.5814 305.136L32.6282 262.037L54.5814 218.941L76.5386 262.037L54.5814 305.136Z" fill="#B5779A"/>
</g>
<g style="mix-blend-mode:multiply" opacity="0.64">
<path fill-rule="evenodd" clip-rule="evenodd" d="M98.4911 305.136L76.5378 262.037L98.4911 218.941L120.448 262.037L98.4911 305.136Z" fill="#B5779A"/>
</g>
<g style="mix-blend-mode:multiply" opacity="0.64">
<path fill-rule="evenodd" clip-rule="evenodd" d="M142.402 305.136L120.448 262.037L142.402 218.941L164.355 262.037L142.402 305.136Z" fill="#B5779A"/>
</g>
<g style="mix-blend-mode:multiply" opacity="0.64">
<path fill-rule="evenodd" clip-rule="evenodd" d="M186.312 305.136L164.355 262.037L186.312 218.941L208.266 262.037L186.312 305.136Z" fill="#B5779A"/>
</g>
<g style="mix-blend-mode:multiply" opacity="0.64">
<path fill-rule="evenodd" clip-rule="evenodd" d="M230.219 305.136L208.265 262.037L230.219 218.941L252.176 262.037L230.219 305.136Z" fill="#B5779A"/>
</g>
<g style="mix-blend-mode:multiply" opacity="0.64">
<path fill-rule="evenodd" clip-rule="evenodd" d="M274.129 305.136L252.176 262.037L274.129 218.941L296.083 262.037L274.129 305.136Z" fill="#B5779A"/>
</g>
<g style="mix-blend-mode:multiply" opacity="0.64">
<path fill-rule="evenodd" clip-rule="evenodd" d="M318.039 305.136L296.082 262.037L318.039 218.941L339.993 262.037L318.039 305.136Z" fill="#B5779A"/>
</g>
<g style="mix-blend-mode:multiply" opacity="0.64">
<path fill-rule="evenodd" clip-rule="evenodd" d="M54.5814 392.074L32.6282 348.979L54.5814 305.88L76.5386 348.979L54.5814 392.074Z" fill="#B5779A"/>
</g>
<g style="mix-blend-mode:multiply" opacity="0.64">
<path fill-rule="evenodd" clip-rule="evenodd" d="M98.4911 392.074L76.5378 348.979L98.4911 305.88L120.448 348.979L98.4911 392.074Z" fill="#B5779A"/>
</g>
<g style="mix-blend-mode:multiply" opacity="0.64">
<path fill-rule="evenodd" clip-rule="evenodd" d="M142.402 392.074L120.448 348.979L142.402 305.88L164.355 348.979L142.402 392.074Z" fill="#B5779A"/>
</g>
<g style="mix-blend-mode:multiply" opacity="0.64">
<path fill-rule="evenodd" clip-rule="evenodd" d="M186.312 392.074L164.355 348.979L186.312 305.88L208.266 348.979L186.312 392.074Z" fill="#B5779A"/>
</g>
<g style="mix-blend-mode:multiply" opacity="0.64">
<path fill-rule="evenodd" clip-rule="evenodd" d="M230.219 392.074L208.265 348.979L230.219 305.88L252.176 348.979L230.219 392.074Z" fill="#B5779A"/>
</g>
<g style="mix-blend-mode:multiply" opacity="0.64">
<path fill-rule="evenodd" clip-rule="evenodd" d="M274.129 392.074L252.176 348.979L274.129 305.88L296.083 348.979L274.129 392.074Z" fill="#B5779A"/>
</g>
<g style="mix-blend-mode:multiply" opacity="0.64">
<path fill-rule="evenodd" clip-rule="evenodd" d="M318.039 392.074L296.082 348.979L318.039 305.88L339.993 348.979L318.039 392.074Z" fill="#B5779A"/>
</g>
<g style="mix-blend-mode:multiply" opacity="0.64">
<path fill-rule="evenodd" clip-rule="evenodd" d="M54.5814 479.017L32.6282 435.917L54.5814 392.822L76.5386 435.917L54.5814 479.017Z" fill="#B5779A"/>
</g>
<g style="mix-blend-mode:multiply" opacity="0.64">
<path fill-rule="evenodd" clip-rule="evenodd" d="M98.4916 479.017L76.5383 435.917L98.4916 392.822L120.449 435.917L98.4916 479.017Z" fill="#B5779A"/>
</g>
<g style="mix-blend-mode:multiply" opacity="0.64">
<path fill-rule="evenodd" clip-rule="evenodd" d="M142.402 479.017L120.448 435.917L142.402 392.822L164.355 435.917L142.402 479.017Z" fill="#B5779A"/>
</g>
<g style="mix-blend-mode:multiply" opacity="0.64">
<path fill-rule="evenodd" clip-rule="evenodd" d="M186.312 479.017L164.355 435.917L186.312 392.822L208.266 435.917L186.312 479.017Z" fill="#B5779A"/>
</g>
<g style="mix-blend-mode:multiply" opacity="0.64">
<path fill-rule="evenodd" clip-rule="evenodd" d="M230.219 479.017L208.265 435.917L230.219 392.822L252.176 435.917L230.219 479.017Z" fill="#B5779A"/>
</g>
<g style="mix-blend-mode:multiply" opacity="0.64">
<path fill-rule="evenodd" clip-rule="evenodd" d="M274.129 479.017L252.176 435.917L274.129 392.822L296.083 435.917L274.129 479.017Z" fill="#B5779A"/>
</g>
<g style="mix-blend-mode:multiply" opacity="0.64">
<path fill-rule="evenodd" clip-rule="evenodd" d="M318.039 479.017L296.082 435.917L318.039 392.822L339.993 435.917L318.039 479.017Z" fill="#B5779A"/>
</g>
<g style="mix-blend-mode:multiply" opacity="0.64">
<path fill-rule="evenodd" clip-rule="evenodd" d="M54.5814 565.954L32.6282 522.859L54.5814 479.76L76.5386 522.859L54.5814 565.954Z" fill="#B5779A"/>
</g>
<g style="mix-blend-mode:multiply" opacity="0.64">
<path fill-rule="evenodd" clip-rule="evenodd" d="M98.4916 565.954L76.5383 522.859L98.4916 479.76L120.449 522.859L98.4916 565.954Z" fill="#B5779A"/>
</g>
<g style="mix-blend-mode:multiply" opacity="0.64">
<path fill-rule="evenodd" clip-rule="evenodd" d="M142.402 565.954L120.448 522.859L142.402 479.76L164.355 522.859L142.402 565.954Z" fill="#B5779A"/>
</g>
<g style="mix-blend-mode:multiply" opacity="0.64">
<path fill-rule="evenodd" clip-rule="evenodd" d="M186.312 565.954L164.355 522.859L186.312 479.76L208.266 522.859L186.312 565.954Z" fill="#B5779A"/>
</g>
<g style="mix-blend-mode:multiply" opacity="0.64">
<path fill-rule="evenodd" clip-rule="evenodd" d="M230.219 565.954L208.265 522.859L230.219 479.76L252.176 522.859L230.219 565.954Z" fill="#B5779A"/>
</g>
<g style="mix-blend-mode:multiply" opacity="0.64">
<path fill-rule="evenodd" clip-rule="evenodd" d="M274.129 565.954L252.176 522.859L274.129 479.76L296.083 522.859L274.129 565.954Z" fill="#B5779A"/>
</g>
<g style="mix-blend-mode:multiply" opacity="0.64">
<path fill-rule="evenodd" clip-rule="evenodd" d="M318.039 565.954L296.082 522.859L318.039 479.76L339.993 522.859L318.039 565.954Z" fill="#B5779A"/>
</g>
<g style="mix-blend-mode:multiply" opacity="0.64">
<path fill-rule="evenodd" clip-rule="evenodd" d="M54.5814 652.897L32.6282 609.798L54.5814 566.702L76.5386 609.798L54.5814 652.897Z" fill="#B5779A"/>
</g>
<g style="mix-blend-mode:multiply" opacity="0.64">
<path fill-rule="evenodd" clip-rule="evenodd" d="M98.4911 652.897L76.5378 609.798L98.4911 566.702L120.448 609.798L98.4911 652.897Z" fill="#B5779A"/>
</g>
<g style="mix-blend-mode:multiply" opacity="0.64">
<path fill-rule="evenodd" clip-rule="evenodd" d="M142.402 652.897L120.448 609.798L142.402 566.702L164.355 609.798L142.402 652.897Z" fill="#B5779A"/>
</g>
<g style="mix-blend-mode:multiply" opacity="0.64">
<path fill-rule="evenodd" clip-rule="evenodd" d="M186.312 652.897L164.355 609.798L186.312 566.702L208.266 609.798L186.312 652.897Z" fill="#B5779A"/>
</g>
<g style="mix-blend-mode:multiply" opacity="0.64">
<path fill-rule="evenodd" clip-rule="evenodd" d="M230.219 652.897L208.265 609.798L230.219 566.702L252.176 609.798L230.219 652.897Z" fill="#B5779A"/>
</g>
<g style="mix-blend-mode:multiply" opacity="0.64">
<path fill-rule="evenodd" clip-rule="evenodd" d="M274.129 652.897L252.176 609.798L274.129 566.702L296.083 609.798L274.129 652.897Z" fill="#B5779A"/>
</g>
<g style="mix-blend-mode:multiply" opacity="0.64">
<path fill-rule="evenodd" clip-rule="evenodd" d="M318.039 652.897L296.082 609.798L318.039 566.702L339.993 609.798L318.039 652.897Z" fill="#B5779A"/>
</g>
</g>
<g style="mix-blend-mode:multiply" opacity="0.64">
<path fill-rule="evenodd" clip-rule="evenodd" d="M341.362 107.483L333.065 82.5287C160.374 54.7985 40.7334 84.521 40.7334 84.521L34.0167 104.882L33.7903 104.014C34.4694 93.9539 35.0665 85.7163 35.5504 79.4575C35.7651 76.7087 37.6736 74.4657 40.1909 74.0046C116.764 60.144 179.439 59.7366 186.484 59.7366L188.435 59.7366C195.491 59.7366 258.166 60.1485 334.728 74.0046C337.245 74.4613 339.165 76.7042 339.368 79.4575C339.91 86.4147 340.597 95.8477 341.366 107.488L341.362 107.483Z" fill="#B5779A"/>
</g>
<path fill-rule="evenodd" clip-rule="evenodd" d="M359.07 60.793C358.641 55.0894 354.906 50.4423 349.996 49.4574C266.07 32.6822 187.472 33.2956 187.472 33.2956C187.472 33.2956 108.877 32.6822 24.9589 49.4574C20.0374 50.4468 16.3141 55.0894 15.8849 60.793C11.9313 112.609 -0.721572 362.799 15.8653 651.33C16.2166 657.454 20.5214 662.28 25.8448 662.822C48.0517 665.101 118.341 670.482 186.874 670.505L187.475 670.505C256.083 670.482 326.794 665.088 349.106 662.822C354.426 662.28 358.66 657.432 359.093 651.33C377.503 392.074 363.016 112.609 359.074 60.793L359.07 60.793ZM334.791 637.326C310.039 639.726 246.857 644.046 187.46 644.068L187.081 644.082L186.894 644.082C127.603 644.046 64.7479 639.739 40.1408 637.339C37.6078 637.084 35.5979 634.747 35.3872 631.815C18.9407 399.358 28.5533 188.234 33.7987 104.009C34.431 93.9493 34.9852 85.7117 35.4379 79.4529C35.6369 76.7041 37.4127 74.4611 39.7583 74C111.09 60.1394 179.99 59.732 186.551 59.732L188.369 59.732C194.942 59.732 263.842 60.1438 335.161 74C337.507 74.4567 339.294 76.6996 339.482 79.4529C339.985 86.4101 340.629 95.8431 341.343 107.483L341.343 107.497C346.632 193.951 355.768 402.469 339.536 631.806C339.326 634.747 337.32 637.089 334.783 637.33L334.791 637.326Z" fill="url(#paint2_linear_30_3927)"/>
<path fill-rule="evenodd" clip-rule="evenodd" d="M345.211 71.4306C345 68.6101 343.15 66.291 340.711 65.821C266.499 51.5529 195.242 51.1321 188.408 51.1321L186.527 51.1321C179.693 51.1321 108.436 51.5529 34.2359 65.821C31.7967 66.291 29.935 68.6056 29.736 71.4306C25.3414 131.869 20.1429 373.007 29.6852 640.053C29.7945 643.088 31.9879 645.479 34.6262 645.747C60.2168 648.219 314.566 648.21 340.317 645.734C342.955 645.479 345.133 643.075 345.27 640.039C355.87 405.76 349.614 131.856 345.219 71.4306L345.211 71.4306ZM339.544 631.802C339.334 634.743 337.327 637.085 334.791 637.326L40.1408 637.34C37.6079 637.085 35.598 634.748 35.3872 631.815C35.3872 631.815 34.9892 85.712 35.438 79.4533C35.637 76.7044 37.4128 74.4615 39.7584 74.0003C111.09 60.1397 179.99 59.7323 186.551 59.7323L188.369 59.7323C194.942 59.7323 263.842 60.1442 335.161 74.0004C337.507 74.457 339.295 76.7 339.482 79.4533C339.985 86.4105 339.533 631.802 339.533 631.802L339.544 631.802Z" fill="url(#paint3_linear_30_3927)"/>
<g style="mix-blend-mode:multiply">
<path fill-rule="evenodd" clip-rule="evenodd" d="M34.2317 65.8206L39.7698 74C39.7698 74 201.607 44.188 335.173 74L340.711 65.8207C340.711 65.8207 197.482 33.2553 34.2356 65.8206L34.2317 65.8206Z" fill="#DEAFC5"/>
</g>
<g style="mix-blend-mode:soft-light">
<path fill-rule="evenodd" clip-rule="evenodd" d="M176.95 33.4299L145.747 52.7435C145.747 52.7435 263.881 51.1318 304.185 58.7695L311.261 42.6883C311.261 42.6883 230.672 32.0242 176.95 33.4299Z" fill="white"/>
</g>
<g style="mix-blend-mode:soft-light">
<path fill-rule="evenodd" clip-rule="evenodd" d="M25.439 197.349L9.27354 212.468C9.27354 212.468 7.05675 375.017 8.61787 435.917L24.6584 412.072C24.6584 412.072 23.1324 273.609 25.4351 197.349L25.439 197.349Z" fill="white"/>
</g>
<g style="mix-blend-mode:soft-light">
<path fill-rule="evenodd" clip-rule="evenodd" d="M114.032 645.694L121.229 637.362L246.634 637.362L256.484 645.886C256.484 645.886 170.912 649.598 114.032 645.689L114.032 645.694Z" fill="white"/>
</g>
<path fill-rule="evenodd" clip-rule="evenodd" d="M347.787 550.5C347.787 550.5 346.417 520.214 349.828 499.118C349.828 499.118 350.749 528.903 347.787 550.5Z" fill="#FFE988"/>
<path fill-rule="evenodd" clip-rule="evenodd" d="M43.7664 646.589C43.7664 646.589 94.9165 649.096 177.789 649.338C240.745 649.521 340.313 645.729 340.313 645.729C340.313 645.729 167.274 649.338 43.7703 646.589L43.7664 646.589Z" fill="#FFE988"/>
<path fill-rule="evenodd" clip-rule="evenodd" d="M24.7798 243.927C24.7798 243.927 18.707 296.111 24.3114 341.727C24.3114 341.727 23.8158 273.587 24.7798 243.927Z" fill="#FFE988"/>
<path fill-rule="evenodd" clip-rule="evenodd" d="M342.689 60.4215C342.689 63.251 340.687 65.5476 338.22 65.5476C335.754 65.5476 333.752 63.251 333.752 60.4215C333.752 57.5921 335.754 55.2954 338.22 55.2954C340.687 55.2954 342.689 57.5921 342.689 60.4215Z" fill="#FFE988"/>
<path d="M333.576 59.7321C333.576 62.6745 335.655 65.0597 338.22 65.0597C340.785 65.0597 342.864 62.6745 342.864 59.7321C342.864 56.7898 340.785 54.4045 338.22 54.4045C335.655 54.4045 333.576 56.7898 333.576 59.7321Z" fill="url(#paint4_linear_30_3927)"/>
<path d="M333.798 59.7322C333.798 62.2294 335.563 64.2539 337.74 64.2539C339.917 64.2539 341.682 62.2294 341.682 59.7322C341.682 57.2349 339.917 55.2104 337.74 55.2104C335.563 55.2104 333.798 57.2349 333.798 59.7322Z" fill="white"/>
<path style="mix-blend-mode:screen" d="M335.696 70.0132C340.646 71.6146 345.79 68.3098 347.186 62.6318C348.582 56.9538 345.701 51.0527 340.751 49.4513C335.801 47.8499 330.657 51.1547 329.261 56.8327C327.865 62.5107 330.746 68.4118 335.696 70.0132Z" fill="url(#paint5_radial_30_3927)"/>
<path fill-rule="evenodd" clip-rule="evenodd" d="M32.2491 59.4589C32.2491 62.2883 34.2512 64.585 36.7178 64.585C39.1844 64.585 41.1865 62.2883 41.1865 59.4589C41.1865 56.6294 39.1844 54.3328 36.7178 54.3328C34.2512 54.3328 32.2491 56.6294 32.2491 59.4589Z" fill="#FFE988"/>
<path fill-rule="evenodd" clip-rule="evenodd" d="M32.0732 58.7695C32.0732 61.7108 34.1533 64.097 36.7175 64.097C39.2816 64.097 41.3618 61.7108 41.3618 58.7695C41.3618 55.8281 39.2816 53.4419 36.7175 53.4419C34.1533 53.4419 32.0732 55.8281 32.0732 58.7695Z" fill="url(#paint6_linear_30_3927)"/>
<path fill-rule="evenodd" clip-rule="evenodd" d="M33.256 58.7695C33.256 61.2677 35.02 63.2912 37.1978 63.2912C39.3756 63.2912 41.1396 61.2677 41.1396 58.7695C41.1396 56.2714 39.3756 54.2478 37.1978 54.2478C35.02 54.2478 33.256 56.2714 33.256 58.7695Z" fill="white"/>
<path style="mix-blend-mode:screen" d="M27.6652 61.2501C28.851 66.9906 33.869 70.5416 38.8734 69.1814C43.8778 67.8213 46.9734 62.065 45.7876 56.3244C44.6019 50.5838 39.5838 47.0328 34.5794 48.393C29.5751 49.7532 26.4795 55.5095 27.6652 61.2501Z" fill="url(#paint7_radial_30_3927)"/>
<path d="M31.6959 651.728C31.6959 654.559 33.6966 656.854 36.1646 656.854C38.6326 656.854 40.6333 654.559 40.6333 651.728C40.6333 648.897 38.6326 646.602 36.1646 646.602C33.6966 646.602 31.6959 648.897 31.6959 651.728Z" fill="#FFE988"/>
<path fill-rule="evenodd" clip-rule="evenodd" d="M31.5243 651.039C31.5243 653.98 33.6045 656.367 36.1687 656.367C38.7328 656.367 40.813 653.98 40.813 651.039C40.813 648.098 38.7328 645.711 36.1687 645.711C33.6045 645.711 31.5243 648.098 31.5243 651.039Z" fill="url(#paint8_linear_30_3927)"/>
<path fill-rule="evenodd" clip-rule="evenodd" d="M32.7072 651.039C32.7072 653.537 34.4712 655.561 36.649 655.561C38.8268 655.561 40.5908 653.537 40.5908 651.039C40.5908 648.541 38.8268 646.517 36.649 646.517C34.4712 646.517 32.7072 648.541 32.7072 651.039Z" fill="white"/>
<path style="mix-blend-mode:screen" d="M32.589 660.898C37.3367 663.166 42.7883 660.59 44.7656 655.144C46.7428 649.698 44.4969 643.444 39.7492 641.176C35.0016 638.908 29.55 641.484 27.5727 646.93C25.5955 652.376 27.8414 658.63 32.589 660.898Z" fill="url(#paint9_radial_30_3927)"/>
<path fill-rule="evenodd" clip-rule="evenodd" d="M342.688 651.729C342.688 654.558 340.686 656.855 338.22 656.855C335.753 656.855 333.751 654.558 333.751 651.729C333.751 648.899 335.753 646.603 338.22 646.603C340.686 646.603 342.688 648.899 342.688 651.729Z" fill="#FFE988"/>
<path fill-rule="evenodd" clip-rule="evenodd" d="M342.864 651.039C342.864 653.981 340.784 656.367 338.22 656.367C335.656 656.367 333.576 653.981 333.576 651.039C333.576 648.098 335.656 645.712 338.22 645.712C340.784 645.712 342.864 648.098 342.864 651.039Z" fill="url(#paint10_linear_30_3927)"/>
<path fill-rule="evenodd" clip-rule="evenodd" d="M341.682 651.039C341.682 653.537 339.918 655.561 337.74 655.561C335.562 655.561 333.798 653.537 333.798 651.039C333.798 648.541 335.562 646.517 337.74 646.517C339.918 646.517 341.682 648.541 341.682 651.039Z" fill="white"/>
<path style="mix-blend-mode:screen" d="M335.696 661.322C340.646 662.923 345.79 659.618 347.186 653.94C348.582 648.262 345.701 642.361 340.752 640.76C335.802 639.158 330.657 642.463 329.261 648.141C327.865 653.819 330.746 659.72 335.696 661.322Z" fill="url(#paint11_radial_30_3927)"/>
<path fill-rule="evenodd" clip-rule="evenodd" d="M365.763 354.997C365.763 357.826 363.761 360.123 361.294 360.123C358.828 360.123 356.826 357.826 356.826 354.997C356.826 352.167 358.828 349.871 361.294 349.871C363.761 349.871 365.763 352.167 365.763 354.997Z" fill="#FFE988"/>
<path d="M356.65 354.307C356.65 357.25 358.73 359.635 361.295 359.635C363.86 359.635 365.939 357.25 365.939 354.307C365.939 351.365 363.86 348.98 361.295 348.98C358.73 348.98 356.65 351.365 356.65 354.307Z" fill="url(#paint12_linear_30_3927)"/>
<path fill-rule="evenodd" clip-rule="evenodd" d="M364.756 354.307C364.756 356.805 362.992 358.829 360.815 358.829C358.637 358.829 356.873 356.805 356.873 354.307C356.873 351.809 358.637 349.785 360.815 349.785C362.992 349.785 364.756 351.809 364.756 354.307Z" fill="white"/>
<path style="mix-blend-mode:screen" d="M351.982 354.307C351.982 360.207 356.151 364.989 361.294 364.989C366.437 364.989 370.606 360.207 370.606 354.307C370.606 348.408 366.437 343.625 361.294 343.625C356.151 343.625 351.982 348.408 351.982 354.307Z" fill="url(#paint13_radial_30_3927)"/>
<path fill-rule="evenodd" clip-rule="evenodd" d="M362.258 202.475C362.258 205.305 360.256 207.601 357.789 207.601C355.323 207.601 353.32 205.305 353.32 202.475C353.32 199.646 355.323 197.349 357.789 197.349C360.256 197.349 362.258 199.646 362.258 202.475Z" fill="#FFE988"/>
<path d="M353.145 201.786C353.145 204.728 355.224 207.113 357.789 207.113C360.354 207.113 362.434 204.728 362.434 201.786C362.434 198.843 360.354 196.458 357.789 196.458C355.224 196.458 353.145 198.843 353.145 201.786Z" fill="url(#paint14_linear_30_3927)"/>
<path d="M353.368 201.786C353.368 204.283 355.133 206.308 357.31 206.308C359.487 206.308 361.251 204.283 361.251 201.786C361.251 199.289 359.487 197.264 357.31 197.264C355.133 197.264 353.368 199.289 353.368 201.786Z" fill="white"/>
<path style="mix-blend-mode:screen" d="M348.477 201.786C348.477 207.685 352.647 212.468 357.789 212.468C362.932 212.468 367.102 207.685 367.102 201.786C367.102 195.886 362.932 191.104 357.789 191.104C352.647 191.104 348.477 195.886 348.477 201.786Z" fill="url(#paint15_radial_30_3927)"/>
<path fill-rule="evenodd" clip-rule="evenodd" d="M359.585 126.219C359.585 129.049 357.583 131.345 355.116 131.345C352.65 131.345 350.648 129.049 350.648 126.219C350.648 123.39 352.65 121.093 355.116 121.093C357.583 121.093 359.585 123.39 359.585 126.219Z" fill="#FFE988"/>
<path fill-rule="evenodd" clip-rule="evenodd" d="M359.76 125.525C359.76 128.467 357.68 130.853 355.116 130.853C352.552 130.853 350.472 128.467 350.472 125.525C350.472 122.584 352.552 120.198 355.116 120.198C357.68 120.198 359.76 122.584 359.76 125.525Z" fill="url(#paint16_linear_30_3927)"/>
<path d="M350.694 125.525C350.694 128.023 352.459 130.047 354.636 130.047C356.813 130.047 358.578 128.023 358.578 125.525C358.578 123.028 356.813 121.004 354.636 121.004C352.459 121.004 350.694 123.028 350.694 125.525Z" fill="white"/>
<path style="mix-blend-mode:screen" fill-rule="evenodd" clip-rule="evenodd" d="M364.429 125.526C364.429 131.426 360.261 136.208 355.117 136.208C349.973 136.208 345.805 131.426 345.805 125.526C345.805 119.625 349.973 114.844 355.117 114.844C360.261 114.844 364.429 119.625 364.429 125.526Z" fill="url(#paint17_radial_30_3927)"/>
<path fill-rule="evenodd" clip-rule="evenodd" d="M365.501 278.736C365.501 281.565 363.499 283.862 361.033 283.862C358.566 283.862 356.564 281.565 356.564 278.736C356.564 275.906 358.566 273.61 361.033 273.61C363.499 273.61 365.501 275.906 365.501 278.736Z" fill="#FFE988"/>
<path fill-rule="evenodd" clip-rule="evenodd" d="M365.677 278.046C365.677 280.988 363.597 283.374 361.033 283.374C358.469 283.374 356.389 280.988 356.389 278.046C356.389 275.105 358.469 272.719 361.033 272.719C363.597 272.719 365.677 275.105 365.677 278.046Z" fill="url(#paint18_linear_30_3927)"/>
<path fill-rule="evenodd" clip-rule="evenodd" d="M364.495 278.046C364.495 280.545 362.731 282.568 360.553 282.568C358.376 282.568 356.611 280.545 356.611 278.046C356.611 275.548 358.376 273.525 360.553 273.525C362.731 273.525 364.495 275.548 364.495 278.046Z" fill="white"/>
<path style="mix-blend-mode:screen" d="M358.898 288.449C363.904 289.8 368.917 286.24 370.095 280.497C371.273 274.754 368.169 269.004 363.163 267.653C358.157 266.301 353.144 269.861 351.966 275.604C350.788 281.347 353.891 287.098 358.898 288.449Z" fill="url(#paint19_radial_30_3927)"/>
<path fill-rule="evenodd" clip-rule="evenodd" d="M363.273 507.513C363.273 510.342 361.271 512.639 358.804 512.639C356.338 512.639 354.336 510.342 354.336 507.513C354.336 504.683 356.338 502.386 358.804 502.386C361.271 502.386 363.273 504.683 363.273 507.513Z" fill="#FFE988"/>
<path fill-rule="evenodd" clip-rule="evenodd" d="M363.449 506.823C363.449 509.765 361.369 512.151 358.804 512.151C356.24 512.151 354.16 509.765 354.16 506.823C354.16 503.882 356.24 501.496 358.804 501.496C361.369 501.496 363.449 503.882 363.449 506.823Z" fill="url(#paint20_linear_30_3927)"/>
<path fill-rule="evenodd" clip-rule="evenodd" d="M362.262 506.823C362.262 509.322 360.498 511.345 358.32 511.345C356.143 511.345 354.379 509.322 354.379 506.823C354.379 504.325 356.143 502.302 358.32 502.302C360.498 502.302 362.262 504.325 362.262 506.823Z" fill="white"/>
<path style="mix-blend-mode:screen" d="M350.207 510.929C352.184 516.375 357.635 518.952 362.383 516.684C367.131 514.415 369.377 508.162 367.399 502.716C365.422 497.27 359.971 494.693 355.223 496.962C350.475 499.23 348.229 505.483 350.207 510.929Z" fill="url(#paint21_radial_30_3927)"/>
<path fill-rule="evenodd" clip-rule="evenodd" d="M359.991 582.78C359.991 585.61 357.989 587.907 355.522 587.907C353.055 587.907 351.053 585.61 351.053 582.78C351.053 579.951 353.055 577.654 355.522 577.654C357.989 577.654 359.991 579.951 359.991 582.78Z" fill="#FFE988"/>
<path d="M350.878 582.09C350.878 585.033 352.957 587.418 355.522 587.418C358.087 587.418 360.167 585.033 360.167 582.09C360.167 579.148 358.087 576.763 355.522 576.763C352.957 576.763 350.878 579.148 350.878 582.09Z" fill="url(#paint22_linear_30_3927)"/>
<path fill-rule="evenodd" clip-rule="evenodd" d="M358.984 582.091C358.984 584.589 357.22 586.612 355.043 586.612C352.865 586.612 351.101 584.589 351.101 582.091C351.101 579.592 352.865 577.569 355.043 577.569C357.22 577.569 358.984 579.592 358.984 582.091Z" fill="white"/>
<path style="mix-blend-mode:screen" d="M346.21 582.09C346.21 587.99 350.379 592.772 355.522 592.772C360.665 592.772 364.834 587.99 364.834 582.09C364.834 576.191 360.665 571.408 355.522 571.408C350.379 571.408 346.21 576.191 346.21 582.09Z" fill="url(#paint23_radial_30_3927)"/>
<path fill-rule="evenodd" clip-rule="evenodd" d="M365.018 431.253C365.018 434.082 363.015 436.379 360.549 436.379C358.082 436.379 356.08 434.082 356.08 431.253C356.08 428.423 358.082 426.126 360.549 426.126C363.015 426.126 365.018 428.423 365.018 431.253Z" fill="#FFE988"/>
<path d="M355.904 430.563C355.904 433.505 357.984 435.891 360.549 435.891C363.114 435.891 365.193 433.505 365.193 430.563C365.193 427.621 363.114 425.236 360.549 425.236C357.984 425.236 355.904 427.621 355.904 430.563Z" fill="url(#paint24_linear_30_3927)"/>
<path d="M356.128 430.563C356.128 433.06 357.892 435.085 360.069 435.085C362.246 435.085 364.011 433.06 364.011 430.563C364.011 428.066 362.246 426.042 360.069 426.042C357.892 426.042 356.128 428.066 356.128 430.563Z" fill="white"/>
<path style="mix-blend-mode:screen" d="M351.237 430.563C351.237 436.463 355.406 441.245 360.549 441.245C365.692 441.245 369.861 436.463 369.861 430.563C369.861 424.664 365.692 419.881 360.549 419.881C355.406 419.881 351.237 424.664 351.237 430.563Z" fill="url(#paint25_radial_30_3927)"/>
<path fill-rule="evenodd" clip-rule="evenodd" d="M9.3126 354.997C9.3126 357.826 11.3147 360.123 13.7813 360.123C16.2479 360.123 18.25 357.826 18.25 354.997C18.25 352.167 16.2479 349.871 13.7813 349.871C11.3147 349.871 9.3126 352.167 9.3126 354.997Z" fill="#FFE988"/>
<path fill-rule="evenodd" clip-rule="evenodd" d="M9.13712 354.307C9.13712 357.249 11.2173 359.635 13.7814 359.635C16.3456 359.635 18.4258 357.249 18.4258 354.307C18.4258 351.366 16.3456 348.98 13.7814 348.98C11.2173 348.98 9.13712 351.366 9.13712 354.307Z" fill="url(#paint26_linear_30_3927)"/>
<path d="M10.3234 354.307C10.3234 356.804 12.0882 358.829 14.2652 358.829C16.4422 358.829 18.207 356.804 18.207 354.307C18.207 351.81 16.4422 349.785 14.2652 349.785C12.0882 349.785 10.3234 351.81 10.3234 354.307Z" fill="white"/>
<path style="mix-blend-mode:screen" d="M4.46908 354.307C4.46908 360.207 8.63824 364.989 13.7812 364.989C18.9241 364.989 23.0933 360.207 23.0933 354.307C23.0933 348.408 18.9241 343.625 13.7812 343.625C8.63824 343.625 4.46908 348.408 4.46908 354.307Z" fill="url(#paint27_radial_30_3927)"/>
<path fill-rule="evenodd" clip-rule="evenodd" d="M12.6221 202.475C12.6221 205.305 14.6243 207.601 17.0909 207.601C19.5574 207.601 21.5596 205.305 21.5596 202.475C21.5596 199.646 19.5574 197.349 17.0909 197.349C14.6243 197.349 12.6221 199.646 12.6221 202.475Z" fill="#FFE988"/>
<path d="M12.4462 201.786C12.4462 204.728 14.5255 207.113 17.0905 207.113C19.6555 207.113 21.7349 204.728 21.7349 201.786C21.7349 198.843 19.6555 196.458 17.0905 196.458C14.5255 196.458 12.4462 198.843 12.4462 201.786Z" fill="url(#paint28_linear_30_3927)"/>
<path d="M13.6285 201.786C13.6285 204.283 15.3934 206.308 17.5704 206.308C19.7474 206.308 21.5122 204.283 21.5122 201.786C21.5122 199.289 19.7474 197.264 17.5704 197.264C15.3934 197.264 13.6285 199.289 13.6285 201.786Z" fill="white"/>
<path style="mix-blend-mode:screen" fill-rule="evenodd" clip-rule="evenodd" d="M7.77867 201.786C7.77867 207.686 11.9469 212.468 17.0908 212.468C22.2346 212.468 26.4028 207.686 26.4028 201.786C26.4028 195.885 22.2346 191.104 17.0908 191.104C11.9469 191.104 7.77867 195.885 7.77867 201.786Z" fill="url(#paint29_radial_30_3927)"/>
<path fill-rule="evenodd" clip-rule="evenodd" d="M15.4903 126.219C15.4903 129.049 17.4925 131.345 19.959 131.345C22.4256 131.345 24.4277 129.049 24.4277 126.219C24.4277 123.39 22.4256 121.093 19.959 121.093C17.4925 121.093 15.4903 123.39 15.4903 126.219Z" fill="#FFE988"/>
<path d="M15.3149 125.525C15.3149 128.468 17.3942 130.853 19.9592 130.853C22.5242 130.853 24.6035 128.468 24.6035 125.525C24.6035 122.583 22.5242 120.198 19.9592 120.198C17.3942 120.198 15.3149 122.583 15.3149 125.525Z" fill="url(#paint30_linear_30_3927)"/>
<path d="M16.5011 125.525C16.5011 128.023 18.2659 130.047 20.4429 130.047C22.6199 130.047 24.3848 128.023 24.3848 125.525C24.3848 123.028 22.6199 121.004 20.4429 121.004C18.2659 121.004 16.5011 123.028 16.5011 125.525Z" fill="white"/>
<path style="mix-blend-mode:screen" d="M10.6468 125.526C10.6468 131.425 14.816 136.208 19.9589 136.208C25.1018 136.208 29.271 131.425 29.271 125.526C29.271 119.626 25.1018 114.844 19.9589 114.844C14.816 114.844 10.6468 119.626 10.6468 125.526Z" fill="url(#paint31_radial_30_3927)"/>
<path fill-rule="evenodd" clip-rule="evenodd" d="M9.57676 278.736C9.57676 281.565 11.5789 283.862 14.0455 283.862C16.512 283.862 18.5142 281.565 18.5142 278.736C18.5142 275.907 16.512 273.61 14.0455 273.61C11.5789 273.61 9.57676 275.907 9.57676 278.736Z" fill="#FFE988"/>
<path fill-rule="evenodd" clip-rule="evenodd" d="M9.40128 278.047C9.40128 280.988 11.4815 283.374 14.0456 283.374C16.6098 283.374 18.6899 280.988 18.6899 278.047C18.6899 275.105 16.6098 272.719 14.0456 272.719C11.4815 272.719 9.40128 275.105 9.40128 278.047Z" fill="url(#paint32_linear_30_3927)"/>
<path fill-rule="evenodd" clip-rule="evenodd" d="M10.5846 278.047C10.5846 280.545 12.3487 282.568 14.5264 282.568C16.7042 282.568 18.4683 280.545 18.4683 278.047C18.4683 275.548 16.7042 273.525 14.5264 273.525C12.3487 273.525 10.5846 275.548 10.5846 278.047Z" fill="white"/>
<path style="mix-blend-mode:screen" d="M7.46271 285.599C11.0993 289.771 16.9954 289.771 20.632 285.599C24.2686 281.428 24.2686 274.664 20.632 270.493C16.9954 266.321 11.0993 266.321 7.46273 270.493C3.82613 274.664 3.82611 281.428 7.46271 285.599Z" fill="url(#paint33_radial_30_3927)"/>
<path fill-rule="evenodd" clip-rule="evenodd" d="M11.8062 507.513C11.8062 510.342 13.8084 512.639 16.2749 512.639C18.7415 512.639 20.7437 510.342 20.7437 507.513C20.7437 504.683 18.7415 502.387 16.2749 502.387C13.8084 502.387 11.8062 504.683 11.8062 507.513Z" fill="#FFE988"/>
<path fill-rule="evenodd" clip-rule="evenodd" d="M11.6308 506.824C11.6308 509.765 13.7109 512.151 16.2751 512.151C18.8392 512.151 20.9194 509.765 20.9194 506.824C20.9194 503.882 18.8392 501.496 16.2751 501.496C13.7109 501.496 11.6308 503.882 11.6308 506.824Z" fill="url(#paint34_linear_30_3927)"/>
<path fill-rule="evenodd" clip-rule="evenodd" d="M12.8136 506.824C12.8136 509.322 14.5777 511.345 16.7554 511.345C18.9332 511.345 20.6973 509.322 20.6973 506.824C20.6973 504.326 18.9332 502.302 16.7554 502.302C14.5777 502.302 12.8136 504.326 12.8136 506.824Z" fill="white"/>
<path style="mix-blend-mode:screen" d="M12.6989 516.682C17.4466 518.95 22.8982 516.374 24.8754 510.928C26.8526 505.482 24.6067 499.228 19.8591 496.96C15.1114 494.692 9.65984 497.268 7.68261 502.714C5.70538 508.16 7.95125 514.414 12.6989 516.682Z" fill="url(#paint35_radial_30_3927)"/>
<path fill-rule="evenodd" clip-rule="evenodd" d="M15.0885 582.78C15.0885 585.61 17.0906 587.907 19.5572 587.907C22.0238 587.907 24.0259 585.61 24.0259 582.78C24.0259 579.951 22.0238 577.654 19.5572 577.654C17.0906 577.654 15.0885 579.951 15.0885 582.78Z" fill="#FFE988"/>
<path fill-rule="evenodd" clip-rule="evenodd" d="M14.913 582.09C14.913 585.032 16.9932 587.418 19.5573 587.418C22.1215 587.418 24.2017 585.032 24.2017 582.09C24.2017 579.149 22.1215 576.763 19.5573 576.763C16.9932 576.763 14.913 579.149 14.913 582.09Z" fill="url(#paint36_linear_30_3927)"/>
<path d="M16.0954 582.091C16.0954 584.588 17.8602 586.612 20.0372 586.612C22.2142 586.612 23.979 584.588 23.979 582.091C23.979 579.593 22.2142 577.569 20.0372 577.569C17.8602 577.569 16.0954 579.593 16.0954 582.091Z" fill="white"/>
<path style="mix-blend-mode:screen" d="M10.2454 582.09C10.2454 587.99 14.4146 592.773 19.5575 592.773C24.7005 592.773 28.8696 587.99 28.8696 582.09C28.8696 576.191 24.7005 571.408 19.5576 571.408C14.4146 571.408 10.2454 576.191 10.2454 582.09Z" fill="url(#paint37_radial_30_3927)"/>
<path fill-rule="evenodd" clip-rule="evenodd" d="M10.0572 431.253C10.0572 434.082 12.0593 436.379 14.5259 436.379C16.9925 436.379 18.9946 434.082 18.9946 431.253C18.9946 428.423 16.9925 426.126 14.5259 426.126C12.0593 426.126 10.0572 428.423 10.0572 431.253Z" fill="#FFE988"/>
<path d="M9.88221 430.563C9.88221 433.505 11.9616 435.891 14.5266 435.891C17.0915 435.891 19.1709 433.505 19.1709 430.563C19.1709 427.621 17.0915 425.236 14.5266 425.236C11.9616 425.236 9.88221 427.621 9.88221 430.563Z" fill="url(#paint38_linear_30_3927)"/>
<path fill-rule="evenodd" clip-rule="evenodd" d="M11.0646 430.563C11.0646 433.061 12.8286 435.085 15.0064 435.085C17.1842 435.085 18.9482 433.061 18.9482 430.563C18.9482 428.065 17.1842 426.042 15.0064 426.042C12.8286 426.042 11.0646 428.065 11.0646 430.563Z" fill="white"/>
<path style="mix-blend-mode:screen" d="M5.21422 430.563C5.21422 436.463 9.38337 441.245 14.5263 441.245C19.6692 441.245 23.8384 436.463 23.8384 430.563C23.8384 424.664 19.6692 419.881 14.5263 419.881C9.38338 419.881 5.21422 424.664 5.21422 430.563Z" fill="url(#paint39_radial_30_3927)"/>
<path fill-rule="evenodd" clip-rule="evenodd" d="M179.631 660.709C179.631 663.539 181.633 665.835 184.1 665.835C186.566 665.835 188.568 663.539 188.568 660.709C188.568 657.88 186.566 655.583 184.1 655.583C181.633 655.583 179.631 657.88 179.631 660.709Z" fill="#FFE988"/>
<path d="M179.455 660.02C179.455 662.962 181.534 665.348 184.099 665.348C186.664 665.348 188.744 662.962 188.744 660.02C188.744 657.078 186.664 654.692 184.099 654.692C181.534 654.692 179.455 657.078 179.455 660.02Z" fill="url(#paint40_linear_30_3927)"/>
<path fill-rule="evenodd" clip-rule="evenodd" d="M180.638 660.02C180.638 662.518 182.402 664.542 184.58 664.542C186.758 664.542 188.522 662.518 188.522 660.02C188.522 657.522 186.758 655.498 184.58 655.498C182.402 655.498 180.638 657.522 180.638 660.02Z" fill="white"/>
<path style="mix-blend-mode:screen" d="M174.974 661.83C175.842 667.645 180.654 671.553 185.724 670.558C190.793 669.563 194.199 664.042 193.332 658.227C192.464 652.412 187.652 648.505 182.583 649.5C177.513 650.495 174.107 656.015 174.974 661.83Z" fill="url(#paint41_radial_30_3927)"/>
<path d="M180.056 40.338C180.056 43.1691 182.056 45.4641 184.524 45.4641C186.992 45.4641 188.993 43.1691 188.993 40.338C188.993 37.507 186.992 35.2119 184.524 35.2119C182.056 35.2119 180.056 37.507 180.056 40.338Z" fill="#FFE988"/>
<path d="M179.454 40.8261C179.454 43.7684 181.533 46.1537 184.098 46.1537C186.663 46.1537 188.743 43.7684 188.743 40.8261C188.743 37.8838 186.663 35.4985 184.098 35.4985C181.533 35.4985 179.454 37.8838 179.454 40.8261Z" fill="url(#paint42_linear_30_3927)"/>
<path fill-rule="evenodd" clip-rule="evenodd" d="M181.651 38.0192C183.193 36.2508 185.687 36.2508 187.229 38.0192C188.77 39.7876 188.77 42.6483 187.229 44.4167C185.687 46.1851 183.193 46.1851 181.651 44.4167C180.11 42.6483 180.11 39.7876 181.651 38.0192Z" fill="white"/>
<path style="mix-blend-mode:screen" fill-rule="evenodd" clip-rule="evenodd" d="M177.515 33.2732C181.152 29.1007 187.046 29.1007 190.683 33.2732C194.32 37.4457 194.32 44.2059 190.683 48.3784C187.046 52.5509 181.152 52.5509 177.515 48.3784C173.878 44.2059 173.878 37.4457 177.515 33.2732Z" fill="url(#paint43_radial_30_3927)"/>
<path fill-rule="evenodd" clip-rule="evenodd" d="M271.097 659.33C271.097 662.16 269.095 664.456 266.628 664.456C264.161 664.456 262.159 662.16 262.159 659.33C262.159 656.501 264.161 654.204 266.628 654.204C269.095 654.204 271.097 656.501 271.097 659.33Z" fill="#FFE988"/>
<path fill-rule="evenodd" clip-rule="evenodd" d="M271.273 658.641C271.273 661.583 269.193 663.969 266.629 663.969C264.064 663.969 261.984 661.583 261.984 658.641C261.984 655.7 264.064 653.314 266.629 653.314C269.193 653.314 271.273 655.7 271.273 658.641Z" fill="url(#paint44_linear_30_3927)"/>
<path fill-rule="evenodd" clip-rule="evenodd" d="M270.086 658.641C270.086 661.139 268.322 663.163 266.145 663.163C263.967 663.163 262.203 661.139 262.203 658.641C262.203 656.143 263.967 654.119 266.145 654.119C268.322 654.119 270.086 656.143 270.086 658.641Z" fill="white"/>
<path style="mix-blend-mode:screen" d="M265.212 669.188C270.295 670.087 275.05 666.088 275.833 660.258C276.617 654.427 273.131 648.972 268.048 648.073C262.965 647.175 258.21 651.173 257.427 657.004C256.643 662.835 260.129 668.29 265.212 669.188Z" fill="url(#paint45_radial_30_3927)"/>
<path fill-rule="evenodd" clip-rule="evenodd" d="M271.096 46.7267C271.096 49.5561 269.094 51.8528 266.627 51.8528C264.161 51.8528 262.159 49.5561 262.159 46.7267C262.159 43.8973 264.161 41.6006 266.627 41.6006C269.094 41.6006 271.096 43.8973 271.096 46.7267Z" fill="#FFE988"/>
<path fill-rule="evenodd" clip-rule="evenodd" d="M271.272 46.0327C271.272 48.974 269.192 51.3602 266.628 51.3602C264.064 51.3602 261.984 48.974 261.984 46.0327C261.984 43.0913 264.064 40.7051 266.628 40.7051C269.192 40.7051 271.272 43.0913 271.272 46.0327Z" fill="url(#paint46_linear_30_3927)"/>
<path fill-rule="evenodd" clip-rule="evenodd" d="M270.086 46.033C270.086 48.5311 268.322 50.5547 266.144 50.5547C263.966 50.5547 262.202 48.5311 262.202 46.033C262.202 43.5348 263.966 41.5112 266.144 41.5112C268.322 41.5112 270.086 43.5348 270.086 46.033Z" fill="white"/>
<path style="mix-blend-mode:screen" d="M257.893 49.7355C259.676 55.2689 265.033 58.0962 269.856 56.0505C274.68 54.0047 277.145 47.8605 275.361 42.327C273.578 36.7936 268.222 33.9663 263.398 36.0121C258.574 38.0579 256.11 44.202 257.893 49.7355Z" fill="url(#paint47_radial_30_3927)"/>
<path fill-rule="evenodd" clip-rule="evenodd" d="M103.85 659.613C103.85 662.442 105.852 664.739 108.318 664.739C110.785 664.739 112.787 662.442 112.787 659.613C112.787 656.783 110.785 654.487 108.318 654.487C105.852 654.487 103.85 656.783 103.85 659.613Z" fill="#FFE988"/>
<path fill-rule="evenodd" clip-rule="evenodd" d="M103.674 658.923C103.674 661.865 105.754 664.251 108.319 664.251C110.883 664.251 112.963 661.865 112.963 658.923C112.963 655.982 110.883 653.596 108.319 653.596C105.754 653.596 103.674 655.982 103.674 658.923Z" fill="url(#paint48_linear_30_3927)"/>
<path d="M104.857 658.923C104.857 661.42 106.622 663.445 108.799 663.445C110.976 663.445 112.741 661.42 112.741 658.923C112.741 656.426 110.976 654.401 108.799 654.401C106.622 654.401 104.857 656.426 104.857 658.923Z" fill="white"/>
<path style="mix-blend-mode:screen" d="M99.0067 658.923C99.0067 664.823 103.176 669.605 108.319 669.605C113.462 669.605 117.631 664.823 117.631 658.923C117.631 653.024 113.462 648.241 108.319 648.241C103.176 648.241 99.0067 653.024 99.0067 658.923Z" fill="url(#paint49_radial_30_3927)"/>
<path fill-rule="evenodd" clip-rule="evenodd" d="M103.85 46.8427C103.85 49.6721 105.852 51.9688 108.318 51.9688C110.785 51.9688 112.787 49.6721 112.787 46.8427C112.787 44.0132 110.785 41.7166 108.318 41.7166C105.852 41.7166 103.85 44.0132 103.85 46.8427Z" fill="#FFE988"/>
<path fill-rule="evenodd" clip-rule="evenodd" d="M103.674 46.1533C103.674 49.0946 105.754 51.4808 108.319 51.4808C110.883 51.4808 112.963 49.0946 112.963 46.1533C112.963 43.2119 110.883 40.8257 108.319 40.8257C105.754 40.8257 103.674 43.2119 103.674 46.1533Z" fill="url(#paint50_linear_30_3927)"/>
<path fill-rule="evenodd" clip-rule="evenodd" d="M104.857 46.1536C104.857 48.6517 106.621 50.6753 108.799 50.6753C110.977 50.6753 112.741 48.6517 112.741 46.1536C112.741 43.6554 110.977 41.6318 108.799 41.6318C106.621 41.6318 104.857 43.6554 104.857 46.1536Z" fill="white"/>
<path style="mix-blend-mode:screen" d="M99.2561 48.6087C100.434 54.3514 105.447 57.9114 110.453 56.5603C115.46 55.2091 118.563 49.4584 117.385 43.7157C116.207 37.973 111.194 34.413 106.188 35.7641C101.182 37.1153 98.0782 42.866 99.2561 48.6087Z" fill="url(#paint51_radial_30_3927)"/>
<defs>
<linearGradient id="paint0_linear_30_3927" x1="-4.99891" y1="346.965" x2="38.7593" y2="346.965" gradientUnits="userSpaceOnUse">
<stop stop-color="#393B00"/>
<stop offset="1" stop-color="#566000"/>
</linearGradient>
<radialGradient id="paint1_radial_30_3927" cx="0" cy="0" r="1" gradientUnits="userSpaceOnUse" gradientTransform="translate(192.709 260.324) scale(219.675 295.917)">
<stop stop-color="#FF163E"/>
<stop offset="0.99" stop-color="#BF0244"/>
</radialGradient>
<linearGradient id="paint2_linear_30_3927" x1="187.874" y1="670.505" x2="187.874" y2="33.2911" gradientUnits="userSpaceOnUse">
<stop stop-color="#FF9600"/>
<stop offset="0.21" stop-color="#EA742A"/>
<stop offset="1" stop-color="#FFCC00"/>
</linearGradient>
<linearGradient id="paint3_linear_30_3927" x1="187.698" y1="647.592" x2="187.698" y2="51.1321" gradientUnits="userSpaceOnUse">
<stop stop-color="#FFCC1B"/>
<stop offset="1" stop-color="#FF8631"/>
</linearGradient>
<linearGradient id="paint4_linear_30_3927" x1="338.22" y1="65.0552" x2="338.22" y2="54.4045" gradientUnits="userSpaceOnUse">
<stop stop-color="#FFCC00"/>
<stop offset="1" stop-color="#EA742A"/>
</linearGradient>
<radialGradient id="paint5_radial_30_3927" cx="0" cy="0" r="1" gradientUnits="userSpaceOnUse" gradientTransform="translate(338.225 59.7348) scale(9.31209 10.682)">
<stop stop-color="#FF8100"/>
<stop offset="0.13" stop-color="#D66C00"/>
<stop offset="0.45" stop-color="#7B3E00"/>
<stop offset="0.72" stop-color="#391C00"/>
<stop offset="0.9" stop-color="#0F0700"/>
<stop offset="1"/>
</radialGradient>
<linearGradient id="paint6_linear_30_3927" x1="36.7175" y1="64.0926" x2="36.7175" y2="53.4374" gradientUnits="userSpaceOnUse">
<stop stop-color="#FFCC00"/>
<stop offset="1" stop-color="#EA742A"/>
</linearGradient>
<radialGradient id="paint7_radial_30_3927" cx="0" cy="0" r="1" gradientUnits="userSpaceOnUse" gradientTransform="translate(36.7123 58.7871) rotate(-180) scale(9.31208 10.682)">
<stop stop-color="#FF8100"/>
<stop offset="0.13" stop-color="#D66C00"/>
<stop offset="0.45" stop-color="#7B3E00"/>
<stop offset="0.72" stop-color="#391C00"/>
<stop offset="0.9" stop-color="#0F0700"/>
<stop offset="1"/>
</radialGradient>
<linearGradient id="paint8_linear_30_3927" x1="36.1648" y1="656.367" x2="36.1648" y2="645.711" gradientUnits="userSpaceOnUse">
<stop stop-color="#FFCC00"/>
<stop offset="1" stop-color="#EA742A"/>
</linearGradient>
<radialGradient id="paint9_radial_30_3927" cx="0" cy="0" r="1" gradientUnits="userSpaceOnUse" gradientTransform="translate(36.166 651.036) rotate(-180) scale(9.3121 10.682)">
<stop stop-color="#FF8100"/>
<stop offset="0.13" stop-color="#D66C00"/>
<stop offset="0.45" stop-color="#7B3E00"/>
<stop offset="0.72" stop-color="#391C00"/>
<stop offset="0.9" stop-color="#0F0700"/>
<stop offset="1"/>
</radialGradient>
<linearGradient id="paint10_linear_30_3927" x1="338.224" y1="656.367" x2="338.224" y2="645.712" gradientUnits="userSpaceOnUse">
<stop stop-color="#FFCC00"/>
<stop offset="1" stop-color="#EA742A"/>
</linearGradient>
<radialGradient id="paint11_radial_30_3927" cx="0" cy="0" r="1" gradientUnits="userSpaceOnUse" gradientTransform="translate(338.223 651.044) scale(9.3121 10.682)">
<stop stop-color="#FF8100"/>
<stop offset="0.13" stop-color="#D66C00"/>
<stop offset="0.45" stop-color="#7B3E00"/>
<stop offset="0.72" stop-color="#391C00"/>
<stop offset="0.9" stop-color="#0F0700"/>
<stop offset="1"/>
</radialGradient>
<linearGradient id="paint12_linear_30_3927" x1="361.299" y1="359.63" x2="361.299" y2="348.975" gradientUnits="userSpaceOnUse">
<stop stop-color="#FFCC00"/>
<stop offset="1" stop-color="#EA742A"/>
</linearGradient>
<radialGradient id="paint13_radial_30_3927" cx="0" cy="0" r="1" gradientUnits="userSpaceOnUse" gradientTransform="translate(361.298 354.303) scale(9.31209 10.682)">
<stop stop-color="#FF8100"/>
<stop offset="0.13" stop-color="#D66C00"/>
<stop offset="0.45" stop-color="#7B3E00"/>
<stop offset="0.72" stop-color="#391C00"/>
<stop offset="0.9" stop-color="#0F0700"/>
<stop offset="1"/>
</radialGradient>
<linearGradient id="paint14_linear_30_3927" x1="357.793" y1="207.113" x2="357.793" y2="196.458" gradientUnits="userSpaceOnUse">
<stop stop-color="#FFCC00"/>
<stop offset="1" stop-color="#EA742A"/>
</linearGradient>
<radialGradient id="paint15_radial_30_3927" cx="0" cy="0" r="1" gradientUnits="userSpaceOnUse" gradientTransform="translate(357.793 201.786) scale(9.31209 10.682)">
<stop stop-color="#FF8100"/>
<stop offset="0.13" stop-color="#D66C00"/>
<stop offset="0.45" stop-color="#7B3E00"/>
<stop offset="0.72" stop-color="#391C00"/>
<stop offset="0.9" stop-color="#0F0700"/>
<stop offset="1"/>
</radialGradient>
<linearGradient id="paint16_linear_30_3927" x1="355.12" y1="130.853" x2="355.12" y2="120.198" gradientUnits="userSpaceOnUse">
<stop stop-color="#FFCC00"/>
<stop offset="1" stop-color="#EA742A"/>
</linearGradient>
<radialGradient id="paint17_radial_30_3927" cx="0" cy="0" r="1" gradientUnits="userSpaceOnUse" gradientTransform="translate(355.121 125.526) scale(9.31209 10.682)">
<stop stop-color="#FF8100"/>
<stop offset="0.13" stop-color="#D66C00"/>
<stop offset="0.45" stop-color="#7B3E00"/>
<stop offset="0.72" stop-color="#391C00"/>
<stop offset="0.9" stop-color="#0F0700"/>
<stop offset="1"/>
</radialGradient>
<linearGradient id="paint18_linear_30_3927" x1="361.033" y1="283.369" x2="361.033" y2="272.714" gradientUnits="userSpaceOnUse">
<stop stop-color="#FFCC00"/>
<stop offset="1" stop-color="#EA742A"/>
</linearGradient>
<radialGradient id="paint19_radial_30_3927" cx="0" cy="0" r="1" gradientUnits="userSpaceOnUse" gradientTransform="translate(361.038 278.033) scale(9.31208 10.682)">
<stop stop-color="#FF8100"/>
<stop offset="0.13" stop-color="#D66C00"/>
<stop offset="0.45" stop-color="#7B3E00"/>
<stop offset="0.72" stop-color="#391C00"/>
<stop offset="0.9" stop-color="#0F0700"/>
<stop offset="1"/>
</radialGradient>
<linearGradient id="paint20_linear_30_3927" x1="358.804" y1="512.146" x2="358.804" y2="501.496" gradientUnits="userSpaceOnUse">
<stop stop-color="#FFCC00"/>
<stop offset="1" stop-color="#EA742A"/>
</linearGradient>
<radialGradient id="paint21_radial_30_3927" cx="0" cy="0" r="1" gradientUnits="userSpaceOnUse" gradientTransform="translate(358.804 506.822) scale(9.31209 10.682)">
<stop stop-color="#FF8100"/>
<stop offset="0.13" stop-color="#D66C00"/>
<stop offset="0.45" stop-color="#7B3E00"/>
<stop offset="0.72" stop-color="#391C00"/>
<stop offset="0.9" stop-color="#0F0700"/>
<stop offset="1"/>
</radialGradient>
<linearGradient id="paint22_linear_30_3927" x1="355.522" y1="587.414" x2="355.522" y2="576.758" gradientUnits="userSpaceOnUse">
<stop stop-color="#FFCC00"/>
<stop offset="1" stop-color="#EA742A"/>
</linearGradient>
<radialGradient id="paint23_radial_30_3927" cx="0" cy="0" r="1" gradientUnits="userSpaceOnUse" gradientTransform="translate(355.522 582.086) scale(9.31209 10.682)">
<stop stop-color="#FF8100"/>
<stop offset="0.13" stop-color="#D66C00"/>
<stop offset="0.45" stop-color="#7B3E00"/>
<stop offset="0.72" stop-color="#391C00"/>
<stop offset="0.9" stop-color="#0F0700"/>
<stop offset="1"/>
</radialGradient>
<linearGradient id="paint24_linear_30_3927" x1="360.552" y1="435.891" x2="360.552" y2="425.236" gradientUnits="userSpaceOnUse">
<stop stop-color="#FFCC00"/>
<stop offset="1" stop-color="#EA742A"/>
</linearGradient>
<radialGradient id="paint25_radial_30_3927" cx="0" cy="0" r="1" gradientUnits="userSpaceOnUse" gradientTransform="translate(360.553 430.563) scale(9.31209 10.682)">
<stop stop-color="#FF8100"/>
<stop offset="0.13" stop-color="#D66C00"/>
<stop offset="0.45" stop-color="#7B3E00"/>
<stop offset="0.72" stop-color="#391C00"/>
<stop offset="0.9" stop-color="#0F0700"/>
<stop offset="1"/>
</radialGradient>
<linearGradient id="paint26_linear_30_3927" x1="13.7854" y1="359.63" x2="13.7854" y2="348.975" gradientUnits="userSpaceOnUse">
<stop stop-color="#FFCC00"/>
<stop offset="1" stop-color="#EA742A"/>
</linearGradient>
<radialGradient id="paint27_radial_30_3927" cx="0" cy="0" r="1" gradientUnits="userSpaceOnUse" gradientTransform="translate(13.7851 354.303) rotate(-180) scale(9.31209 10.682)">
<stop stop-color="#FF8100"/>
<stop offset="0.13" stop-color="#D66C00"/>
<stop offset="0.45" stop-color="#7B3E00"/>
<stop offset="0.72" stop-color="#391C00"/>
<stop offset="0.9" stop-color="#0F0700"/>
<stop offset="1"/>
</radialGradient>
<linearGradient id="paint28_linear_30_3927" x1="17.0905" y1="207.113" x2="17.0905" y2="196.458" gradientUnits="userSpaceOnUse">
<stop stop-color="#FFCC00"/>
<stop offset="1" stop-color="#EA742A"/>
</linearGradient>
<radialGradient id="paint29_radial_30_3927" cx="0" cy="0" r="1" gradientUnits="userSpaceOnUse" gradientTransform="translate(17.0908 201.786) rotate(-180) scale(9.31208 10.682)">
<stop stop-color="#FF8100"/>
<stop offset="0.13" stop-color="#D66C00"/>
<stop offset="0.45" stop-color="#7B3E00"/>
<stop offset="0.72" stop-color="#391C00"/>
<stop offset="0.9" stop-color="#0F0700"/>
<stop offset="1"/>
</radialGradient>
<linearGradient id="paint30_linear_30_3927" x1="19.9592" y1="130.853" x2="19.9592" y2="120.198" gradientUnits="userSpaceOnUse">
<stop stop-color="#FFCC00"/>
<stop offset="1" stop-color="#EA742A"/>
</linearGradient>
<radialGradient id="paint31_radial_30_3927" cx="0" cy="0" r="1" gradientUnits="userSpaceOnUse" gradientTransform="translate(19.9589 125.526) rotate(-180) scale(9.31208 10.682)">
<stop stop-color="#FF8100"/>
<stop offset="0.13" stop-color="#D66C00"/>
<stop offset="0.45" stop-color="#7B3E00"/>
<stop offset="0.72" stop-color="#391C00"/>
<stop offset="0.9" stop-color="#0F0700"/>
<stop offset="1"/>
</radialGradient>
<linearGradient id="paint32_linear_30_3927" x1="14.0456" y1="283.37" x2="14.0456" y2="272.715" gradientUnits="userSpaceOnUse">
<stop stop-color="#FFCC00"/>
<stop offset="1" stop-color="#EA742A"/>
</linearGradient>
<radialGradient id="paint33_radial_30_3927" cx="0" cy="0" r="1" gradientUnits="userSpaceOnUse" gradientTransform="translate(14.0459 278.042) rotate(180) scale(9.31209 10.682)">
<stop stop-color="#FF8100"/>
<stop offset="0.13" stop-color="#D66C00"/>
<stop offset="0.45" stop-color="#7B3E00"/>
<stop offset="0.72" stop-color="#391C00"/>
<stop offset="0.9" stop-color="#0F0700"/>
<stop offset="1"/>
</radialGradient>
<linearGradient id="paint34_linear_30_3927" x1="16.2751" y1="512.147" x2="16.2751" y2="501.496" gradientUnits="userSpaceOnUse">
<stop stop-color="#FFCC00"/>
<stop offset="1" stop-color="#EA742A"/>
</linearGradient>
<radialGradient id="paint35_radial_30_3927" cx="0" cy="0" r="1" gradientUnits="userSpaceOnUse" gradientTransform="translate(16.2744 506.823) rotate(-180) scale(9.3121 10.682)">
<stop stop-color="#FF8100"/>
<stop offset="0.13" stop-color="#D66C00"/>
<stop offset="0.45" stop-color="#7B3E00"/>
<stop offset="0.72" stop-color="#391C00"/>
<stop offset="0.9" stop-color="#0F0700"/>
<stop offset="1"/>
</radialGradient>
<linearGradient id="paint36_linear_30_3927" x1="19.5573" y1="587.414" x2="19.5573" y2="576.758" gradientUnits="userSpaceOnUse">
<stop stop-color="#FFCC00"/>
<stop offset="1" stop-color="#EA742A"/>
</linearGradient>
<radialGradient id="paint37_radial_30_3927" cx="0" cy="0" r="1" gradientUnits="userSpaceOnUse" gradientTransform="translate(19.5575 582.086) rotate(-180) scale(9.31209 10.682)">
<stop stop-color="#FF8100"/>
<stop offset="0.13" stop-color="#D66C00"/>
<stop offset="0.45" stop-color="#7B3E00"/>
<stop offset="0.72" stop-color="#391C00"/>
<stop offset="0.9" stop-color="#0F0700"/>
<stop offset="1"/>
</radialGradient>
<linearGradient id="paint38_linear_30_3927" x1="14.5266" y1="435.891" x2="14.5266" y2="425.236" gradientUnits="userSpaceOnUse">
<stop stop-color="#FFCC00"/>
<stop offset="1" stop-color="#EA742A"/>
</linearGradient>
<radialGradient id="paint39_radial_30_3927" cx="0" cy="0" r="1" gradientUnits="userSpaceOnUse" gradientTransform="translate(14.5263 430.563) rotate(-180) scale(9.31208 10.682)">
<stop stop-color="#FF8100"/>
<stop offset="0.13" stop-color="#D66C00"/>
<stop offset="0.45" stop-color="#7B3E00"/>
<stop offset="0.72" stop-color="#391C00"/>
<stop offset="0.9" stop-color="#0F0700"/>
<stop offset="1"/>
</radialGradient>
<linearGradient id="paint40_linear_30_3927" x1="184.099" y1="665.348" x2="184.099" y2="654.692" gradientUnits="userSpaceOnUse">
<stop stop-color="#FFCC00"/>
<stop offset="1" stop-color="#EA742A"/>
</linearGradient>
<radialGradient id="paint41_radial_30_3927" cx="0" cy="0" r="1" gradientUnits="userSpaceOnUse" gradientTransform="translate(184.083 660.046) rotate(180) scale(9.31209 10.682)">
<stop stop-color="#FF8100"/>
<stop offset="0.13" stop-color="#D66C00"/>
<stop offset="0.45" stop-color="#7B3E00"/>
<stop offset="0.72" stop-color="#391C00"/>
<stop offset="0.9" stop-color="#0F0700"/>
<stop offset="1"/>
</radialGradient>
<linearGradient id="paint42_linear_30_3927" x1="187.382" y1="37.0562" x2="179.918" y2="43.5629" gradientUnits="userSpaceOnUse">
<stop stop-color="#FFCC00"/>
<stop offset="1" stop-color="#EA742A"/>
</linearGradient>
<radialGradient id="paint43_radial_30_3927" cx="0" cy="0" r="1" gradientUnits="userSpaceOnUse" gradientTransform="translate(184.099 40.8231) rotate(-131.08) scale(10.0205 9.92684)">
<stop stop-color="#FF8100"/>
<stop offset="0.13" stop-color="#D66C00"/>
<stop offset="0.45" stop-color="#7B3E00"/>
<stop offset="0.72" stop-color="#391C00"/>
<stop offset="0.9" stop-color="#0F0700"/>
<stop offset="1"/>
</radialGradient>
<linearGradient id="paint44_linear_30_3927" x1="266.629" y1="663.964" x2="266.629" y2="653.309" gradientUnits="userSpaceOnUse">
<stop stop-color="#FFCC00"/>
<stop offset="1" stop-color="#EA742A"/>
</linearGradient>
<radialGradient id="paint45_radial_30_3927" cx="0" cy="0" r="1" gradientUnits="userSpaceOnUse" gradientTransform="translate(266.618 658.638) scale(9.3121 10.682)">
<stop stop-color="#FF8100"/>
<stop offset="0.13" stop-color="#D66C00"/>
<stop offset="0.45" stop-color="#7B3E00"/>
<stop offset="0.72" stop-color="#391C00"/>
<stop offset="0.9" stop-color="#0F0700"/>
<stop offset="1"/>
</radialGradient>
<linearGradient id="paint46_linear_30_3927" x1="266.628" y1="51.3602" x2="266.628" y2="40.7051" gradientUnits="userSpaceOnUse">
<stop stop-color="#FFCC00"/>
<stop offset="1" stop-color="#EA742A"/>
</linearGradient>
<radialGradient id="paint47_radial_30_3927" cx="0" cy="0" r="1" gradientUnits="userSpaceOnUse" gradientTransform="translate(266.635 46.0178) scale(9.31209 10.682)">
<stop stop-color="#FF8100"/>
<stop offset="0.13" stop-color="#D66C00"/>
<stop offset="0.45" stop-color="#7B3E00"/>
<stop offset="0.72" stop-color="#391C00"/>
<stop offset="0.9" stop-color="#0F0700"/>
<stop offset="1"/>
</radialGradient>
<linearGradient id="paint48_linear_30_3927" x1="108.319" y1="664.251" x2="108.319" y2="653.596" gradientUnits="userSpaceOnUse">
<stop stop-color="#FFCC00"/>
<stop offset="1" stop-color="#EA742A"/>
</linearGradient>
<radialGradient id="paint49_radial_30_3927" cx="0" cy="0" r="1" gradientUnits="userSpaceOnUse" gradientTransform="translate(108.319 658.923) rotate(-180) scale(9.31208 10.682)">
<stop stop-color="#FF8100"/>
<stop offset="0.13" stop-color="#D66C00"/>
<stop offset="0.45" stop-color="#7B3E00"/>
<stop offset="0.72" stop-color="#391C00"/>
<stop offset="0.9" stop-color="#0F0700"/>
<stop offset="1"/>
</radialGradient>
<linearGradient id="paint50_linear_30_3927" x1="108.319" y1="51.4764" x2="108.319" y2="40.8257" gradientUnits="userSpaceOnUse">
<stop stop-color="#FFCC00"/>
<stop offset="1" stop-color="#EA742A"/>
</linearGradient>
<radialGradient id="paint51_radial_30_3927" cx="0" cy="0" r="1" gradientUnits="userSpaceOnUse" gradientTransform="translate(108.313 46.1608) rotate(-180) scale(9.31208 10.682)">
<stop stop-color="#FF8100"/>
<stop offset="0.13" stop-color="#D66C00"/>
<stop offset="0.45" stop-color="#7B3E00"/>
<stop offset="0.72" stop-color="#391C00"/>
<stop offset="0.9" stop-color="#0F0700"/>
<stop offset="1"/>
</radialGradient>
</defs>
</svg>
