<svg viewBox="0 0 1230 670" fill="none" xmlns="http://www.w3.org/2000/svg" preserveAspectRatio="none">
<path style="mix-blend-mode:multiply" opacity="0.5" fill-rule="evenodd" clip-rule="evenodd" d="M210.068 591.729L0 644.187C0 644.187 326.148 670.896 724.049 669.208C1121.95 667.527 1230 645.155 1230 645.155C1230 645.155 1125.91 615.201 1087.9 612.019C923.524 598.273 530.225 591.459 210.068 591.729Z" fill="url(#paint0_linear_4_4276)"/>
<path fill-rule="evenodd" clip-rule="evenodd" d="M1119.88 54.2724C1125.09 54.6806 1129.24 58.5614 1129.67 63.4662C1133.92 111.351 1141.58 213.243 1141.62 328.148L1141.65 328.881V329.248C1141.58 443.952 1133.95 545.214 1129.69 592.809C1129.24 597.713 1125.1 601.594 1119.9 602.002C707.868 633.817 333.647 615.222 184.357 605.074C166.526 603.856 151.924 602.777 140.831 601.898C135.958 601.511 131.982 598.073 131.165 593.535C106.597 455.539 105.875 342.585 105.875 329.891V326.37C105.875 313.655 106.605 200.701 131.165 62.726C131.975 58.1879 135.95 54.729 140.831 54.3623C153.162 53.3869 169.882 52.1417 190.515 50.7651H190.538C343.781 40.5337 713.384 22.8587 1119.89 54.2655L1119.88 54.2724Z" fill="url(#paint1_radial_4_4276)"/>
<g opacity="0.3">
<g style="mix-blend-mode:multiply" opacity="0.64">
<path fill-rule="evenodd" clip-rule="evenodd" d="M232.652 563.677L156.257 602.59L79.8704 563.677L156.257 524.758L232.652 563.677Z" fill="#B5779A"/>
</g>
<g style="mix-blend-mode:multiply" opacity="0.64">
<path fill-rule="evenodd" clip-rule="evenodd" d="M232.652 485.846L156.257 524.758L79.8704 485.846L156.257 446.926L232.652 485.846Z" fill="#B5779A"/>
</g>
<g style="mix-blend-mode:multiply" opacity="0.64">
<path fill-rule="evenodd" clip-rule="evenodd" d="M232.652 408.014L156.257 446.927L79.8704 408.014L156.257 369.102L232.652 408.014Z" fill="#B5779A"/>
</g>
<g style="mix-blend-mode:multiply" opacity="0.64">
<path fill-rule="evenodd" clip-rule="evenodd" d="M232.652 330.181L156.257 369.101L79.8704 330.181L156.257 291.269L232.652 330.181Z" fill="#B5779A"/>
</g>
<g style="mix-blend-mode:multiply" opacity="0.64">
<path fill-rule="evenodd" clip-rule="evenodd" d="M232.652 252.356L156.257 291.269L79.8704 252.356L156.257 213.437L232.652 252.356Z" fill="#B5779A"/>
</g>
<g style="mix-blend-mode:multiply" opacity="0.64">
<path fill-rule="evenodd" clip-rule="evenodd" d="M232.652 174.524L156.257 213.436L79.8704 174.524L156.257 135.611L232.652 174.524Z" fill="#B5779A"/>
</g>
<g style="mix-blend-mode:multiply" opacity="0.64">
<path fill-rule="evenodd" clip-rule="evenodd" d="M232.652 96.6924L156.257 135.612L79.8704 96.6924L156.257 57.7798L232.652 96.6924Z" fill="#B5779A"/>
</g>
<g style="mix-blend-mode:multiply" opacity="0.64">
<path fill-rule="evenodd" clip-rule="evenodd" d="M386.751 563.677L310.364 602.59L233.969 563.677L310.364 524.758L386.751 563.677Z" fill="#B5779A"/>
</g>
<g style="mix-blend-mode:multiply" opacity="0.64">
<path fill-rule="evenodd" clip-rule="evenodd" d="M386.751 485.846L310.364 524.758L233.969 485.846L310.364 446.926L386.751 485.846Z" fill="#B5779A"/>
</g>
<g style="mix-blend-mode:multiply" opacity="0.64">
<path fill-rule="evenodd" clip-rule="evenodd" d="M386.751 408.014L310.364 446.927L233.969 408.014L310.364 369.102L386.751 408.014Z" fill="#B5779A"/>
</g>
<g style="mix-blend-mode:multiply" opacity="0.64">
<path fill-rule="evenodd" clip-rule="evenodd" d="M386.751 330.181L310.364 369.101L233.969 330.181L310.364 291.269L386.751 330.181Z" fill="#B5779A"/>
</g>
<g style="mix-blend-mode:multiply" opacity="0.64">
<path fill-rule="evenodd" clip-rule="evenodd" d="M386.751 252.356L310.364 291.269L233.969 252.356L310.364 213.437L386.751 252.356Z" fill="#B5779A"/>
</g>
<g style="mix-blend-mode:multiply" opacity="0.64">
<path fill-rule="evenodd" clip-rule="evenodd" d="M386.751 174.524L310.364 213.436L233.969 174.524L310.364 135.611L386.751 174.524Z" fill="#B5779A"/>
</g>
<g style="mix-blend-mode:multiply" opacity="0.64">
<path fill-rule="evenodd" clip-rule="evenodd" d="M386.752 96.6924L310.365 135.612L233.97 96.6924L310.365 57.7798L386.752 96.6924Z" fill="#B5779A"/>
</g>
<g style="mix-blend-mode:multiply" opacity="0.64">
<path fill-rule="evenodd" clip-rule="evenodd" d="M540.859 563.677L464.464 602.59L388.077 563.677L464.464 524.758L540.859 563.677Z" fill="#B5779A"/>
</g>
<g style="mix-blend-mode:multiply" opacity="0.64">
<path fill-rule="evenodd" clip-rule="evenodd" d="M540.859 485.846L464.464 524.758L388.077 485.846L464.464 446.926L540.859 485.846Z" fill="#B5779A"/>
</g>
<g style="mix-blend-mode:multiply" opacity="0.64">
<path fill-rule="evenodd" clip-rule="evenodd" d="M540.859 408.014L464.464 446.927L388.077 408.014L464.464 369.102L540.859 408.014Z" fill="#B5779A"/>
</g>
<g style="mix-blend-mode:multiply" opacity="0.64">
<path fill-rule="evenodd" clip-rule="evenodd" d="M540.859 330.181L464.464 369.101L388.077 330.181L464.464 291.269L540.859 330.181Z" fill="#B5779A"/>
</g>
<g style="mix-blend-mode:multiply" opacity="0.64">
<path fill-rule="evenodd" clip-rule="evenodd" d="M540.859 252.356L464.464 291.269L388.077 252.356L464.464 213.437L540.859 252.356Z" fill="#B5779A"/>
</g>
<g style="mix-blend-mode:multiply" opacity="0.64">
<path fill-rule="evenodd" clip-rule="evenodd" d="M540.859 174.524L464.464 213.436L388.077 174.524L464.464 135.611L540.859 174.524Z" fill="#B5779A"/>
</g>
<g style="mix-blend-mode:multiply" opacity="0.64">
<path fill-rule="evenodd" clip-rule="evenodd" d="M540.859 96.6924L464.464 135.612L388.077 96.6924L464.464 57.7798L540.859 96.6924Z" fill="#B5779A"/>
</g>
<g style="mix-blend-mode:multiply" opacity="0.64">
<path fill-rule="evenodd" clip-rule="evenodd" d="M694.958 563.677L618.571 602.59L542.176 563.677L618.571 524.758L694.958 563.677Z" fill="#B5779A"/>
</g>
<g style="mix-blend-mode:multiply" opacity="0.64">
<path fill-rule="evenodd" clip-rule="evenodd" d="M694.958 485.846L618.571 524.758L542.176 485.846L618.571 446.926L694.958 485.846Z" fill="#B5779A"/>
</g>
<g style="mix-blend-mode:multiply" opacity="0.64">
<path fill-rule="evenodd" clip-rule="evenodd" d="M694.958 408.014L618.571 446.927L542.176 408.014L618.571 369.102L694.958 408.014Z" fill="#B5779A"/>
</g>
<g style="mix-blend-mode:multiply" opacity="0.64">
<path fill-rule="evenodd" clip-rule="evenodd" d="M694.958 330.181L618.571 369.101L542.176 330.181L618.571 291.269L694.958 330.181Z" fill="#B5779A"/>
</g>
<g style="mix-blend-mode:multiply" opacity="0.64">
<path fill-rule="evenodd" clip-rule="evenodd" d="M694.958 252.356L618.571 291.269L542.176 252.356L618.571 213.437L694.958 252.356Z" fill="#B5779A"/>
</g>
<g style="mix-blend-mode:multiply" opacity="0.64">
<path fill-rule="evenodd" clip-rule="evenodd" d="M694.958 174.524L618.571 213.436L542.176 174.524L618.571 135.611L694.958 174.524Z" fill="#B5779A"/>
</g>
<g style="mix-blend-mode:multiply" opacity="0.64">
<path fill-rule="evenodd" clip-rule="evenodd" d="M694.958 96.6924L618.571 135.612L542.176 96.6924L618.571 57.7798L694.958 96.6924Z" fill="#B5779A"/>
</g>
<g style="mix-blend-mode:multiply" opacity="0.64">
<path fill-rule="evenodd" clip-rule="evenodd" d="M849.065 563.677L772.67 602.59L696.283 563.677L772.67 524.758L849.065 563.677Z" fill="#B5779A"/>
</g>
<g style="mix-blend-mode:multiply" opacity="0.64">
<path fill-rule="evenodd" clip-rule="evenodd" d="M849.065 485.846L772.67 524.758L696.283 485.846L772.67 446.926L849.065 485.846Z" fill="#B5779A"/>
</g>
<g style="mix-blend-mode:multiply" opacity="0.64">
<path fill-rule="evenodd" clip-rule="evenodd" d="M849.065 408.014L772.67 446.927L696.283 408.014L772.67 369.102L849.065 408.014Z" fill="#B5779A"/>
</g>
<g style="mix-blend-mode:multiply" opacity="0.64">
<path fill-rule="evenodd" clip-rule="evenodd" d="M849.065 330.181L772.67 369.101L696.283 330.181L772.67 291.269L849.065 330.181Z" fill="#B5779A"/>
</g>
<g style="mix-blend-mode:multiply" opacity="0.64">
<path fill-rule="evenodd" clip-rule="evenodd" d="M849.065 252.356L772.67 291.269L696.283 252.356L772.67 213.437L849.065 252.356Z" fill="#B5779A"/>
</g>
<g style="mix-blend-mode:multiply" opacity="0.64">
<path fill-rule="evenodd" clip-rule="evenodd" d="M849.065 174.524L772.67 213.436L696.283 174.524L772.67 135.611L849.065 174.524Z" fill="#B5779A"/>
</g>
<g style="mix-blend-mode:multiply" opacity="0.64">
<path fill-rule="evenodd" clip-rule="evenodd" d="M849.065 96.6924L772.67 135.612L696.283 96.6924L772.67 57.7798L849.065 96.6924Z" fill="#B5779A"/>
</g>
<g style="mix-blend-mode:multiply" opacity="0.64">
<path fill-rule="evenodd" clip-rule="evenodd" d="M1003.16 563.677L926.776 602.59L850.381 563.677L926.776 524.758L1003.16 563.677Z" fill="#B5779A"/>
</g>
<g style="mix-blend-mode:multiply" opacity="0.64">
<path fill-rule="evenodd" clip-rule="evenodd" d="M1003.16 485.846L926.776 524.758L850.381 485.846L926.776 446.926L1003.16 485.846Z" fill="#B5779A"/>
</g>
<g style="mix-blend-mode:multiply" opacity="0.64">
<path fill-rule="evenodd" clip-rule="evenodd" d="M1003.16 408.014L926.776 446.927L850.381 408.014L926.776 369.102L1003.16 408.014Z" fill="#B5779A"/>
</g>
<g style="mix-blend-mode:multiply" opacity="0.64">
<path fill-rule="evenodd" clip-rule="evenodd" d="M1003.16 330.181L926.776 369.101L850.381 330.181L926.776 291.269L1003.16 330.181Z" fill="#B5779A"/>
</g>
<g style="mix-blend-mode:multiply" opacity="0.64">
<path fill-rule="evenodd" clip-rule="evenodd" d="M1003.16 252.356L926.776 291.269L850.381 252.356L926.776 213.437L1003.16 252.356Z" fill="#B5779A"/>
</g>
<g style="mix-blend-mode:multiply" opacity="0.64">
<path fill-rule="evenodd" clip-rule="evenodd" d="M1003.16 174.524L926.776 213.436L850.381 174.524L926.776 135.611L1003.16 174.524Z" fill="#B5779A"/>
</g>
<g style="mix-blend-mode:multiply" opacity="0.64">
<path fill-rule="evenodd" clip-rule="evenodd" d="M1003.16 96.6924L926.776 135.612L850.381 96.6924L926.776 57.7798L1003.16 96.6924Z" fill="#B5779A"/>
</g>
<g style="mix-blend-mode:multiply" opacity="0.64">
<path fill-rule="evenodd" clip-rule="evenodd" d="M1157.27 563.677L1080.88 602.59L1004.49 563.677L1080.88 524.758L1157.27 563.677Z" fill="#B5779A"/>
</g>
<g style="mix-blend-mode:multiply" opacity="0.64">
<path fill-rule="evenodd" clip-rule="evenodd" d="M1157.27 485.846L1080.88 524.758L1004.49 485.846L1080.88 446.926L1157.27 485.846Z" fill="#B5779A"/>
</g>
<g style="mix-blend-mode:multiply" opacity="0.64">
<path fill-rule="evenodd" clip-rule="evenodd" d="M1157.27 408.014L1080.88 446.927L1004.49 408.014L1080.88 369.102L1157.27 408.014Z" fill="#B5779A"/>
</g>
<g style="mix-blend-mode:multiply" opacity="0.64">
<path fill-rule="evenodd" clip-rule="evenodd" d="M1157.27 330.181L1080.88 369.101L1004.49 330.181L1080.88 291.269L1157.27 330.181Z" fill="#B5779A"/>
</g>
<g style="mix-blend-mode:multiply" opacity="0.64">
<path fill-rule="evenodd" clip-rule="evenodd" d="M1157.27 252.356L1080.88 291.269L1004.49 252.356L1080.88 213.437L1157.27 252.356Z" fill="#B5779A"/>
</g>
<g style="mix-blend-mode:multiply" opacity="0.64">
<path fill-rule="evenodd" clip-rule="evenodd" d="M1157.27 174.524L1080.88 213.436L1004.49 174.524L1080.88 135.611L1157.27 174.524Z" fill="#B5779A"/>
</g>
<g style="mix-blend-mode:multiply" opacity="0.64">
<path fill-rule="evenodd" clip-rule="evenodd" d="M1157.27 96.6924L1080.88 135.612L1004.49 96.6924L1080.88 57.7798L1157.27 96.6924Z" fill="#B5779A"/>
</g>
</g>
<g style="mix-blend-mode:multiply" opacity="0.64">
<path fill-rule="evenodd" clip-rule="evenodd" d="M190.515 55.3521L146.283 70.0594C97.1302 376.158 149.814 588.223 149.814 588.223L185.904 600.128L184.365 600.529C166.534 599.326 151.933 598.267 140.839 597.409C135.966 597.029 131.991 593.646 131.173 589.184C106.605 453.457 105.883 342.364 105.883 329.878V326.419C105.883 313.911 106.613 202.819 131.173 67.1124C131.983 62.6504 135.959 59.2469 140.839 58.8871C153.171 57.9256 169.891 56.708 190.523 55.3452L190.515 55.3521Z" fill="#B5779A"/>
</g>
<path fill-rule="evenodd" clip-rule="evenodd" d="M107.756 23.9651C97.6457 24.7261 89.4087 31.3464 87.6629 40.049C57.9286 188.809 59.0158 328.127 59.0158 328.127C59.0158 328.127 57.9286 467.437 87.6629 616.183C89.4166 624.907 97.6457 631.506 107.756 632.267C199.601 639.275 643.067 661.702 1154.49 632.302C1165.35 631.679 1173.9 624.049 1174.86 614.613C1178.9 575.251 1188.44 450.661 1188.48 329.185V328.12C1188.44 206.512 1178.88 81.1752 1174.86 41.6262C1173.9 32.1973 1165.31 24.6915 1154.49 23.9236C694.957 -8.70763 199.601 16.9712 107.756 23.9582V23.9651ZM1129.67 67.0007C1133.92 110.873 1141.58 222.865 1141.62 328.147L1141.65 328.818V329.15C1141.58 434.245 1133.95 545.656 1129.69 589.273C1129.24 593.763 1125.1 597.326 1119.9 597.699C707.868 626.851 333.647 609.812 184.357 600.515C166.526 599.394 151.924 598.412 140.831 597.609C135.958 597.256 131.983 594.109 131.165 589.951C106.597 463.515 105.875 341.388 105.875 329.759V326.535C105.875 314.886 106.605 192.759 131.165 66.3435C131.975 62.1859 135.95 59.0176 140.831 58.6855C153.162 57.7931 169.882 56.6517 190.515 55.3857H190.538C343.781 46.0121 713.384 29.8176 1119.89 58.5886C1125.1 58.9622 1129.25 62.518 1129.68 67.0145L1129.67 67.0007Z" fill="url(#paint2_linear_4_4276)"/>
<path fill-rule="evenodd" clip-rule="evenodd" d="M126.611 48.5306C121.611 48.9042 117.501 52.1832 116.668 56.5068C91.3773 188.049 90.6313 314.354 90.6313 326.467V329.801C90.6313 341.914 91.3773 468.219 116.668 599.74C117.501 604.064 121.604 607.364 126.611 607.716C233.74 615.506 661.161 624.72 1134.5 607.806C1139.88 607.613 1144.12 603.725 1144.6 599.048C1148.98 553.688 1148.96 102.849 1144.57 57.2055C1144.12 52.5291 1139.86 48.6689 1134.48 48.4268C719.217 29.6381 233.716 40.7273 126.611 48.5168V48.5306ZM1119.88 58.5752C1125.09 58.9488 1129.24 62.5045 1129.67 67.0011L1129.7 589.273C1129.24 593.763 1125.1 597.326 1119.9 597.699C1119.9 597.699 151.925 598.405 140.831 597.609C135.959 597.257 131.983 594.109 131.166 589.951C106.598 463.515 105.875 341.388 105.875 329.76V326.536C105.875 314.886 106.605 192.76 131.166 66.3439C131.975 62.1863 135.951 59.018 140.831 58.6859C153.163 57.7935 1119.88 58.596 1119.88 58.596V58.5752Z" fill="url(#paint3_linear_4_4276)"/>
<g style="mix-blend-mode:multiply">
<path fill-rule="evenodd" clip-rule="evenodd" d="M116.667 599.748L131.165 589.931C131.165 589.931 78.323 303.071 131.165 66.3237L116.667 56.5073C116.667 56.5073 58.9445 310.383 116.667 599.741V599.748Z" fill="#DEAFC5"/>
</g>
<g style="mix-blend-mode:soft-light">
<path fill-rule="evenodd" clip-rule="evenodd" d="M59.2539 346.777L93.4876 402.085C93.4876 402.085 90.6308 192.69 104.169 121.25L75.6645 108.708C75.6645 108.708 56.7622 251.553 59.2539 346.777Z" fill="white"/>
</g>
<g style="mix-blend-mode:soft-light">
<path fill-rule="evenodd" clip-rule="evenodd" d="M349.803 615.333L376.602 643.986C376.602 643.986 664.723 647.915 772.669 645.148L730.405 616.716C730.405 616.716 484.976 619.421 349.803 615.339V615.333Z" fill="white"/>
</g>
<g style="mix-blend-mode:soft-light">
<path fill-rule="evenodd" clip-rule="evenodd" d="M1144.5 458.299L1129.73 445.543V223.26L1144.84 205.8C1144.84 205.8 1151.42 357.479 1144.49 458.299H1144.5Z" fill="white"/>
</g>
<path fill-rule="evenodd" clip-rule="evenodd" d="M975.771 43.965C975.771 43.965 922.087 46.3931 884.695 40.347C884.695 40.347 937.49 38.7144 975.771 43.965Z" fill="#FFE988"/>
<path fill-rule="evenodd" clip-rule="evenodd" d="M1146.09 582.847C1146.09 582.847 1150.53 492.182 1150.96 345.29C1151.29 233.699 1144.57 57.2124 1144.57 57.2124C1144.57 57.2124 1150.96 363.926 1146.09 582.84V582.847Z" fill="#FFE988"/>
<path fill-rule="evenodd" clip-rule="evenodd" d="M432.365 616.501C432.365 616.501 524.861 627.265 605.715 617.331C605.715 617.331 484.937 618.21 432.365 616.501Z" fill="#FFE988"/>
<path fill-rule="evenodd" clip-rule="evenodd" d="M107.097 52.9995C112.112 52.9995 116.183 56.5483 116.183 60.9204C116.183 65.2924 112.112 68.8413 107.097 68.8413C102.082 68.8413 98.0107 65.2924 98.0107 60.9204C98.0107 56.5483 102.082 52.9995 107.097 52.9995Z" fill="#FFE988"/>
<path d="M105.875 69.1533C111.09 69.1533 115.318 65.4676 115.318 60.9211C115.318 56.3746 111.09 52.689 105.875 52.689C100.66 52.689 96.4319 56.3746 96.4319 60.9211C96.4319 65.4676 100.66 69.1533 105.875 69.1533Z" fill="url(#paint4_linear_4_4276)"/>
<path d="M105.875 68.7591C110.302 68.7591 113.89 65.6309 113.89 61.7721C113.89 57.9133 110.302 54.7852 105.875 54.7852C101.449 54.7852 97.8604 57.9133 97.8604 61.7721C97.8604 65.6309 101.449 68.7591 105.875 68.7591Z" fill="white"/>
<path style="mix-blend-mode:screen" d="M124.098 65.3959C126.937 56.6222 121.079 47.5038 111.015 45.0294C100.95 42.5549 90.4904 47.6615 87.6519 56.4351C84.8135 65.2088 90.6713 74.3272 100.736 76.8016C110.8 79.2761 121.26 74.1695 124.098 65.3959Z" fill="url(#paint5_radial_4_4276)"/>
<path fill-rule="evenodd" clip-rule="evenodd" d="M105.391 603.261C110.406 603.261 114.477 599.712 114.477 595.34C114.477 590.968 110.406 587.419 105.391 587.419C100.376 587.419 96.3047 590.968 96.3047 595.34C96.3047 599.712 100.376 603.261 105.391 603.261Z" fill="#FFE988"/>
<path fill-rule="evenodd" clip-rule="evenodd" d="M104.169 603.573C109.382 603.573 113.612 599.886 113.612 595.341C113.612 590.796 109.382 587.108 104.169 587.108C98.9552 587.108 94.7256 590.796 94.7256 595.341C94.7256 599.886 98.9552 603.573 104.169 603.573Z" fill="url(#paint6_linear_4_4276)"/>
<path fill-rule="evenodd" clip-rule="evenodd" d="M104.169 601.476C108.597 601.476 112.184 598.349 112.184 594.489C112.184 590.629 108.597 587.502 104.169 587.502C99.7409 587.502 96.1541 590.629 96.1541 594.489C96.1541 598.349 99.7409 601.476 104.169 601.476Z" fill="white"/>
<path style="mix-blend-mode:screen" d="M108.566 611.386C118.741 609.284 125.035 600.39 122.624 591.519C120.213 582.649 110.01 577.162 99.8348 579.264C89.6596 581.366 83.3654 590.26 85.7763 599.13C88.1873 608.001 98.3904 613.488 108.566 611.386Z" fill="url(#paint7_radial_4_4276)"/>
<path d="M1155.2 604.242C1160.22 604.242 1164.29 600.695 1164.29 596.321C1164.29 591.946 1160.22 588.4 1155.2 588.4C1150.18 588.4 1146.11 591.946 1146.11 596.321C1146.11 600.695 1150.18 604.242 1155.2 604.242Z" fill="#FFE988"/>
<path fill-rule="evenodd" clip-rule="evenodd" d="M1153.98 604.546C1159.19 604.546 1163.42 600.859 1163.42 596.314C1163.42 591.769 1159.19 588.082 1153.98 588.082C1148.76 588.082 1144.53 591.769 1144.53 596.314C1144.53 600.859 1148.76 604.546 1153.98 604.546Z" fill="url(#paint8_linear_4_4276)"/>
<path fill-rule="evenodd" clip-rule="evenodd" d="M1153.98 602.449C1158.41 602.449 1161.99 599.323 1161.99 595.463C1161.99 591.602 1158.41 588.476 1153.98 588.476C1149.55 588.476 1145.96 591.602 1145.96 595.463C1145.96 599.323 1149.55 602.449 1153.98 602.449Z" fill="white"/>
<path style="mix-blend-mode:screen" d="M1171.45 602.658C1175.47 594.243 1170.91 584.58 1161.25 581.075C1151.6 577.571 1140.52 581.552 1136.5 589.967C1132.48 598.382 1137.04 608.045 1146.7 611.55C1156.35 615.055 1167.43 611.074 1171.45 602.658Z" fill="url(#paint9_radial_4_4276)"/>
<path fill-rule="evenodd" clip-rule="evenodd" d="M1155.2 53C1160.21 53 1164.29 56.5488 1164.29 60.9209C1164.29 65.2929 1160.21 68.8417 1155.2 68.8417C1150.18 68.8417 1146.11 65.2929 1146.11 60.9209C1146.11 56.5488 1150.18 53 1155.2 53Z" fill="#FFE988"/>
<path fill-rule="evenodd" clip-rule="evenodd" d="M1153.98 52.689C1159.19 52.689 1163.42 56.3761 1163.42 60.9211C1163.42 65.4661 1159.19 69.1533 1153.98 69.1533C1148.76 69.1533 1144.53 65.4661 1144.53 60.9211C1144.53 56.3761 1148.76 52.689 1153.98 52.689Z" fill="url(#paint10_linear_4_4276)"/>
<path fill-rule="evenodd" clip-rule="evenodd" d="M1153.98 54.7852C1158.41 54.7852 1161.99 57.912 1161.99 61.7721C1161.99 65.6322 1158.41 68.7591 1153.98 68.7591C1149.55 68.7591 1145.96 65.6322 1145.96 61.7721C1145.96 57.912 1149.55 54.7852 1153.98 54.7852Z" fill="white"/>
<path style="mix-blend-mode:screen" d="M1172.2 65.3949C1175.04 56.6212 1169.18 47.5028 1159.12 45.0283C1149.06 42.5539 1138.6 47.6605 1135.76 56.4342C1132.92 65.2079 1138.78 74.3262 1148.84 76.8007C1158.91 79.2751 1169.37 74.1686 1172.2 65.3949Z" fill="url(#paint11_radial_4_4276)"/>
<path fill-rule="evenodd" clip-rule="evenodd" d="M629.236 12.1016C634.252 12.1016 638.322 15.6504 638.322 20.0224C638.322 24.3945 634.252 27.9433 629.236 27.9433C624.221 27.9433 620.15 24.3945 620.15 20.0224C620.15 15.6504 624.221 12.1016 629.236 12.1016Z" fill="#FFE988"/>
<path d="M628.014 28.2544C633.229 28.2544 637.457 24.5687 637.457 20.0222C637.457 15.4757 633.229 11.79 628.014 11.79C622.799 11.79 618.571 15.4757 618.571 20.0222C618.571 24.5687 622.799 28.2544 628.014 28.2544Z" fill="url(#paint12_linear_4_4276)"/>
<path fill-rule="evenodd" clip-rule="evenodd" d="M628.014 13.8862C632.442 13.8862 636.029 17.0131 636.029 20.8732C636.029 24.7333 632.442 27.8602 628.014 27.8602C623.586 27.8602 619.999 24.7333 619.999 20.8732C619.999 17.0131 623.586 13.8862 628.014 13.8862Z" fill="white"/>
<path style="mix-blend-mode:screen" d="M628.014 36.5288C638.471 36.5288 646.948 29.1389 646.948 20.0229C646.948 10.907 638.471 3.51709 628.014 3.51709C617.557 3.51709 609.08 10.907 609.08 20.0229C609.08 29.1389 617.557 36.5288 628.014 36.5288Z" fill="url(#paint13_radial_4_4276)"/>
<path fill-rule="evenodd" clip-rule="evenodd" d="M358.89 18.314C363.905 18.314 367.976 21.8628 367.976 26.2348C367.976 30.6069 363.905 34.1557 358.89 34.1557C353.875 34.1557 349.804 30.6069 349.804 26.2348C349.804 21.8628 353.875 18.314 358.89 18.314Z" fill="#FFE988"/>
<path d="M357.668 34.4673C362.883 34.4673 367.111 30.7816 367.111 26.2351C367.111 21.6886 362.883 18.0029 357.668 18.0029C352.452 18.0029 348.224 21.6886 348.224 26.2351C348.224 30.7816 352.452 34.4673 357.668 34.4673Z" fill="url(#paint14_linear_4_4276)"/>
<path d="M357.668 34.0721C362.095 34.0721 365.683 30.9439 365.683 27.0851C365.683 23.2263 362.095 20.0981 357.668 20.0981C353.242 20.0981 349.653 23.2263 349.653 27.0851C349.653 30.9439 353.242 34.0721 357.668 34.0721Z" fill="white"/>
<path style="mix-blend-mode:screen" d="M357.668 42.7402C368.125 42.7402 376.602 35.3503 376.602 26.2344C376.602 17.1184 368.125 9.72852 357.668 9.72852C347.211 9.72852 338.734 17.1184 338.734 26.2344C338.734 35.3503 347.211 42.7402 357.668 42.7402Z" fill="url(#paint15_radial_4_4276)"/>
<path fill-rule="evenodd" clip-rule="evenodd" d="M223.725 23.0527C228.74 23.0527 232.811 26.6016 232.811 30.9736C232.811 35.3456 228.74 38.8945 223.725 38.8945C218.71 38.8945 214.639 35.3456 214.639 30.9736C214.639 26.6016 218.71 23.0527 223.725 23.0527Z" fill="#FFE988"/>
<path fill-rule="evenodd" clip-rule="evenodd" d="M222.495 22.7412C227.708 22.7412 231.938 26.4284 231.938 30.9734C231.938 35.5184 227.708 39.2056 222.495 39.2056C217.281 39.2056 213.052 35.5184 213.052 30.9734C213.052 26.4284 217.281 22.7412 222.495 22.7412Z" fill="url(#paint16_linear_4_4276)"/>
<path d="M222.495 38.8113C226.921 38.8113 230.51 35.6832 230.51 31.8244C230.51 27.9656 226.921 24.8374 222.495 24.8374C218.068 24.8374 214.48 27.9656 214.48 31.8244C214.48 35.6832 218.068 38.8113 222.495 38.8113Z" fill="white"/>
<path style="mix-blend-mode:screen" fill-rule="evenodd" clip-rule="evenodd" d="M222.495 14.4668C232.954 14.4668 241.429 21.855 241.429 30.9726C241.429 40.0903 232.954 47.4785 222.495 47.4785C212.036 47.4785 203.561 40.0903 203.561 30.9726C203.561 21.855 212.036 14.4668 222.495 14.4668Z" fill="url(#paint17_radial_4_4276)"/>
<path fill-rule="evenodd" clip-rule="evenodd" d="M494.063 12.5649C499.078 12.5649 503.149 16.1138 503.149 20.4858C503.149 24.8579 499.078 28.4067 494.063 28.4067C489.048 28.4067 484.977 24.8579 484.977 20.4858C484.977 16.1138 489.048 12.5649 494.063 12.5649Z" fill="#FFE988"/>
<path fill-rule="evenodd" clip-rule="evenodd" d="M492.841 12.2529C498.055 12.2529 502.284 15.9401 502.284 20.4851C502.284 25.0301 498.055 28.7173 492.841 28.7173C487.627 28.7173 483.398 25.0301 483.398 20.4851C483.398 15.9401 487.627 12.2529 492.841 12.2529Z" fill="url(#paint18_linear_4_4276)"/>
<path fill-rule="evenodd" clip-rule="evenodd" d="M492.841 14.3486C497.269 14.3486 500.856 17.4755 500.856 21.3356C500.856 25.1957 497.269 28.3226 492.841 28.3226C488.413 28.3226 484.826 25.1957 484.826 21.3356C484.826 17.4755 488.413 14.3486 492.841 14.3486Z" fill="white"/>
<path style="mix-blend-mode:screen" d="M511.279 24.2704C513.674 15.3968 507.364 6.51083 497.185 4.423C487.006 2.33517 476.813 7.83614 474.418 16.7098C472.023 25.5834 478.333 34.4694 488.512 36.5572C498.691 38.645 508.884 33.1441 511.279 24.2704Z" fill="url(#paint19_radial_4_4276)"/>
<path fill-rule="evenodd" clip-rule="evenodd" d="M899.574 16.5151C904.589 16.5151 908.66 20.064 908.66 24.436C908.66 28.808 904.589 32.3569 899.574 32.3569C894.559 32.3569 890.488 28.808 890.488 24.436C890.488 20.064 894.559 16.5151 899.574 16.5151Z" fill="#FFE988"/>
<path fill-rule="evenodd" clip-rule="evenodd" d="M898.352 16.2036C903.566 16.2036 907.795 19.8908 907.795 24.4358C907.795 28.9808 903.566 32.668 898.352 32.668C893.138 32.668 888.909 28.9808 888.909 24.4358C888.909 19.8908 893.138 16.2036 898.352 16.2036Z" fill="url(#paint20_linear_4_4276)"/>
<path fill-rule="evenodd" clip-rule="evenodd" d="M898.352 18.3066C902.78 18.3066 906.367 21.4335 906.367 25.2936C906.367 29.1537 902.78 32.2806 898.352 32.2806C893.924 32.2806 890.337 29.1537 890.337 25.2936C890.337 21.4335 893.924 18.3066 898.352 18.3066Z" fill="white"/>
<path style="mix-blend-mode:screen" d="M905.63 39.6756C915.283 36.1709 919.85 26.5079 915.829 18.0925C911.809 9.67724 900.724 5.69642 891.071 9.2011C881.418 12.7058 876.851 22.3688 880.872 30.7841C884.892 39.1994 895.976 43.1803 905.63 39.6756Z" fill="url(#paint21_radial_4_4276)"/>
<path fill-rule="evenodd" clip-rule="evenodd" d="M1032.99 22.333C1038 22.333 1042.07 25.8818 1042.07 30.2539C1042.07 34.6259 1038 38.1747 1032.99 38.1747C1027.97 38.1747 1023.9 34.6259 1023.9 30.2539C1023.9 25.8818 1027.97 22.333 1032.99 22.333Z" fill="#FFE988"/>
<path d="M1031.76 38.4858C1036.98 38.4858 1041.21 34.8002 1041.21 30.2537C1041.21 25.7072 1036.98 22.0215 1031.76 22.0215C1026.55 22.0215 1022.32 25.7072 1022.32 30.2537C1022.32 34.8002 1026.55 38.4858 1031.76 38.4858Z" fill="url(#paint22_linear_4_4276)"/>
<path fill-rule="evenodd" clip-rule="evenodd" d="M1031.76 24.1172C1036.19 24.1172 1039.78 27.244 1039.78 31.1042C1039.78 34.9643 1036.19 38.0911 1031.76 38.0911C1027.34 38.0911 1023.75 34.9643 1023.75 31.1042C1023.75 27.244 1027.34 24.1172 1031.76 24.1172Z" fill="white"/>
<path style="mix-blend-mode:screen" d="M1031.76 46.7593C1042.22 46.7593 1050.7 39.3693 1050.7 30.2534C1050.7 21.1375 1042.22 13.7476 1031.76 13.7476C1021.31 13.7476 1012.83 21.1375 1012.83 30.2534C1012.83 39.3693 1021.31 46.7593 1031.76 46.7593Z" fill="url(#paint23_radial_4_4276)"/>
<path fill-rule="evenodd" clip-rule="evenodd" d="M764.401 13.4229C769.417 13.4229 773.487 16.9717 773.487 21.3437C773.487 25.7158 769.417 29.2646 764.401 29.2646C759.386 29.2646 755.315 25.7158 755.315 21.3437C755.315 16.9717 759.386 13.4229 764.401 13.4229Z" fill="#FFE988"/>
<path d="M763.179 29.5762C768.395 29.5762 772.623 25.8905 772.623 21.344C772.623 16.7975 768.395 13.1118 763.179 13.1118C757.964 13.1118 753.736 16.7975 753.736 21.344C753.736 25.8905 757.964 29.5762 763.179 29.5762Z" fill="url(#paint24_linear_4_4276)"/>
<path d="M763.179 29.181C767.606 29.181 771.194 26.0528 771.194 22.194C771.194 18.3352 767.606 15.207 763.179 15.207C758.753 15.207 755.165 18.3352 755.165 22.194C755.165 26.0528 758.753 29.181 763.179 29.181Z" fill="white"/>
<path style="mix-blend-mode:screen" d="M763.179 37.8501C773.636 37.8501 782.113 30.4602 782.113 21.3442C782.113 12.2283 773.636 4.83838 763.179 4.83838C752.722 4.83838 744.245 12.2283 744.245 21.3442C744.245 30.4602 752.722 37.8501 763.179 37.8501Z" fill="url(#paint25_radial_4_4276)"/>
<path fill-rule="evenodd" clip-rule="evenodd" d="M629.236 643.917C634.252 643.917 638.322 640.368 638.322 635.996C638.322 631.624 634.252 628.075 629.236 628.075C624.221 628.075 620.15 631.624 620.15 635.996C620.15 640.368 624.221 643.917 629.236 643.917Z" fill="#FFE988"/>
<path fill-rule="evenodd" clip-rule="evenodd" d="M628.014 644.228C633.228 644.228 637.457 640.541 637.457 635.996C637.457 631.451 633.228 627.764 628.014 627.764C622.8 627.764 618.571 631.451 618.571 635.996C618.571 640.541 622.8 644.228 628.014 644.228Z" fill="url(#paint26_linear_4_4276)"/>
<path d="M628.014 642.125C632.44 642.125 636.029 638.997 636.029 635.138C636.029 631.279 632.44 628.151 628.014 628.151C623.587 628.151 619.999 631.279 619.999 635.138C619.999 638.997 623.587 642.125 628.014 642.125Z" fill="white"/>
<path style="mix-blend-mode:screen" d="M628.014 652.502C638.471 652.502 646.948 645.112 646.948 635.996C646.948 626.88 638.471 619.49 628.014 619.49C617.557 619.49 609.08 626.88 609.08 635.996C609.08 645.112 617.557 652.502 628.014 652.502Z" fill="url(#paint27_radial_4_4276)"/>
<path fill-rule="evenodd" clip-rule="evenodd" d="M358.89 638.05C363.905 638.05 367.976 634.501 367.976 630.129C367.976 625.757 363.905 622.208 358.89 622.208C353.875 622.208 349.804 625.757 349.804 630.129C349.804 634.501 353.875 638.05 358.89 638.05Z" fill="#FFE988"/>
<path d="M357.668 638.362C362.883 638.362 367.111 634.677 367.111 630.13C367.111 625.584 362.883 621.898 357.668 621.898C352.452 621.898 348.224 625.584 348.224 630.13C348.224 634.677 352.452 638.362 357.668 638.362Z" fill="url(#paint28_linear_4_4276)"/>
<path d="M357.668 636.266C362.095 636.266 365.683 633.138 365.683 629.279C365.683 625.421 362.095 622.292 357.668 622.292C353.242 622.292 349.653 625.421 349.653 629.279C349.653 633.138 353.242 636.266 357.668 636.266Z" fill="white"/>
<path style="mix-blend-mode:screen" fill-rule="evenodd" clip-rule="evenodd" d="M357.668 646.636C368.127 646.636 376.602 639.248 376.602 630.13C376.602 621.012 368.127 613.624 357.668 613.624C347.209 613.624 338.734 621.012 338.734 630.13C338.734 639.248 347.209 646.636 357.668 646.636Z" fill="url(#paint29_radial_4_4276)"/>
<path fill-rule="evenodd" clip-rule="evenodd" d="M223.725 632.966C228.74 632.966 232.811 629.417 232.811 625.045C232.811 620.673 228.74 617.125 223.725 617.125C218.71 617.125 214.639 620.673 214.639 625.045C214.639 629.417 218.71 632.966 223.725 632.966Z" fill="#FFE988"/>
<path d="M222.495 633.277C227.71 633.277 231.938 629.592 231.938 625.045C231.938 620.499 227.71 616.813 222.495 616.813C217.279 616.813 213.052 620.499 213.052 625.045C213.052 629.592 217.279 633.277 222.495 633.277Z" fill="url(#paint30_linear_4_4276)"/>
<path d="M222.495 631.175C226.921 631.175 230.51 628.047 230.51 624.188C230.51 620.329 226.921 617.201 222.495 617.201C218.068 617.201 214.48 620.329 214.48 624.188C214.48 628.047 218.068 631.175 222.495 631.175Z" fill="white"/>
<path style="mix-blend-mode:screen" d="M222.495 641.552C232.952 641.552 241.429 634.162 241.429 625.046C241.429 615.93 232.952 608.54 222.495 608.54C212.038 608.54 203.561 615.93 203.561 625.046C203.561 634.162 212.038 641.552 222.495 641.552Z" fill="url(#paint31_radial_4_4276)"/>
<path fill-rule="evenodd" clip-rule="evenodd" d="M494.063 643.448C499.079 643.448 503.15 639.899 503.15 635.527C503.15 631.155 499.079 627.606 494.063 627.606C489.048 627.606 484.977 631.155 484.977 635.527C484.977 639.899 489.048 643.448 494.063 643.448Z" fill="#FFE988"/>
<path fill-rule="evenodd" clip-rule="evenodd" d="M492.841 643.759C498.055 643.759 502.285 640.072 502.285 635.527C502.285 630.982 498.055 627.294 492.841 627.294C487.628 627.294 483.398 630.982 483.398 635.527C483.398 640.072 487.628 643.759 492.841 643.759Z" fill="url(#paint32_linear_4_4276)"/>
<path fill-rule="evenodd" clip-rule="evenodd" d="M492.842 641.662C497.27 641.662 500.857 638.535 500.857 634.675C500.857 630.815 497.27 627.688 492.842 627.688C488.414 627.688 484.827 630.815 484.827 634.675C484.827 638.535 488.414 641.662 492.842 641.662Z" fill="white"/>
<path style="mix-blend-mode:screen" d="M506.229 647.195C513.623 640.749 513.623 630.298 506.229 623.853C498.834 617.407 486.846 617.407 479.452 623.853C472.058 630.298 472.058 640.749 479.452 647.195C486.846 653.641 498.834 653.641 506.229 647.195Z" fill="url(#paint33_radial_4_4276)"/>
<path fill-rule="evenodd" clip-rule="evenodd" d="M899.574 639.497C904.589 639.497 908.66 635.948 908.66 631.576C908.66 627.204 904.589 623.655 899.574 623.655C894.559 623.655 890.488 627.204 890.488 631.576C890.488 635.948 894.559 639.497 899.574 639.497Z" fill="#FFE988"/>
<path fill-rule="evenodd" clip-rule="evenodd" d="M898.352 639.808C903.566 639.808 907.796 636.12 907.796 631.575C907.796 627.03 903.566 623.343 898.352 623.343C893.139 623.343 888.909 627.03 888.909 631.575C888.909 636.12 893.139 639.808 898.352 639.808Z" fill="url(#paint34_linear_4_4276)"/>
<path fill-rule="evenodd" clip-rule="evenodd" d="M898.352 637.711C902.78 637.711 906.367 634.584 906.367 630.724C906.367 626.864 902.78 623.737 898.352 623.737C893.924 623.737 890.337 626.864 890.337 630.724C890.337 634.584 893.924 637.711 898.352 637.711Z" fill="white"/>
<path style="mix-blend-mode:screen" d="M915.826 637.915C919.846 629.499 915.28 619.836 905.627 616.332C895.973 612.827 884.889 616.808 880.868 625.223C876.848 633.639 881.415 643.302 891.068 646.806C900.721 650.311 911.806 646.33 915.826 637.915Z" fill="url(#paint35_radial_4_4276)"/>
<path fill-rule="evenodd" clip-rule="evenodd" d="M1032.99 633.679C1038 633.679 1042.07 630.13 1042.07 625.758C1042.07 621.386 1038 617.837 1032.99 617.837C1027.97 617.837 1023.9 621.386 1023.9 625.758C1023.9 630.13 1027.97 633.679 1032.99 633.679Z" fill="#FFE988"/>
<path fill-rule="evenodd" clip-rule="evenodd" d="M1031.76 633.99C1036.98 633.99 1041.21 630.303 1041.21 625.758C1041.21 621.213 1036.98 617.525 1031.76 617.525C1026.55 617.525 1022.32 621.213 1022.32 625.758C1022.32 630.303 1026.55 633.99 1031.76 633.99Z" fill="url(#paint36_linear_4_4276)"/>
<path d="M1031.76 631.894C1036.19 631.894 1039.78 628.766 1039.78 624.907C1039.78 621.048 1036.19 617.92 1031.76 617.92C1027.34 617.92 1023.75 621.048 1023.75 624.907C1023.75 628.766 1027.34 631.894 1031.76 631.894Z" fill="white"/>
<path style="mix-blend-mode:screen" d="M1031.76 642.263C1042.22 642.263 1050.7 634.873 1050.7 625.757C1050.7 616.641 1042.22 609.251 1031.76 609.251C1021.31 609.251 1012.83 616.641 1012.83 625.757C1012.83 634.873 1021.31 642.263 1031.76 642.263Z" fill="url(#paint37_radial_4_4276)"/>
<path fill-rule="evenodd" clip-rule="evenodd" d="M764.401 642.597C769.417 642.597 773.487 639.048 773.487 634.676C773.487 630.304 769.417 626.755 764.401 626.755C759.386 626.755 755.315 630.304 755.315 634.676C755.315 639.048 759.386 642.597 764.401 642.597Z" fill="#FFE988"/>
<path d="M763.179 642.907C768.395 642.907 772.623 639.222 772.623 634.675C772.623 630.129 768.395 626.443 763.179 626.443C757.964 626.443 753.736 630.129 753.736 634.675C753.736 639.222 757.964 642.907 763.179 642.907Z" fill="url(#paint38_linear_4_4276)"/>
<path fill-rule="evenodd" clip-rule="evenodd" d="M763.179 640.811C767.607 640.811 771.194 637.685 771.194 633.824C771.194 629.964 767.607 626.837 763.179 626.837C758.751 626.837 755.165 629.964 755.165 633.824C755.165 637.685 758.751 640.811 763.179 640.811Z" fill="white"/>
<path style="mix-blend-mode:screen" d="M763.179 651.181C773.636 651.181 782.113 643.791 782.113 634.675C782.113 625.559 773.636 618.169 763.179 618.169C752.722 618.169 744.245 625.559 744.245 634.675C744.245 643.791 752.722 651.181 763.179 651.181Z" fill="url(#paint39_radial_4_4276)"/>
<path fill-rule="evenodd" clip-rule="evenodd" d="M1171.12 342.024C1176.13 342.024 1180.21 338.476 1180.21 334.103C1180.21 329.731 1176.13 326.183 1171.12 326.183C1166.1 326.183 1162.03 329.731 1162.03 334.103C1162.03 338.476 1166.1 342.024 1171.12 342.024Z" fill="#FFE988"/>
<path d="M1169.9 342.336C1175.11 342.336 1179.34 338.651 1179.34 334.104C1179.34 329.558 1175.11 325.872 1169.9 325.872C1164.68 325.872 1160.45 329.558 1160.45 334.104C1160.45 338.651 1164.68 342.336 1169.9 342.336Z" fill="url(#paint40_linear_4_4276)"/>
<path fill-rule="evenodd" clip-rule="evenodd" d="M1169.9 340.239C1174.33 340.239 1177.91 337.112 1177.91 333.252C1177.91 329.392 1174.33 326.265 1169.9 326.265C1165.47 326.265 1161.88 329.392 1161.88 333.252C1161.88 337.112 1165.47 340.239 1169.9 340.239Z" fill="white"/>
<path style="mix-blend-mode:screen" d="M1173.11 350.278C1183.41 348.741 1190.34 340.21 1188.58 331.225C1186.81 322.24 1177.03 316.202 1166.72 317.74C1156.41 319.277 1149.49 327.808 1151.25 336.793C1153.01 345.778 1162.8 351.816 1173.11 350.278Z" fill="url(#paint41_radial_4_4276)"/>
<path d="M71.4985 341.27C76.5166 341.27 80.5846 337.724 80.5846 333.349C80.5846 328.975 76.5166 325.428 71.4985 325.428C66.4803 325.428 62.4124 328.975 62.4124 333.349C62.4124 337.724 66.4803 341.27 71.4985 341.27Z" fill="#FFE988"/>
<path d="M72.3639 342.336C77.5792 342.336 81.8071 338.651 81.8071 334.104C81.8071 329.558 77.5792 325.872 72.3639 325.872C67.1485 325.872 62.9207 329.558 62.9207 334.104C62.9207 338.651 67.1485 342.336 72.3639 342.336Z" fill="url(#paint42_linear_4_4276)"/>
<path fill-rule="evenodd" clip-rule="evenodd" d="M67.3882 338.441C64.2537 335.709 64.2537 331.288 67.3882 328.556C70.5228 325.823 75.5935 325.823 78.728 328.556C81.8626 331.288 81.8626 335.709 78.728 338.441C75.5935 341.174 70.5228 341.174 67.3882 338.441Z" fill="white"/>
<path style="mix-blend-mode:screen" fill-rule="evenodd" clip-rule="evenodd" d="M58.9761 345.774C51.5802 339.326 51.5802 328.881 58.9761 322.433C66.372 315.986 78.3546 315.986 85.7504 322.433C93.1463 328.881 93.1463 339.326 85.7504 345.774C78.3546 352.221 66.372 352.221 58.9761 345.774Z" fill="url(#paint43_radial_4_4276)"/>
<path fill-rule="evenodd" clip-rule="evenodd" d="M1168.67 179.9C1173.69 179.9 1177.76 183.449 1177.76 187.821C1177.76 192.193 1173.69 195.742 1168.67 195.742C1163.66 195.742 1159.59 192.193 1159.59 187.821C1159.59 183.449 1163.66 179.9 1168.67 179.9Z" fill="#FFE988"/>
<path fill-rule="evenodd" clip-rule="evenodd" d="M1167.45 179.587C1172.67 179.587 1176.9 183.275 1176.9 187.82C1176.9 192.365 1172.67 196.052 1167.45 196.052C1162.24 196.052 1158.01 192.365 1158.01 187.82C1158.01 183.275 1162.24 179.587 1167.45 179.587Z" fill="url(#paint44_linear_4_4276)"/>
<path fill-rule="evenodd" clip-rule="evenodd" d="M1167.45 181.69C1171.88 181.69 1175.47 184.817 1175.47 188.677C1175.47 192.538 1171.88 195.664 1167.45 195.664C1163.02 195.664 1159.44 192.538 1159.44 188.677C1159.44 184.817 1163.02 181.69 1167.45 181.69Z" fill="white"/>
<path style="mix-blend-mode:screen" d="M1186.15 190.331C1187.74 181.321 1180.65 172.892 1170.32 171.504C1159.98 170.115 1150.31 176.294 1148.72 185.303C1147.13 194.313 1154.22 202.742 1164.55 204.13C1174.89 205.519 1184.55 199.34 1186.15 190.331Z" fill="url(#paint45_radial_4_4276)"/>
<path fill-rule="evenodd" clip-rule="evenodd" d="M82.8225 179.9C87.8377 179.9 91.9086 183.449 91.9086 187.821C91.9086 192.193 87.8377 195.742 82.8225 195.742C77.8072 195.742 73.7363 192.193 73.7363 187.821C73.7363 183.449 77.8072 179.9 82.8225 179.9Z" fill="#FFE988"/>
<path fill-rule="evenodd" clip-rule="evenodd" d="M81.5926 179.588C86.8063 179.588 91.0359 183.275 91.0359 187.82C91.0359 192.365 86.8063 196.052 81.5926 196.052C76.379 196.052 72.1494 192.365 72.1494 187.82C72.1494 183.275 76.379 179.588 81.5926 179.588Z" fill="url(#paint46_linear_4_4276)"/>
<path fill-rule="evenodd" clip-rule="evenodd" d="M81.593 181.691C86.021 181.691 89.6078 184.818 89.6078 188.678C89.6078 192.538 86.021 195.665 81.593 195.665C77.165 195.665 73.5781 192.538 73.5781 188.678C73.5781 184.818 77.165 181.691 81.593 181.691Z" fill="white"/>
<path style="mix-blend-mode:screen" d="M88.1559 203.304C97.9641 200.142 102.976 190.648 99.3493 182.098C95.7231 173.548 84.8325 169.179 75.0243 172.34C65.2162 175.501 60.2048 184.995 63.8309 193.546C67.4571 202.096 78.3478 206.465 88.1559 203.304Z" fill="url(#paint47_radial_4_4276)"/>
<path fill-rule="evenodd" clip-rule="evenodd" d="M1169.17 476.348C1174.19 476.348 1178.26 472.799 1178.26 468.427C1178.26 464.055 1174.19 460.506 1169.17 460.506C1164.16 460.506 1160.09 464.055 1160.09 468.427C1160.09 472.799 1164.16 476.348 1169.17 476.348Z" fill="#FFE988"/>
<path fill-rule="evenodd" clip-rule="evenodd" d="M1167.95 476.659C1173.17 476.659 1177.4 472.972 1177.4 468.427C1177.4 463.882 1173.17 460.195 1167.95 460.195C1162.74 460.195 1158.51 463.882 1158.51 468.427C1158.51 472.972 1162.74 476.659 1167.95 476.659Z" fill="url(#paint48_linear_4_4276)"/>
<path d="M1167.95 474.562C1172.38 474.562 1175.97 471.434 1175.97 467.575C1175.97 463.717 1172.38 460.588 1167.95 460.588C1163.53 460.588 1159.94 463.717 1159.94 467.575C1159.94 471.434 1163.53 474.562 1167.95 474.562Z" fill="white"/>
<path style="mix-blend-mode:screen" d="M1167.95 484.933C1178.41 484.933 1186.89 477.543 1186.89 468.427C1186.89 459.311 1178.41 451.921 1167.95 451.921C1157.5 451.921 1149.02 459.311 1149.02 468.427C1149.02 477.543 1157.5 484.933 1167.95 484.933Z" fill="url(#paint49_radial_4_4276)"/>
<path fill-rule="evenodd" clip-rule="evenodd" d="M83.0285 476.348C88.0437 476.348 92.1146 472.799 92.1146 468.427C92.1146 464.055 88.0437 460.506 83.0285 460.506C78.0133 460.506 73.9424 464.055 73.9424 468.427C73.9424 472.799 78.0133 476.348 83.0285 476.348Z" fill="#FFE988"/>
<path fill-rule="evenodd" clip-rule="evenodd" d="M81.8065 476.659C87.0201 476.659 91.2497 472.971 91.2497 468.426C91.2497 463.881 87.0201 460.194 81.8065 460.194C76.5929 460.194 72.3633 463.881 72.3633 468.426C72.3633 472.971 76.5929 476.659 81.8065 476.659Z" fill="url(#paint50_linear_4_4276)"/>
<path fill-rule="evenodd" clip-rule="evenodd" d="M81.8068 474.562C86.2348 474.562 89.8217 471.435 89.8217 467.575C89.8217 463.715 86.2348 460.588 81.8068 460.588C77.3788 460.588 73.792 463.715 73.792 467.575C73.792 471.435 77.3788 474.562 81.8068 474.562Z" fill="white"/>
<path style="mix-blend-mode:screen" d="M86.1589 484.49C96.3379 482.402 102.648 473.516 100.253 464.642C97.8582 455.769 87.665 450.268 77.486 452.355C67.3069 454.443 60.9967 463.329 63.3917 472.203C65.7866 481.076 75.9799 486.577 86.1589 484.49Z" fill="url(#paint51_radial_4_4276)"/>
<defs>
<linearGradient id="paint0_linear_4_4276" x1="615" y1="669.284" x2="615" y2="591.722" gradientUnits="userSpaceOnUse">
<stop stop-color="#393B00"/>
<stop offset="1" stop-color="#566000"/>
</linearGradient>
<radialGradient id="paint1_radial_4_4276" cx="0" cy="0" r="1" gradientUnits="userSpaceOnUse" gradientTransform="translate(461.428 318.843) rotate(-90) scale(389.378 524.519)">
<stop stop-color="#FF163E"/>
<stop offset="0.99" stop-color="#BF0244"/>
</radialGradient>
<linearGradient id="paint2_linear_4_4276" x1="1188.48" y1="327.414" x2="59.0078" y2="327.414" gradientUnits="userSpaceOnUse">
<stop stop-color="#FF9600"/>
<stop offset="0.21" stop-color="#EA742A"/>
<stop offset="1" stop-color="#FFCC00"/>
</linearGradient>
<linearGradient id="paint3_linear_4_4276" x1="1147.87" y1="327.726" x2="90.6313" y2="327.726" gradientUnits="userSpaceOnUse">
<stop stop-color="#FFCC1B"/>
<stop offset="1" stop-color="#FF8631"/>
</linearGradient>
<linearGradient id="paint4_linear_4_4276" x1="115.31" y1="60.9211" x2="96.4319" y2="60.9211" gradientUnits="userSpaceOnUse">
<stop stop-color="#FFCC00"/>
<stop offset="1" stop-color="#EA742A"/>
</linearGradient>
<radialGradient id="paint5_radial_4_4276" cx="0" cy="0" r="1" gradientUnits="userSpaceOnUse" gradientTransform="translate(105.88 60.9133) rotate(-90) scale(16.5058 18.9341)">
<stop stop-color="#FF8100"/>
<stop offset="0.13" stop-color="#D66C00"/>
<stop offset="0.45" stop-color="#7B3E00"/>
<stop offset="0.72" stop-color="#391C00"/>
<stop offset="0.9" stop-color="#0F0700"/>
<stop offset="1"/>
</radialGradient>
<linearGradient id="paint6_linear_4_4276" x1="113.604" y1="595.341" x2="94.7177" y2="595.341" gradientUnits="userSpaceOnUse">
<stop stop-color="#FFCC00"/>
<stop offset="1" stop-color="#EA742A"/>
</linearGradient>
<radialGradient id="paint7_radial_4_4276" cx="0" cy="0" r="1" gradientUnits="userSpaceOnUse" gradientTransform="translate(104.2 595.35) rotate(90) scale(16.5058 18.9341)">
<stop stop-color="#FF8100"/>
<stop offset="0.13" stop-color="#D66C00"/>
<stop offset="0.45" stop-color="#7B3E00"/>
<stop offset="0.72" stop-color="#391C00"/>
<stop offset="0.9" stop-color="#0F0700"/>
<stop offset="1"/>
</radialGradient>
<linearGradient id="paint8_linear_4_4276" x1="1163.42" y1="596.321" x2="1144.53" y2="596.321" gradientUnits="userSpaceOnUse">
<stop stop-color="#FFCC00"/>
<stop offset="1" stop-color="#EA742A"/>
</linearGradient>
<radialGradient id="paint9_radial_4_4276" cx="0" cy="0" r="1" gradientUnits="userSpaceOnUse" gradientTransform="translate(1153.97 596.318) rotate(90.0001) scale(16.5059 18.9341)">
<stop stop-color="#FF8100"/>
<stop offset="0.13" stop-color="#D66C00"/>
<stop offset="0.45" stop-color="#7B3E00"/>
<stop offset="0.72" stop-color="#391C00"/>
<stop offset="0.9" stop-color="#0F0700"/>
<stop offset="1"/>
</radialGradient>
<linearGradient id="paint10_linear_4_4276" x1="1163.42" y1="60.9142" x2="1144.53" y2="60.9142" gradientUnits="userSpaceOnUse">
<stop stop-color="#FFCC00"/>
<stop offset="1" stop-color="#EA742A"/>
</linearGradient>
<radialGradient id="paint11_radial_4_4276" cx="0" cy="0" r="1" gradientUnits="userSpaceOnUse" gradientTransform="translate(1153.99 60.9161) rotate(-90) scale(16.5059 18.9341)">
<stop stop-color="#FF8100"/>
<stop offset="0.13" stop-color="#D66C00"/>
<stop offset="0.45" stop-color="#7B3E00"/>
<stop offset="0.72" stop-color="#391C00"/>
<stop offset="0.9" stop-color="#0F0700"/>
<stop offset="1"/>
</radialGradient>
<linearGradient id="paint12_linear_4_4276" x1="637.449" y1="20.0153" x2="618.563" y2="20.0153" gradientUnits="userSpaceOnUse">
<stop stop-color="#FFCC00"/>
<stop offset="1" stop-color="#EA742A"/>
</linearGradient>
<radialGradient id="paint13_radial_4_4276" cx="0" cy="0" r="1" gradientUnits="userSpaceOnUse" gradientTransform="translate(628.006 20.016) rotate(-90) scale(16.5058 18.9341)">
<stop stop-color="#FF8100"/>
<stop offset="0.13" stop-color="#D66C00"/>
<stop offset="0.45" stop-color="#7B3E00"/>
<stop offset="0.72" stop-color="#391C00"/>
<stop offset="0.9" stop-color="#0F0700"/>
<stop offset="1"/>
</radialGradient>
<linearGradient id="paint14_linear_4_4276" x1="367.111" y1="26.2282" x2="348.224" y2="26.2282" gradientUnits="userSpaceOnUse">
<stop stop-color="#FFCC00"/>
<stop offset="1" stop-color="#EA742A"/>
</linearGradient>
<radialGradient id="paint15_radial_4_4276" cx="0" cy="0" r="1" gradientUnits="userSpaceOnUse" gradientTransform="translate(357.668 26.2274) rotate(-90) scale(16.5058 18.9341)">
<stop stop-color="#FF8100"/>
<stop offset="0.13" stop-color="#D66C00"/>
<stop offset="0.45" stop-color="#7B3E00"/>
<stop offset="0.72" stop-color="#391C00"/>
<stop offset="0.9" stop-color="#0F0700"/>
<stop offset="1"/>
</radialGradient>
<linearGradient id="paint16_linear_4_4276" x1="231.938" y1="30.9665" x2="213.052" y2="30.9665" gradientUnits="userSpaceOnUse">
<stop stop-color="#FFCC00"/>
<stop offset="1" stop-color="#EA742A"/>
</linearGradient>
<radialGradient id="paint17_radial_4_4276" cx="0" cy="0" r="1" gradientUnits="userSpaceOnUse" gradientTransform="translate(222.495 30.9657) rotate(-90) scale(16.5058 18.9341)">
<stop stop-color="#FF8100"/>
<stop offset="0.13" stop-color="#D66C00"/>
<stop offset="0.45" stop-color="#7B3E00"/>
<stop offset="0.72" stop-color="#391C00"/>
<stop offset="0.9" stop-color="#0F0700"/>
<stop offset="1"/>
</radialGradient>
<linearGradient id="paint18_linear_4_4276" x1="502.276" y1="20.4851" x2="483.39" y2="20.4851" gradientUnits="userSpaceOnUse">
<stop stop-color="#FFCC00"/>
<stop offset="1" stop-color="#EA742A"/>
</linearGradient>
<radialGradient id="paint19_radial_4_4276" cx="0" cy="0" r="1" gradientUnits="userSpaceOnUse" gradientTransform="translate(492.817 20.4758) rotate(-90) scale(16.5058 18.9341)">
<stop stop-color="#FF8100"/>
<stop offset="0.13" stop-color="#D66C00"/>
<stop offset="0.45" stop-color="#7B3E00"/>
<stop offset="0.72" stop-color="#391C00"/>
<stop offset="0.9" stop-color="#0F0700"/>
<stop offset="1"/>
</radialGradient>
<linearGradient id="paint20_linear_4_4276" x1="907.787" y1="24.4358" x2="888.909" y2="24.4358" gradientUnits="userSpaceOnUse">
<stop stop-color="#FFCC00"/>
<stop offset="1" stop-color="#EA742A"/>
</linearGradient>
<radialGradient id="paint21_radial_4_4276" cx="0" cy="0" r="1" gradientUnits="userSpaceOnUse" gradientTransform="translate(898.35 24.436) rotate(-90) scale(16.5059 18.9341)">
<stop stop-color="#FF8100"/>
<stop offset="0.13" stop-color="#D66C00"/>
<stop offset="0.45" stop-color="#7B3E00"/>
<stop offset="0.72" stop-color="#391C00"/>
<stop offset="0.9" stop-color="#0F0700"/>
<stop offset="1"/>
</radialGradient>
<linearGradient id="paint22_linear_4_4276" x1="1041.2" y1="30.2537" x2="1022.31" y2="30.2537" gradientUnits="userSpaceOnUse">
<stop stop-color="#FFCC00"/>
<stop offset="1" stop-color="#EA742A"/>
</linearGradient>
<radialGradient id="paint23_radial_4_4276" cx="0" cy="0" r="1" gradientUnits="userSpaceOnUse" gradientTransform="translate(1031.76 30.2534) rotate(-90) scale(16.5058 18.9341)">
<stop stop-color="#FF8100"/>
<stop offset="0.13" stop-color="#D66C00"/>
<stop offset="0.45" stop-color="#7B3E00"/>
<stop offset="0.72" stop-color="#391C00"/>
<stop offset="0.9" stop-color="#0F0700"/>
<stop offset="1"/>
</radialGradient>
<linearGradient id="paint24_linear_4_4276" x1="772.623" y1="21.3371" x2="753.736" y2="21.3371" gradientUnits="userSpaceOnUse">
<stop stop-color="#FFCC00"/>
<stop offset="1" stop-color="#EA742A"/>
</linearGradient>
<radialGradient id="paint25_radial_4_4276" cx="0" cy="0" r="1" gradientUnits="userSpaceOnUse" gradientTransform="translate(763.179 21.3373) rotate(-90) scale(16.5058 18.9341)">
<stop stop-color="#FF8100"/>
<stop offset="0.13" stop-color="#D66C00"/>
<stop offset="0.45" stop-color="#7B3E00"/>
<stop offset="0.72" stop-color="#391C00"/>
<stop offset="0.9" stop-color="#0F0700"/>
<stop offset="1"/>
</radialGradient>
<linearGradient id="paint26_linear_4_4276" x1="637.449" y1="635.989" x2="618.563" y2="635.989" gradientUnits="userSpaceOnUse">
<stop stop-color="#FFCC00"/>
<stop offset="1" stop-color="#EA742A"/>
</linearGradient>
<radialGradient id="paint27_radial_4_4276" cx="0" cy="0" r="1" gradientUnits="userSpaceOnUse" gradientTransform="translate(628.006 635.989) rotate(90) scale(16.5059 18.9341)">
<stop stop-color="#FF8100"/>
<stop offset="0.13" stop-color="#D66C00"/>
<stop offset="0.45" stop-color="#7B3E00"/>
<stop offset="0.72" stop-color="#391C00"/>
<stop offset="0.9" stop-color="#0F0700"/>
<stop offset="1"/>
</radialGradient>
<linearGradient id="paint28_linear_4_4276" x1="367.111" y1="630.13" x2="348.224" y2="630.13" gradientUnits="userSpaceOnUse">
<stop stop-color="#FFCC00"/>
<stop offset="1" stop-color="#EA742A"/>
</linearGradient>
<radialGradient id="paint29_radial_4_4276" cx="0" cy="0" r="1" gradientUnits="userSpaceOnUse" gradientTransform="translate(357.668 630.13) rotate(90) scale(16.5058 18.9341)">
<stop stop-color="#FF8100"/>
<stop offset="0.13" stop-color="#D66C00"/>
<stop offset="0.45" stop-color="#7B3E00"/>
<stop offset="0.72" stop-color="#391C00"/>
<stop offset="0.9" stop-color="#0F0700"/>
<stop offset="1"/>
</radialGradient>
<linearGradient id="paint30_linear_4_4276" x1="231.938" y1="625.045" x2="213.052" y2="625.045" gradientUnits="userSpaceOnUse">
<stop stop-color="#FFCC00"/>
<stop offset="1" stop-color="#EA742A"/>
</linearGradient>
<radialGradient id="paint31_radial_4_4276" cx="0" cy="0" r="1" gradientUnits="userSpaceOnUse" gradientTransform="translate(222.495 625.046) rotate(90) scale(16.5058 18.9341)">
<stop stop-color="#FF8100"/>
<stop offset="0.13" stop-color="#D66C00"/>
<stop offset="0.45" stop-color="#7B3E00"/>
<stop offset="0.72" stop-color="#391C00"/>
<stop offset="0.9" stop-color="#0F0700"/>
<stop offset="1"/>
</radialGradient>
<linearGradient id="paint32_linear_4_4276" x1="502.277" y1="635.527" x2="483.39" y2="635.527" gradientUnits="userSpaceOnUse">
<stop stop-color="#FFCC00"/>
<stop offset="1" stop-color="#EA742A"/>
</linearGradient>
<radialGradient id="paint33_radial_4_4276" cx="0" cy="0" r="1" gradientUnits="userSpaceOnUse" gradientTransform="translate(492.833 635.526) rotate(90) scale(16.5059 18.9341)">
<stop stop-color="#FF8100"/>
<stop offset="0.13" stop-color="#D66C00"/>
<stop offset="0.45" stop-color="#7B3E00"/>
<stop offset="0.72" stop-color="#391C00"/>
<stop offset="0.9" stop-color="#0F0700"/>
<stop offset="1"/>
</radialGradient>
<linearGradient id="paint34_linear_4_4276" x1="907.788" y1="631.575" x2="888.909" y2="631.575" gradientUnits="userSpaceOnUse">
<stop stop-color="#FFCC00"/>
<stop offset="1" stop-color="#EA742A"/>
</linearGradient>
<radialGradient id="paint35_radial_4_4276" cx="0" cy="0" r="1" gradientUnits="userSpaceOnUse" gradientTransform="translate(898.351 631.577) rotate(90.0001) scale(16.5059 18.9341)">
<stop stop-color="#FF8100"/>
<stop offset="0.13" stop-color="#D66C00"/>
<stop offset="0.45" stop-color="#7B3E00"/>
<stop offset="0.72" stop-color="#391C00"/>
<stop offset="0.9" stop-color="#0F0700"/>
<stop offset="1"/>
</radialGradient>
<linearGradient id="paint36_linear_4_4276" x1="1041.2" y1="625.758" x2="1022.31" y2="625.758" gradientUnits="userSpaceOnUse">
<stop stop-color="#FFCC00"/>
<stop offset="1" stop-color="#EA742A"/>
</linearGradient>
<radialGradient id="paint37_radial_4_4276" cx="0" cy="0" r="1" gradientUnits="userSpaceOnUse" gradientTransform="translate(1031.76 625.757) rotate(90) scale(16.5059 18.9341)">
<stop stop-color="#FF8100"/>
<stop offset="0.13" stop-color="#D66C00"/>
<stop offset="0.45" stop-color="#7B3E00"/>
<stop offset="0.72" stop-color="#391C00"/>
<stop offset="0.9" stop-color="#0F0700"/>
<stop offset="1"/>
</radialGradient>
<linearGradient id="paint38_linear_4_4276" x1="772.623" y1="634.675" x2="753.736" y2="634.675" gradientUnits="userSpaceOnUse">
<stop stop-color="#FFCC00"/>
<stop offset="1" stop-color="#EA742A"/>
</linearGradient>
<radialGradient id="paint39_radial_4_4276" cx="0" cy="0" r="1" gradientUnits="userSpaceOnUse" gradientTransform="translate(763.179 634.675) rotate(90) scale(16.5058 18.9341)">
<stop stop-color="#FF8100"/>
<stop offset="0.13" stop-color="#D66C00"/>
<stop offset="0.45" stop-color="#7B3E00"/>
<stop offset="0.72" stop-color="#391C00"/>
<stop offset="0.9" stop-color="#0F0700"/>
<stop offset="1"/>
</radialGradient>
<linearGradient id="paint40_linear_4_4276" x1="1179.34" y1="334.104" x2="1160.45" y2="334.104" gradientUnits="userSpaceOnUse">
<stop stop-color="#FFCC00"/>
<stop offset="1" stop-color="#EA742A"/>
</linearGradient>
<radialGradient id="paint41_radial_4_4276" cx="0" cy="0" r="1" gradientUnits="userSpaceOnUse" gradientTransform="translate(1169.94 334.134) rotate(90) scale(16.5058 18.9341)">
<stop stop-color="#FF8100"/>
<stop offset="0.13" stop-color="#D66C00"/>
<stop offset="0.45" stop-color="#7B3E00"/>
<stop offset="0.72" stop-color="#391C00"/>
<stop offset="0.9" stop-color="#0F0700"/>
<stop offset="1"/>
</radialGradient>
<linearGradient id="paint42_linear_4_4276" x1="65.6816" y1="328.283" x2="77.2149" y2="341.513" gradientUnits="userSpaceOnUse">
<stop stop-color="#FFCC00"/>
<stop offset="1" stop-color="#EA742A"/>
</linearGradient>
<radialGradient id="paint43_radial_4_4276" cx="0" cy="0" r="1" gradientUnits="userSpaceOnUse" gradientTransform="translate(72.3584 334.104) rotate(138.92) scale(17.7615 17.5955)">
<stop stop-color="#FF8100"/>
<stop offset="0.13" stop-color="#D66C00"/>
<stop offset="0.45" stop-color="#7B3E00"/>
<stop offset="0.72" stop-color="#391C00"/>
<stop offset="0.9" stop-color="#0F0700"/>
<stop offset="1"/>
</radialGradient>
<linearGradient id="paint44_linear_4_4276" x1="1176.89" y1="187.82" x2="1158" y2="187.82" gradientUnits="userSpaceOnUse">
<stop stop-color="#FFCC00"/>
<stop offset="1" stop-color="#EA742A"/>
</linearGradient>
<radialGradient id="paint45_radial_4_4276" cx="0" cy="0" r="1" gradientUnits="userSpaceOnUse" gradientTransform="translate(1167.45 187.839) rotate(-90) scale(16.5059 18.9341)">
<stop stop-color="#FF8100"/>
<stop offset="0.13" stop-color="#D66C00"/>
<stop offset="0.45" stop-color="#7B3E00"/>
<stop offset="0.72" stop-color="#391C00"/>
<stop offset="0.9" stop-color="#0F0700"/>
<stop offset="1"/>
</radialGradient>
<linearGradient id="paint46_linear_4_4276" x1="91.0359" y1="187.82" x2="72.1494" y2="187.82" gradientUnits="userSpaceOnUse">
<stop stop-color="#FFCC00"/>
<stop offset="1" stop-color="#EA742A"/>
</linearGradient>
<radialGradient id="paint47_radial_4_4276" cx="0" cy="0" r="1" gradientUnits="userSpaceOnUse" gradientTransform="translate(81.5662 187.808) rotate(-90) scale(16.5058 18.9341)">
<stop stop-color="#FF8100"/>
<stop offset="0.13" stop-color="#D66C00"/>
<stop offset="0.45" stop-color="#7B3E00"/>
<stop offset="0.72" stop-color="#391C00"/>
<stop offset="0.9" stop-color="#0F0700"/>
<stop offset="1"/>
</radialGradient>
<linearGradient id="paint48_linear_4_4276" x1="1177.4" y1="468.427" x2="1158.51" y2="468.427" gradientUnits="userSpaceOnUse">
<stop stop-color="#FFCC00"/>
<stop offset="1" stop-color="#EA742A"/>
</linearGradient>
<radialGradient id="paint49_radial_4_4276" cx="0" cy="0" r="1" gradientUnits="userSpaceOnUse" gradientTransform="translate(1167.95 468.427) rotate(90) scale(16.5058 18.9341)">
<stop stop-color="#FF8100"/>
<stop offset="0.13" stop-color="#D66C00"/>
<stop offset="0.45" stop-color="#7B3E00"/>
<stop offset="0.72" stop-color="#391C00"/>
<stop offset="0.9" stop-color="#0F0700"/>
<stop offset="1"/>
</radialGradient>
<linearGradient id="paint50_linear_4_4276" x1="91.2418" y1="468.427" x2="72.3633" y2="468.427" gradientUnits="userSpaceOnUse">
<stop stop-color="#FFCC00"/>
<stop offset="1" stop-color="#EA742A"/>
</linearGradient>
<radialGradient id="paint51_radial_4_4276" cx="0" cy="0" r="1" gradientUnits="userSpaceOnUse" gradientTransform="translate(81.8199 468.436) rotate(90) scale(16.5058 18.9341)">
<stop stop-color="#FF8100"/>
<stop offset="0.13" stop-color="#D66C00"/>
<stop offset="0.45" stop-color="#7B3E00"/>
<stop offset="0.72" stop-color="#391C00"/>
<stop offset="0.9" stop-color="#0F0700"/>
<stop offset="1"/>
</radialGradient>
</defs>
</svg>
