<svg width="1098" height="657" viewBox="0 0 1098 657" fill="none" xmlns="http://www.w3.org/2000/svg">
<path d="M1097.99 9.62204V647.071C1097.99 652.386 1092.81 656.693 1086.42 656.693L11.5742 657C5.18115 657 0 652.693 0 647.378V9.92866C0.00878161 4.61391 5.18993 0.30662 11.5829 0.30662L1086.43 0C1092.82 0 1098 4.30729 1098 9.62204H1097.99Z" fill="url(#paint0_linear_4_2729)"/>
<path d="M32.0267 22.4928L1065.97 22.1862C1066.29 22.1862 1066.6 22.2081 1066.9 22.2519C1069.4 22.6169 1071.3 24.4347 1071.3 26.6176V630.061C1071.3 632.507 1068.92 634.493 1065.97 634.493L32.0267 634.799C29.0849 634.799 26.6963 632.813 26.6963 630.368V26.9242C26.6963 24.7413 28.6019 22.9235 31.1047 22.5585C31.4032 22.5147 31.7106 22.4928 32.0267 22.4928Z" fill="url(#paint1_linear_4_2729)"/>
<path d="M44.7776 22.4928H31.8862C29.0234 22.4928 26.6963 24.4274 26.6963 26.8074V630.485C26.6963 632.872 29.0234 634.799 31.8862 634.799L1065.97 634.493C1068.92 634.493 1071.3 632.507 1071.3 630.061V26.5007C1071.3 24.1135 1068.98 22.1862 1066.11 22.1862H1053.22C1053.53 22.1862 1053.84 22.2081 1054.13 22.2519L43.8643 22.5585C44.1541 22.5147 44.4615 22.4928 44.7688 22.4928H44.7776ZM1058.42 624.345L39.5877 624.651V32.7135L1058.42 32.4068V624.345Z" fill="url(#paint2_linear_4_2729)"/>
<g opacity="0.3">
<mask id="mask0_4_2729" style="mask-type:luminance" maskUnits="userSpaceOnUse" x="26" y="22" width="1046" height="613">
<path d="M44.7776 22.6534H31.8862C29.0234 22.6534 26.6963 25.5736 26.6963 29.18V627.981C26.6963 631.587 29.0234 634.507 31.8862 634.507L1065.97 634.04C1068.92 634.04 1071.3 631.039 1071.3 627.338V28.7055C1071.3 25.099 1068.98 22.1788 1066.11 22.1788H1053.22C1053.53 22.1788 1053.84 22.208 1054.13 22.281L43.8643 22.7483C44.1541 22.6753 44.4615 22.6461 44.7688 22.6461L44.7776 22.6534Z" fill="white"/>
</mask>
<g mask="url(#mask0_4_2729)">
<g style="mix-blend-mode:multiply" opacity="0.3">
<path d="M353.311 574.877C360.907 593.668 369.012 613.701 382.826 629.828H378.329C364.814 613.38 356.814 593.603 349.649 575.899C344.09 562.145 338.838 549.157 331.91 539.981C324.481 530.147 315.831 525.693 304.696 525.985C259.944 527.139 243.584 601.611 239 629.82H235.084C236.84 618.833 240.397 600.611 246.763 582.469C252.691 565.576 259.857 552.026 268.085 542.207C278.579 529.665 290.865 523.131 304.573 522.773C331.962 522.065 341.859 546.536 353.311 574.87V574.877Z" fill="#932C11"/>
<path d="M295.448 22.4928H303.08C277.279 33.4727 265.846 53.1329 254.017 73.4794C238.517 100.126 222.491 127.686 172.102 135.198C146.53 139.009 122.89 138.3 101.831 133.095C84.9444 128.919 69.6819 121.867 56.4744 112.121C39.4644 99.5713 30.4018 86.0143 26.8452 79.8162V75.8302L28.6454 75.2607C28.7333 75.4359 37.3392 93.7528 59.1703 109.814C79.2627 124.597 115.048 140.439 171.426 132.044C219.865 124.824 235.461 98.0163 250.539 72.085C260.058 55.71 269.903 38.7802 287.817 26.9388C290.241 25.34 292.779 23.858 295.448 22.5001V22.4928Z" fill="#932C11"/>
<path d="M694.063 22.4928H698.937C687.837 34.5824 671.021 56.8781 671.021 80.9186C671.021 81.3566 671.021 81.7873 671.038 82.2327C671.468 98.9654 680.11 114.004 696.742 126.948C724.562 148.587 760.848 140.768 795.939 133.205C819.342 128.16 841.445 123.393 860.844 126.985C871.417 128.941 880.137 133.197 887.505 139.987C895.628 147.47 901.898 157.851 906.693 171.7C908.756 177.65 910.723 183.374 912.611 188.878C927.795 233.061 937.823 262.241 950.864 279.616C959.286 290.829 968.937 296.757 981.819 298.028V301.298C978.149 300.977 974.724 300.306 971.475 299.291C962.192 296.378 954.596 290.662 947.58 281.317C934.249 263.562 924.168 234.2 908.897 189.762C907.009 184.257 905.042 178.533 902.987 172.583C894.284 147.433 880.62 133.935 860.001 130.117C841.507 126.685 819.843 131.358 796.905 136.3C760.804 144.09 723.464 152.135 694.09 129.284C676.667 115.735 667.613 99.9145 667.165 82.2765C666.665 62.5871 677.185 44.1971 686.099 32.2316C688.821 28.5814 691.534 25.3108 694.046 22.4928H694.063Z" fill="#932C11"/>
<path d="M921.621 547.047C941.968 552.479 961.56 557.706 981.828 555.896V559.174C961.06 560.94 941.125 555.626 920.436 550.106C888.655 541.623 855.794 532.848 816.189 549.566C781.915 564.043 764.51 585.996 764.466 614.818V614.913C764.466 620.191 765.08 625.228 766.011 629.828H762.068C761.181 625.236 760.602 620.213 760.602 614.927V614.913C760.602 601.721 764.237 589.668 771.403 579.089C780.352 565.883 794.824 554.983 814.433 546.704C855.452 529.38 889.086 538.36 921.604 547.047H921.621Z" fill="#932C11"/>
<path d="M107.135 383.524C116.655 392.08 122.389 404.286 123.715 418.829C123.926 421.107 124.031 423.443 124.031 425.83C124.031 440.789 119.948 457.843 111.834 476.656C84.7512 539.528 86.0684 579.126 91.9433 601.275C95.7984 615.796 102.051 624.9 106.398 629.82H101.629C97.2474 624.382 91.8291 615.541 88.2638 602.349C84.3823 587.938 83.5305 571.241 85.7523 552.742C88.5097 529.694 96.0619 503.734 108.198 475.576C117.41 454.193 121.335 435.182 119.86 419.07C118.595 405.265 113.212 393.723 104.29 385.707C92.1277 374.771 73.8444 370.741 55.3854 374.917C44.3733 377.413 34.6696 382.37 26.8452 389.247V384.801C34.8014 378.574 44.2416 374.114 54.3668 371.821C74.2396 367.324 93.9718 371.697 107.127 383.524H107.135Z" fill="#932C11"/>
<path d="M284.428 108.412C266.671 123.356 254.544 138.797 248.362 154.296C239.87 175.621 243.031 196.42 257.775 216.124C277.534 242.537 303.413 242.654 321.644 238.105C344.353 232.44 368.485 216.27 387.857 193.762C406.264 172.372 417.1 148.594 417.1 129.759C417.1 129.233 417.1 128.715 417.074 128.204C416.661 115.428 411.743 105.215 402.47 97.8485C398.685 94.848 394.18 92.3148 388.981 90.2706C383.783 88.2265 377.899 86.6715 371.366 85.6129C339.919 80.5318 307.418 89.0587 284.428 108.42V108.412ZM370.628 88.7594C398.185 93.2127 412.507 106.514 413.219 128.292C414.501 167.824 365.991 223.68 320.529 235.032C296.239 241.091 275.672 233.966 261.051 214.423C251.453 201.588 247.518 189.112 247.518 177.263C247.518 150.821 267.119 127.547 287.176 110.668C309.253 92.0738 340.454 83.8827 370.628 88.7594Z" fill="#932C11"/>
<path d="M202.512 257.459C202.512 260.007 202.433 262.606 202.267 265.256C200.897 287.552 190.684 304.73 171.908 316.308C145.827 332.391 107.592 334.632 80.1143 333.669C50.4852 332.639 26.6167 327.77 26.3796 327.726L27.3105 324.609C27.5476 324.66 51.0999 329.456 80.3514 330.464C107.188 331.391 144.448 329.245 169.616 313.724C187.417 302.744 197.103 286.384 198.411 265.088C200.405 232.637 189.884 208.013 167.123 191.923C141.893 174.08 105.844 169.926 80.0353 169.576C51.9078 169.196 29.5059 173.146 29.2864 173.182L28.4697 170.043C28.698 169.999 51.4599 165.991 80.0001 166.364C106.459 166.707 143.491 170.999 169.608 189.47C191.456 204.917 202.504 227.768 202.504 257.459H202.512Z" fill="#932C11"/>
<path d="M491.603 22.4928H495.748C508.438 49.7747 514.787 76.6478 514.787 103.316C514.787 142.476 501.105 181.227 473.689 220.256C431.765 279.937 364.858 330.544 305.828 375.187C280.493 394.343 256.572 412.441 236.954 429.531C180.348 478.832 170.609 535.155 172.392 573.709C173.472 596.99 178.767 616.774 183.281 629.82H179.268C174.763 616.592 169.617 596.946 168.537 573.95C167.36 549.004 171.11 525.044 179.689 502.733C190.412 474.831 208.73 449.454 234.153 427.312C253.859 410.149 277.833 392.014 303.22 372.814C397.886 301.218 511.002 215.649 511.002 103.733C511.002 78.086 505.057 51.0669 491.595 22.4928H491.603Z" fill="#932C11"/>
<path d="M529.681 22.4928H533.545C533.878 35.6921 535.696 59.8567 543.485 86.2917C554.181 122.597 578.682 170.744 634.621 193.974C659.183 204.18 683.701 212.086 705.322 219.073C743.618 231.433 776.681 242.106 797.731 260.744C808.927 270.658 816.058 282.237 819.544 296.13C821.213 302.802 822.056 310.001 822.056 317.827C822.056 327.617 820.738 338.378 818.113 350.277C813.766 369.974 800.822 388.7 778.551 407.535C758.81 424.231 733.686 439.489 709.387 454.251C670.494 477.875 630.274 502.303 610.735 533.308C592.803 561.765 594.296 593.522 615.451 629.828H611.139C560.197 540.9 634.77 495.594 707.104 451.652C755.192 422.443 804.923 392.233 814.31 349.701C823.074 309.993 816.91 282.434 794.903 262.942C774.459 244.836 741.774 234.287 703.917 222.066C682.208 215.058 657.611 207.122 632.882 196.85C607.556 186.33 586.366 170.028 569.9 148.397C556.772 131.139 546.603 110.478 539.692 86.978C531.832 60.2728 529.997 35.8527 529.663 22.4928H529.681Z" fill="#932C11"/>
<path d="M973.538 356.687C976.445 357.607 979.22 358.571 981.837 359.527V363.046C978.789 361.9 975.523 360.754 972.08 359.659C955.158 354.278 930.447 349.117 908.8 355.088C890.253 360.213 876.615 372.726 868.282 392.27C859.474 412.894 860.65 432.598 871.759 450.834C887.197 476.16 919.32 494.367 943.549 505.186C958.609 511.917 972.581 516.692 981.828 519.568V522.985C972.493 520.131 957.74 515.166 941.792 508.048C917.046 497.01 884.211 478.379 868.317 452.294C856.699 433.24 855.46 412.682 864.628 391.197C873.393 370.668 887.847 357.49 907.588 352.037C930.324 345.758 956.001 351.095 973.529 356.68L973.538 356.687Z" fill="#932C11"/>
<path d="M864.848 22.4928H868.853C871.171 32.0345 875.386 44.0219 883.079 56.1918C897.006 78.2393 925.248 104.901 981.828 114.494V117.779C958.908 113.997 938.868 107.251 922.052 97.6221C904.172 87.3941 889.893 73.9101 879.584 57.5716C871.496 44.752 867.166 32.2974 864.848 22.4928Z" fill="#932C11"/>
<path d="M563.63 281.952C536.943 291.998 514.892 309.533 501.527 331.325C490.752 348.89 485.246 364.915 485.14 378.939C485.14 379.071 485.14 379.195 485.14 379.326C485.14 396.76 493.535 411.112 510.097 422.005C534.045 437.759 564.254 437.774 597.466 422.041C622.203 410.324 647.143 390.226 665.883 366.901C682.199 346.598 691.464 326.536 691.464 311.957C691.464 310.285 691.341 308.679 691.095 307.168C689.892 299.758 685.747 293.45 678.722 288.267C671.688 283.091 661.773 279.047 649.014 276.163C620.79 269.797 590.467 271.856 563.648 281.952H563.63ZM647.986 279.258C671.864 284.639 685.071 294.173 687.258 307.591C689.532 321.616 680.338 343.116 662.66 365.119C644.245 388.043 619.78 407.769 595.543 419.252C573.422 429.729 541.053 438.277 512.486 419.486C496.767 409.148 488.89 395.716 488.89 379.319C488.89 365.798 494.247 350.256 504.96 332.785C531.735 289.121 591.889 266.614 647.986 279.258Z" fill="#932C11"/>
<path d="M412.508 414.463C440.582 418.457 471.335 441.694 496.864 478.218C516.482 506.267 541.984 554.961 554.752 629.835H550.853C538.146 555.728 512.925 507.581 493.527 479.839C468.569 444.14 438.791 421.472 411.849 417.639C392.108 414.836 375.528 422.83 365.157 440.161C356.261 455.032 356.771 474.729 366.685 498.696C374.694 518.072 388.815 540.229 408.644 564.539C431.353 592.376 456.477 616.723 470.668 629.835H465.487C450.909 616.241 427.085 592.858 405.447 566.335C385.425 541.791 371.155 519.379 363.032 499.733C352.775 474.919 352.327 454.39 361.697 438.723C372.885 420.019 390.931 411.397 412.499 414.471L412.508 414.463Z" fill="#932C11"/>
</g>
<g style="mix-blend-mode:multiply" opacity="0.3">
<path d="M1270.29 22.4928H1265.42C1276.52 34.5824 1293.34 56.8781 1293.34 80.9186C1293.34 81.3566 1293.34 81.7873 1293.32 82.2327C1292.89 98.9654 1284.25 114.004 1267.62 126.948C1239.8 148.587 1203.51 140.768 1168.42 133.205C1145.02 128.16 1122.91 123.393 1103.51 126.985C1092.94 128.941 1084.22 133.197 1076.85 139.987C1068.73 147.47 1062.46 157.851 1057.67 171.7C1055.6 177.65 1053.64 183.374 1051.75 188.878C1036.56 233.061 1026.53 262.241 1013.49 279.616C1005.07 290.829 995.422 296.757 982.539 298.028V301.298C986.21 300.977 989.635 300.306 992.884 299.291C1002.17 296.378 1009.76 290.662 1016.78 281.317C1030.11 263.562 1040.19 234.2 1055.46 189.762C1057.35 184.257 1059.32 178.533 1061.37 172.583C1070.07 147.433 1083.74 133.935 1104.36 130.117C1122.85 126.685 1144.52 131.358 1167.45 136.3C1203.55 144.09 1240.89 152.135 1270.27 129.284C1287.69 115.735 1296.75 99.9145 1297.19 82.2765C1297.69 62.5871 1287.17 44.1971 1278.26 32.2316C1275.54 28.5814 1272.82 25.3108 1270.31 22.4928H1270.29Z" fill="#932C11"/>
<path d="M1042.75 547.047C1022.4 552.479 1002.81 557.706 982.539 555.896V559.174C1003.31 560.94 1023.24 555.626 1043.93 550.106C1075.71 541.623 1108.57 532.848 1148.18 549.566C1182.45 564.043 1199.86 585.996 1199.9 614.818V614.913C1199.9 620.191 1199.29 625.228 1198.36 629.828H1202.3C1203.19 625.236 1203.77 620.213 1203.77 614.927V614.913C1203.77 601.721 1200.13 589.668 1192.96 579.089C1184.02 565.883 1169.54 554.983 1149.93 546.704C1108.92 529.38 1075.28 538.36 1042.76 547.047H1042.75Z" fill="#932C11"/>
<path d="M990.829 356.687C987.922 357.607 985.147 358.571 982.53 359.527V363.046C985.577 361.9 988.844 360.754 992.287 359.659C1009.21 354.278 1033.92 349.117 1055.57 355.088C1074.11 360.213 1087.75 372.726 1096.09 392.27C1104.89 412.894 1103.72 432.598 1092.61 450.834C1077.17 476.16 1045.05 494.367 1020.82 505.186C1005.76 511.917 991.786 516.692 982.539 519.568V522.985C991.874 520.131 1006.63 515.166 1022.57 508.048C1047.32 497.01 1080.16 478.379 1096.05 452.294C1107.67 433.24 1108.91 412.682 1099.74 391.197C1090.97 370.668 1076.52 357.49 1056.78 352.037C1034.04 345.758 1008.37 351.095 990.838 356.68L990.829 356.687Z" fill="#932C11"/>
<path d="M1099.52 22.4928H1095.51C1093.2 32.0345 1088.98 44.0219 1081.29 56.1918C1067.36 78.2393 1039.12 104.901 982.539 114.494V117.779C1005.46 113.997 1025.5 107.251 1042.32 97.6221C1060.19 87.3941 1074.47 73.9101 1084.78 57.5716C1092.87 44.752 1097.2 32.2974 1099.52 22.4928Z" fill="#932C11"/>
</g>
</g>
</g>
<defs>
<linearGradient id="paint0_linear_4_2729" x1="1166.81" y1="328.5" x2="-626.989" y2="328.5" gradientUnits="userSpaceOnUse">
<stop stop-color="#932C11"/>
<stop offset="1" stop-color="#D66B11"/>
</linearGradient>
<linearGradient id="paint1_linear_4_2729" x1="549" y1="19.6967" x2="549" y2="650.926" gradientUnits="userSpaceOnUse">
<stop offset="0.33" stop-color="#FCD788"/>
<stop offset="0.49" stop-color="#FCCC6D"/>
<stop offset="0.82" stop-color="#FCB028"/>
<stop offset="1" stop-color="#FCA000"/>
</linearGradient>
<linearGradient id="paint2_linear_4_2729" x1="2084.43" y1="328.5" x2="-2094.05" y2="328.5" gradientUnits="userSpaceOnUse">
<stop stop-color="#932C11"/>
<stop offset="1" stop-color="#4D1111"/>
</linearGradient>
</defs>
</svg>
