<svg width="192" height="62" viewBox="0 0 192 62" fill="none" xmlns="http://www.w3.org/2000/svg">
<path style="mix-blend-mode:screen" opacity="0.3" d="M-20.4792 65.9353H-41.019L15.2985 -3.56592H35.8383L-20.4792 65.9353Z" fill="url(#paint0_linear_4_4208)"/>
<path style="mix-blend-mode:screen" opacity="0.3" d="M18.8293 65.9353H-1.70459L54.6129 -3.56592H75.1468L18.8293 65.9353Z" fill="url(#paint1_linear_4_4208)"/>
<path style="mix-blend-mode:screen" opacity="0.3" d="M58.1437 65.9353H37.6099L93.9274 -3.56592H114.461L58.1437 65.9353Z" fill="url(#paint2_linear_4_4208)"/>
<path style="mix-blend-mode:screen" opacity="0.3" d="M97.4579 65.9353H76.918L133.235 -3.56592H153.775L97.4579 65.9353Z" fill="url(#paint3_linear_4_4208)"/>
<path style="mix-blend-mode:screen" opacity="0.3" d="M136.766 65.9353H116.232L172.55 -3.56592H193.084L136.766 65.9353Z" fill="url(#paint4_linear_4_4208)"/>
<path style="mix-blend-mode:screen" opacity="0.3" d="M176.081 65.9353H155.547L211.858 -3.56592H232.398L176.081 65.9353Z" fill="url(#paint5_linear_4_4208)"/>
<defs>
<linearGradient id="paint0_linear_4_4208" x1="15.3045" y1="-3.56592" x2="35.8383" y2="-3.56592" gradientUnits="userSpaceOnUse">
<stop stop-color="#FFD540"/>
<stop offset="1" stop-color="#FFD540"/>
</linearGradient>
<linearGradient id="paint1_linear_4_4208" x1="54.6129" y1="-3.56592" x2="75.1528" y2="-3.56592" gradientUnits="userSpaceOnUse">
<stop stop-color="#FFD540"/>
<stop offset="1" stop-color="#FFD540"/>
</linearGradient>
<linearGradient id="paint2_linear_4_4208" x1="93.9274" y1="-3.56592" x2="114.461" y2="-3.56592" gradientUnits="userSpaceOnUse">
<stop stop-color="#FFD540"/>
<stop offset="1" stop-color="#FFD540"/>
</linearGradient>
<linearGradient id="paint3_linear_4_4208" x1="133.242" y1="-3.56592" x2="153.775" y2="-3.56592" gradientUnits="userSpaceOnUse">
<stop stop-color="#FFD540"/>
<stop offset="1" stop-color="#FFD540"/>
</linearGradient>
<linearGradient id="paint4_linear_4_4208" x1="172.55" y1="-3.56592" x2="193.09" y2="-3.56592" gradientUnits="userSpaceOnUse">
<stop stop-color="#FFD540"/>
<stop offset="1" stop-color="#FFD540"/>
</linearGradient>
<linearGradient id="paint5_linear_4_4208" x1="211.864" y1="-3.56592" x2="232.398" y2="-3.56592" gradientUnits="userSpaceOnUse">
<stop stop-color="#FFD540"/>
<stop offset="1" stop-color="#FFD540"/>
</linearGradient>
</defs>
</svg>
