<svg viewBox="0 0 921 113" fill="none" xmlns="http://www.w3.org/2000/svg" preserveAspectRatio="none">
<g style="mix-blend-mode:multiply" opacity="0.3">
<path d="M41.2343 20.4075C35.9145 30.235 25.5567 36.0022 14.5774 42.1009C9.96201 44.6696 5.30515 47.2632 0.979736 50.1965V46.9318C4.99027 44.305 9.18311 41.9766 13.2517 39.7145C23.8663 33.8064 33.8927 28.2297 38.8313 19.1066C42.3861 12.5356 43.2727 6.20492 41.458 0.271973H44.3085C46.032 6.69381 44.9962 13.4554 41.2426 20.4075H41.2343Z" fill="#932C11"/>
</g>
<g style="mix-blend-mode:multiply" opacity="0.3">
<path d="M183.352 17.3913C179.134 30.3924 169.845 41.7446 157.2 49.343C142.401 58.2425 123.492 61.673 102.519 59.2617C63.1432 54.7291 39.7926 69.5697 27.1313 82.8194C20.3365 89.929 15.804 97.3369 12.9701 103.021C12.0337 102.856 11.1223 102.607 10.2522 102.267C13.1607 96.3508 17.8921 88.5204 25.1508 80.9219C33.4868 72.2048 43.4386 65.6338 54.7244 61.3995C68.7944 56.1212 84.9857 54.4888 102.834 56.5438C149.055 61.8635 173.69 38.3223 180.75 16.5461C182.573 10.9281 183.244 5.40114 182.863 0.263672H185.605C185.987 5.67458 185.266 11.4915 183.352 17.383V17.3913Z" fill="#932C11"/>
</g>
<g style="mix-blend-mode:multiply" opacity="0.3">
<path d="M262.054 89.6972C258.789 94.2298 255.475 98.8204 252.881 103.237H249.733C252.5 98.2735 256.196 93.1443 259.834 88.098C267.142 77.9639 274.691 67.4984 273.365 59.8833C272.884 57.1157 271.269 54.8287 268.418 52.8815C255.409 43.9738 243.891 50.0559 227.956 58.4664C213.339 66.1809 195.267 75.7266 170.193 75.7266C169.348 75.7266 168.503 75.7183 167.641 75.6935C146.279 75.1466 129.922 81.3861 120.351 93.7409C117.807 97.0222 116.051 100.328 114.849 103.237H111.891C113.184 99.8976 115.164 95.9782 118.197 92.0588C125.257 82.9439 139.584 72.2298 167.715 72.9507C193.419 73.6054 211.865 63.869 226.689 56.0385C242.838 47.512 255.599 40.7753 269.976 50.6193C273.415 52.9726 275.461 55.9308 276.066 59.4027C277.591 68.1613 270.05 78.6185 262.063 89.6972H262.054Z" fill="#932C11"/>
</g>
<g style="mix-blend-mode:multiply" opacity="0.3">
<path d="M359.915 0.263672C351.877 10.0497 341.958 19.0817 320.099 21.1118C317.025 21.3936 314.1 21.5344 311.324 21.5344C289.805 21.5344 277.011 13.5299 269.868 6.33748C267.846 4.29907 266.173 2.24408 264.781 0.263672H268.186C269.263 1.66405 270.498 3.09756 271.907 4.50622C282.878 15.4772 299.458 20.2749 319.843 18.3857C339.299 16.5793 348.878 8.90621 356.335 0.263672H359.915Z" fill="#932C11"/>
</g>
<g style="mix-blend-mode:multiply" opacity="0.3">
<path d="M470.18 60.8362V63.9021C465.871 61.7146 461.189 59.9496 456.549 58.1929C442.694 52.9643 428.367 47.5534 426.395 31.2958C425.6 24.758 427.381 19.115 431.698 14.5493C438.352 7.50602 450.044 4.00094 461.231 2.31055C462.432 2.95687 463.551 3.75235 464.553 4.65555C452.969 6.10564 440.366 9.34556 433.695 16.422C429.967 20.3745 428.425 25.2634 429.121 30.9643C430.895 45.5813 443.829 50.4619 457.527 55.6242C461.786 57.2317 466.111 58.8641 470.188 60.8279L470.18 60.8362Z" fill="#932C11"/>
</g>
<g style="mix-blend-mode:multiply" opacity="0.3">
<path d="M381.492 103.237H378.186C376.454 100.585 374.921 97.7348 373.371 94.8512C368.192 85.206 362.839 75.2459 349.084 69.4953C342.663 66.8105 336.348 66.9265 330.299 69.8184C318.309 75.5608 309.377 91.0644 303.933 103.245H300.883C306.41 90.5423 315.881 73.6881 329.115 67.3491C335.893 64.1092 342.961 63.9766 350.128 66.968C364.787 73.0915 370.62 83.963 375.774 93.5585C377.606 96.9724 379.387 100.287 381.475 103.245L381.492 103.237Z" fill="#932C11"/>
</g>
<g style="mix-blend-mode:multiply" opacity="0.3">
<path d="M470.18 82.0741V86.3249C462.888 77.6824 452.132 67.2666 441.6 65.6011C436.703 64.8222 432.237 66.0651 428.326 69.2802C421.763 74.6745 418.979 81.3035 420.04 88.9931C420.703 93.8157 422.857 98.6963 425.89 103.229H422.683C419.915 98.7791 417.968 94.056 417.33 89.366C416.145 80.7897 419.352 73.1167 426.586 67.1589C431.127 63.4218 436.322 61.9883 442.031 62.8915C452.439 64.5404 462.714 73.6801 470.18 82.0658V82.0741Z" fill="#932C11"/>
</g>
<g style="mix-blend-mode:multiply" opacity="0.3">
<g filter="url(#filter0_d_4_4035)">
<path d="M747.306 19.1681C751.441 32.1998 760.547 43.5787 772.943 51.1952C787.451 60.1156 805.988 63.5542 826.548 61.1372C865.149 56.5939 888.041 71.4696 900.453 84.7505C907.114 91.8769 911.557 99.3022 914.336 105C915.253 104.834 916.147 104.585 917 104.244C914.149 98.3138 909.51 90.4649 902.394 82.8485C894.222 74.1108 884.466 67.5243 873.403 63.2801C859.609 57.9893 843.737 56.353 826.239 58.4129C780.928 63.7452 756.778 40.1485 749.857 18.3209C748.07 12.6895 747.412 7.14958 747.785 2H745.096C744.723 7.42368 745.43 13.2543 747.306 19.1597V19.1681Z" fill="#932C11"/>
</g>
</g>
<g style="mix-blend-mode:multiply" opacity="0.3">
<path d="M678.213 89.6972C681.478 94.2298 684.793 98.8204 687.386 103.237H690.535C687.767 98.2735 684.072 93.1443 680.434 88.098C673.126 77.9639 665.577 67.4984 666.903 59.8833C667.383 57.1157 668.999 54.8287 671.85 52.8815C684.859 43.9738 696.377 50.0559 712.311 58.4664C726.928 66.1809 745.001 75.7266 770.075 75.7266C770.92 75.7266 771.765 75.7183 772.627 75.6935C793.989 75.1466 810.346 81.3861 819.916 93.7409C822.46 97.0222 824.217 100.328 825.418 103.237H828.377C827.084 99.8976 825.104 95.9782 822.071 92.0588C815.011 82.9439 800.684 72.2298 772.552 72.9507C746.848 73.6054 728.403 63.869 713.579 56.0385C697.429 47.512 684.668 40.7753 670.292 50.6193C666.853 52.9726 664.806 55.9308 664.201 59.4027C662.677 68.1613 670.217 78.6185 678.205 89.6972H678.213Z" fill="#932C11"/>
</g>
<g style="mix-blend-mode:multiply" opacity="0.3">
<path d="M580.353 0.263672C588.391 10.0497 598.31 19.0817 620.169 21.1118C623.243 21.3936 626.168 21.5344 628.944 21.5344C650.463 21.5344 663.257 13.5299 670.4 6.33748C672.422 4.29907 674.095 2.24408 675.488 0.263672H672.082C671.005 1.66405 669.77 3.09756 668.361 4.50622C657.39 15.4772 640.81 20.2749 620.425 18.3857C600.969 16.5793 591.391 8.90621 583.933 0.263672H580.353Z" fill="#932C11"/>
</g>
<g style="mix-blend-mode:multiply" opacity="0.3">
<path d="M470.088 60.8362V63.9021C474.397 61.7146 479.079 59.9496 483.719 58.1929C497.574 52.9643 511.901 47.5534 513.873 31.2958C514.668 24.758 512.887 19.115 508.57 14.5493C501.916 7.50602 490.224 4.00094 479.037 2.31055C477.836 2.95687 476.717 3.75235 475.715 4.65555C487.299 6.10564 499.902 9.34556 506.573 16.422C510.301 20.3745 511.843 25.2634 511.147 30.9643C509.373 45.5813 496.439 50.4619 482.741 55.6242C478.482 57.2317 474.157 58.8641 470.08 60.8279L470.088 60.8362Z" fill="#932C11"/>
</g>
<g style="mix-blend-mode:multiply" opacity="0.3">
<path d="M558.776 103.237H562.082C563.814 100.585 565.347 97.7348 566.897 94.8512C572.076 85.206 577.428 75.2459 591.184 69.4953C597.605 66.8105 603.919 66.9265 609.968 69.8184C621.959 75.5608 630.891 91.0644 636.335 103.245H639.385C633.858 90.5423 624.386 73.6881 611.153 67.3491C604.375 64.1092 597.307 63.9766 590.139 66.968C575.481 73.0915 569.648 83.963 564.494 93.5585C562.662 96.9724 560.881 100.287 558.793 103.245L558.776 103.237Z" fill="#932C11"/>
</g>
<g style="mix-blend-mode:multiply" opacity="0.3">
<path d="M470.088 82.0741V86.3249C477.38 77.6824 488.136 67.2666 498.668 65.6011C503.565 64.8222 508.031 66.0651 511.942 69.2802C518.505 74.6745 521.289 81.3035 520.228 88.9931C519.565 93.8157 517.411 98.6963 514.378 103.229H517.585C520.353 98.7791 522.3 94.056 522.938 89.366C524.123 80.7897 520.916 73.1167 513.682 67.1589C509.141 63.4218 503.946 61.9883 498.237 62.8915C487.829 64.5404 477.554 73.6801 470.088 82.0658V82.0741Z" fill="#932C11"/>
</g>
<defs>
<filter id="filter0_d_4_4035" x="741" y="2" width="180" height="111" filterUnits="userSpaceOnUse" color-interpolation-filters="sRGB">
<feFlood flood-opacity="0" result="BackgroundImageFix"/>
<feColorMatrix in="SourceAlpha" type="matrix" values="0 0 0 0 0 0 0 0 0 0 0 0 0 0 0 0 0 0 127 0" result="hardAlpha"/>
<feOffset dy="4"/>
<feGaussianBlur stdDeviation="2"/>
<feComposite in2="hardAlpha" operator="out"/>
<feColorMatrix type="matrix" values="0 0 0 0 0 0 0 0 0 0 0 0 0 0 0 0 0 0 0.25 0"/>
<feBlend mode="normal" in2="BackgroundImageFix" result="effect1_dropShadow_4_4035"/>
<feBlend mode="normal" in="SourceGraphic" in2="effect1_dropShadow_4_4035" result="shape"/>
</filter>
</defs>
</svg>
