<svg width="1046" height="608" viewBox="0 0 1046 608" fill="none" xmlns="http://www.w3.org/2000/svg">
<g style="mix-blend-mode:multiply" opacity="0.3">
<path d="M327.311 552.877C334.907 571.668 343.012 591.701 356.826 607.828H352.329C338.814 591.38 330.814 571.603 323.649 553.899C318.09 540.145 312.838 527.157 305.91 517.981C298.481 508.147 289.831 503.693 278.696 503.985C233.944 505.139 217.584 579.611 213 607.82H209.084C210.84 596.833 214.397 578.611 220.763 560.469C226.691 543.576 233.857 530.026 242.085 520.207C252.579 507.665 264.865 501.131 278.573 500.773C305.962 500.065 315.859 524.536 327.311 552.87V552.877Z" fill="#932C11"/>
<path d="M269.448 0.492798H277.08C251.279 11.4727 239.846 31.1329 228.017 51.4794C212.517 78.1262 196.491 105.686 146.102 113.198C120.53 117.009 96.8897 116.3 75.8314 111.095C58.9444 106.919 43.6819 99.867 30.4744 90.1209C13.4644 77.5713 4.40177 64.0143 0.845215 57.8162V53.8302L2.64545 53.2607C2.73326 53.4359 11.3392 71.7528 33.1703 87.8139C53.2627 102.597 89.0477 118.439 145.426 110.044C193.865 102.824 209.461 76.0163 224.539 50.085C234.058 33.71 243.903 16.7802 261.817 4.9388C264.241 3.33999 266.779 1.85799 269.448 0.500099V0.492798Z" fill="#932C11"/>
<path d="M668.063 0.492798H672.937C661.837 12.5824 645.021 34.8781 645.021 58.9186C645.021 59.3566 645.021 59.7873 645.038 60.2327C645.468 76.9654 654.11 92.0044 670.742 104.948C698.562 126.587 734.848 118.768 769.939 111.205C793.342 106.16 815.445 101.393 834.844 104.985C845.417 106.941 854.137 111.197 861.505 117.987C869.628 125.47 875.898 135.851 880.693 149.7C882.756 155.65 884.723 161.374 886.611 166.878C901.795 211.061 911.823 240.241 924.864 257.616C933.286 268.829 942.937 274.757 955.819 276.028V279.298C952.149 278.977 948.724 278.306 945.475 277.291C936.192 274.378 928.596 268.662 921.58 259.317C908.249 241.562 898.168 212.2 882.897 167.762C881.009 162.257 879.042 156.533 876.987 150.583C868.284 125.433 854.62 111.935 834.001 108.117C815.507 104.685 793.843 109.358 770.905 114.3C734.804 122.09 697.464 130.135 668.09 107.284C650.667 93.7346 641.613 77.9145 641.165 60.2765C640.665 40.5871 651.185 22.1971 660.099 10.2316C662.821 6.58141 665.534 3.31079 668.046 0.492798H668.063Z" fill="#932C11"/>
<path d="M895.621 525.047C915.968 530.479 935.56 535.706 955.828 533.896V537.174C935.06 538.94 915.125 533.626 894.436 528.106C862.655 519.623 829.794 510.848 790.189 527.566C755.915 542.043 738.51 563.996 738.466 592.818V592.913C738.466 598.191 739.08 603.228 740.011 607.828H736.068C735.181 603.236 734.602 598.213 734.602 592.927V592.913C734.602 579.721 738.237 567.668 745.403 557.089C754.352 543.883 768.824 532.983 788.433 524.704C829.452 507.38 863.086 516.36 895.604 525.047H895.621Z" fill="#932C11"/>
<path d="M81.1355 361.524C90.6547 370.08 96.3891 382.286 97.7152 396.829C97.9259 399.107 98.0313 401.443 98.0313 403.83C98.0313 418.789 93.9478 435.843 85.8336 454.656C58.7512 517.528 60.0684 557.126 65.9433 579.275C69.7984 593.796 76.0509 602.9 80.3978 607.82H75.6294C71.2474 602.382 65.8291 593.541 62.2638 580.349C58.3823 565.938 57.5305 549.241 59.7523 530.742C62.5097 507.694 70.0619 481.734 82.1981 453.576C91.41 432.193 95.3353 413.182 93.86 397.07C92.5955 383.265 87.2123 371.723 78.2902 363.707C66.1277 352.771 47.8444 348.741 29.3854 352.917C18.3733 355.413 8.66963 360.37 0.845215 367.247V362.801C8.80135 356.574 18.2416 352.114 28.3668 349.821C48.2396 345.324 67.9718 349.697 81.1267 361.524H81.1355Z" fill="#932C11"/>
<path d="M258.428 86.4123C240.671 101.356 228.544 116.797 222.362 132.296C213.87 153.621 217.031 174.42 231.775 194.124C251.534 220.537 277.413 220.654 295.644 216.105C318.353 210.44 342.485 194.27 361.857 171.762C380.264 150.372 391.1 126.594 391.1 107.759C391.1 107.233 391.1 106.715 391.074 106.204C390.661 93.4281 385.743 83.2147 376.47 75.8485C372.685 72.848 368.18 70.3148 362.981 68.2706C357.783 66.2265 351.899 64.6715 345.366 63.6129C313.919 58.5318 281.418 67.0587 258.428 86.4196V86.4123ZM344.628 66.7594C372.185 71.2127 386.507 84.5142 387.219 106.292C388.501 145.824 339.991 201.68 294.529 213.032C270.239 219.091 249.672 211.966 235.051 192.423C225.453 179.588 221.518 167.112 221.518 155.263C221.518 128.821 241.119 105.547 261.176 88.6682C283.253 70.0738 314.454 61.8827 344.628 66.7594Z" fill="#932C11"/>
<path d="M176.512 235.459C176.512 238.007 176.433 240.606 176.267 243.256C174.897 265.552 164.684 282.73 145.908 294.308C119.827 310.391 81.592 312.632 54.1143 311.669C24.4852 310.639 0.616742 305.77 0.379639 305.726L1.31049 302.609C1.54759 302.66 25.0999 307.456 54.3514 308.464C81.188 309.391 118.448 307.245 143.616 291.724C161.417 280.744 171.103 264.384 172.411 243.088C174.405 210.637 163.884 186.013 141.123 169.923C115.893 152.08 79.8444 147.926 54.0353 147.576C25.9078 147.196 3.50589 151.146 3.28635 151.182L2.46966 148.043C2.69798 147.999 25.4599 143.991 54.0001 144.364C80.4591 144.707 117.491 148.999 143.608 167.47C165.456 182.917 176.504 205.768 176.504 235.459H176.512Z" fill="#932C11"/>
<path d="M465.603 0.492798H469.748C482.438 27.7747 488.787 54.6478 488.787 81.3165C488.787 120.476 475.105 159.227 447.689 198.256C405.765 257.937 338.858 308.544 279.828 353.187C254.493 372.343 230.572 390.441 210.954 407.531C154.348 456.832 144.609 513.155 146.392 551.709C147.472 574.99 152.767 594.774 157.281 607.82H153.268C148.763 594.592 143.617 574.946 142.537 551.95C141.36 527.004 145.11 503.044 153.689 480.733C164.412 452.831 182.73 427.454 208.153 405.312C227.859 388.149 251.833 370.014 277.22 350.814C371.886 279.218 485.002 193.649 485.002 81.7326C485.002 56.086 479.057 29.0669 465.595 0.492798H465.603Z" fill="#932C11"/>
<path d="M503.681 0.492798H507.545C507.878 13.6921 509.696 37.8567 517.485 64.2917C528.181 100.597 552.682 148.744 608.621 171.974C633.183 182.18 657.701 190.086 679.322 197.073C717.618 209.433 750.681 220.106 771.731 238.744C782.927 248.658 790.058 260.237 793.544 274.13C795.213 280.802 796.056 288.001 796.056 295.827C796.056 305.617 794.738 316.378 792.113 328.277C787.766 347.974 774.822 366.7 752.551 385.535C732.81 402.231 707.686 417.489 683.387 432.251C644.494 455.875 604.274 480.303 584.735 511.308C566.803 539.765 568.296 571.522 589.451 607.828H585.139C534.197 518.9 608.77 473.594 681.104 429.652C729.192 400.443 778.923 370.233 788.31 327.701C797.074 287.993 790.91 260.434 768.903 240.942C748.459 222.836 715.774 212.287 677.917 200.066C656.208 193.058 631.611 185.122 606.882 174.85C581.556 164.33 560.366 148.028 543.9 126.397C530.772 109.139 520.603 88.4783 513.692 64.978C505.832 38.2728 503.997 13.8527 503.663 0.492798H503.681Z" fill="#932C11"/>
<path d="M947.538 334.687C950.445 335.607 953.22 336.571 955.837 337.527V341.046C952.789 339.9 949.523 338.754 946.08 337.659C929.158 332.278 904.447 327.117 882.8 333.088C864.253 338.213 850.615 350.726 842.282 370.27C833.474 390.894 834.65 410.598 845.759 428.834C861.197 454.16 893.32 472.367 917.549 483.186C932.609 489.917 946.581 494.692 955.828 497.568V500.985C946.493 498.131 931.74 493.166 915.792 486.048C891.046 475.01 858.211 456.379 842.317 430.294C830.699 411.24 829.46 390.682 838.628 369.197C847.393 348.668 861.847 335.49 881.588 330.037C904.324 323.758 930.001 329.095 947.529 334.68L947.538 334.687Z" fill="#932C11"/>
<path d="M838.848 0.492798H842.853C845.171 10.0345 849.386 22.0219 857.079 34.1918C871.006 56.2393 899.248 82.9007 955.828 92.4935V95.7788C932.908 91.9971 912.868 85.2514 896.052 75.6221C878.172 65.3941 863.893 51.9101 853.584 35.5716C845.496 22.752 841.166 10.2974 838.848 0.492798Z" fill="#932C11"/>
<path d="M537.63 259.952C510.943 269.998 488.892 287.533 475.527 309.325C464.752 326.89 459.246 342.915 459.14 356.939C459.14 357.071 459.14 357.195 459.14 357.326C459.14 374.76 467.535 389.112 484.097 400.005C508.045 415.759 538.254 415.774 571.466 400.041C596.203 388.324 621.143 368.226 639.883 344.901C656.199 324.598 665.464 304.536 665.464 289.957C665.464 288.285 665.341 286.679 665.095 285.168C663.892 277.758 659.747 271.45 652.722 266.267C645.688 261.091 635.773 257.047 623.014 254.163C594.79 247.797 564.467 249.856 537.648 259.952H537.63ZM621.986 257.258C645.864 262.639 659.071 272.173 661.258 285.591C663.532 299.616 654.338 321.116 636.66 343.119C618.245 366.043 593.78 385.769 569.543 397.252C547.422 407.729 515.053 416.277 486.486 397.486C470.767 387.148 462.89 373.716 462.89 357.319C462.89 343.798 468.247 328.256 478.96 310.785C505.735 267.121 565.889 244.614 621.986 257.258Z" fill="#932C11"/>
<path d="M386.508 392.463C414.582 396.457 445.335 419.694 470.864 456.218C490.482 484.267 515.984 532.961 528.752 607.835H524.853C512.146 533.728 486.925 485.581 467.527 457.839C442.569 422.14 412.791 399.472 385.849 395.639C366.108 392.836 349.528 400.83 339.157 418.161C330.261 433.032 330.771 452.729 340.685 476.696C348.694 496.072 362.815 518.229 382.644 542.539C405.353 570.376 430.477 594.723 444.668 607.835H439.487C424.909 594.241 401.085 570.858 379.447 544.335C359.425 519.791 345.155 497.379 337.032 477.733C326.775 452.919 326.327 432.39 335.697 416.723C346.885 398.019 364.931 389.397 386.499 392.471L386.508 392.463Z" fill="#932C11"/>
</g>
<g style="mix-blend-mode:multiply" opacity="0.3">
<path d="M1244.29 0.492798H1239.42C1250.52 12.5824 1267.34 34.8781 1267.34 58.9186C1267.34 59.3566 1267.34 59.7873 1267.32 60.2327C1266.89 76.9654 1258.25 92.0044 1241.62 104.948C1213.8 126.587 1177.51 118.768 1142.42 111.205C1119.02 106.16 1096.91 101.393 1077.51 104.985C1066.94 106.941 1058.22 111.197 1050.85 117.987C1042.73 125.47 1036.46 135.851 1031.67 149.7C1029.6 155.65 1027.64 161.374 1025.75 166.878C1010.56 211.061 1000.53 240.241 987.494 257.616C979.073 268.829 969.422 274.757 956.539 276.028V279.298C960.21 278.977 963.635 278.306 966.884 277.291C976.166 274.378 983.762 268.662 990.779 259.317C1004.11 241.562 1014.19 212.2 1029.46 167.762C1031.35 162.257 1033.32 156.533 1035.37 150.583C1044.07 125.433 1057.74 111.935 1078.36 108.117C1096.85 104.685 1118.52 109.358 1141.45 114.3C1177.55 122.09 1214.89 130.135 1244.27 107.284C1261.69 93.7346 1270.75 77.9145 1271.19 60.2765C1271.69 40.5871 1261.17 22.1971 1252.26 10.2316C1249.54 6.58141 1246.82 3.31079 1244.31 0.492798H1244.29Z" fill="#932C11"/>
<path d="M1016.75 525.047C996.399 530.479 976.807 535.706 956.539 533.896V537.174C977.308 538.94 997.242 533.626 1017.93 528.106C1049.71 519.623 1082.57 510.848 1122.18 527.566C1156.45 542.043 1173.86 563.996 1173.9 592.818V592.913C1173.9 598.191 1173.29 603.228 1172.36 607.828H1176.3C1177.19 603.236 1177.77 598.213 1177.77 592.927V592.913C1177.77 579.721 1174.13 567.668 1166.96 557.089C1158.02 543.883 1143.54 532.983 1123.93 524.704C1082.92 507.38 1049.28 516.36 1016.76 525.047H1016.75Z" fill="#932C11"/>
<path d="M964.829 334.687C961.922 335.607 959.147 336.571 956.53 337.527V341.046C959.577 339.9 962.844 338.754 966.287 337.659C983.209 332.278 1007.92 327.117 1029.57 333.088C1048.11 338.213 1061.75 350.726 1070.09 370.27C1078.89 390.894 1077.72 410.598 1066.61 428.834C1051.17 454.16 1019.05 472.367 994.818 483.186C979.758 489.917 965.786 494.692 956.539 497.568V500.985C965.874 498.131 980.627 493.166 996.574 486.048C1021.32 475.01 1054.16 456.379 1070.05 430.294C1081.67 411.24 1082.91 390.682 1073.74 369.197C1064.97 348.668 1050.52 335.49 1030.78 330.037C1008.04 323.758 982.366 329.095 964.838 334.68L964.829 334.687Z" fill="#932C11"/>
<path d="M1073.52 0.492798H1069.51C1067.2 10.0345 1062.98 22.0219 1055.29 34.1918C1041.36 56.2393 1013.12 82.9007 956.539 92.4935V95.7788C979.459 91.9971 999.499 85.2514 1016.32 75.6221C1034.19 65.3941 1048.47 51.9101 1058.78 35.5716C1066.87 22.752 1071.2 10.2974 1073.52 0.492798Z" fill="#932C11"/>
</g>
</svg>
