<svg viewBox="0 0 1292 356" fill="none" xmlns="http://www.w3.org/2000/svg">
<g style="mix-blend-mode:multiply" opacity="0.5">
<path d="M154.93 230.924C154.93 230.924 259.1 199.518 358.598 197.241C571.001 192.389 1133.24 219.959 1147.3 223.646C1148.09 223.85 1148.9 223.401 1149.14 222.614L1158.15 192.554C1158.41 191.687 1157.87 190.797 1156.98 190.632C1132.48 186.173 284.402 141.675 149.613 205.827L154.938 230.924H154.93Z" fill="#932C11"/>
</g>
<path d="M1244.1 234.58L1289.48 248.357C1290.87 248.774 1291.97 247.191 1291.11 246.025C1291.1 246.01 1291.1 246.002 1291.08 245.986C1264.37 209.68 1242.41 177.501 1199.3 156.138C1198.53 155.752 1197.58 156.106 1197.24 156.894C1197.17 157.067 1197.09 157.24 1197.01 157.414C1184.96 184.866 1139.49 210.152 1124.12 236.699C1123.56 237.66 1124.22 238.881 1125.33 238.959C1148.12 240.551 1161.96 245.34 1181.02 258.519C1212.09 280.008 1224.07 314.518 1250.13 344.231C1251.18 345.437 1253.14 344.389 1252.73 342.837C1237.1 283.647 1240.99 244.355 1242.14 235.816C1242.26 234.895 1243.19 234.304 1244.08 234.572L1244.1 234.58Z" fill="url(#paint0_linear_4_2962)"/>
<path d="M1191.27 225.103L1125.64 238.274C1124.48 238.51 1123.51 237.376 1123.92 236.265L1135.03 206.41C1135.23 205.875 1135.72 205.497 1136.28 205.434C1141.62 204.858 1168.82 203.031 1191.94 222.464C1192.91 223.276 1192.5 224.859 1191.27 225.111V225.103Z" fill="url(#paint1_linear_4_2962)"/>
<path d="M51.612 240.621L0 256.297C1.00829 255.1 1.99295 253.855 2.95398 252.54C29.9573 215.832 52.1004 183.346 96.1581 161.99C96.4417 162.652 96.7253 163.314 97.0088 163.967C109.384 192.145 156.955 218.045 171.047 245.356C146.833 246.781 132.701 251.437 112.992 265.065C80.2853 287.688 68.7294 324.751 39.6306 355.441C59.4735 284.671 51.6041 240.613 51.6041 240.613L51.612 240.621Z" fill="url(#paint2_linear_4_2962)"/>
<path d="M99.7659 231.05L171.055 245.363L158.68 212.098C158.68 212.098 125.95 207.072 99.7659 231.05Z" fill="url(#paint3_linear_4_2962)"/>
<path d="M1219.92 134.837L1194.44 223.071C1194.21 223.866 1193.39 224.331 1192.59 224.11C1179.96 220.684 1125.98 212.94 1114.79 210.506C1094.86 206.166 1034.65 204.26 1003.72 200.266C971.798 196.146 408.185 188.064 366.822 187.213C286.67 185.559 220.722 200.353 178.389 209.774C161.886 213.452 111.093 227.616 99.7423 230.916L79.0723 135.207C79.0723 135.207 203.037 98.8773 370.162 89.3537C663.173 72.6538 716.999 73.4415 929.686 89.9838C980.25 93.9146 1220.14 134.081 1219.92 134.837H1219.92Z" fill="url(#paint4_linear_4_2962)"/>
<path d="M102.224 202.283L85.5317 138.453C85.5317 138.453 163.588 110.654 235.121 105.384C235.121 105.384 119.869 135.27 113.496 153.837C107.123 172.396 102.232 202.29 102.232 202.29L102.224 202.283Z" fill="url(#paint5_linear_4_2962)"/>
<path d="M1199.97 189.844L1213.98 136.271C1214.18 135.507 1213.76 134.719 1213.02 134.459C1203.29 131.088 1141.17 110.197 1079.57 103.241C1077.74 103.037 1077.19 105.644 1078.94 106.195C1109.06 115.601 1177.4 137.996 1186.37 150.308C1193.2 159.666 1195.94 178.375 1197.01 189.608C1197.17 191.294 1199.55 191.483 1199.98 189.844H1199.97Z" fill="url(#paint6_linear_4_2962)"/>
<g style="mix-blend-mode:multiply">
<path d="M110.629 151.898L22.8442 163.43H339.204L297.297 156.207L110.629 151.898Z" fill="#D9D5E1"/>
</g>
<path fill-rule="evenodd" clip-rule="evenodd" d="M144.753 78.4815L156.672 80.8998H218.642L233.01 76.8272L189.622 53.219L144.753 78.4815Z" fill="url(#paint7_linear_4_2962)"/>
<path fill-rule="evenodd" clip-rule="evenodd" d="M155.151 135.584V74.5505L189.299 56.2358L222.163 73.7471L225.81 135.584H155.151Z" fill="url(#paint8_linear_4_2962)"/>
<path fill-rule="evenodd" clip-rule="evenodd" d="M141.728 76.827L144.753 78.4813L189.622 53.2188L233.01 76.827L234.806 73.6998L189.716 45.822L141.728 76.827Z" fill="url(#paint9_linear_4_2962)"/>
<path fill-rule="evenodd" clip-rule="evenodd" d="M150.897 63.4988C145.549 69.4383 84.0821 69.4383 76.5356 60.6315C76.5356 60.6315 85.5551 47.7363 113.716 47.7363C141.878 47.7363 150.897 63.4988 150.897 63.4988Z" fill="url(#paint10_linear_4_2962)"/>
<path fill-rule="evenodd" clip-rule="evenodd" d="M150.897 63.4988L113.716 1.48877L76.5356 60.6315C76.5356 60.6315 83.4598 48.595 115.221 49.7372C142.469 50.7218 150.897 63.4988 150.897 63.4988Z" fill="url(#paint11_linear_4_2962)"/>
<path fill-rule="evenodd" clip-rule="evenodd" d="M227.567 62.01C232.916 67.9495 294.382 67.9495 301.929 59.1427C301.929 59.1427 292.909 46.2476 264.748 46.2476C236.586 46.2476 227.567 62.01 227.567 62.01Z" fill="url(#paint12_linear_4_2962)"/>
<path fill-rule="evenodd" clip-rule="evenodd" d="M79.3872 158.444L82.0103 59.3633C82.0103 59.3633 111.306 41.7969 144.005 60.1352L148.046 158.444H79.3951H79.3872Z" fill="url(#paint13_linear_4_2962)"/>
<path fill-rule="evenodd" clip-rule="evenodd" d="M233.436 158.444L232.916 59.3633C232.916 59.3633 256.162 42.1593 294.91 56.4959L298.951 158.444H233.436Z" fill="url(#paint14_linear_4_2962)"/>
<path fill-rule="evenodd" clip-rule="evenodd" d="M231.521 158.444L230.694 106.981H230.481L230.67 100.853H225.913V105.981L221.013 106.564L219.682 100.853H214.12V106.564H207.338L205.999 100.853H198.996V106.564H191.095L190.544 100.853H184.313L183.753 106.564H173.749L172.52 98.6235H165.297L164.1 106.343L156.214 106.564L155.836 101.885H148.321V108.029H148.51V158.444H231.521Z" fill="url(#paint15_linear_4_2962)"/>
<path fill-rule="evenodd" clip-rule="evenodd" d="M234.042 158.444L233.168 106.981L233.136 100.853H228.087V105.981L222.896 106.564L221.486 100.853H215.585V106.564H208.393L206.976 100.853H199.547V106.564H191.166L190.575 100.853H183.974L183.383 106.564H172.765L171.473 98.6235H163.8L162.54 106.343L154.174 106.564L153.78 101.885H145.801V108.029H145.997V158.444H234.042Z" fill="url(#paint16_linear_4_2962)"/>
<path style="mix-blend-mode:multiply" opacity="0.2" fill-rule="evenodd" clip-rule="evenodd" d="M157.136 152.031L164.777 152.039L165.778 148.817H158.562L158.452 143.823H168.22L168.944 139.751L173.883 129.715L168.999 126.021L172.442 121.94L178.381 125.438L181.548 121.94L183.1 123.405L192.206 121.94L196.342 122.358L202.131 125.162L207.315 121.05L211.639 123.405L206.503 129.439L208.197 130.826L210.978 127.163L214.089 130.211L209.977 134.827L210.647 136.545L217.161 134.378L218.524 139.262L215.113 140.877L216.247 144.375L215.113 145.375L215.98 148.707L221.084 148.258L221.974 152.591L217.161 154.371L217.973 158.444H157.341L157.136 152.031Z" fill="url(#paint17_linear_4_2962)"/>
<path fill-rule="evenodd" clip-rule="evenodd" d="M227.567 62.01L261.77 0L301.929 59.1427C301.929 59.1427 295.004 47.1062 263.243 48.2484C235.996 49.2331 227.567 62.01 227.567 62.01Z" fill="url(#paint18_linear_4_2962)"/>
<path style="mix-blend-mode:multiply" opacity="0.2" fill-rule="evenodd" clip-rule="evenodd" d="M82.4357 114.276V117.608L80.427 119.278V123.406L82.4357 122.555V123.886L87.8001 123.406L88.4303 126.714H91.9278L92.4005 123.406L96.2052 122.941L96.8669 125.273L101.034 124.721V122.665L103.586 122.334L108.557 122.941L107.808 117.86L104.476 117.529L103.641 111.944L107.478 110.865L107.226 108.699H103.586L102.365 99.5532L107.722 97.5366L107.312 93.2435L100.813 94.3778L99.3089 89.7932L101.727 88.8164L101.066 86.9889L98.8126 87.6033L95.8113 82.0419L97.8988 76.3861L93.5663 74.7161L92.4005 80.6871H90.7305L88.9266 78.7177L84.3184 82.8612L85.5 84.8541L84.665 88.2965L84.0742 95.9532L81.0572 95.2994L80.9154 100.719L83.444 101.184V108.179L80.7421 107.257L80.5767 113.449L82.4357 114.276Z" fill="url(#paint19_linear_4_2962)"/>
<path fill-rule="evenodd" clip-rule="evenodd" d="M165.257 158.444C165.257 158.444 171.551 123.311 191.205 123.311C209.764 123.311 217.153 158.444 217.153 158.444H165.25H165.257Z" fill="url(#paint20_linear_4_2962)"/>
<path fill-rule="evenodd" clip-rule="evenodd" d="M167.306 158.444C167.306 158.444 173.103 128.542 191.213 128.542C208.307 128.542 215.121 158.444 215.121 158.444H167.314H167.306Z" fill="url(#paint21_linear_4_2962)"/>
<path fill-rule="evenodd" clip-rule="evenodd" d="M166.975 158.444C166.975 158.444 171.859 126.021 191.387 126.021C210.914 126.021 215.987 158.444 215.987 158.444H214.869C214.869 158.444 210.229 129.44 191.387 129.44C172.544 129.44 167.904 158.444 167.904 158.444H166.983H166.975Z" fill="#B8574F"/>
<path fill-rule="evenodd" clip-rule="evenodd" d="M166.36 158.444C166.36 158.444 171.331 125.438 191.205 125.438C211.08 125.438 216.247 158.444 216.247 158.444H215.113C215.113 158.444 210.394 127.864 191.205 127.864C172.016 127.864 167.298 158.444 167.298 158.444H166.353H166.36Z" fill="url(#paint22_linear_4_2962)"/>
<path style="mix-blend-mode:multiply" opacity="0.2" fill-rule="evenodd" clip-rule="evenodd" d="M238.028 95.4412V99.7422L234.956 102.83L235.358 108.903L239.903 104.91L245.756 104.744L246.362 106.824L249.875 106.493V104.744L255.862 104.161L259.683 108.187L262.093 106.162L259.438 103.24L259.265 98.9938L261.849 98.4976L261.77 96.0792H259.352L258.824 92.4163L264.362 90.9984V87.6663H259.517L259.186 86.9573L261.683 86.0042L261.187 83.3338L257.603 83.0029L256.524 77.0871L261.683 74.842L261.353 72.3449L255.862 72.8806L254.547 69.3752L256.272 67.5083L254.106 63.6799L252.191 64.5149L249.875 62.3487L249.363 58.6936H245.756L245.196 62.1832L243.526 62.8449L241.108 66.5945L236.862 64.9324L235.744 68.6741L239.446 70.1787L238.682 73.4241L235.744 73.6762V77.5046L238.115 78.4183L237.863 84.5232L234.806 86.1696V89.6671L237.949 89.0842V90.8329L236.516 91.8334L237.028 95.4412H238.028Z" fill="url(#paint23_linear_4_2962)"/>
<path fill-rule="evenodd" clip-rule="evenodd" d="M239.95 103.823L258.824 102.822C258.824 102.822 256.492 62.5142 247.662 62.845C238.831 63.1759 239.95 103.823 239.95 103.823Z" fill="url(#paint24_linear_4_2962)"/>
<path fill-rule="evenodd" clip-rule="evenodd" d="M238.729 103.823L257.603 102.822C257.603 102.822 255.271 62.5142 246.441 62.845C237.61 63.1759 238.729 103.823 238.729 103.823Z" fill="url(#paint25_linear_4_2962)"/>
<path fill-rule="evenodd" clip-rule="evenodd" d="M254.547 101.176H240.738C240.738 101.176 240.462 67.083 246.78 66.2165C247.701 66.0905 248.513 66.7128 249.23 67.8707C253.57 74.8342 254.547 101.176 254.547 101.176Z" fill="url(#paint26_linear_4_2962)"/>
<path fill-rule="evenodd" clip-rule="evenodd" d="M254.547 101.176H245.204C245.204 101.176 244.991 74.8263 249.229 67.8706C253.57 74.8341 254.547 101.176 254.547 101.176Z" fill="url(#paint27_linear_4_2962)"/>
<path fill-rule="evenodd" clip-rule="evenodd" d="M243.44 80.0017C243.44 80.0017 242.825 80.7264 243.077 81.8922L252.695 80.6476L252.443 79.0564L243.44 80.0017Z" fill="url(#paint28_linear_4_2962)"/>
<path fill-rule="evenodd" clip-rule="evenodd" d="M84.7125 122.941L103.586 121.94C103.586 121.94 101.255 81.6324 92.4243 81.9632C83.5939 82.2941 84.7125 122.941 84.7125 122.941Z" fill="url(#paint29_linear_4_2962)"/>
<path fill-rule="evenodd" clip-rule="evenodd" d="M83.4913 122.941L102.365 121.94C102.365 121.94 100.034 81.6324 91.2031 81.9632C82.3727 82.2941 83.4913 122.941 83.4913 122.941Z" fill="url(#paint30_linear_4_2962)"/>
<path fill-rule="evenodd" clip-rule="evenodd" d="M99.309 120.294H85.5001C85.5001 120.294 85.2244 86.2012 91.5419 85.3347C92.4636 85.2086 93.275 85.8309 93.9918 86.9889C98.3322 93.9524 99.309 120.294 99.309 120.294Z" fill="url(#paint31_linear_4_2962)"/>
<path fill-rule="evenodd" clip-rule="evenodd" d="M99.3091 120.294H89.9666C89.9666 120.294 89.7539 93.9444 93.9919 86.9888C98.3323 93.9523 99.3091 120.294 99.3091 120.294Z" fill="url(#paint32_linear_4_2962)"/>
<path fill-rule="evenodd" clip-rule="evenodd" d="M88.2098 99.1198C88.2098 99.1198 87.6111 99.7658 87.8632 100.932L97.4971 99.9391L97.2136 98.1746L88.2098 99.1198Z" fill="url(#paint33_linear_4_2962)"/>
<path style="mix-blend-mode:multiply" opacity="0.2" fill-rule="evenodd" clip-rule="evenodd" d="M276.256 141.185H269.387L270.167 135.434H274.5L275.39 127.88H272.822L273.389 121.216H276.249V119.262L271.845 117.411L272.822 111.984L276.256 112.448L277.084 109.337L277.997 104.169L279.88 97.0088L277.084 91.5971L282.164 88.0129L285.024 92.3454L287.938 93.6452L290.042 90.9039L292.381 94.236L290.932 96.5047L292.381 99.5768L293.153 104.169L295.319 102.783L296.485 106.336L294.484 108.226L295.319 116.111L296.95 128.439L298.084 128.1V132.275L296.95 133.331L297.596 141.988L276.256 141.185Z" fill="url(#paint34_linear_4_2962)"/>
<path fill-rule="evenodd" clip-rule="evenodd" d="M296.95 141.185H276.256C276.256 141.185 275.918 106.217 281.637 96.5597C282.968 94.3147 284.268 93.653 285.41 93.6451C294.075 93.5663 296.958 141.185 296.958 141.185H296.95Z" fill="url(#paint35_linear_4_2962)"/>
<path fill-rule="evenodd" clip-rule="evenodd" d="M296.95 141.184H277.084C277.084 141.184 277.73 105.957 283.197 96.1579C284.071 94.5745 285.087 93.645 286.229 93.645C295.312 93.645 296.942 141.184 296.942 141.184H296.95Z" fill="url(#paint36_linear_4_2962)"/>
<path fill-rule="evenodd" clip-rule="evenodd" d="M295.319 139.042H279.549C279.549 139.042 280.045 106.989 284.212 98.0721C284.882 96.6306 285.654 95.7956 286.528 95.7877C293.13 95.7168 295.327 139.042 295.327 139.042H295.319Z" fill="url(#paint37_linear_4_2962)"/>
<path fill-rule="evenodd" clip-rule="evenodd" d="M290.499 139.042H279.549C279.549 139.042 280.045 106.989 284.212 98.0723C288.876 107.005 290.499 139.042 290.499 139.042Z" fill="url(#paint38_linear_4_2962)"/>
<path fill-rule="evenodd" clip-rule="evenodd" d="M291.46 110.967C291.46 110.967 292.106 112.078 291.657 112.834L281.101 112.992L281.345 110.967H291.46Z" fill="url(#paint39_linear_4_2962)"/>
<path style="mix-blend-mode:multiply" opacity="0.2" fill-rule="evenodd" clip-rule="evenodd" d="M233.648 135.584L259.147 137.419L259.635 147.652L247.867 149.133L248.166 152.04H289.049L291.664 158.444H234.042L233.648 135.584Z" fill="url(#paint40_linear_4_2962)"/>
<path style="mix-blend-mode:multiply" opacity="0.2" fill-rule="evenodd" clip-rule="evenodd" d="M244.046 134.245L244.676 127.163H264.267V134.245H244.046Z" fill="url(#paint41_linear_4_2962)"/>
<path style="mix-blend-mode:multiply" opacity="0.2" fill-rule="evenodd" clip-rule="evenodd" d="M79.9544 137.112L103.334 138.112V144.367H95.961V146.195H117.458L118.915 151.701L89.9191 152.158L89.7458 158.444H79.3872L79.5605 152.04L89.9191 152.158L90.1476 146.108L79.7338 145.304L79.9544 137.112Z" fill="url(#paint42_linear_4_2962)"/>
<path style="mix-blend-mode:multiply" opacity="0.2" fill-rule="evenodd" clip-rule="evenodd" d="M129.794 112.779L130.464 103.586H145.785L146.163 112.779H129.794Z" fill="url(#paint43_linear_4_2962)"/>
<g style="mix-blend-mode:multiply" opacity="0.2">
<path fill-rule="evenodd" clip-rule="evenodd" d="M269.962 73.4715C269.962 73.4715 276.808 72.8492 286.985 74.1804L287.166 80.3326C287.166 80.3326 281.038 79.3637 269.955 79.5055V73.4715H269.962Z" fill="#FF8B70"/>
</g>
<path style="mix-blend-mode:multiply" opacity="0.2" fill-rule="evenodd" clip-rule="evenodd" d="M175.159 96.2053L171.41 97.2688L170.874 94.2911L177.357 92.7078L177.94 90.7779L173.103 90.959L173.017 87.6269L177.129 86.9731L178.097 83.7592L175.159 81.4354L176.223 79.4661L179.153 80.6634L179.626 79.8284L178.373 78.4578L180.398 75.5274L182.068 76.2915L182.903 75.5274L182.186 74.6924L184.21 73.1249L184.746 73.8417L185.998 73.1249L185.305 68.8396L189.85 68.304L190.622 72.8019L191.709 73.1249L193.08 70.3048L195.695 71.6754L194.333 73.8417L195.695 74.6924L197.72 77.032L200.162 76.2915L201.588 77.741L199.862 79.7103L200.642 81.719L203.376 80.8997L204.392 83.2157L202.304 84.7675L203.053 86.7289L202.304 88.2808L202.785 90.1871L205.282 89.6514L205.881 91.9673L203.439 92.9835L203.911 95.7799L205.282 97.2688L202.186 98.3952L198.972 97.0324H192.6L192.544 97.6863H189.638L188.921 96.741H181.051L180.642 97.5051L176.648 97.3239L176.223 96.0478L175.159 96.2053Z" fill="url(#paint44_linear_4_2962)"/>
<g style="mix-blend-mode:multiply" opacity="0.2">
<path fill-rule="evenodd" clip-rule="evenodd" d="M265.323 82.1758C265.323 82.1758 272.964 81.5062 279.518 82.1758V88.4776C279.518 88.4776 273.342 87.619 265.323 88.0601V82.1758Z" fill="#FF8B70"/>
</g>
<g style="mix-blend-mode:multiply" opacity="0.2">
<path fill-rule="evenodd" clip-rule="evenodd" d="M88.9268 65.9092C88.9268 65.9092 94.9765 63.9793 110.471 63.4988V71.3052C110.471 71.3052 101.034 71.1397 88.9268 73.0776V65.9092Z" fill="#FF8B70"/>
</g>
<g style="mix-blend-mode:multiply" opacity="0.2">
<path fill-rule="evenodd" clip-rule="evenodd" d="M103.641 74.3852C103.641 74.3852 114.638 73.2823 126.627 74.3852V82.8375C126.627 82.8375 117.301 81.8134 103.641 82.8375V74.3852Z" fill="#FF8B70"/>
</g>
<path fill-rule="evenodd" clip-rule="evenodd" d="M190.213 128.731C190.213 128.731 191.465 128.187 192.379 128.731V158.444H190.04L190.213 128.731Z" fill="url(#paint45_linear_4_2962)"/>
<path fill-rule="evenodd" clip-rule="evenodd" d="M203.754 158.444L203.1 133.685C203.1 133.685 204.439 133.748 204.959 135.143L205.999 158.444H203.754Z" fill="url(#paint46_linear_4_2962)"/>
<path fill-rule="evenodd" clip-rule="evenodd" d="M178.759 158.444L179.413 133.685C179.413 133.685 178.074 133.748 177.554 135.143L176.514 158.444H178.759Z" fill="url(#paint47_linear_4_2962)"/>
<path style="mix-blend-mode:multiply" opacity="0.2" fill-rule="evenodd" clip-rule="evenodd" d="M144.005 60.135C144.005 60.135 143.296 116.45 135.796 137.112C128.022 158.554 79.395 158.444 79.395 158.444H148.046L144.005 60.135Z" fill="url(#paint48_linear_4_2962)"/>
<path style="mix-blend-mode:multiply" opacity="0.2" fill-rule="evenodd" clip-rule="evenodd" d="M234.042 158.444L232.924 59.363C232.924 59.363 235.192 125.871 244.054 139.743C256.737 159.586 298.951 158.444 298.951 158.444H234.042Z" fill="url(#paint49_linear_4_2962)"/>
<path fill-rule="evenodd" clip-rule="evenodd" d="M177.712 96.0478C177.712 96.0478 179.437 74.6373 188.921 73.8653C199.784 72.9831 201.564 96.2053 201.564 96.2053L177.72 96.0478H177.712Z" fill="url(#paint50_linear_4_2962)"/>
<path fill-rule="evenodd" clip-rule="evenodd" d="M177.712 95.3307C177.712 95.3307 179.437 73.9203 188.921 73.1483C199.784 72.266 201.564 95.4883 201.564 95.4883L177.72 95.3307H177.712Z" fill="url(#paint51_linear_4_2962)"/>
<path fill-rule="evenodd" clip-rule="evenodd" d="M179.382 93.7868C179.382 93.7868 180.87 75.3697 189.023 74.708C198.366 73.9517 199.894 93.9207 199.894 93.9207L179.389 93.7868H179.382Z" fill="url(#paint52_linear_4_2962)"/>
<path fill-rule="evenodd" clip-rule="evenodd" d="M265.323 5.23047L279.518 23.8839C279.518 23.8839 271.357 21.8831 262.66 23.8839V5.23047H265.331H265.323Z" fill="#D381FF"/>
<path fill-rule="evenodd" clip-rule="evenodd" d="M254.941 12.3909H260.281L258.17 31.6587C258.17 31.6587 247.638 31.0128 240.73 35.6604L254.941 12.3909Z" fill="#D381FF"/>
<path fill-rule="evenodd" clip-rule="evenodd" d="M251.971 33.6203C251.971 33.6203 258.083 32.1079 269.97 32.8168L274.831 48.4454C274.831 48.4454 264.314 46.2949 247.638 50.4068L251.971 33.6124V33.6203Z" fill="#C860FF"/>
<path fill-rule="evenodd" clip-rule="evenodd" d="M267.836 24.6637L273.61 40.8752C273.61 40.8752 285.048 40.5443 293.043 44.4278L278.572 24.7425C278.572 24.7425 274.279 24.2147 267.836 24.6558V24.6637Z" fill="#C860FF"/>
<path fill-rule="evenodd" clip-rule="evenodd" d="M241.21 37.283C241.21 37.283 245.448 35.4318 249.592 34.8726L245.204 49.3195C245.204 49.3195 234.814 50.4144 228.859 56.2279L241.21 37.2751V37.283Z" fill="#EC81FF"/>
<path fill-rule="evenodd" clip-rule="evenodd" d="M262.652 23.884L263.472 24.4826C263.472 24.4826 272.011 23.0805 278.564 24.7426L279.51 23.884C279.51 23.884 272.404 21.1112 262.652 23.884Z" fill="#8E42B5"/>
<path fill-rule="evenodd" clip-rule="evenodd" d="M273.61 40.8752L274.051 41.8993C274.051 41.8993 283.803 41.9387 293.169 46.2475L293.043 44.4279C293.043 44.4279 288.159 40.4262 273.61 40.8752Z" fill="#8E42B5"/>
<path fill-rule="evenodd" clip-rule="evenodd" d="M240.73 35.6525L241.975 35.8888C241.975 35.8888 248.836 32.6749 258.162 32.407L258.241 31.0049C258.241 31.0049 247.221 30.9891 240.73 35.6525Z" fill="#8E42B5"/>
<path fill-rule="evenodd" clip-rule="evenodd" d="M228.859 56.2358L230.379 56.9211C230.379 56.9211 231.167 54.1247 244.779 50.6035L245.204 49.3274C245.204 49.3274 234.302 50.1703 228.859 56.2358Z" fill="#8E42B5"/>
<path fill-rule="evenodd" clip-rule="evenodd" d="M261.77 0L249.868 18.7716L250.506 19.646C250.506 19.646 257.477 16.9992 265.929 17.5506L261.77 0Z" fill="#EC81FF"/>
<path fill-rule="evenodd" clip-rule="evenodd" d="M250.506 19.6458L249.868 18.7714C249.868 18.7714 256.39 16.164 265.709 16.6366L265.922 17.5504C265.922 17.5504 257.548 17.3456 250.498 19.6458H250.506Z" fill="#8E42B5"/>
<path fill-rule="evenodd" clip-rule="evenodd" d="M113.717 1.48877L117.309 19.6459C117.309 19.6459 122.862 18.7715 129.306 23.6949L113.717 1.48877Z" fill="#EC81FF"/>
<path fill-rule="evenodd" clip-rule="evenodd" d="M113.717 1.48877L95.4807 27.6571C95.4807 27.6571 100.814 24.4353 110.471 23.8839L114.536 2.66249L113.717 1.48877Z" fill="#EC81FF"/>
<path fill-rule="evenodd" clip-rule="evenodd" d="M108.084 25.4909C108.084 25.4909 111.968 23.6948 120.136 25.4909L125.469 40.1505C125.469 40.1505 120.278 37.3777 104.602 39.1501L108.092 25.4909H108.084Z" fill="#EC81FF"/>
<path fill-rule="evenodd" clip-rule="evenodd" d="M121.507 23.3244L126.635 37.5666C126.635 37.5666 133.465 37.9841 138.963 40.7332L128.715 25.1598C128.715 25.1598 126.053 22.8282 121.507 23.3244Z" fill="#C860FF"/>
<path fill-rule="evenodd" clip-rule="evenodd" d="M96.7093 28.5392L83.1604 48.2246C83.1604 48.2246 89.7379 44.2229 101.318 42.5608L106.233 26.7353C106.233 26.7353 101.94 26.4202 96.7172 28.5392H96.7093Z" fill="#C860FF"/>
<path fill-rule="evenodd" clip-rule="evenodd" d="M115.639 40.1504C115.639 40.1504 121.546 39.8826 128.439 41.718L134.213 53.6442C134.213 53.6442 125.966 50.5642 114.142 50.895L115.639 40.1504Z" fill="#C860FF"/>
<path fill-rule="evenodd" clip-rule="evenodd" d="M129.298 23.6949L127.415 24.3329C127.415 24.3329 124.469 21.5759 117.277 20.6857L117.309 19.638C117.309 19.638 123.973 19.063 129.306 23.687L129.298 23.6949Z" fill="#8E42B5"/>
<path fill-rule="evenodd" clip-rule="evenodd" d="M95.4807 27.6571L96.7096 28.5393C96.7096 28.5393 100.357 26.57 110.227 25.4514L110.479 23.8838C110.479 23.8838 103.319 23.7027 95.4886 27.6571H95.4807Z" fill="#8E42B5"/>
<path fill-rule="evenodd" clip-rule="evenodd" d="M104.594 39.15L105.138 40.7097C105.138 40.7097 114.851 39.8196 124.847 41.4817L125.461 40.1504C125.461 40.1504 118.884 37.0704 104.594 39.15Z" fill="#8E42B5"/>
<path fill-rule="evenodd" clip-rule="evenodd" d="M83.1526 48.2326L83.6174 49.3669C83.6174 49.3669 87.0912 45.9324 100.979 44.097L101.31 42.5688C101.31 42.5688 89.1472 43.2069 83.1526 48.2326Z" fill="#8E42B5"/>
<path fill-rule="evenodd" clip-rule="evenodd" d="M126.635 37.5667V38.7089C126.635 38.7089 131.551 38.2283 137.837 41.718L138.963 40.7412C138.963 40.7412 134.245 37.5509 126.635 37.5745V37.5667Z" fill="#8E42B5"/>
<path style="mix-blend-mode:multiply" opacity="0.5" fill-rule="evenodd" clip-rule="evenodd" d="M294.949 57.4727C294.949 57.4727 248.143 44.4279 233.026 70.9744L232.916 59.3711C232.916 59.3711 253.468 41.8599 294.91 56.5038L294.949 57.4806V57.4727Z" fill="url(#paint53_linear_4_2962)"/>
<path style="mix-blend-mode:multiply" opacity="0.5" fill-rule="evenodd" clip-rule="evenodd" d="M82.0103 59.3632L81.9473 61.6397C81.9473 61.6397 90.8171 54.432 114.134 56.1965C137.459 57.9689 144.446 70.9585 144.446 70.9585L144.005 60.1194C144.005 60.1194 132.354 51.7773 113.716 51.7773C95.0787 51.7773 82.0103 59.3553 82.0103 59.3553V59.3632Z" fill="url(#paint54_linear_4_2962)"/>
<g style="mix-blend-mode:multiply" opacity="0.2">
<path fill-rule="evenodd" clip-rule="evenodd" d="M155.151 85.1771H166.361V78.3632L158.783 78.4814L158.278 76.8272L175.104 74.7161L177.042 67.0593L168.015 67.6501L155.151 74.5506V85.1771Z" fill="#FF8B70"/>
</g>
<g style="mix-blend-mode:multiply" opacity="0.2">
<path fill-rule="evenodd" clip-rule="evenodd" d="M222.801 84.5232L210.339 84.3105V89.289L222.801 88.8794V84.5232Z" fill="#FF8B70"/>
</g>
<g style="mix-blend-mode:multiply" opacity="0.2">
<path fill-rule="evenodd" clip-rule="evenodd" d="M218.335 77.2998L218.752 81.8765L222.644 81.8922L222.344 76.8271L218.335 77.2998Z" fill="#FF8B70"/>
</g>
<path style="mix-blend-mode:multiply" opacity="0.5" fill-rule="evenodd" clip-rule="evenodd" d="M155.151 74.5506V79.0564C155.151 79.0564 181.895 59.2923 190.04 60.1273C198.185 60.9702 222.305 76.1103 222.305 76.1103L222.163 73.7392L189.299 56.228L155.151 74.5427V74.5506Z" fill="url(#paint55_linear_4_2962)"/>
<path fill-rule="evenodd" clip-rule="evenodd" d="M182.249 81.3644L196.775 80.8997C196.775 80.8997 197.184 81.8449 197.271 82.0734L181.91 82.223C181.91 82.223 182.139 81.6401 182.249 81.3644Z" fill="url(#paint56_linear_4_2962)"/>
<g style="mix-blend-mode:multiply" opacity="0.2">
<path fill-rule="evenodd" clip-rule="evenodd" d="M220.194 114.504H233.538L233.648 120.168L220.493 119.388L220.194 114.504Z" fill="#FF8B70"/>
</g>
<g style="mix-blend-mode:multiply" opacity="0.2">
<path fill-rule="evenodd" clip-rule="evenodd" d="M226.409 122.051L226.921 126.021H233.648L233.625 122.051H226.409Z" fill="#FF8B70"/>
</g>
<path style="mix-blend-mode:multiply" opacity="0.2" fill-rule="evenodd" clip-rule="evenodd" d="M153.371 115.859H163.942L164.612 119.191H153.371V115.859Z" fill="url(#paint57_linear_4_2962)"/>
<path style="mix-blend-mode:multiply" opacity="0.2" fill-rule="evenodd" clip-rule="evenodd" d="M155.947 115.111H165.258L165.691 110.699H155.151L155.947 115.111Z" fill="url(#paint58_linear_4_2962)"/>
<path fill-rule="evenodd" clip-rule="evenodd" d="M189.717 45.822L205.881 53.6442L205.054 55.3063L189.717 45.822Z" fill="#D381FF"/>
<path fill-rule="evenodd" clip-rule="evenodd" d="M188.062 46.8936L166.093 60.1353L166.518 60.8127L188.062 46.8936Z" fill="#D381FF"/>
<path fill-rule="evenodd" clip-rule="evenodd" d="M166.518 60.8125L152.063 69.0285L152.315 69.9895L166.518 60.8125Z" fill="#D381FF"/>
<path fill-rule="evenodd" clip-rule="evenodd" d="M207.669 56.9211L225.81 66.2085L225.023 67.65L207.669 56.9211Z" fill="#D381FF"/>
<path fill-rule="evenodd" clip-rule="evenodd" d="M949.592 124.611C949.592 124.611 1026.84 102.862 1069.61 41.6551L1073.89 38.709C1073.89 38.709 1104.45 88.9897 1185.93 126.1C1185.93 126.1 967.835 124.044 949.584 124.611H949.592Z" fill="url(#paint59_radial_4_2962)"/>
<path fill-rule="evenodd" clip-rule="evenodd" d="M938.185 192.466L941.99 183.139L949.592 124.619C949.592 124.619 995.823 108.943 1075.31 108.935C1154.85 108.935 1185.93 126.1 1185.93 126.1L1188.68 163.383L1198.18 192.458H938.185V192.466Z" fill="url(#paint60_radial_4_2962)"/>
<path fill-rule="evenodd" clip-rule="evenodd" d="M951.388 192.466L952.632 183.139L959.596 121.767L975.327 118.183L960.707 192.466H951.388Z" fill="url(#paint61_linear_4_2962)"/>
<path fill-rule="evenodd" clip-rule="evenodd" d="M977.241 192.466L988.545 115.741L998.037 114.26L990.924 192.466H977.241Z" fill="url(#paint62_linear_4_2962)"/>
<path fill-rule="evenodd" clip-rule="evenodd" d="M1011.17 192.466L1016.57 111.944L1031.15 110.566L1022.28 192.466H1011.17Z" fill="url(#paint63_linear_4_2962)"/>
<path fill-rule="evenodd" clip-rule="evenodd" d="M1057.35 192.466L1058.78 108.935H1077.12V192.466H1057.35Z" fill="url(#paint64_linear_4_2962)"/>
<path fill-rule="evenodd" clip-rule="evenodd" d="M1101.82 109.612L1116.08 192.466H1127.77L1114.79 110.495L1101.82 109.612Z" fill="url(#paint65_linear_4_2962)"/>
<path fill-rule="evenodd" clip-rule="evenodd" d="M1135.52 112.818L1142.31 161.957L1150.57 192.466H1161.41L1153.71 164.241L1148.46 114.953L1135.52 112.818Z" fill="url(#paint66_linear_4_2962)"/>
<path fill-rule="evenodd" clip-rule="evenodd" d="M1168.9 119.766L1175.09 163.958L1179.66 192.466H1189.06L1183.64 168.519L1178.99 122.846L1168.9 119.766Z" fill="url(#paint67_linear_4_2962)"/>
<path fill-rule="evenodd" clip-rule="evenodd" d="M975.327 118.183C975.327 118.183 992.271 116.064 1025.38 90.4076C1058.49 64.7512 1069.61 41.655 1069.61 41.655C1069.61 41.655 1037.87 95.9611 959.596 121.767L975.327 118.183Z" fill="url(#paint68_linear_4_2962)"/>
<path fill-rule="evenodd" clip-rule="evenodd" d="M988.545 115.741C988.545 115.741 1047.12 89.8406 1070.4 41.1116L1071.49 40.2136C1071.49 40.2136 1045.94 90.6913 998.037 114.26L988.537 115.741H988.545Z" fill="url(#paint69_linear_4_2962)"/>
<path fill-rule="evenodd" clip-rule="evenodd" d="M1016.57 111.944C1016.57 111.944 1066.88 63.3411 1071.5 40.2134L1072.78 39.4729C1072.78 39.4729 1060.53 79.1193 1031.15 110.558L1016.57 111.936V111.944Z" fill="url(#paint70_linear_4_2962)"/>
<path fill-rule="evenodd" clip-rule="evenodd" d="M1058.78 108.935L1072.77 39.4729C1072.77 39.4729 1072.36 69.8714 1077.12 108.935H1058.78Z" fill="url(#paint71_linear_4_2962)"/>
<path fill-rule="evenodd" clip-rule="evenodd" d="M1101.82 109.612C1101.82 109.612 1083.92 81.7663 1072.78 39.4731L1073.89 38.709C1073.89 38.709 1088.93 71.0138 1114.79 110.495L1101.82 109.612Z" fill="url(#paint72_linear_4_2962)"/>
<path fill-rule="evenodd" clip-rule="evenodd" d="M1135.52 112.819C1135.52 112.819 1104.96 92.0855 1072.18 40.2135L1073.89 38.709C1073.89 38.709 1094.89 81.7111 1148.46 114.953L1135.52 112.819Z" fill="url(#paint73_linear_4_2962)"/>
<path fill-rule="evenodd" clip-rule="evenodd" d="M1168.9 119.766C1168.9 119.766 1116.13 101.956 1072.77 39.4729C1072.77 39.4729 1104.03 89.2337 1178.98 122.846L1168.9 119.766H1168.9Z" fill="url(#paint74_linear_4_2962)"/>
<path fill-rule="evenodd" clip-rule="evenodd" d="M1095.32 64.4912C1070.76 57.2126 1048.06 64.4912 1048.06 64.4912C1048.47 64.1682 1048.87 63.8374 1049.27 63.4987C1062.05 52.7462 1069.61 36.2354 1069.61 36.2354H1072.77C1078.12 47.4526 1095.31 64.4912 1095.31 64.4912H1095.32Z" fill="url(#paint75_radial_4_2962)"/>
<path style="mix-blend-mode:multiply" opacity="0.5" fill-rule="evenodd" clip-rule="evenodd" d="M948.851 130.322L948.386 133.89C948.386 133.89 955.216 128.636 959.603 122.846C959.603 122.846 960.454 129.172 963.361 129.172C966.268 129.172 974.247 120.656 974.247 120.656C974.247 120.656 976.099 129.172 978.95 129.03C981.802 128.888 988.545 115.741 988.545 115.741C988.545 115.741 988.931 123.185 991.073 123.902C993.208 124.611 998.045 114.26 998.045 114.26C998.045 114.26 997.777 123.169 1002.05 126.099C1006.32 129.03 1016.57 112.779 1016.57 112.779C1016.57 112.779 1017.03 122.051 1021.16 123.335C1025.28 124.619 1031.15 110.558 1031.15 110.558C1031.15 110.558 1030.63 120.002 1034.26 121.759C1038.68 123.902 1053.93 114.772 1058.78 108.927C1058.78 108.927 1058.21 114.772 1062.48 117.198C1066.75 119.624 1077.12 109.612 1077.12 109.612C1077.12 109.612 1086.14 121.058 1095.55 121.413C1104.96 121.767 1101.81 109.612 1101.81 109.612C1101.81 109.612 1106.96 118.01 1111.65 119.199C1116.35 120.388 1114.79 110.495 1114.79 110.495C1114.79 110.495 1121.66 122.996 1129.47 124.327C1137.28 125.658 1135.51 112.818 1135.51 112.818C1135.51 112.818 1137.73 122.051 1143.01 123.76C1148.29 125.469 1148.45 114.953 1148.45 114.953C1148.45 114.953 1157.98 129.463 1165.25 129.747C1172.52 130.03 1168.9 119.766 1168.9 119.766C1168.9 119.766 1172.77 132.464 1176.51 133.89C1180.25 135.316 1178.98 122.846 1178.98 122.846C1178.98 122.846 1182.54 134.883 1186.86 138.869L1185.92 126.099C1185.92 126.099 1149.71 108.99 1067.22 108.99C984.732 108.99 951.387 124.579 951.387 124.579L948.843 130.322H948.851Z" fill="url(#paint76_linear_4_2962)"/>
<path fill-rule="evenodd" clip-rule="evenodd" d="M949.592 124.611C949.592 124.611 944.889 130.314 947.599 130.597C950.308 130.881 959.604 121.759 959.604 121.759C959.604 121.759 960.998 123.327 965.134 123.469C969.269 123.61 975.335 118.175 975.335 118.175C975.335 118.175 975.106 126.604 978.675 126.887C982.235 127.171 988.553 115.733 988.553 115.733C988.553 115.733 989.08 121.184 992.357 121.751C995.634 122.318 998.045 114.937 998.045 114.937C998.045 114.937 999.486 122.783 1006.61 122.767C1013.74 122.752 1016.57 112.771 1016.57 112.771C1016.57 112.771 1019.72 117.868 1023.86 118.167C1027.99 118.474 1031.15 110.55 1031.15 110.55C1031.15 110.55 1029.99 118.151 1038.83 118.167C1047.66 118.183 1058.78 108.919 1058.78 108.919C1058.78 108.919 1059.78 114.158 1066.19 114.244C1072.6 114.339 1077.12 109.597 1077.12 109.597C1077.12 109.597 1086.45 116.332 1093.79 116.474C1101.11 116.615 1101.82 109.597 1101.82 109.597C1101.82 109.597 1105.11 115.26 1109.38 115.725C1113.66 116.19 1114.79 110.479 1114.79 110.479C1114.79 110.479 1121.5 120.459 1128.48 121.743C1135.47 123.027 1135.53 112.795 1135.53 112.795C1135.53 112.795 1138.04 118.466 1142.46 119.75C1146.88 121.027 1148.48 114.93 1148.48 114.93C1148.48 114.93 1152.16 122.027 1160.42 124.737C1168.69 127.447 1168.91 119.75 1168.91 119.75C1168.91 119.75 1172.03 129.652 1175.95 130.59C1179.88 131.527 1178.99 122.83 1178.99 122.83C1178.99 122.83 1183.93 131.44 1187.49 132.291C1191.05 133.15 1185.93 126.084 1185.93 126.084C1185.93 126.084 1158.65 108.974 1067.23 108.974C981.321 108.974 949.584 124.603 949.584 124.603L949.592 124.611Z" fill="url(#paint77_radial_4_2962)"/>
<path style="mix-blend-mode:screen" opacity="0.5" fill-rule="evenodd" clip-rule="evenodd" d="M938.185 192.466L944.456 180.209C944.456 180.209 974.956 187.905 1013.16 190.189C1051.37 192.474 1188.68 163.391 1188.68 163.391L1198.18 192.466H938.185Z" fill="url(#paint78_linear_4_2962)"/>
<path fill-rule="evenodd" clip-rule="evenodd" d="M1025.39 192.466L1031.55 150.7L1071.84 121.767L1107 150.7L1113.7 192.466H1025.39Z" fill="#79023E"/>
<path style="mix-blend-mode:multiply" opacity="0.5" fill-rule="evenodd" clip-rule="evenodd" d="M963.361 119.766C963.361 119.766 1008.25 107.423 1061.2 104.618C1111.35 101.964 1139.3 113.52 1142.53 106.509C1143.4 104.618 1110.03 82.4121 1101.82 79.9465C1076.96 72.471 1048.06 64.4913 1048.06 64.4913C1048.06 64.4913 1066.97 57.189 1095.32 64.4913C1095.32 64.4913 1126.71 97.9855 1178.99 122.846C1178.99 122.846 1095.32 92.8259 963.361 119.766Z" fill="url(#paint79_linear_4_2962)"/>
<path style="mix-blend-mode:multiply" opacity="0.5" fill-rule="evenodd" clip-rule="evenodd" d="M1046.54 65.9408L1044.13 68.2016C1044.13 68.2016 1050.46 65.547 1054.31 63.0341C1054.31 63.0341 1051.74 67.1382 1052.32 67.6266C1052.89 68.1149 1057.26 63.0341 1057.26 63.0341C1057.26 63.0341 1055.64 66.2953 1056.07 66.8388C1056.5 67.3745 1059.2 63.0341 1059.2 63.0341C1059.2 63.0341 1058.17 67.0988 1059.2 67.8786C1060.24 68.6585 1063.15 62.0809 1063.15 62.0809C1063.15 62.0809 1062.87 65.4524 1064.77 66.2638C1066.66 67.0751 1068.52 61.372 1068.52 61.372C1068.52 61.372 1068.66 68.3119 1070.85 68.8318C1073.04 69.3517 1073.24 61.2932 1073.24 61.2932C1073.24 61.2932 1074.75 66.5552 1077.12 67.0751C1079.5 67.595 1079.61 61.7028 1079.61 61.7028C1079.61 61.7028 1082.83 67.792 1085.34 68.8633C1087.86 69.9346 1086.14 62.7505 1086.14 62.7505C1086.14 62.7505 1087.81 67.2406 1088.93 67.6344C1090.04 68.0283 1087.96 63.1838 1087.96 63.1838C1087.96 63.1838 1091.9 68.3591 1093.47 68.2646C1095.04 68.1701 1093.23 63.94 1093.23 63.94L1099.63 68.9657L1096.61 65.6494L1095.32 64.2708C1095.32 64.2708 1078.07 60.9939 1066.86 61.372C1055.65 61.7501 1050.37 63.554 1050.37 63.554L1046.55 65.9408H1046.54Z" fill="url(#paint80_linear_4_2962)"/>
<path fill-rule="evenodd" clip-rule="evenodd" d="M1048.66 63.7509C1048.66 63.7509 1039.3 67.1223 1040.43 67.6029C1041.57 68.0755 1054.3 63.0419 1054.3 63.0419C1054.3 63.0419 1052.21 66.2086 1052.78 66.6497C1053.36 67.0987 1057.35 62.459 1057.35 62.459C1057.35 62.459 1055.86 65.153 1056.16 65.413C1056.45 65.6729 1059.05 62.0021 1059.05 62.0021C1059.05 62.0021 1058.58 65.9801 1059.35 66.4528C1060.11 66.9254 1063.38 62.0257 1063.38 62.0257C1063.38 62.0257 1063.95 64.2393 1065.24 64.4913C1066.52 64.7434 1068.52 61.3719 1068.52 61.3719C1068.52 61.3719 1068.47 66.0747 1070.6 66.9333C1072.74 67.7919 1073.23 61.2932 1073.23 61.2932C1073.23 61.2932 1075.78 65.5075 1077.77 65.3657C1079.76 65.2239 1079.6 61.7028 1079.6 61.7028C1079.6 61.7028 1082.62 66.697 1085.04 67.0278C1087.47 67.3587 1086.03 62.3723 1086.03 62.3723C1086.03 62.3723 1088.08 65.6966 1088.75 65.6966C1089.42 65.6966 1087.52 62.6323 1087.52 62.6323C1087.52 62.6323 1091.37 66.6655 1092.84 66.4528C1094.3 66.248 1092.65 63.743 1092.65 63.743C1092.65 63.743 1097.76 66.1219 1099.62 65.9723C1101.47 65.8305 1095.31 64.2629 1095.31 64.2629C1095.31 64.2629 1085.47 61.0332 1070.32 61.0332C1055.16 61.0332 1048.65 63.743 1048.65 63.743L1048.66 63.7509Z" fill="url(#paint81_linear_4_2962)"/>
<path fill-rule="evenodd" clip-rule="evenodd" d="M1071.84 121.767C1071.84 121.767 1061.63 162.241 1048.06 163.391C1037.11 164.32 1034.55 155.324 1034.55 155.324L1032.84 159.113L1040.35 192.466H1022.29L1031.56 150.7L1071.84 121.767Z" fill="url(#paint82_linear_4_2962)"/>
<path fill-rule="evenodd" clip-rule="evenodd" d="M1071.84 121.767C1071.84 121.767 1074.65 143.674 1084.15 150.7C1093.65 157.727 1103.54 156.12 1103.54 156.12L1105.44 159.972L1099.97 192.474H1117.98L1107 150.708L1071.83 121.775L1071.84 121.767Z" fill="url(#paint83_linear_4_2962)"/>
<path style="mix-blend-mode:multiply" opacity="0.8" fill-rule="evenodd" clip-rule="evenodd" d="M1071.84 121.767L1112.09 150.7L1131.19 192.466H1117.98L1107 150.7L1071.84 121.767Z" fill="url(#paint84_linear_4_2962)"/>
<path style="mix-blend-mode:multiply" opacity="0.5" fill-rule="evenodd" clip-rule="evenodd" d="M1071.84 121.767C1071.84 121.767 1059.76 152.646 1050.52 157.12C1038.94 162.721 1035.27 155.332 1035.27 155.332C1035.27 155.332 1040.91 158.01 1049.52 152.654C1058.13 147.29 1066.34 128.187 1066.34 128.187C1066.34 128.187 1054.7 146.384 1045.86 150.283C1038.33 153.599 1033.12 152.654 1033.12 152.654L1031.56 150.708L1026.43 192.474C1026.43 192.474 1030.46 164.108 1031.15 163.399C1031.85 162.69 1034.27 192.474 1034.27 192.474H1036.56L1032.85 159.121L1034.21 156.128C1034.21 156.128 1042.46 164.076 1051.39 158.263C1061.75 151.52 1071.86 121.775 1071.86 121.775L1071.84 121.767Z" fill="url(#paint85_linear_4_2962)"/>
<path style="mix-blend-mode:multiply" opacity="0.5" fill-rule="evenodd" clip-rule="evenodd" d="M1073.7 126.1C1073.7 126.1 1074.84 137.719 1084.15 147.849C1091.42 155.758 1103.82 154.403 1103.82 154.403L1103.54 156.112L1105.44 159.964L1101.82 192.466C1101.82 192.466 1105.53 162.248 1106.39 161.532C1107.25 160.823 1108 163.383 1108.19 167.707C1108.29 169.889 1108.96 192.466 1108.96 192.466C1108.96 192.466 1110.24 171.229 1110.1 169.377C1109.96 167.526 1109.17 161.035 1109.17 161.035L1112.38 176.286L1116.08 192.466L1107 150.7C1107 150.7 1087.7 138.672 1081.01 131.243C1081.01 131.243 1088.2 142.358 1094.9 145.998C1101.61 149.629 1103.53 149.779 1103.53 149.779C1103.53 149.779 1097.68 151.047 1090.77 147.423C1090.77 147.423 1094.87 152.701 1103.24 152.126C1103.24 152.126 1099.85 153.071 1093.4 151.512C1086.95 149.96 1075.48 139.121 1073.68 126.1H1073.7Z" fill="url(#paint86_linear_4_2962)"/>
<path style="mix-blend-mode:multiply" opacity="0.5" fill-rule="evenodd" clip-rule="evenodd" d="M1095.32 64.4912C1070.76 57.2126 1048.06 64.4912 1048.06 64.4912C1048.47 64.1682 1048.87 63.8374 1049.27 63.4987C1051.73 62.5613 1063.76 58.1894 1084.12 57.953C1084.12 57.953 1075.57 41.1114 1069.62 36.2354H1072.78C1078.13 47.4526 1095.32 64.4912 1095.32 64.4912Z" fill="url(#paint87_linear_4_2962)"/>
<path d="M1042.2 192.497C1042.2 192.497 1041.46 188.567 1039.21 181.115C1036.96 173.647 1032.7 159.302 1032.66 159.161L1032.63 159.098L1034.16 155.718L1034.35 156.018C1034.44 156.151 1042.84 169.401 1053.69 166.061C1064.57 162.713 1071.59 122.145 1071.66 121.736L1072.03 121.799C1071.74 123.476 1064.91 163.005 1053.8 166.423C1043.59 169.559 1035.54 158.467 1034.22 156.514L1033.04 159.129C1033.36 160.208 1037.4 173.804 1039.57 181.012C1041.83 188.488 1042.57 192.395 1042.57 192.434L1042.2 192.505L1042.2 192.497Z" fill="#510222"/>
<path d="M1093.9 192.615L1093.68 192.308C1097.92 189.212 1104.62 162.973 1105.12 160.957L1103.18 159.515C1102.01 160.287 1092.23 166.305 1084.15 157.798C1075.65 148.865 1072.01 124.178 1071.98 123.933L1072.35 123.878C1072.39 124.122 1076.01 148.692 1084.43 157.538C1092.77 166.313 1102.97 159.2 1103.07 159.129L1103.18 159.05L1105.55 160.807L1105.51 160.925C1105.22 162.083 1098.39 189.331 1093.9 192.615Z" fill="#510222"/>
<path fill-rule="evenodd" clip-rule="evenodd" d="M1103.54 156.12C1103.54 156.12 1101.08 159.137 1105.33 160.886L1109.26 159.287L1108.29 154.458L1103.54 156.12Z" fill="url(#paint88_linear_4_2962)"/>
<path fill-rule="evenodd" clip-rule="evenodd" d="M1034.55 155.324C1034.55 155.324 1036.03 158.885 1032.84 159.113L1030.25 156.616L1031.56 150.7C1031.56 150.7 1032.71 153.851 1034.55 155.324Z" fill="url(#paint89_linear_4_2962)"/>
<path fill-rule="evenodd" clip-rule="evenodd" d="M1075.19 134.946C1075.19 135.615 1074.65 136.159 1073.98 136.159C1073.31 136.159 1072.77 135.615 1072.77 134.946C1072.77 134.276 1073.31 133.733 1073.98 133.733C1074.65 133.733 1075.19 134.276 1075.19 134.946Z" fill="url(#paint90_linear_4_2962)"/>
<path fill-rule="evenodd" clip-rule="evenodd" d="M1066.17 147.888C1066.17 148.558 1065.62 149.101 1064.95 149.101C1064.28 149.101 1063.74 148.558 1063.74 147.888C1063.74 147.219 1064.28 146.675 1064.95 146.675C1065.62 146.675 1066.17 147.219 1066.17 147.888Z" fill="url(#paint91_linear_4_2962)"/>
<path fill-rule="evenodd" clip-rule="evenodd" d="M1050.69 166.652C1050.69 167.321 1050.15 167.865 1049.48 167.865C1048.81 167.865 1048.26 167.321 1048.26 166.652C1048.26 165.982 1048.81 165.439 1049.48 165.439C1050.15 165.439 1050.69 165.982 1050.69 166.652Z" fill="url(#paint92_linear_4_2962)"/>
<path fill-rule="evenodd" clip-rule="evenodd" d="M1036.15 166.652C1036.15 167.321 1035.6 167.865 1034.93 167.865C1034.26 167.865 1033.72 167.321 1033.72 166.652C1033.72 165.982 1034.26 165.439 1034.93 165.439C1035.6 165.439 1036.15 165.982 1036.15 166.652Z" fill="url(#paint93_linear_4_2962)"/>
<path fill-rule="evenodd" clip-rule="evenodd" d="M1070.05 136.159C1070.05 136.828 1069.51 137.372 1068.84 137.372C1068.17 137.372 1067.62 136.828 1067.62 136.159C1067.62 135.489 1068.17 134.946 1068.84 134.946C1069.51 134.946 1070.05 135.489 1070.05 136.159Z" fill="url(#paint94_linear_4_2962)"/>
<path fill-rule="evenodd" clip-rule="evenodd" d="M1079.54 147.258C1079.54 147.927 1079 148.471 1078.33 148.471C1077.66 148.471 1077.12 147.927 1077.12 147.258C1077.12 146.588 1077.66 146.045 1078.33 146.045C1079 146.045 1079.54 146.588 1079.54 147.258Z" fill="url(#paint95_linear_4_2962)"/>
<path fill-rule="evenodd" clip-rule="evenodd" d="M1061.2 160.106C1061.2 160.775 1060.65 161.319 1059.98 161.319C1059.31 161.319 1058.77 160.775 1058.77 160.106C1058.77 159.436 1059.31 158.893 1059.98 158.893C1060.65 158.893 1061.2 159.436 1061.2 160.106Z" fill="url(#paint96_linear_4_2962)"/>
<path fill-rule="evenodd" clip-rule="evenodd" d="M1040.29 161.319C1040.29 161.988 1039.75 162.532 1039.08 162.532C1038.41 162.532 1037.86 161.988 1037.86 161.319C1037.86 160.649 1038.41 160.106 1039.08 160.106C1039.75 160.106 1040.29 160.649 1040.29 161.319Z" fill="url(#paint97_linear_4_2962)"/>
<path fill-rule="evenodd" clip-rule="evenodd" d="M1040.89 182.202C1040.89 182.871 1040.35 183.415 1039.68 183.415C1039.01 183.415 1038.46 182.871 1038.46 182.202C1038.46 181.532 1039.01 180.989 1039.68 180.989C1040.35 180.989 1040.89 181.532 1040.89 182.202Z" fill="url(#paint98_linear_4_2962)"/>
<path fill-rule="evenodd" clip-rule="evenodd" d="M1088.04 160.106C1088.04 160.775 1087.5 161.319 1086.83 161.319C1086.16 161.319 1085.62 160.775 1085.62 160.106C1085.62 159.436 1086.16 158.893 1086.83 158.893C1087.5 158.893 1088.04 159.436 1088.04 160.106Z" fill="url(#paint99_linear_4_2962)"/>
<path fill-rule="evenodd" clip-rule="evenodd" d="M1101.24 161.319C1101.24 161.988 1100.69 162.532 1100.02 162.532C1099.35 162.532 1098.81 161.988 1098.81 161.319C1098.81 160.649 1099.35 160.106 1100.02 160.106C1100.69 160.106 1101.24 160.649 1101.24 161.319Z" fill="url(#paint100_linear_4_2962)"/>
<path fill-rule="evenodd" clip-rule="evenodd" d="M1104.04 168.842C1104.04 169.511 1103.5 170.055 1102.83 170.055C1102.16 170.055 1101.62 169.511 1101.62 168.842C1101.62 168.172 1102.16 167.629 1102.83 167.629C1103.5 167.629 1104.04 168.172 1104.04 168.842Z" fill="url(#paint101_linear_4_2962)"/>
<path fill-rule="evenodd" clip-rule="evenodd" d="M1098.41 186.763C1098.41 187.432 1097.87 187.976 1097.2 187.976C1096.53 187.976 1095.98 187.432 1095.98 186.763C1095.98 186.093 1096.53 185.55 1097.2 185.55C1097.87 185.55 1098.41 186.093 1098.41 186.763Z" fill="url(#paint102_linear_4_2962)"/>
<path d="M1185.96 126.289L1185.89 125.918C1185.94 125.918 1190.36 125.146 1190.73 123.279C1190.92 122.318 1189.99 121.192 1187.97 119.932C1180.6 115.347 1112.15 112.133 1091.71 112.133H1091.52C1085.01 112.133 1078.53 111.172 1071.67 110.148C1057.79 108.084 1042.06 105.745 1017.47 109.124C980.573 114.197 949.962 124.689 949.655 124.792L949.529 124.437C949.836 124.335 980.478 113.827 1017.42 108.746C1042.06 105.359 1057.82 107.706 1071.72 109.77C1078.57 110.786 1085.03 111.747 1091.51 111.747C1091.57 111.747 1091.64 111.747 1091.71 111.747C1112.16 111.747 1180.74 114.977 1188.16 119.601C1190.34 120.956 1191.32 122.216 1191.1 123.342C1190.68 125.461 1186.15 126.249 1185.96 126.281V126.289Z" fill="#79023E"/>
<path fill-rule="evenodd" clip-rule="evenodd" d="M981.164 115.741C981.164 116.411 980.62 116.954 979.951 116.954C979.281 116.954 978.738 116.411 978.738 115.741C978.738 115.071 979.281 114.528 979.951 114.528C980.62 114.528 981.164 115.071 981.164 115.741Z" fill="url(#paint103_linear_4_2962)"/>
<path fill-rule="evenodd" clip-rule="evenodd" d="M962.022 121.09C962.022 121.759 961.478 122.303 960.809 122.303C960.139 122.303 959.596 121.759 959.596 121.09C959.596 120.42 960.139 119.876 960.809 119.876C961.478 119.876 962.022 120.42 962.022 121.09Z" fill="url(#paint104_linear_4_2962)"/>
<path fill-rule="evenodd" clip-rule="evenodd" d="M1007.28 110.566C1007.28 111.235 1006.73 111.779 1006.06 111.779C1005.39 111.779 1004.85 111.235 1004.85 110.566C1004.85 109.896 1005.39 109.353 1006.06 109.353C1006.73 109.353 1007.28 109.896 1007.28 110.566Z" fill="url(#paint105_linear_4_2962)"/>
<path fill-rule="evenodd" clip-rule="evenodd" d="M1027.81 107.722C1027.81 108.391 1027.26 108.935 1026.59 108.935C1025.92 108.935 1025.38 108.391 1025.38 107.722C1025.38 107.052 1025.92 106.509 1026.59 106.509C1027.26 106.509 1027.81 107.052 1027.81 107.722Z" fill="url(#paint106_linear_4_2962)"/>
<path fill-rule="evenodd" clip-rule="evenodd" d="M1054.76 107.722C1054.76 108.391 1054.22 108.935 1053.55 108.935C1052.88 108.935 1052.33 108.391 1052.33 107.722C1052.33 107.052 1052.88 106.509 1053.55 106.509C1054.22 106.509 1054.76 107.052 1054.76 107.722Z" fill="url(#paint107_linear_4_2962)"/>
<path fill-rule="evenodd" clip-rule="evenodd" d="M1073.98 110.148C1073.98 110.818 1073.44 111.361 1072.77 111.361C1072.1 111.361 1071.56 110.818 1071.56 110.148C1071.56 109.479 1072.1 108.935 1072.77 108.935C1073.44 108.935 1073.98 109.479 1073.98 110.148Z" fill="url(#paint108_linear_4_2962)"/>
<path fill-rule="evenodd" clip-rule="evenodd" d="M1099.62 111.944C1099.62 112.614 1099.08 113.157 1098.41 113.157C1097.74 113.157 1097.2 112.614 1097.2 111.944C1097.2 111.274 1097.74 110.731 1098.41 110.731C1099.08 110.731 1099.62 111.274 1099.62 111.944Z" fill="url(#paint109_linear_4_2962)"/>
<path fill-rule="evenodd" clip-rule="evenodd" d="M1125.88 113.157C1125.88 113.827 1125.33 114.37 1124.66 114.37C1123.99 114.37 1123.45 113.827 1123.45 113.157C1123.45 112.487 1123.99 111.944 1124.66 111.944C1125.33 111.944 1125.88 112.487 1125.88 113.157Z" fill="url(#paint110_linear_4_2962)"/>
<path fill-rule="evenodd" clip-rule="evenodd" d="M1150.89 114.362C1150.89 115.032 1150.34 115.575 1149.67 115.575C1149.01 115.575 1148.46 115.032 1148.46 114.362C1148.46 113.693 1149.01 113.149 1149.67 113.149C1150.34 113.149 1150.89 113.693 1150.89 114.362Z" fill="url(#paint111_linear_4_2962)"/>
<path fill-rule="evenodd" clip-rule="evenodd" d="M1172.53 116.671C1172.53 117.34 1171.98 117.884 1171.31 117.884C1170.64 117.884 1170.1 117.34 1170.1 116.671C1170.1 116.001 1170.64 115.458 1171.31 115.458C1171.98 115.458 1172.53 116.001 1172.53 116.671Z" fill="url(#paint112_linear_4_2962)"/>
<path fill-rule="evenodd" clip-rule="evenodd" d="M1192.16 123.902C1192.16 124.571 1191.61 125.115 1190.94 125.115C1190.27 125.115 1189.73 124.571 1189.73 123.902C1189.73 123.232 1190.27 122.689 1190.94 122.689C1191.61 122.689 1192.16 123.232 1192.16 123.902Z" fill="url(#paint113_linear_4_2962)"/>
<path fill-rule="evenodd" clip-rule="evenodd" d="M1073.39 124.059C1073.39 124.729 1072.85 125.272 1072.18 125.272C1071.51 125.272 1070.96 124.729 1070.96 124.059C1070.96 123.39 1071.51 122.846 1072.18 122.846C1072.85 122.846 1073.39 123.39 1073.39 124.059Z" fill="url(#paint114_linear_4_2962)"/>
<path style="mix-blend-mode:screen" fill-rule="evenodd" clip-rule="evenodd" d="M1084.11 110.731C1084.11 116.993 1079.03 122.074 1072.77 122.074C1066.51 122.074 1061.43 116.993 1061.43 110.731C1061.43 104.469 1066.51 99.3877 1072.77 99.3877C1079.03 99.3877 1084.11 104.469 1084.11 110.731Z" fill="url(#paint115_radial_4_2962)"/>
<path style="mix-blend-mode:screen" d="M1006.06 119.034C1010.78 119.034 1014.6 115.21 1014.6 110.495C1014.6 105.779 1010.78 101.956 1006.06 101.956C1001.35 101.956 997.525 105.779 997.525 110.495C997.525 115.21 1001.35 119.034 1006.06 119.034Z" fill="url(#paint116_radial_4_2962)"/>
<path style="mix-blend-mode:screen" fill-rule="evenodd" clip-rule="evenodd" d="M1133.2 113.157C1133.2 117.876 1129.38 121.696 1124.66 121.696C1119.95 121.696 1116.13 117.876 1116.13 113.157C1116.13 108.439 1119.95 104.618 1124.66 104.618C1129.38 104.618 1133.2 108.439 1133.2 113.157Z" fill="url(#paint117_radial_4_2962)"/>
<path style="mix-blend-mode:screen" d="M1059.99 166.534C1063.54 166.534 1066.42 163.656 1066.42 160.106C1066.42 156.556 1063.54 153.678 1059.99 153.678C1056.44 153.678 1053.56 156.556 1053.56 160.106C1053.56 163.656 1056.44 166.534 1059.99 166.534Z" fill="url(#paint118_radial_4_2962)"/>
<path style="mix-blend-mode:screen" fill-rule="evenodd" clip-rule="evenodd" d="M1109.26 168.842C1109.26 172.394 1106.38 175.27 1102.83 175.27C1099.28 175.27 1096.4 172.394 1096.4 168.842C1096.4 165.289 1099.28 162.414 1102.83 162.414C1106.38 162.414 1109.26 165.289 1109.26 168.842Z" fill="url(#paint119_radial_4_2962)"/>
<path style="mix-blend-mode:screen" fill-rule="evenodd" clip-rule="evenodd" d="M1045.51 161.319C1045.51 164.871 1042.64 167.747 1039.09 167.747C1035.53 167.747 1032.66 164.871 1032.66 161.319C1032.66 157.766 1035.53 154.891 1039.09 154.891C1042.64 154.891 1045.51 157.766 1045.51 161.319Z" fill="url(#paint120_radial_4_2962)"/>
<path style="mix-blend-mode:screen" d="M1149.67 119.175C1152.01 119.175 1153.9 117.285 1153.9 114.953C1153.9 112.621 1152.01 110.731 1149.67 110.731C1147.34 110.731 1145.45 112.621 1145.45 114.953C1145.45 117.285 1147.34 119.175 1149.67 119.175Z" fill="url(#paint121_radial_4_2962)"/>
<path style="mix-blend-mode:screen" fill-rule="evenodd" clip-rule="evenodd" d="M1082.55 147.841C1082.55 150.173 1080.66 152.063 1078.33 152.063C1076 152.063 1074.11 150.173 1074.11 147.841C1074.11 145.509 1076 143.619 1078.33 143.619C1080.66 143.619 1082.55 145.509 1082.55 147.841Z" fill="url(#paint122_radial_4_2962)"/>
<path style="mix-blend-mode:screen" d="M1086.83 164.328C1089.16 164.328 1091.05 162.438 1091.05 160.106C1091.05 157.774 1089.16 155.884 1086.83 155.884C1084.5 155.884 1082.61 157.774 1082.61 160.106C1082.61 162.438 1084.5 164.328 1086.83 164.328Z" fill="url(#paint123_radial_4_2962)"/>
<path style="mix-blend-mode:screen" fill-rule="evenodd" clip-rule="evenodd" d="M1073.06 136.159C1073.06 138.49 1071.17 140.381 1068.84 140.381C1066.51 140.381 1064.62 138.49 1064.62 136.159C1064.62 133.827 1066.51 131.937 1068.84 131.937C1071.17 131.937 1073.06 133.827 1073.06 136.159Z" fill="url(#paint124_radial_4_2962)"/>
<path style="mix-blend-mode:screen" fill-rule="evenodd" clip-rule="evenodd" d="M1101.43 186.763C1101.43 189.094 1099.54 190.985 1097.2 190.985C1094.87 190.985 1092.98 189.094 1092.98 186.763C1092.98 184.431 1094.87 182.54 1097.2 182.54C1099.54 182.54 1101.43 184.431 1101.43 186.763Z" fill="url(#paint125_radial_4_2962)"/>
<path style="mix-blend-mode:screen" fill-rule="evenodd" clip-rule="evenodd" d="M1044.52 182.201C1044.52 184.533 1042.63 186.424 1040.3 186.424C1037.97 186.424 1036.08 184.533 1036.08 182.201C1036.08 179.87 1037.97 177.979 1040.3 177.979C1042.63 177.979 1044.52 179.87 1044.52 182.201Z" fill="url(#paint126_radial_4_2962)"/>
<path style="mix-blend-mode:multiply" opacity="0.5" fill-rule="evenodd" clip-rule="evenodd" d="M1188.68 163.383C1188.68 163.383 1193.05 184.762 1190.94 187.968C1188.85 191.174 938.185 192.458 938.185 192.458H1198.18L1188.68 163.383Z" fill="url(#paint127_linear_4_2962)"/>
<path d="M464.36 114.8H497.9V122.78H464.36V114.8ZM470.9 122L478.58 125.6C476.9 128.04 475 130.46 472.88 132.86C470.8 135.22 468.78 137.2 466.82 138.8C466.14 137.96 465.2 137 464 135.92C462.8 134.84 461.74 133.96 460.82 133.28C462.06 132.36 463.3 131.28 464.54 130.04C465.78 128.76 466.94 127.42 468.02 126.02C469.14 124.62 470.1 123.28 470.9 122ZM482.24 126.14L488.06 121.16C489.34 122.28 490.66 123.52 492.02 124.88C493.38 126.24 494.64 127.6 495.8 128.96C497 130.32 497.92 131.58 498.56 132.74L492.2 138.38C491.64 137.18 490.8 135.86 489.68 134.42C488.6 132.98 487.4 131.54 486.08 130.1C484.8 128.66 483.52 127.34 482.24 126.14ZM475.28 133.04C476.52 136.64 478.22 139.92 480.38 142.88C482.58 145.84 485.26 148.38 488.42 150.5C491.62 152.62 495.34 154.26 499.58 155.42C498.94 156.02 498.24 156.78 497.48 157.7C496.76 158.62 496.06 159.58 495.38 160.58C494.74 161.58 494.2 162.5 493.76 163.34C489.16 161.78 485.22 159.68 481.94 157.04C478.66 154.36 475.86 151.18 473.54 147.5C471.26 143.78 469.32 139.58 467.72 134.9L475.28 133.04ZM473.72 108.68L481.58 105.86C482.46 106.98 483.3 108.24 484.1 109.64C484.9 111.04 485.5 112.28 485.9 113.36L477.74 116.66C477.42 115.58 476.86 114.28 476.06 112.76C475.3 111.24 474.52 109.88 473.72 108.68ZM442.58 118.04H462.86V126.08H442.58V118.04ZM449.36 106.7H457.28V163.7H449.36V106.7ZM448.4 123.74L452.84 125.54C452.48 128.06 452.02 130.66 451.46 133.34C450.94 136.02 450.32 138.64 449.6 141.2C448.92 143.76 448.14 146.16 447.26 148.4C446.42 150.6 445.52 152.52 444.56 154.16C444.32 153.32 443.98 152.38 443.54 151.34C443.1 150.26 442.62 149.18 442.1 148.1C441.58 147.02 441.1 146.1 440.66 145.34C441.58 144.06 442.42 142.58 443.18 140.9C443.98 139.18 444.72 137.34 445.4 135.38C446.08 133.42 446.66 131.44 447.14 129.44C447.66 127.44 448.08 125.54 448.4 123.74ZM457.22 127.58C457.58 128.06 458.12 128.86 458.84 129.98C459.6 131.1 460.4 132.32 461.24 133.64C462.08 134.96 462.84 136.18 463.52 137.3C464.2 138.42 464.68 139.22 464.96 139.7L460.1 146.12C459.74 145.04 459.28 143.84 458.72 142.52C458.16 141.16 457.56 139.78 456.92 138.38C456.32 136.94 455.72 135.58 455.12 134.3C454.52 133.02 453.98 131.94 453.5 131.06L457.22 127.58ZM483.86 133.1L492.2 135.32C490 142.32 486.74 148.16 482.42 152.84C478.1 157.52 472.56 161.16 465.8 163.76C465.44 163.12 464.94 162.36 464.3 161.48C463.66 160.6 462.98 159.72 462.26 158.84C461.58 158 460.96 157.34 460.4 156.86C466.44 154.78 471.42 151.72 475.34 147.68C479.3 143.64 482.14 138.78 483.86 133.1ZM551.48 109.04H565.04V116.78H558.86V163.52H551.48V109.04ZM562.4 109.04H563.72L564.86 108.74L570.26 111.68C569.62 114.28 568.9 117.04 568.1 119.96C567.34 122.84 566.62 125.46 565.94 127.82C567.38 130.14 568.3 132.34 568.7 134.42C569.14 136.46 569.36 138.34 569.36 140.06C569.36 142.14 569.14 143.86 568.7 145.22C568.3 146.58 567.62 147.64 566.66 148.4C566.18 148.8 565.66 149.12 565.1 149.36C564.54 149.56 563.94 149.72 563.3 149.84C562.82 149.88 562.28 149.92 561.68 149.96C561.08 150 560.44 150 559.76 149.96C559.72 148.96 559.56 147.78 559.28 146.42C559 145.06 558.58 143.88 558.02 142.88C558.42 142.92 558.76 142.94 559.04 142.94C559.32 142.94 559.6 142.94 559.88 142.94C560.48 142.94 560.94 142.78 561.26 142.46C561.54 142.22 561.74 141.82 561.86 141.26C562.02 140.66 562.1 139.92 562.1 139.04C562.1 137.72 561.92 136.16 561.56 134.36C561.2 132.52 560.38 130.6 559.1 128.6C559.42 127.28 559.74 125.82 560.06 124.22C560.38 122.62 560.7 121.02 561.02 119.42C561.34 117.78 561.62 116.26 561.86 114.86C562.1 113.46 562.28 112.3 562.4 111.38V109.04ZM578 129.56H595.04V136.34H578V129.56ZM572.66 139.64H601.04V146.54H572.66V139.64ZM574.94 110.96H583.64V116.42H574.94V110.96ZM572.84 120.14L576.32 116.3C577.32 117.02 578.42 117.86 579.62 118.82C580.86 119.74 581.82 120.54 582.5 121.22L578.9 125.54C578.26 124.82 577.34 123.94 576.14 122.9C574.98 121.86 573.88 120.94 572.84 120.14ZM592.58 151.04L598.94 147.32C599.78 148.28 600.7 149.34 601.7 150.5C602.7 151.66 603.66 152.8 604.58 153.92C605.5 155 606.26 155.98 606.86 156.86L600.08 161.06C599.56 160.18 598.86 159.16 597.98 158C597.14 156.84 596.24 155.66 595.28 154.46C594.32 153.22 593.42 152.08 592.58 151.04ZM581.9 110.96H583.04L584.18 110.72L588.44 112.34C587.6 116.42 586.4 120.16 584.84 123.56C583.28 126.92 581.42 129.88 579.26 132.44C577.14 135 574.74 137.14 572.06 138.86C571.62 138.06 570.98 137.16 570.14 136.16C569.3 135.12 568.54 134.3 567.86 133.7C570.14 132.38 572.22 130.62 574.1 128.42C576.02 126.22 577.64 123.72 578.96 120.92C580.32 118.08 581.3 115.14 581.9 112.1V110.96ZM591.44 109.82H600.68V115.46H591.44V109.82ZM574.4 106.82L580.7 108.26C579.62 111.5 578.18 114.58 576.38 117.5C574.58 120.38 572.62 122.78 570.5 124.7C569.98 124.14 569.2 123.42 568.16 122.54C567.12 121.62 566.24 120.9 565.52 120.38C567.52 118.78 569.28 116.8 570.8 114.44C572.36 112.04 573.56 109.5 574.4 106.82ZM598.34 109.82H599.9L601.28 109.46L605.96 112.16C605.08 114.84 603.98 117.52 602.66 120.2C601.38 122.84 599.98 125.04 598.46 126.8C597.94 126.04 597.22 125.18 596.3 124.22C595.38 123.26 594.58 122.52 593.9 122C594.58 121.04 595.2 119.94 595.76 118.7C596.36 117.42 596.88 116.12 597.32 114.8C597.76 113.44 598.1 112.22 598.34 111.14V109.82ZM573.2 148.16L581 150.68C580.32 151.92 579.52 153.22 578.6 154.58C577.68 155.9 576.74 157.16 575.78 158.36C574.82 159.6 573.92 160.68 573.08 161.6C572.52 161.16 571.82 160.66 570.98 160.1C570.14 159.54 569.28 159 568.4 158.48C567.56 157.96 566.82 157.54 566.18 157.22C567.46 156.06 568.74 154.66 570.02 153.02C571.3 151.34 572.36 149.72 573.2 148.16ZM592.64 112.34C593.4 115.26 594.44 118.04 595.76 120.68C597.12 123.32 598.74 125.68 600.62 127.76C602.54 129.8 604.74 131.44 607.22 132.68C606.42 133.36 605.54 134.3 604.58 135.5C603.62 136.7 602.88 137.76 602.36 138.68C599.6 137.04 597.18 135 595.1 132.56C593.06 130.08 591.3 127.26 589.82 124.1C588.38 120.9 587.18 117.46 586.22 113.78L592.64 112.34ZM582.86 142.52H591.02V163.58H582.86V142.52ZM567.38 125C568.54 124.92 569.76 124.82 571.04 124.7C572.32 124.58 573.74 124.44 575.3 124.28L575.48 128.66C574.16 128.94 572.92 129.2 571.76 129.44C570.64 129.68 569.44 129.92 568.16 130.16L567.38 125ZM665 113.42V116.18H666.86V113.42H665ZM659 108.14H673.16V121.52H659V108.14ZM680.96 113.42V116.18H682.82V113.42H680.96ZM674.96 108.14H689.12V121.52H674.96V108.14ZM689.18 123.98L713.96 121.04L714.86 129.08L690.14 132.14L689.18 123.98ZM702.38 110.78L708.98 107.42C709.7 108.46 710.4 109.6 711.08 110.84C711.8 112.04 712.44 113.24 713 114.44C713.6 115.6 714.04 116.66 714.32 117.62L707.3 121.4C707.06 120.44 706.68 119.36 706.16 118.16C705.64 116.92 705.04 115.66 704.36 114.38C703.72 113.06 703.06 111.86 702.38 110.78ZM666.74 137.54V139.64H681.2V137.54H666.74ZM666.74 129.56V131.66H681.2V129.56H666.74ZM659.66 123.26H688.64V145.94H659.66V123.26ZM657.32 148.22H690.02V155.84H657.32V148.22ZM670.28 125.36H677.54V143.36H678.08V163.7H669.74V143.36H670.28V125.36ZM693.14 107.06H701.36C701.4 112.02 701.52 116.78 701.72 121.34C701.96 125.86 702.26 130.06 702.62 133.94C703.02 137.78 703.48 141.14 704 144.02C704.52 146.86 705.08 149.08 705.68 150.68C706.32 152.28 706.96 153.12 707.6 153.2C708 153.24 708.32 152.62 708.56 151.34C708.84 150.06 709.04 148.14 709.16 145.58C709.64 146.18 710.28 146.82 711.08 147.5C711.88 148.18 712.68 148.8 713.48 149.36C714.32 149.88 714.96 150.28 715.4 150.56C714.84 154.24 714.1 157.02 713.18 158.9C712.3 160.82 711.36 162.1 710.36 162.74C709.36 163.38 708.42 163.7 707.54 163.7C705.38 163.62 703.52 162.7 701.96 160.94C700.4 159.22 699.08 156.74 698 153.5C696.92 150.26 696.04 146.34 695.36 141.74C694.72 137.14 694.22 131.94 693.86 126.14C693.54 120.3 693.3 113.94 693.14 107.06ZM707.12 129.92L713.66 133.58C712.38 137.54 710.64 141.42 708.44 145.22C706.28 148.98 703.78 152.42 700.94 155.54C698.1 158.62 695 161.14 691.64 163.1C690.92 162.1 689.96 161.02 688.76 159.86C687.6 158.74 686.46 157.8 685.34 157.04C688.82 155.4 691.98 153.18 694.82 150.38C697.66 147.58 700.12 144.42 702.2 140.9C704.28 137.38 705.92 133.72 707.12 129.92ZM799.64 106.7H807.98V127.52H799.64V106.7ZM787.34 110.06H819.5V115.64H787.34V110.06ZM788.72 116.9H818.48V122.18H788.72V116.9ZM785.66 123.44H821.9V129.5H785.66V123.44ZM796.94 141.44V142.94H810.5V141.44H796.94ZM796.94 147.26V148.76H810.5V147.26H796.94ZM796.94 135.68V137.18H810.5V135.68H796.94ZM789.08 130.76H818.78V153.68H789.08V130.76ZM805.46 157.22L811.34 153.08C812.62 153.76 813.96 154.5 815.36 155.3C816.76 156.1 818.1 156.88 819.38 157.64C820.7 158.36 821.82 159.02 822.74 159.62L814.94 163.64C813.86 162.8 812.42 161.76 810.62 160.52C808.82 159.32 807.1 158.22 805.46 157.22ZM797.48 152.78L803.9 158.42C802.42 159.02 800.8 159.64 799.04 160.28C797.32 160.92 795.6 161.52 793.88 162.08C792.16 162.68 790.62 163.2 789.26 163.64C788.62 162.84 787.78 161.88 786.74 160.76C785.74 159.64 784.8 158.68 783.92 157.88C785.32 157.48 786.84 157 788.48 156.44C790.16 155.84 791.8 155.22 793.4 154.58C795 153.94 796.36 153.34 797.48 152.78ZM779.42 132.14L785.12 130.58C785.56 131.94 785.98 133.4 786.38 134.96C786.78 136.48 787.14 137.96 787.46 139.4C787.78 140.8 788 142.04 788.12 143.12L782.06 145.04C781.94 143.92 781.74 142.62 781.46 141.14C781.22 139.66 780.92 138.14 780.56 136.58C780.2 134.98 779.82 133.5 779.42 132.14ZM774.62 147.2L779.96 146.24C780.28 148.48 780.54 150.9 780.74 153.5C780.98 156.1 781.12 158.36 781.16 160.28L775.52 161.3C775.56 160.02 775.54 158.58 775.46 156.98C775.38 155.34 775.26 153.68 775.1 152C774.98 150.28 774.82 148.68 774.62 147.2ZM767.6 146.9L773.72 147.86C773.56 150.7 773.28 153.52 772.88 156.32C772.48 159.08 771.96 161.4 771.32 163.28C770.64 162.92 769.68 162.54 768.44 162.14C767.2 161.74 766.18 161.44 765.38 161.24C766.1 159.44 766.62 157.24 766.94 154.64C767.26 152.04 767.48 149.46 767.6 146.9ZM767.54 131.3C767.42 130.78 767.22 130.1 766.94 129.26C766.66 128.42 766.34 127.56 765.98 126.68C765.66 125.8 765.36 125.04 765.08 124.4C765.68 124.2 766.24 123.82 766.76 123.26C767.28 122.7 767.8 121.98 768.32 121.1C768.72 120.54 769.28 119.5 770 117.98C770.76 116.46 771.54 114.68 772.34 112.64C773.14 110.6 773.82 108.54 774.38 106.46L781.7 109.4C780.5 112.56 779 115.76 777.2 119C775.44 122.24 773.68 125.04 771.92 127.4V127.58C771.92 127.58 771.7 127.72 771.26 128C770.82 128.24 770.3 128.56 769.7 128.96C769.14 129.36 768.64 129.78 768.2 130.22C767.76 130.62 767.54 130.98 767.54 131.3ZM767.54 131.3L767.3 125.54L770.6 123.38L780.98 122.72C780.78 123.72 780.6 124.88 780.44 126.2C780.28 127.48 780.18 128.54 780.14 129.38C777.86 129.58 775.96 129.78 774.44 129.98C772.96 130.14 771.76 130.3 770.84 130.46C769.96 130.58 769.26 130.72 768.74 130.88C768.26 131 767.86 131.14 767.54 131.3ZM768.02 145.46C767.9 144.98 767.7 144.3 767.42 143.42C767.14 142.54 766.82 141.64 766.46 140.72C766.14 139.76 765.82 138.96 765.5 138.32C766.3 138.12 767.06 137.68 767.78 137C768.5 136.28 769.32 135.36 770.24 134.24C770.72 133.68 771.4 132.76 772.28 131.48C773.2 130.2 774.2 128.66 775.28 126.86C776.4 125.06 777.5 123.12 778.58 121.04C779.7 118.96 780.68 116.88 781.52 114.8L788.24 118.94C786.92 121.62 785.4 124.32 783.68 127.04C781.96 129.76 780.14 132.36 778.22 134.84C776.3 137.28 774.38 139.52 772.46 141.56V141.74C772.46 141.74 772.24 141.88 771.8 142.16C771.36 142.4 770.84 142.72 770.24 143.12C769.64 143.52 769.12 143.94 768.68 144.38C768.24 144.78 768.02 145.14 768.02 145.46ZM768.02 145.46L767.66 139.52L770.96 137.24L784.34 135.74C784.18 136.74 784.04 137.9 783.92 139.22C783.8 140.54 783.76 141.6 783.8 142.4C780.8 142.8 778.36 143.16 776.48 143.48C774.6 143.8 773.1 144.08 771.98 144.32C770.9 144.52 770.06 144.72 769.46 144.92C768.86 145.08 768.38 145.26 768.02 145.46ZM780.86 146.54L785.78 144.98C786.34 146.54 786.86 148.24 787.34 150.08C787.86 151.92 788.24 153.5 788.48 154.82L783.38 156.62C783.18 155.22 782.82 153.6 782.3 151.76C781.82 149.88 781.34 148.14 780.86 146.54Z" fill="white"/>
<defs>
<linearGradient id="paint0_linear_4_2962" x1="1258.87" y1="271.918" x2="1213.7" y2="242.173" gradientUnits="userSpaceOnUse">
<stop stop-color="#E2421B"/>
<stop offset="1" stop-color="#A5161B"/>
</linearGradient>
<linearGradient id="paint1_linear_4_2962" x1="1187.86" y1="176.571" x2="1130.8" y2="268.019" gradientUnits="userSpaceOnUse">
<stop stop-color="#4D071B"/>
<stop offset="1" stop-color="#A5161B"/>
</linearGradient>
<linearGradient id="paint2_linear_4_2962" x1="40.954" y1="271.674" x2="99.6871" y2="243.441" gradientUnits="userSpaceOnUse">
<stop stop-color="#E2421B"/>
<stop offset="1" stop-color="#A5161B"/>
</linearGradient>
<linearGradient id="paint3_linear_4_2962" x1="118.498" y1="185.402" x2="155.395" y2="300.599" gradientUnits="userSpaceOnUse">
<stop stop-color="#4D071B"/>
<stop offset="1" stop-color="#A5161B"/>
</linearGradient>
<linearGradient id="paint4_linear_4_2962" x1="649.491" y1="150.229" x2="649.491" y2="242.323" gradientUnits="userSpaceOnUse">
<stop stop-color="#E2421B"/>
<stop offset="1" stop-color="#A5161B"/>
</linearGradient>
<linearGradient id="paint5_linear_4_2962" x1="128.92" y1="87.928" x2="157.53" y2="135.365" gradientUnits="userSpaceOnUse">
<stop stop-color="white"/>
<stop offset="0.22" stop-color="white" stop-opacity="0.5776"/>
<stop offset="0.6" stop-color="white" stop-opacity="0.1296"/>
<stop offset="0.87" stop-color="white" stop-opacity="0.01"/>
<stop offset="1" stop-color="white" stop-opacity="0"/>
</linearGradient>
<linearGradient id="paint6_linear_4_2962" x1="1173.87" y1="89.212" x2="1148.49" y2="131.292" gradientUnits="userSpaceOnUse">
<stop stop-color="white"/>
<stop offset="0.22" stop-color="white" stop-opacity="0.5776"/>
<stop offset="0.6" stop-color="white" stop-opacity="0.1296"/>
<stop offset="0.87" stop-color="white" stop-opacity="0.01"/>
<stop offset="1" stop-color="white" stop-opacity="0"/>
</linearGradient>
<linearGradient id="paint7_linear_4_2962" x1="188.882" y1="80.8998" x2="188.882" y2="53.219" gradientUnits="userSpaceOnUse">
<stop stop-color="#8E3BA4"/>
<stop offset="1" stop-color="#541895"/>
</linearGradient>
<linearGradient id="paint8_linear_4_2962" x1="190.481" y1="135.584" x2="190.481" y2="56.2358" gradientUnits="userSpaceOnUse">
<stop stop-color="#FF98A0"/>
<stop offset="1" stop-color="#FFD790"/>
</linearGradient>
<linearGradient id="paint9_linear_4_2962" x1="188.267" y1="78.4813" x2="188.267" y2="45.822" gradientUnits="userSpaceOnUse">
<stop stop-color="#AB4AD4"/>
<stop offset="1" stop-color="#FF6FF4"/>
</linearGradient>
<linearGradient id="paint10_linear_4_2962" x1="150.897" y1="57.6932" x2="76.5356" y2="57.6932" gradientUnits="userSpaceOnUse">
<stop stop-color="#8E3BA4"/>
<stop offset="1" stop-color="#541895"/>
</linearGradient>
<linearGradient id="paint11_linear_4_2962" x1="113.716" y1="63.4988" x2="113.716" y2="1.48877" gradientUnits="userSpaceOnUse">
<stop stop-color="#AB4AD4"/>
<stop offset="1" stop-color="#FF6FF4"/>
</linearGradient>
<linearGradient id="paint12_linear_4_2962" x1="227.567" y1="56.2045" x2="301.929" y2="56.2045" gradientUnits="userSpaceOnUse">
<stop stop-color="#8E3BA4"/>
<stop offset="1" stop-color="#541895"/>
</linearGradient>
<linearGradient id="paint13_linear_4_2962" x1="113.716" y1="158.444" x2="113.716" y2="51.7774" gradientUnits="userSpaceOnUse">
<stop stop-color="#FF98A0"/>
<stop offset="1" stop-color="#FFD790"/>
</linearGradient>
<linearGradient id="paint14_linear_4_2962" x1="265.93" y1="158.444" x2="265.93" y2="50.7928" gradientUnits="userSpaceOnUse">
<stop stop-color="#FF98A0"/>
<stop offset="1" stop-color="#FFD790"/>
</linearGradient>
<linearGradient id="paint15_linear_4_2962" x1="189.921" y1="158.444" x2="189.921" y2="98.6235" gradientUnits="userSpaceOnUse">
<stop stop-color="#E57475"/>
<stop offset="1" stop-color="#D17074"/>
</linearGradient>
<linearGradient id="paint16_linear_4_2962" x1="189.921" y1="158.444" x2="189.921" y2="98.6235" gradientUnits="userSpaceOnUse">
<stop stop-color="#FF98A0"/>
<stop offset="1" stop-color="#FFD790"/>
</linearGradient>
<linearGradient id="paint17_linear_4_2962" x1="157.136" y1="139.751" x2="221.974" y2="139.751" gradientUnits="userSpaceOnUse">
<stop stop-color="#A8437E"/>
<stop offset="1" stop-color="#FF8B70"/>
</linearGradient>
<linearGradient id="paint18_linear_4_2962" x1="264.748" y1="62.01" x2="264.748" y2="0" gradientUnits="userSpaceOnUse">
<stop stop-color="#AB4AD4"/>
<stop offset="1" stop-color="#FF6FF4"/>
</linearGradient>
<linearGradient id="paint19_linear_4_2962" x1="80.427" y1="100.719" x2="108.557" y2="100.719" gradientUnits="userSpaceOnUse">
<stop stop-color="#A8437E"/>
<stop offset="1" stop-color="#FF8B70"/>
</linearGradient>
<linearGradient id="paint20_linear_4_2962" x1="191.205" y1="158.444" x2="191.205" y2="123.311" gradientUnits="userSpaceOnUse">
<stop stop-color="#E57475"/>
<stop offset="1" stop-color="#D17074"/>
</linearGradient>
<linearGradient id="paint21_linear_4_2962" x1="191.205" y1="158.444" x2="191.205" y2="128.542" gradientUnits="userSpaceOnUse">
<stop stop-color="#AE4857"/>
<stop offset="0.99" stop-color="#790244"/>
</linearGradient>
<linearGradient id="paint22_linear_4_2962" x1="191.308" y1="158.444" x2="191.308" y2="125.438" gradientUnits="userSpaceOnUse">
<stop stop-color="#FF9D31"/>
<stop offset="1" stop-color="#FFCC1B"/>
</linearGradient>
<linearGradient id="paint23_linear_4_2962" x1="249.584" y1="108.903" x2="249.584" y2="58.6936" gradientUnits="userSpaceOnUse">
<stop stop-color="#A8437E"/>
<stop offset="1" stop-color="#FF8B70"/>
</linearGradient>
<linearGradient id="paint24_linear_4_2962" x1="249.363" y1="103.823" x2="249.363" y2="62.845" gradientUnits="userSpaceOnUse">
<stop stop-color="#E57475"/>
<stop offset="1" stop-color="#D17074"/>
</linearGradient>
<linearGradient id="paint25_linear_4_2962" x1="248.142" y1="103.823" x2="248.142" y2="62.845" gradientUnits="userSpaceOnUse">
<stop stop-color="#FFCAA4"/>
<stop offset="1" stop-color="#FFD790"/>
</linearGradient>
<linearGradient id="paint26_linear_4_2962" x1="247.638" y1="101.176" x2="247.638" y2="66.2086" gradientUnits="userSpaceOnUse">
<stop stop-color="#E57475"/>
<stop offset="1" stop-color="#D17074"/>
</linearGradient>
<linearGradient id="paint27_linear_4_2962" x1="249.875" y1="101.176" x2="249.875" y2="67.8785" gradientUnits="userSpaceOnUse">
<stop stop-color="#AE4857"/>
<stop offset="0.99" stop-color="#790244"/>
</linearGradient>
<linearGradient id="paint28_linear_4_2962" x1="243.022" y1="80.4743" x2="252.703" y2="80.4743" gradientUnits="userSpaceOnUse">
<stop stop-color="#FF9D31"/>
<stop offset="1" stop-color="#FFCC1B"/>
</linearGradient>
<linearGradient id="paint29_linear_4_2962" x1="94.1258" y1="122.941" x2="94.1258" y2="81.9553" gradientUnits="userSpaceOnUse">
<stop stop-color="#E57475"/>
<stop offset="1" stop-color="#D17074"/>
</linearGradient>
<linearGradient id="paint30_linear_4_2962" x1="92.9046" y1="122.941" x2="92.9046" y2="81.9553" gradientUnits="userSpaceOnUse">
<stop stop-color="#FFCAA4"/>
<stop offset="1" stop-color="#FFD790"/>
</linearGradient>
<linearGradient id="paint31_linear_4_2962" x1="92.4006" y1="120.294" x2="92.4006" y2="85.3189" gradientUnits="userSpaceOnUse">
<stop stop-color="#E57475"/>
<stop offset="1" stop-color="#D17074"/>
</linearGradient>
<linearGradient id="paint32_linear_4_2962" x1="94.6378" y1="120.294" x2="94.6378" y2="86.9888" gradientUnits="userSpaceOnUse">
<stop stop-color="#AE4857"/>
<stop offset="0.99" stop-color="#790244"/>
</linearGradient>
<linearGradient id="paint33_linear_4_2962" x1="87.8002" y1="99.5531" x2="97.4893" y2="99.5531" gradientUnits="userSpaceOnUse">
<stop stop-color="#FF9D31"/>
<stop offset="1" stop-color="#FFCC1B"/>
</linearGradient>
<linearGradient id="paint34_linear_4_2962" x1="283.74" y1="141.988" x2="283.74" y2="88.0129" gradientUnits="userSpaceOnUse">
<stop stop-color="#A8437E"/>
<stop offset="1" stop-color="#FF8B70"/>
</linearGradient>
<linearGradient id="paint35_linear_4_2962" x1="286.599" y1="141.185" x2="286.599" y2="93.6451" gradientUnits="userSpaceOnUse">
<stop stop-color="#E57475"/>
<stop offset="1" stop-color="#D17074"/>
</linearGradient>
<linearGradient id="paint36_linear_4_2962" x1="287.017" y1="141.184" x2="287.017" y2="93.645" gradientUnits="userSpaceOnUse">
<stop stop-color="#FFCAA4"/>
<stop offset="1" stop-color="#FFD790"/>
</linearGradient>
<linearGradient id="paint37_linear_4_2962" x1="287.434" y1="139.042" x2="287.434" y2="95.7877" gradientUnits="userSpaceOnUse">
<stop stop-color="#E57475"/>
<stop offset="1" stop-color="#D17074"/>
</linearGradient>
<linearGradient id="paint38_linear_4_2962" x1="285.024" y1="139.042" x2="285.024" y2="98.0723" gradientUnits="userSpaceOnUse">
<stop stop-color="#AE4857"/>
<stop offset="0.99" stop-color="#790244"/>
</linearGradient>
<linearGradient id="paint39_linear_4_2962" x1="281.109" y1="111.983" x2="291.822" y2="111.983" gradientUnits="userSpaceOnUse">
<stop stop-color="#FF9D31"/>
<stop offset="1" stop-color="#FFCC1B"/>
</linearGradient>
<linearGradient id="paint40_linear_4_2962" x1="262.652" y1="158.444" x2="262.652" y2="135.584" gradientUnits="userSpaceOnUse">
<stop stop-color="#A8437E"/>
<stop offset="1" stop-color="#FF8B70"/>
</linearGradient>
<linearGradient id="paint41_linear_4_2962" x1="244.046" y1="130.708" x2="264.267" y2="130.708" gradientUnits="userSpaceOnUse">
<stop stop-color="#FF8B70"/>
<stop offset="0.99" stop-color="#A8437E"/>
</linearGradient>
<linearGradient id="paint42_linear_4_2962" x1="79.3872" y1="147.778" x2="118.915" y2="147.778" gradientUnits="userSpaceOnUse">
<stop stop-color="#A8437E"/>
<stop offset="1" stop-color="#FF8B70"/>
</linearGradient>
<linearGradient id="paint43_linear_4_2962" x1="129.794" y1="108.179" x2="146.163" y2="108.179" gradientUnits="userSpaceOnUse">
<stop stop-color="#FF8B70"/>
<stop offset="0.99" stop-color="#A8437E"/>
</linearGradient>
<linearGradient id="paint44_linear_4_2962" x1="188.377" y1="98.3952" x2="188.377" y2="68.304" gradientUnits="userSpaceOnUse">
<stop stop-color="#A8437E"/>
<stop offset="1" stop-color="#FF8B70"/>
</linearGradient>
<linearGradient id="paint45_linear_4_2962" x1="191.205" y1="158.444" x2="191.205" y2="128.486" gradientUnits="userSpaceOnUse">
<stop stop-color="#FF9D31"/>
<stop offset="1" stop-color="#FFCC1B"/>
</linearGradient>
<linearGradient id="paint46_linear_4_2962" x1="204.557" y1="158.444" x2="204.557" y2="133.685" gradientUnits="userSpaceOnUse">
<stop stop-color="#FF9D31"/>
<stop offset="1" stop-color="#FFCC1B"/>
</linearGradient>
<linearGradient id="paint47_linear_4_2962" x1="177.956" y1="158.444" x2="177.956" y2="133.685" gradientUnits="userSpaceOnUse">
<stop stop-color="#FF9D31"/>
<stop offset="1" stop-color="#FFCC1B"/>
</linearGradient>
<linearGradient id="paint48_linear_4_2962" x1="113.716" y1="158.444" x2="113.716" y2="60.135" gradientUnits="userSpaceOnUse">
<stop stop-color="#9F2F70"/>
<stop offset="1" stop-color="#FFD8CF"/>
</linearGradient>
<linearGradient id="paint49_linear_4_2962" x1="265.929" y1="158.459" x2="265.929" y2="59.363" gradientUnits="userSpaceOnUse">
<stop stop-color="#9F2F70"/>
<stop offset="1" stop-color="#FFD8CF"/>
</linearGradient>
<linearGradient id="paint50_linear_4_2962" x1="189.638" y1="96.2053" x2="189.638" y2="73.8417" gradientUnits="userSpaceOnUse">
<stop stop-color="#E57475"/>
<stop offset="1" stop-color="#D17074"/>
</linearGradient>
<linearGradient id="paint51_linear_4_2962" x1="189.638" y1="95.4883" x2="189.638" y2="73.1247" gradientUnits="userSpaceOnUse">
<stop stop-color="#FFCAA4"/>
<stop offset="1" stop-color="#FFD790"/>
</linearGradient>
<linearGradient id="paint52_linear_4_2962" x1="189.638" y1="93.9207" x2="189.638" y2="74.6922" gradientUnits="userSpaceOnUse">
<stop stop-color="#AE4857"/>
<stop offset="0.99" stop-color="#790244"/>
</linearGradient>
<linearGradient id="paint53_linear_4_2962" x1="232.916" y1="60.8127" x2="294.949" y2="60.8127" gradientUnits="userSpaceOnUse">
<stop stop-color="#890050"/>
<stop offset="1" stop-color="#DB6D57"/>
</linearGradient>
<linearGradient id="paint54_linear_4_2962" x1="81.9473" y1="61.3798" x2="144.446" y2="61.3798" gradientUnits="userSpaceOnUse">
<stop stop-color="#890050"/>
<stop offset="1" stop-color="#DB6D57"/>
</linearGradient>
<linearGradient id="paint55_linear_4_2962" x1="188.724" y1="79.0564" x2="188.724" y2="56.2359" gradientUnits="userSpaceOnUse">
<stop stop-color="#DB6D57"/>
<stop offset="1" stop-color="#890050"/>
</linearGradient>
<linearGradient id="paint56_linear_4_2962" x1="181.91" y1="81.5614" x2="197.271" y2="81.5614" gradientUnits="userSpaceOnUse">
<stop stop-color="#FF9D31"/>
<stop offset="1" stop-color="#FFCC1B"/>
</linearGradient>
<linearGradient id="paint57_linear_4_2962" x1="153.371" y1="117.529" x2="164.612" y2="117.529" gradientUnits="userSpaceOnUse">
<stop stop-color="#FF8B70"/>
<stop offset="0.99" stop-color="#A8437E"/>
</linearGradient>
<linearGradient id="paint58_linear_4_2962" x1="155.151" y1="112.905" x2="165.691" y2="112.905" gradientUnits="userSpaceOnUse">
<stop stop-color="#FF8B70"/>
<stop offset="0.99" stop-color="#A8437E"/>
</linearGradient>
<radialGradient id="paint59_radial_4_2962" cx="0" cy="0" r="1" gradientUnits="userSpaceOnUse" gradientTransform="translate(988.064 68.8546) scale(186.684 56.0052)">
<stop stop-color="#FF023E"/>
<stop offset="0.99" stop-color="#9C0244"/>
</radialGradient>
<radialGradient id="paint60_radial_4_2962" cx="0" cy="0" r="1" gradientUnits="userSpaceOnUse" gradientTransform="translate(1010.6 132.457) scale(124.02 124.02)">
<stop stop-color="#FF3B3E"/>
<stop offset="0.99" stop-color="#BF0244"/>
</radialGradient>
<linearGradient id="paint61_linear_4_2962" x1="951.388" y1="155.324" x2="975.327" y2="155.324" gradientUnits="userSpaceOnUse">
<stop stop-color="#FFB8BD"/>
<stop offset="1" stop-color="#FFEAB8"/>
</linearGradient>
<linearGradient id="paint62_linear_4_2962" x1="977.241" y1="153.363" x2="998.037" y2="153.363" gradientUnits="userSpaceOnUse">
<stop stop-color="#FFB8BD"/>
<stop offset="1" stop-color="#FFEAB8"/>
</linearGradient>
<linearGradient id="paint63_linear_4_2962" x1="1011.17" y1="151.512" x2="1031.15" y2="151.512" gradientUnits="userSpaceOnUse">
<stop stop-color="#FFB8BD"/>
<stop offset="1" stop-color="#FFEAB8"/>
</linearGradient>
<linearGradient id="paint64_linear_4_2962" x1="1057.35" y1="150.7" x2="1077.12" y2="150.7" gradientUnits="userSpaceOnUse">
<stop stop-color="#FFB8BD"/>
<stop offset="1" stop-color="#FFEAB8"/>
</linearGradient>
<linearGradient id="paint65_linear_4_2962" x1="1101.82" y1="151.039" x2="1127.77" y2="151.039" gradientUnits="userSpaceOnUse">
<stop stop-color="#FFB8BD"/>
<stop offset="1" stop-color="#FFEAB8"/>
</linearGradient>
<linearGradient id="paint66_linear_4_2962" x1="1135.52" y1="152.638" x2="1161.41" y2="152.638" gradientUnits="userSpaceOnUse">
<stop stop-color="#FFB8BD"/>
<stop offset="1" stop-color="#FFEAB8"/>
</linearGradient>
<linearGradient id="paint67_linear_4_2962" x1="1168.9" y1="156.12" x2="1189.06" y2="156.12" gradientUnits="userSpaceOnUse">
<stop stop-color="#FFB8BD"/>
<stop offset="1" stop-color="#FFEAB8"/>
</linearGradient>
<linearGradient id="paint68_linear_4_2962" x1="1014.6" y1="121.767" x2="1014.6" y2="41.655" gradientUnits="userSpaceOnUse">
<stop stop-color="#FFB8BD"/>
<stop offset="1" stop-color="#FFEAB8"/>
</linearGradient>
<linearGradient id="paint69_linear_4_2962" x1="1030.02" y1="115.741" x2="1030.02" y2="40.2136" gradientUnits="userSpaceOnUse">
<stop stop-color="#FFB8BD"/>
<stop offset="1" stop-color="#FFEAB8"/>
</linearGradient>
<linearGradient id="paint70_linear_4_2962" x1="1044.67" y1="111.944" x2="1044.67" y2="39.4729" gradientUnits="userSpaceOnUse">
<stop stop-color="#FFB8BD"/>
<stop offset="1" stop-color="#FFEAB8"/>
</linearGradient>
<linearGradient id="paint71_linear_4_2962" x1="1067.95" y1="108.935" x2="1067.95" y2="39.4729" gradientUnits="userSpaceOnUse">
<stop stop-color="#FFB8BD"/>
<stop offset="1" stop-color="#FFEAB8"/>
</linearGradient>
<linearGradient id="paint72_linear_4_2962" x1="1093.79" y1="110.495" x2="1093.79" y2="38.709" gradientUnits="userSpaceOnUse">
<stop stop-color="#FFB8BD"/>
<stop offset="1" stop-color="#FFEAB8"/>
</linearGradient>
<linearGradient id="paint73_linear_4_2962" x1="1110.32" y1="114.953" x2="1110.32" y2="38.709" gradientUnits="userSpaceOnUse">
<stop stop-color="#FFB8BD"/>
<stop offset="1" stop-color="#FFEAB8"/>
</linearGradient>
<linearGradient id="paint74_linear_4_2962" x1="1125.88" y1="122.846" x2="1125.88" y2="39.4729" gradientUnits="userSpaceOnUse">
<stop stop-color="#FFB8BD"/>
<stop offset="1" stop-color="#FFEAB8"/>
</linearGradient>
<radialGradient id="paint75_radial_4_2962" cx="0" cy="0" r="1" gradientUnits="userSpaceOnUse" gradientTransform="translate(1071.69 50.3672) scale(19.4648 19.4648)">
<stop stop-color="#FF6FF4"/>
<stop offset="1" stop-color="#AB4AD4"/>
</radialGradient>
<linearGradient id="paint76_linear_4_2962" x1="948.386" y1="123.902" x2="1186.87" y2="123.902" gradientUnits="userSpaceOnUse">
<stop stop-color="#890050"/>
<stop offset="1" stop-color="#DB6D57"/>
</linearGradient>
<radialGradient id="paint77_radial_4_2962" cx="0" cy="0" r="1" gradientUnits="userSpaceOnUse" gradientTransform="translate(1014.15 115.536) scale(110.455 110.455)">
<stop stop-color="#FF5713"/>
<stop offset="0.99" stop-color="#E50244"/>
</radialGradient>
<linearGradient id="paint78_linear_4_2962" x1="938.185" y1="177.924" x2="1198.18" y2="177.924" gradientUnits="userSpaceOnUse">
<stop stop-color="#D99022"/>
<stop offset="1"/>
</linearGradient>
<linearGradient id="paint79_linear_4_2962" x1="963.361" y1="92.0461" x2="1178.99" y2="92.0461" gradientUnits="userSpaceOnUse">
<stop stop-color="#890050"/>
<stop offset="1" stop-color="#DB6D57"/>
</linearGradient>
<linearGradient id="paint80_linear_4_2962" x1="1044.13" y1="65.1295" x2="1099.62" y2="65.1295" gradientUnits="userSpaceOnUse">
<stop stop-color="#890050"/>
<stop offset="1" stop-color="#DB6D57"/>
</linearGradient>
<linearGradient id="paint81_linear_4_2962" x1="1040.34" y1="64.3338" x2="1099.97" y2="64.3338" gradientUnits="userSpaceOnUse">
<stop stop-color="#FF9D31"/>
<stop offset="1" stop-color="#FFCC1B"/>
</linearGradient>
<linearGradient id="paint82_linear_4_2962" x1="1047.06" y1="192.466" x2="1047.06" y2="121.767" gradientUnits="userSpaceOnUse">
<stop stop-color="#FF313E"/>
<stop offset="0.99" stop-color="#A40244"/>
</linearGradient>
<linearGradient id="paint83_linear_4_2962" x1="1094.9" y1="36.2355" x2="1094.9" y2="36.2355" gradientUnits="userSpaceOnUse">
<stop stop-color="#FF313E"/>
<stop offset="0.99" stop-color="#A40244"/>
</linearGradient>
<linearGradient id="paint84_linear_4_2962" x1="1101.51" y1="192.466" x2="1101.51" y2="121.767" gradientUnits="userSpaceOnUse">
<stop stop-color="#890050"/>
<stop offset="1" stop-color="#DB6D57"/>
</linearGradient>
<linearGradient id="paint85_linear_4_2962" x1="1049.13" y1="192.466" x2="1049.13" y2="121.767" gradientUnits="userSpaceOnUse">
<stop stop-color="#890050"/>
<stop offset="1" stop-color="#DB6D57"/>
</linearGradient>
<linearGradient id="paint86_linear_4_2962" x1="1094.89" y1="192.466" x2="1094.89" y2="126.1" gradientUnits="userSpaceOnUse">
<stop stop-color="#890050"/>
<stop offset="1" stop-color="#DB6D57"/>
</linearGradient>
<linearGradient id="paint87_linear_4_2962" x1="1071.69" y1="64.4912" x2="1071.69" y2="36.2354" gradientUnits="userSpaceOnUse">
<stop stop-color="#890050"/>
<stop offset="1" stop-color="#DB6D57"/>
</linearGradient>
<linearGradient id="paint88_linear_4_2962" x1="1106.04" y1="160.886" x2="1106.04" y2="154.45" gradientUnits="userSpaceOnUse">
<stop stop-color="#FF5731"/>
<stop offset="1" stop-color="#FF901B"/>
</linearGradient>
<linearGradient id="paint89_linear_4_2962" x1="1032.56" y1="159.113" x2="1032.56" y2="150.7" gradientUnits="userSpaceOnUse">
<stop stop-color="#FF5731"/>
<stop offset="1" stop-color="#FF901B"/>
</linearGradient>
<linearGradient id="paint90_linear_4_2962" x1="1073.98" y1="136.159" x2="1073.98" y2="133.741" gradientUnits="userSpaceOnUse">
<stop stop-color="#FFF431"/>
<stop offset="1" stop-color="#FFFF1B"/>
</linearGradient>
<linearGradient id="paint91_linear_4_2962" x1="1064.95" y1="149.093" x2="1064.95" y2="146.675" gradientUnits="userSpaceOnUse">
<stop stop-color="#FFF431"/>
<stop offset="1" stop-color="#FFFF1B"/>
</linearGradient>
<linearGradient id="paint92_linear_4_2962" x1="1049.48" y1="167.865" x2="1049.48" y2="165.447" gradientUnits="userSpaceOnUse">
<stop stop-color="#FFF431"/>
<stop offset="1" stop-color="#FFFF1B"/>
</linearGradient>
<linearGradient id="paint93_linear_4_2962" x1="1034.93" y1="167.865" x2="1034.93" y2="165.447" gradientUnits="userSpaceOnUse">
<stop stop-color="#FFF431"/>
<stop offset="1" stop-color="#FFFF1B"/>
</linearGradient>
<linearGradient id="paint94_linear_4_2962" x1="1068.84" y1="137.372" x2="1068.84" y2="134.946" gradientUnits="userSpaceOnUse">
<stop stop-color="#FFF431"/>
<stop offset="1" stop-color="#FFFF1B"/>
</linearGradient>
<linearGradient id="paint95_linear_4_2962" x1="1078.33" y1="148.471" x2="1078.33" y2="146.045" gradientUnits="userSpaceOnUse">
<stop stop-color="#FFF431"/>
<stop offset="1" stop-color="#FFFF1B"/>
</linearGradient>
<linearGradient id="paint96_linear_4_2962" x1="1059.99" y1="161.319" x2="1059.99" y2="158.893" gradientUnits="userSpaceOnUse">
<stop stop-color="#FFF431"/>
<stop offset="1" stop-color="#FFFF1B"/>
</linearGradient>
<linearGradient id="paint97_linear_4_2962" x1="1039.09" y1="162.532" x2="1039.09" y2="160.106" gradientUnits="userSpaceOnUse">
<stop stop-color="#FFF431"/>
<stop offset="1" stop-color="#FFFF1B"/>
</linearGradient>
<linearGradient id="paint98_linear_4_2962" x1="1039.68" y1="183.415" x2="1039.68" y2="180.989" gradientUnits="userSpaceOnUse">
<stop stop-color="#FFF431"/>
<stop offset="1" stop-color="#FFFF1B"/>
</linearGradient>
<linearGradient id="paint99_linear_4_2962" x1="1086.83" y1="161.319" x2="1086.83" y2="158.893" gradientUnits="userSpaceOnUse">
<stop stop-color="#FFF431"/>
<stop offset="1" stop-color="#FFFF1B"/>
</linearGradient>
<linearGradient id="paint100_linear_4_2962" x1="1100.02" y1="162.532" x2="1100.02" y2="160.106" gradientUnits="userSpaceOnUse">
<stop stop-color="#FFF431"/>
<stop offset="1" stop-color="#FFFF1B"/>
</linearGradient>
<linearGradient id="paint101_linear_4_2962" x1="1102.83" y1="170.055" x2="1102.83" y2="167.637" gradientUnits="userSpaceOnUse">
<stop stop-color="#FFF431"/>
<stop offset="1" stop-color="#FFFF1B"/>
</linearGradient>
<linearGradient id="paint102_linear_4_2962" x1="1097.2" y1="187.976" x2="1097.2" y2="185.55" gradientUnits="userSpaceOnUse">
<stop stop-color="#FFF431"/>
<stop offset="1" stop-color="#FFFF1B"/>
</linearGradient>
<linearGradient id="paint103_linear_4_2962" x1="979.951" y1="116.954" x2="979.951" y2="114.528" gradientUnits="userSpaceOnUse">
<stop stop-color="#FFF431"/>
<stop offset="1" stop-color="#FFFF1B"/>
</linearGradient>
<linearGradient id="paint104_linear_4_2962" x1="960.809" y1="122.303" x2="960.809" y2="119.876" gradientUnits="userSpaceOnUse">
<stop stop-color="#FFF431"/>
<stop offset="1" stop-color="#FFFF1B"/>
</linearGradient>
<linearGradient id="paint105_linear_4_2962" x1="1006.06" y1="111.771" x2="1006.06" y2="109.353" gradientUnits="userSpaceOnUse">
<stop stop-color="#FFF431"/>
<stop offset="1" stop-color="#FFFF1B"/>
</linearGradient>
<linearGradient id="paint106_linear_4_2962" x1="1026.59" y1="108.935" x2="1026.59" y2="106.509" gradientUnits="userSpaceOnUse">
<stop stop-color="#FFF431"/>
<stop offset="1" stop-color="#FFFF1B"/>
</linearGradient>
<linearGradient id="paint107_linear_4_2962" x1="1053.55" y1="108.935" x2="1053.55" y2="106.509" gradientUnits="userSpaceOnUse">
<stop stop-color="#FFF431"/>
<stop offset="1" stop-color="#FFFF1B"/>
</linearGradient>
<linearGradient id="paint108_linear_4_2962" x1="1072.77" y1="111.361" x2="1072.77" y2="108.935" gradientUnits="userSpaceOnUse">
<stop stop-color="#FFF431"/>
<stop offset="1" stop-color="#FFFF1B"/>
</linearGradient>
<linearGradient id="paint109_linear_4_2962" x1="1098.41" y1="113.157" x2="1098.41" y2="110.731" gradientUnits="userSpaceOnUse">
<stop stop-color="#FFF431"/>
<stop offset="1" stop-color="#FFFF1B"/>
</linearGradient>
<linearGradient id="paint110_linear_4_2962" x1="1124.66" y1="114.362" x2="1124.66" y2="111.944" gradientUnits="userSpaceOnUse">
<stop stop-color="#FFF431"/>
<stop offset="1" stop-color="#FFFF1B"/>
</linearGradient>
<linearGradient id="paint111_linear_4_2962" x1="1149.67" y1="115.575" x2="1149.67" y2="113.157" gradientUnits="userSpaceOnUse">
<stop stop-color="#FFF431"/>
<stop offset="1" stop-color="#FFFF1B"/>
</linearGradient>
<linearGradient id="paint112_linear_4_2962" x1="1171.31" y1="117.884" x2="1171.31" y2="115.458" gradientUnits="userSpaceOnUse">
<stop stop-color="#FFF431"/>
<stop offset="1" stop-color="#FFFF1B"/>
</linearGradient>
<linearGradient id="paint113_linear_4_2962" x1="1190.94" y1="125.115" x2="1190.94" y2="122.689" gradientUnits="userSpaceOnUse">
<stop stop-color="#FFF431"/>
<stop offset="1" stop-color="#FFFF1B"/>
</linearGradient>
<linearGradient id="paint114_linear_4_2962" x1="1072.18" y1="125.272" x2="1072.18" y2="122.846" gradientUnits="userSpaceOnUse">
<stop stop-color="#FFF431"/>
<stop offset="1" stop-color="#FFFF1B"/>
</linearGradient>
<radialGradient id="paint115_radial_4_2962" cx="0" cy="0" r="1" gradientUnits="userSpaceOnUse" gradientTransform="translate(1072.77 110.731) scale(11.3433)">
<stop stop-color="#FC5000"/>
<stop offset="1"/>
</radialGradient>
<radialGradient id="paint116_radial_4_2962" cx="0" cy="0" r="1" gradientUnits="userSpaceOnUse" gradientTransform="translate(1006.06 110.495) scale(8.53898)">
<stop stop-color="#FC5000"/>
<stop offset="1"/>
</radialGradient>
<radialGradient id="paint117_radial_4_2962" cx="0" cy="0" r="1" gradientUnits="userSpaceOnUse" gradientTransform="translate(1124.66 113.157) scale(8.53899 8.53898)">
<stop stop-color="#FC5000"/>
<stop offset="1"/>
</radialGradient>
<radialGradient id="paint118_radial_4_2962" cx="0" cy="0" r="1" gradientUnits="userSpaceOnUse" gradientTransform="translate(1059.99 160.106) scale(6.42787 6.42787)">
<stop stop-color="#811D00"/>
<stop offset="0.23" stop-color="#5C1400"/>
<stop offset="0.58" stop-color="#2A0900"/>
<stop offset="0.85" stop-color="#0B0200"/>
<stop offset="1"/>
</radialGradient>
<radialGradient id="paint119_radial_4_2962" cx="0" cy="0" r="1" gradientUnits="userSpaceOnUse" gradientTransform="translate(1102.83 168.842) scale(6.42787 6.42787)">
<stop stop-color="#811D00"/>
<stop offset="0.23" stop-color="#5C1400"/>
<stop offset="0.58" stop-color="#2A0900"/>
<stop offset="0.85" stop-color="#0B0200"/>
<stop offset="1"/>
</radialGradient>
<radialGradient id="paint120_radial_4_2962" cx="0" cy="0" r="1" gradientUnits="userSpaceOnUse" gradientTransform="translate(1039.09 161.319) scale(6.42787 6.42787)">
<stop stop-color="#811D00"/>
<stop offset="0.23" stop-color="#5C1400"/>
<stop offset="0.58" stop-color="#2A0900"/>
<stop offset="0.85" stop-color="#0B0200"/>
<stop offset="1"/>
</radialGradient>
<radialGradient id="paint121_radial_4_2962" cx="0" cy="0" r="1" gradientUnits="userSpaceOnUse" gradientTransform="translate(1149.67 114.953) scale(4.22223)">
<stop stop-color="#FC5000"/>
<stop offset="1"/>
</radialGradient>
<radialGradient id="paint122_radial_4_2962" cx="0" cy="0" r="1" gradientUnits="userSpaceOnUse" gradientTransform="translate(1078.33 147.841) scale(4.22223 4.22222)">
<stop stop-color="#811D00"/>
<stop offset="0.23" stop-color="#5C1400"/>
<stop offset="0.58" stop-color="#2A0900"/>
<stop offset="0.85" stop-color="#0B0200"/>
<stop offset="1"/>
</radialGradient>
<radialGradient id="paint123_radial_4_2962" cx="0" cy="0" r="1" gradientUnits="userSpaceOnUse" gradientTransform="translate(1086.83 160.106) scale(4.22223)">
<stop stop-color="#811D00"/>
<stop offset="0.23" stop-color="#5C1400"/>
<stop offset="0.58" stop-color="#2A0900"/>
<stop offset="0.85" stop-color="#0B0200"/>
<stop offset="1"/>
</radialGradient>
<radialGradient id="paint124_radial_4_2962" cx="0" cy="0" r="1" gradientUnits="userSpaceOnUse" gradientTransform="translate(1068.84 136.159) scale(4.22223 4.22223)">
<stop stop-color="#811D00"/>
<stop offset="0.23" stop-color="#5C1400"/>
<stop offset="0.58" stop-color="#2A0900"/>
<stop offset="0.85" stop-color="#0B0200"/>
<stop offset="1"/>
</radialGradient>
<radialGradient id="paint125_radial_4_2962" cx="0" cy="0" r="1" gradientUnits="userSpaceOnUse" gradientTransform="translate(1097.2 186.763) scale(4.22223)">
<stop stop-color="#811D00"/>
<stop offset="0.23" stop-color="#5C1400"/>
<stop offset="0.58" stop-color="#2A0900"/>
<stop offset="0.85" stop-color="#0B0200"/>
<stop offset="1"/>
</radialGradient>
<radialGradient id="paint126_radial_4_2962" cx="0" cy="0" r="1" gradientUnits="userSpaceOnUse" gradientTransform="translate(1040.29 182.201) scale(4.22223 4.22223)">
<stop stop-color="#811D00"/>
<stop offset="0.23" stop-color="#5C1400"/>
<stop offset="0.58" stop-color="#2A0900"/>
<stop offset="0.85" stop-color="#0B0200"/>
<stop offset="1"/>
</radialGradient>
<linearGradient id="paint127_linear_4_2962" x1="1068.18" y1="192.466" x2="1068.18" y2="163.383" gradientUnits="userSpaceOnUse">
<stop stop-color="#890050"/>
<stop offset="1" stop-color="#DB6D57"/>
</linearGradient>
</defs>
</svg>
