<svg width="794" height="140" viewBox="0 0 794 140" fill="none" xmlns="http://www.w3.org/2000/svg">
<path fill-rule="evenodd" clip-rule="evenodd" d="M762.061 6.9011C562.144 -0.670184 230.816 -3.68384 30.4531 6.61212C16.8462 7.31393 6.21999 11.9624 4.59345 17.8246C-4.57136 50.8344 -0.162346 81.3177 19.0837 117.052C21.891 122.254 31.9062 126.159 44.225 126.828C179.435 134.234 609.933 134.036 746.439 126.754C758.428 126.118 768.344 122.411 771.457 117.391C795.062 79.2205 797.085 51.627 788.862 18.1713C787.384 12.144 776.089 7.42952 762.061 6.9011Z" fill="url(#paint0_radial_4_5461)"/>
<path fill-rule="evenodd" clip-rule="evenodd" d="M762.061 22.9848C562.144 15.9254 230.816 13.1182 30.4531 22.7206C16.8462 23.3729 6.21999 27.7076 4.59345 33.1652C-4.57136 63.921 -0.162346 91.8612 19.0837 125.16C21.891 130.007 31.9062 133.64 44.225 134.267C179.435 141.17 609.933 140.988 746.439 134.201C758.428 133.607 768.344 130.155 771.457 125.474C795.062 89.9044 797.085 64.6641 788.862 33.4872C787.384 27.8727 776.089 23.4802 762.061 22.9848Z" fill="url(#paint1_radial_4_5461)"/>
<path fill-rule="evenodd" clip-rule="evenodd" d="M287.827 136.579C195.428 136.579 109.204 134.779 45.0507 131.501C35.5887 131.014 27.7945 128.207 25.6643 124.508C7.15302 92.4806 2.05871 64.5651 11.3143 33.5038C12.5693 29.2847 20.7681 25.9903 31.2375 25.4866C118.774 21.2923 194.66 19.3438 270.043 19.3438C354.078 19.3438 646.295 21.6969 761.499 25.7674C772.332 26.1472 781.018 29.5241 782.141 33.7928C791.388 68.875 785.922 93.1163 764.926 124.739C762.54 128.339 754.968 130.973 745.63 131.435C678.859 134.754 381.449 136.579 287.86 136.579H287.836H287.827Z" fill="url(#paint2_radial_4_5461)"/>
<path style="mix-blend-mode:screen" fill-rule="evenodd" clip-rule="evenodd" d="M270.034 19.3437L146.062 135.051C146.062 135.051 471.247 137.116 527.343 136.579L721.967 24.3967C721.967 24.3967 411.701 15.2484 270.034 19.3437Z" fill="url(#paint3_linear_4_5461)"/>
<path fill-rule="evenodd" clip-rule="evenodd" d="M632.441 21.0692C632.441 21.0692 638.996 29.1854 661.842 30.5725C684.688 31.9679 710.317 23.992 710.317 23.992C710.317 23.992 672.246 22.0683 632.441 21.0692Z" fill="white"/>
<path style="mix-blend-mode:screen" fill-rule="evenodd" clip-rule="evenodd" d="M37.1245 130.461C37.1245 130.461 191.547 105.014 370.038 105.014C595.459 105.014 745.622 131.435 745.622 131.435C745.622 131.435 309.955 145.092 37.1245 130.461Z" fill="url(#paint4_linear_4_5461)"/>
<path fill-rule="evenodd" clip-rule="evenodd" d="M721.967 132.509L766.057 123.005C766.057 123.005 767.073 128.009 756.347 129.726C745.63 131.435 721.967 132.517 721.967 132.517V132.509Z" fill="#8BBBFF"/>
<g style="mix-blend-mode:multiply">
<path opacity="0.4" fill-rule="evenodd" clip-rule="evenodd" d="M566.256 109.968C543.624 101.34 473.972 108.787 475.755 114.476C477.539 120.165 497.602 131.204 526.558 131.204C553.549 131.204 583.264 116.458 566.247 109.968H566.256Z" fill="#81ACC9"/>
<path opacity="0.4" fill-rule="evenodd" clip-rule="evenodd" d="M578.822 110.909C583.727 106.401 612.699 104.527 621.517 110.381C627.28 114.212 608.249 121.403 598.696 120.454C589.143 119.504 574.942 114.476 578.822 110.909Z" fill="#81ACC9"/>
<path opacity="0.4" fill-rule="evenodd" clip-rule="evenodd" d="M59.2685 32.3726C64.173 27.8645 93.1536 25.9903 101.972 31.8442C107.735 35.6753 88.695 42.8667 79.1504 41.9172C69.6058 40.9677 55.3962 35.9395 59.2768 32.3726H59.2685Z" fill="#81ACC9"/>
<path opacity="0.4" fill-rule="evenodd" clip-rule="evenodd" d="M447.344 123.641C443.844 125.787 428.478 125.639 425.25 122.287C423.144 120.099 434.547 117.118 439.253 117.968C443.951 118.819 451.283 121.23 447.344 123.632V123.641Z" fill="#81ACC9"/>
<path opacity="0.4" fill-rule="evenodd" clip-rule="evenodd" d="M50.8387 39.3743C53.1258 41.7769 44.1178 46.9043 35.5888 46.0951C30.0156 45.5667 30.5523 40.01 34.92 38.8954C39.2877 37.7807 48.2626 36.6661 50.8387 39.366V39.3743Z" fill="#81ACC9"/>
<path opacity="0.4" fill-rule="evenodd" clip-rule="evenodd" d="M690.897 106.88C686.348 104.684 705.222 91.0605 712.224 90.3917C719.225 89.7229 724.634 95.6594 717.244 101.967C709.846 108.275 696.033 109.357 690.897 106.88Z" fill="#81ACC9"/>
</g>
<defs>
<radialGradient id="paint0_radial_4_5461" cx="0" cy="0" r="1" gradientUnits="userSpaceOnUse" gradientTransform="translate(407.142 1.20406) scale(298.866 122.99)">
<stop stop-color="#97FFFF"/>
<stop offset="0.99" stop-color="#39C0FF"/>
</radialGradient>
<radialGradient id="paint1_radial_4_5461" cx="0" cy="0" r="1" gradientUnits="userSpaceOnUse" gradientTransform="translate(415.448 21.35) scale(295.997 121.809)">
<stop stop-color="#1698FF"/>
<stop offset="0.99" stop-color="#2DC4FF"/>
</radialGradient>
<radialGradient id="paint2_radial_4_5461" cx="0" cy="0" r="1" gradientUnits="userSpaceOnUse" gradientTransform="translate(405.778 95.3017) scale(293.81 101.564)">
<stop stop-color="#1698FF"/>
<stop offset="0.99" stop-color="#007BED"/>
</radialGradient>
<linearGradient id="paint3_linear_4_5461" x1="434.018" y1="136.67" x2="434.018" y2="18.2868" gradientUnits="userSpaceOnUse">
<stop/>
<stop offset="0.12" stop-color="#010104"/>
<stop offset="0.26" stop-color="#040711"/>
<stop offset="0.4" stop-color="#090F27"/>
<stop offset="0.55" stop-color="#111C46"/>
<stop offset="0.69" stop-color="#1B2C6D"/>
<stop offset="0.84" stop-color="#273F9D"/>
<stop offset="0.99" stop-color="#3556D5"/>
<stop offset="1" stop-color="#3657D8"/>
</linearGradient>
<linearGradient id="paint4_linear_4_5461" x1="391.373" y1="137.223" x2="391.373" y2="105.014" gradientUnits="userSpaceOnUse">
<stop stop-color="#43A650"/>
<stop offset="0.03" stop-color="#3F9C4B"/>
<stop offset="0.2" stop-color="#2C6D34"/>
<stop offset="0.37" stop-color="#1C4521"/>
<stop offset="0.54" stop-color="#0F2712"/>
<stop offset="0.7" stop-color="#071108"/>
<stop offset="0.86" stop-color="#010402"/>
<stop offset="1"/>
</linearGradient>
</defs>
</svg>
