<svg width="794" height="140" viewBox="0 0 794 140" fill="none" xmlns="http://www.w3.org/2000/svg">
<path fill-rule="evenodd" clip-rule="evenodd" d="M762.061 6.9011C562.144 -0.670184 230.816 -3.68384 30.4531 6.61212C16.8462 7.31393 6.21999 11.9624 4.59345 17.8246C-4.57136 50.8344 -0.162346 81.3177 19.0837 117.052C21.891 122.254 31.9062 126.159 44.225 126.828C179.435 134.234 609.933 134.036 746.439 126.754C758.428 126.118 768.344 122.411 771.457 117.391C795.062 79.2205 797.085 51.627 788.862 18.1713C787.384 12.144 776.089 7.42952 762.061 6.9011Z" fill="url(#paint0_radial_4_5460)"/>
<path fill-rule="evenodd" clip-rule="evenodd" d="M762.061 22.9848C562.144 15.9254 230.816 13.1182 30.4531 22.7206C16.8462 23.3729 6.21999 27.7076 4.59345 33.1652C-4.57136 63.921 -0.162346 91.8612 19.0837 125.16C21.891 130.007 31.9062 133.64 44.225 134.267C179.435 141.17 609.933 140.988 746.439 134.201C758.428 133.607 768.344 130.155 771.457 125.474C795.062 89.9044 797.085 64.6641 788.862 33.4872C787.384 27.8727 776.089 23.4802 762.061 22.9848Z" fill="url(#paint1_radial_4_5460)"/>
<path fill-rule="evenodd" clip-rule="evenodd" d="M287.827 136.579C195.428 136.579 109.204 134.779 45.0507 131.501C35.5887 131.014 27.7945 128.207 25.6643 124.508C7.15302 92.4806 2.05871 64.5651 11.3143 33.5038C12.5693 29.2847 20.7681 25.9903 31.2375 25.4866C118.774 21.2923 194.66 19.3438 270.043 19.3438C354.078 19.3438 646.295 21.6969 761.499 25.7674C772.332 26.1472 781.018 29.5241 782.141 33.7928C791.388 68.875 785.922 93.1163 764.926 124.739C762.54 128.339 754.968 130.973 745.63 131.435C678.859 134.754 381.449 136.579 287.86 136.579H287.836H287.827Z" fill="url(#paint2_radial_4_5460)"/>
<path style="mix-blend-mode:screen" fill-rule="evenodd" clip-rule="evenodd" d="M270.034 19.3437L146.062 135.051C146.062 135.051 471.247 137.116 527.343 136.579L721.967 24.3967C721.967 24.3967 411.701 15.2484 270.034 19.3437Z" fill="url(#paint3_linear_4_5460)"/>
<path fill-rule="evenodd" clip-rule="evenodd" d="M632.441 21.0692C632.441 21.0692 638.996 29.1854 661.842 30.5725C684.688 31.9679 710.317 23.992 710.317 23.992C710.317 23.992 672.246 22.0683 632.441 21.0692Z" fill="white"/>
<path style="mix-blend-mode:screen" fill-rule="evenodd" clip-rule="evenodd" d="M37.1245 130.461C37.1245 130.461 191.547 105.014 370.038 105.014C595.459 105.014 745.622 131.435 745.622 131.435C745.622 131.435 309.955 145.092 37.1245 130.461Z" fill="url(#paint4_linear_4_5460)"/>
<path fill-rule="evenodd" clip-rule="evenodd" d="M721.967 132.509L766.057 123.005C766.057 123.005 767.073 128.009 756.347 129.726C745.63 131.435 721.967 132.517 721.967 132.517V132.509Z" fill="#8BBBFF"/>
<g style="mix-blend-mode:multiply">
<path opacity="0.4" fill-rule="evenodd" clip-rule="evenodd" d="M566.256 109.968C543.624 101.34 473.972 108.787 475.755 114.476C477.539 120.165 497.602 131.204 526.558 131.204C553.549 131.204 583.264 116.458 566.247 109.968H566.256Z" fill="#81ACC9"/>
<path opacity="0.4" fill-rule="evenodd" clip-rule="evenodd" d="M578.822 110.909C583.727 106.401 612.699 104.527 621.517 110.381C627.28 114.212 608.249 121.403 598.696 120.454C589.143 119.504 574.942 114.476 578.822 110.909Z" fill="#81ACC9"/>
<path opacity="0.4" fill-rule="evenodd" clip-rule="evenodd" d="M59.2685 32.3726C64.173 27.8645 93.1536 25.9903 101.972 31.8442C107.735 35.6753 88.695 42.8667 79.1504 41.9172C69.6058 40.9677 55.3962 35.9395 59.2768 32.3726H59.2685Z" fill="#81ACC9"/>
<path opacity="0.4" fill-rule="evenodd" clip-rule="evenodd" d="M447.344 123.641C443.844 125.787 428.478 125.639 425.25 122.287C423.144 120.099 434.547 117.118 439.253 117.968C443.951 118.819 451.283 121.23 447.344 123.632V123.641Z" fill="#81ACC9"/>
<path opacity="0.4" fill-rule="evenodd" clip-rule="evenodd" d="M50.8387 39.3743C53.1258 41.7769 44.1178 46.9043 35.5888 46.0951C30.0156 45.5667 30.5523 40.01 34.92 38.8954C39.2877 37.7807 48.2626 36.6661 50.8387 39.366V39.3743Z" fill="#81ACC9"/>
<path opacity="0.4" fill-rule="evenodd" clip-rule="evenodd" d="M690.897 106.88C686.348 104.684 705.222 91.0605 712.224 90.3917C719.225 89.7229 724.634 95.6594 717.244 101.967C709.846 108.275 696.033 109.357 690.897 106.88Z" fill="#81ACC9"/>
</g>
<path d="M88.3891 61.4859H138.369V70.3059H88.3891V61.4859ZM85.6291 97.0059H141.009V105.886H85.6291V97.0059ZM95.4091 73.3059L104.229 71.1459C104.949 73.5859 105.629 76.1659 106.269 78.8859C106.949 81.5659 107.569 84.2059 108.129 86.8059C108.689 89.3659 109.129 91.6859 109.449 93.7659L100.029 96.2259C99.8291 94.1459 99.4691 91.7859 98.9491 89.1459C98.4691 86.5059 97.9091 83.8059 97.2691 81.0459C96.6691 78.2859 96.0491 75.7059 95.4091 73.3059ZM122.409 71.3859L132.249 73.3659C131.609 75.8859 130.929 78.4059 130.209 80.9259C129.489 83.4059 128.729 85.8259 127.929 88.1859C127.169 90.5459 126.389 92.7659 125.589 94.8459C124.829 96.9259 124.089 98.8259 123.369 100.546L114.729 98.4459C115.489 96.6859 116.229 94.7059 116.949 92.5059C117.709 90.3059 118.429 88.0059 119.109 85.6059C119.829 83.2059 120.469 80.8059 121.029 78.4059C121.589 75.9659 122.049 73.6259 122.409 71.3859ZM106.929 52.2459L115.689 50.0859C116.329 51.6059 116.949 53.2659 117.549 55.0659C118.149 56.8659 118.629 58.4259 118.989 59.7459L109.809 62.3259C109.569 60.9659 109.169 59.3459 108.609 57.4659C108.049 55.5459 107.489 53.8059 106.929 52.2459ZM151.149 65.2659H169.029V72.9459H151.149V65.2659ZM150.909 53.9259H174.909V84.5859H150.909V76.8459H166.149V61.6659H150.909V53.9259ZM148.569 107.026L147.609 99.2259L150.909 96.5259L167.769 92.0259C168.089 93.2259 168.509 94.5459 169.029 95.9859C169.589 97.4259 170.069 98.6059 170.469 99.5259C166.269 100.766 162.849 101.786 160.209 102.586C157.569 103.426 155.489 104.106 153.969 104.626C152.449 105.146 151.289 105.586 150.489 105.946C149.729 106.306 149.089 106.666 148.569 107.026ZM160.809 88.9059L168.369 85.1859C169.369 86.8259 170.389 88.6059 171.429 90.5259C172.509 92.4059 173.509 94.2659 174.429 96.1059C175.349 97.9459 176.069 99.6059 176.589 101.086L168.429 105.406C167.989 103.926 167.349 102.246 166.509 100.366C165.669 98.4459 164.749 96.4859 163.749 94.4859C162.749 92.4859 161.769 90.6259 160.809 88.9059ZM148.569 107.026C148.409 106.186 148.149 105.186 147.789 104.026C147.469 102.906 147.089 101.806 146.649 100.726C146.209 99.6459 145.749 98.7459 145.269 98.0259C146.029 97.6659 146.709 97.1459 147.309 96.4659C147.909 95.7859 148.209 94.8659 148.209 93.7059V53.9259H157.149V100.606C157.149 100.606 156.849 100.726 156.249 100.966C155.689 101.166 154.989 101.486 154.149 101.926C153.309 102.326 152.449 102.786 151.569 103.306C150.729 103.866 150.009 104.446 149.409 105.046C148.849 105.686 148.569 106.346 148.569 107.026ZM191.049 54.3459H199.629V89.0859C199.629 90.9259 199.449 92.4459 199.089 93.6459C198.729 94.8459 197.989 95.7859 196.869 96.4659C195.789 97.1459 194.549 97.5659 193.149 97.7259C191.749 97.8859 190.129 97.9659 188.289 97.9659C188.169 96.8059 187.889 95.4259 187.449 93.8259C187.049 92.2259 186.569 90.8659 186.009 89.7459C186.809 89.7859 187.629 89.8259 188.469 89.8659C189.309 89.8659 189.869 89.8459 190.149 89.8059C190.469 89.8059 190.689 89.7459 190.809 89.6259C190.969 89.5059 191.049 89.2659 191.049 88.9059V54.3459ZM177.129 54.3459H195.069V62.3259H185.889V107.986H177.129V54.3459ZM204.309 80.6259C206.709 79.9459 209.569 79.0259 212.889 77.8659C216.249 76.7059 219.629 75.5059 223.029 74.2659L224.649 81.8859C221.609 83.1259 218.489 84.3459 215.289 85.5459C212.089 86.7459 209.129 87.8659 206.409 88.9059L204.309 80.6259ZM205.089 61.9659H223.449V69.9459H205.089V61.9659ZM210.969 51.0459H218.949V99.0459C218.949 100.926 218.769 102.446 218.409 103.606C218.049 104.766 217.349 105.686 216.309 106.366C215.309 107.046 214.089 107.486 212.649 107.686C211.249 107.926 209.549 108.046 207.549 108.046C207.469 106.966 207.209 105.626 206.769 104.026C206.369 102.466 205.909 101.106 205.389 99.9459C206.349 99.9859 207.269 100.026 208.149 100.066C209.029 100.066 209.649 100.046 210.009 100.006C210.369 100.006 210.609 99.9459 210.729 99.8259C210.889 99.7059 210.969 99.4459 210.969 99.0459V51.0459ZM231.489 51.7659H239.469V77.9259C239.469 80.9259 239.309 83.8659 238.989 86.7459C238.709 89.5859 238.129 92.2859 237.249 94.8459C236.369 97.4059 235.049 99.7859 233.289 101.986C231.569 104.146 229.249 106.066 226.329 107.746C225.889 107.106 225.289 106.386 224.529 105.586C223.809 104.826 223.049 104.086 222.249 103.366C221.489 102.646 220.789 102.066 220.149 101.626C222.669 100.266 224.669 98.7259 226.149 97.0059C227.669 95.2859 228.809 93.4259 229.569 91.4259C230.369 89.3859 230.889 87.2259 231.129 84.9459C231.369 82.6659 231.489 80.3059 231.489 77.8659V51.7659ZM241.989 51.7659H250.209V96.3459C250.209 97.8259 250.269 98.7659 250.389 99.1659C250.509 99.5659 250.829 99.7659 251.349 99.7659C251.469 99.7659 251.629 99.7659 251.829 99.7659C252.029 99.7659 252.249 99.7659 252.489 99.7659C252.729 99.7659 252.949 99.7659 253.149 99.7659C253.349 99.7659 253.509 99.7659 253.629 99.7659C253.989 99.7659 254.249 99.5459 254.409 99.1059C254.609 98.6659 254.749 97.9059 254.829 96.8259C254.949 95.7459 255.029 94.2659 255.069 92.3859C255.989 93.0659 257.149 93.7459 258.549 94.4259C259.949 95.0659 261.209 95.5059 262.329 95.7459C262.089 98.5459 261.669 100.806 261.069 102.526C260.469 104.246 259.629 105.506 258.549 106.306C257.509 107.106 256.129 107.506 254.409 107.506C254.129 107.506 253.769 107.506 253.329 107.506C252.929 107.506 252.489 107.506 252.009 107.506C251.569 107.506 251.149 107.506 250.749 107.506C250.349 107.506 250.009 107.506 249.729 107.506C247.729 107.506 246.149 107.166 244.989 106.486C243.869 105.846 243.089 104.706 242.649 103.066C242.209 101.426 241.989 99.1659 241.989 96.2859V51.7659ZM222.309 62.2059L228.729 58.6659C229.489 59.8659 230.249 61.1659 231.009 62.5659C231.809 63.9659 232.549 65.3259 233.229 66.6459C233.909 67.9659 234.449 69.1459 234.849 70.1859L228.129 74.2659C227.769 73.1859 227.249 71.9459 226.569 70.5459C225.929 69.1459 225.229 67.7259 224.469 66.2859C223.749 64.8059 223.029 63.4459 222.309 62.2059ZM247.029 81.6459L252.249 76.4859C253.529 77.5259 254.809 78.6859 256.089 79.9659C257.409 81.2059 258.629 82.4459 259.749 83.6859C260.869 84.8859 261.789 85.9859 262.509 86.9859L256.989 92.9859C256.349 91.9459 255.469 90.7659 254.349 89.4459C253.269 88.1259 252.089 86.7859 250.809 85.4259C249.529 84.0259 248.269 82.7659 247.029 81.6459ZM220.629 86.1459C221.949 85.3859 223.529 84.4059 225.369 83.2059C227.249 82.0059 229.169 80.7459 231.129 79.4259L233.949 86.0259C232.549 87.2659 231.069 88.5259 229.509 89.8059C227.949 91.0859 226.449 92.3059 225.009 93.4659L220.629 86.1459ZM253.509 57.8259L261.249 61.7859C260.409 63.2659 259.569 64.7859 258.729 66.3459C257.889 67.8659 257.089 69.3259 256.329 70.7259C255.569 72.0859 254.829 73.3059 254.109 74.3859L248.169 71.0859C248.809 69.8859 249.449 68.5259 250.089 67.0059C250.769 65.4859 251.409 63.9259 252.009 62.3259C252.649 60.7259 253.149 59.2259 253.509 57.8259ZM272.289 57.7059V60.4659H274.149V57.7059H272.289ZM266.289 52.4259H280.449V65.8059H266.289V52.4259ZM288.249 57.7059V60.4659H290.109V57.7059H288.249ZM282.249 52.4259H296.409V65.8059H282.249V52.4259ZM296.469 68.2659L321.249 65.3259L322.149 73.3659L297.429 76.4259L296.469 68.2659ZM309.669 55.0659L316.269 51.7059C316.989 52.7459 317.689 53.8859 318.369 55.1259C319.089 56.3259 319.729 57.5259 320.289 58.7259C320.889 59.8859 321.329 60.9459 321.609 61.9059L314.589 65.6859C314.349 64.7259 313.969 63.6459 313.449 62.4459C312.929 61.2059 312.329 59.9459 311.649 58.6659C311.009 57.3459 310.349 56.1459 309.669 55.0659ZM274.029 81.8259V83.9259H288.489V81.8259H274.029ZM274.029 73.8459V75.9459H288.489V73.8459H274.029ZM266.949 67.5459H295.929V90.2259H266.949V67.5459ZM264.609 92.5059H297.309V100.126H264.609V92.5059ZM277.569 69.6459H284.829V87.6459H285.369V107.986H277.029V87.6459H277.569V69.6459ZM300.429 51.3459H308.649C308.689 56.3059 308.809 61.0659 309.009 65.6259C309.249 70.1459 309.549 74.3459 309.909 78.2259C310.309 82.0659 310.769 85.4259 311.289 88.3059C311.809 91.1459 312.369 93.3659 312.969 94.9659C313.609 96.5659 314.249 97.4059 314.889 97.4859C315.289 97.5259 315.609 96.9059 315.849 95.6259C316.129 94.3459 316.329 92.4259 316.449 89.8659C316.929 90.4659 317.569 91.1059 318.369 91.7859C319.169 92.4659 319.969 93.0859 320.769 93.6459C321.609 94.1659 322.249 94.5659 322.689 94.8459C322.129 98.5259 321.389 101.306 320.469 103.186C319.589 105.106 318.649 106.386 317.649 107.026C316.649 107.666 315.709 107.986 314.829 107.986C312.669 107.906 310.809 106.986 309.249 105.226C307.689 103.506 306.369 101.026 305.289 97.7859C304.209 94.5459 303.329 90.6259 302.649 86.0259C302.009 81.4259 301.509 76.2259 301.149 70.4259C300.829 64.5859 300.589 58.2259 300.429 51.3459ZM314.409 74.2059L320.949 77.8659C319.669 81.8259 317.929 85.7059 315.729 89.5059C313.569 93.2659 311.069 96.7059 308.229 99.8259C305.389 102.906 302.289 105.426 298.929 107.386C298.209 106.386 297.249 105.306 296.049 104.146C294.889 103.026 293.749 102.086 292.629 101.326C296.109 99.6859 299.269 97.4659 302.109 94.6659C304.949 91.8659 307.409 88.7059 309.489 85.1859C311.569 81.6659 313.209 78.0059 314.409 74.2059ZM343.809 76.2459H382.209V84.6459H343.809V76.2459ZM345.429 97.7259H380.829V106.066H345.429V97.7259ZM358.449 61.5459H367.329V100.426H358.449V61.5459ZM332.649 69.3459L341.169 60.8259L341.289 60.9459V107.866H332.649V69.3459ZM338.289 51.2859L346.989 54.1059C345.589 57.6259 343.909 61.1859 341.949 64.7859C340.029 68.3459 337.929 71.7059 335.649 74.8659C333.409 78.0259 331.089 80.7859 328.689 83.1459C328.409 82.3859 327.969 81.4259 327.369 80.2659C326.769 79.0659 326.129 77.8659 325.449 76.6659C324.769 75.4659 324.169 74.5059 323.649 73.7859C325.609 71.9859 327.489 69.8859 329.289 67.4859C331.129 65.0859 332.809 62.5059 334.329 59.7459C335.889 56.9859 337.209 54.1659 338.289 51.2859ZM346.689 56.3859H379.929V64.6059H346.689V56.3859ZM386.409 53.5659H405.609V60.8259H386.409V53.5659ZM410.829 84.5859H434.349V91.7259H410.829V84.5859ZM385.449 72.0459H407.649V79.6059H385.449V72.0459ZM394.809 75.1659H403.029V98.8059C403.029 100.686 402.829 102.226 402.429 103.426C402.069 104.626 401.289 105.566 400.089 106.246C398.929 106.886 397.589 107.286 396.069 107.446C394.589 107.646 392.909 107.746 391.029 107.746C390.909 106.546 390.609 105.146 390.129 103.546C389.649 101.946 389.129 100.566 388.569 99.4059C389.609 99.4459 390.649 99.4859 391.689 99.5259C392.729 99.5259 393.449 99.5259 393.849 99.5259C394.209 99.4859 394.449 99.4259 394.569 99.3459C394.729 99.2259 394.809 98.9859 394.809 98.6259V75.1659ZM431.589 84.5859H440.349C440.349 84.5859 440.329 84.9859 440.289 85.7859C440.249 86.5459 440.189 87.2059 440.109 87.7659C439.829 91.0459 439.509 93.8059 439.149 96.0459C438.789 98.2459 438.389 100.026 437.949 101.386C437.549 102.706 437.049 103.686 436.449 104.326C435.729 105.126 434.989 105.686 434.229 106.006C433.469 106.366 432.629 106.626 431.709 106.786C430.949 106.906 429.969 106.986 428.769 107.026C427.609 107.066 426.329 107.066 424.929 107.026C424.889 105.786 424.649 104.406 424.209 102.886C423.809 101.406 423.269 100.126 422.589 99.0459C423.549 99.1259 424.449 99.1859 425.289 99.2259C426.129 99.2659 426.789 99.2859 427.269 99.2859C427.709 99.2859 428.069 99.2459 428.349 99.1659C428.629 99.0459 428.909 98.8459 429.189 98.5659C429.509 98.2459 429.809 97.6259 430.089 96.7059C430.409 95.7459 430.689 94.3659 430.929 92.5659C431.169 90.7659 431.389 88.4659 431.589 85.6659V84.5859ZM419.169 79.5459H427.809C427.569 82.6659 427.189 85.6259 426.669 88.4259C426.149 91.2259 425.269 93.8459 424.029 96.2859C422.829 98.6859 421.109 100.866 418.869 102.826C416.629 104.826 413.689 106.566 410.049 108.046C409.569 107.006 408.849 105.806 407.889 104.446C406.929 103.126 405.989 102.066 405.069 101.266C408.189 100.146 410.649 98.8259 412.449 97.3059C414.249 95.7859 415.589 94.1059 416.469 92.2659C417.389 90.4259 418.029 88.4459 418.389 86.3259C418.749 84.1659 419.009 81.9059 419.169 79.5459ZM387.369 67.4859L392.829 61.9059C394.429 62.4259 396.169 63.0659 398.049 63.8259C399.929 64.5859 401.749 65.3859 403.509 66.2259C405.269 67.0259 406.749 67.8059 407.949 68.5659L402.069 74.7459C401.029 73.9859 399.669 73.1659 397.989 72.2859C396.309 71.4059 394.529 70.5459 392.649 69.7059C390.769 68.8259 389.009 68.0859 387.369 67.4859ZM405.609 72.0459H406.689L407.829 71.6859L413.049 73.3659C412.649 76.2059 412.109 79.1259 411.429 82.1259C410.789 85.0859 410.089 87.6459 409.329 89.8059L403.569 87.1059C404.009 85.3059 404.409 83.1259 404.769 80.5659C405.169 77.9659 405.449 75.5059 405.609 73.1859V72.0459ZM429.609 60.5259L438.729 61.8459C437.369 65.6059 435.489 68.7859 433.089 71.3859C430.729 73.9859 427.909 76.1459 424.629 77.8659C421.389 79.5459 417.749 80.9259 413.709 82.0059C413.389 81.3659 412.909 80.5859 412.269 79.6659C411.629 78.7459 410.949 77.8459 410.229 76.9659C409.509 76.0859 408.869 75.3659 408.309 74.8059C412.029 74.1659 415.329 73.2459 418.209 72.0459C421.129 70.8459 423.549 69.3059 425.469 67.4259C427.429 65.5459 428.809 63.2459 429.609 60.5259ZM418.089 50.9259L426.189 53.2059C425.189 55.3659 423.989 57.4859 422.589 59.5659C421.189 61.6059 419.729 63.5259 418.209 65.3259C416.689 67.1259 415.169 68.6859 413.649 70.0059C413.089 69.5259 412.369 68.9859 411.489 68.3859C410.649 67.7859 409.789 67.2059 408.909 66.6459C408.029 66.0459 407.249 65.5659 406.569 65.2059C408.929 63.5259 411.129 61.4059 413.169 58.8459C415.249 56.2859 416.889 53.6459 418.089 50.9259ZM420.009 62.2059C421.369 64.2459 423.129 66.1059 425.289 67.7859C427.489 69.4259 430.049 70.8259 432.969 71.9859C435.889 73.1459 439.069 74.0259 442.509 74.6259C441.909 75.1859 441.249 75.9059 440.529 76.7859C439.849 77.6659 439.189 78.5659 438.549 79.4859C437.949 80.4059 437.449 81.2459 437.049 82.0059C433.329 81.0859 429.949 79.8259 426.909 78.2259C423.909 76.5859 421.229 74.6259 418.869 72.3459C416.509 70.0259 414.469 67.4059 412.749 64.4859L420.009 62.2059ZM394.089 74.6859L399.609 76.8459C398.849 79.4859 397.909 82.1859 396.789 84.9459C395.669 87.6659 394.389 90.2059 392.949 92.5659C391.509 94.8859 389.889 96.8259 388.089 98.3859C387.729 97.1059 387.149 95.6659 386.349 94.0659C385.589 92.4659 384.869 91.0659 384.189 89.8659C385.669 88.6659 387.029 87.2459 388.269 85.6059C389.549 83.9259 390.689 82.1459 391.689 80.2659C392.689 78.3859 393.489 76.5259 394.089 74.6859ZM418.569 56.9259H440.769V64.0659H415.149L418.569 56.9259ZM403.509 53.5659H405.369L406.689 53.2659L412.209 56.6859C411.329 58.1659 410.249 59.6859 408.969 61.2459C407.689 62.8059 406.309 64.2859 404.829 65.6859C403.349 67.0459 401.869 68.2459 400.389 69.2859C399.629 68.6059 398.709 67.8859 397.629 67.1259C396.549 66.3259 395.589 65.6659 394.749 65.1459C395.989 64.2259 397.169 63.1859 398.289 62.0259C399.449 60.8259 400.489 59.6059 401.409 58.3659C402.329 57.1259 403.029 56.0259 403.509 55.0659V53.5659ZM487 71.0859C488.56 71.0859 489.96 71.4659 491.2 72.2259C492.48 72.9859 493.5 74.0059 494.26 75.2859C495.02 76.5259 495.4 77.9259 495.4 79.4859C495.4 81.0059 495.02 82.4059 494.26 83.6859C493.5 84.9659 492.48 85.9859 491.2 86.7459C489.96 87.5059 488.56 87.8859 487 87.8859C485.48 87.8859 484.08 87.5059 482.8 86.7459C481.52 85.9859 480.5 84.9659 479.74 83.6859C478.98 82.4059 478.6 81.0059 478.6 79.4859C478.6 77.9259 478.98 76.5259 479.74 75.2859C480.5 74.0059 481.52 72.9859 482.8 72.2259C484.08 71.4659 485.48 71.0859 487 71.0859ZM532.091 80.7459C534.691 80.2659 537.731 79.6459 541.211 78.8859C544.691 78.0859 548.191 77.2859 551.711 76.4859L552.791 84.4659C549.671 85.2659 546.471 86.0659 543.191 86.8659C539.951 87.6659 536.971 88.4059 534.251 89.0859L532.091 80.7459ZM532.691 62.0259H551.351V70.0659H532.691V62.0259ZM538.511 50.9859H547.031V98.8059C547.031 100.646 546.851 102.126 546.491 103.246C546.131 104.366 545.431 105.266 544.391 105.946C543.391 106.586 542.191 107.006 540.791 107.206C539.391 107.406 537.751 107.506 535.871 107.506C535.751 106.426 535.471 105.126 535.031 103.606C534.631 102.086 534.171 100.766 533.651 99.6459C534.451 99.6859 535.231 99.7059 535.991 99.7059C536.791 99.7059 537.331 99.7059 537.611 99.7059C537.971 99.7059 538.211 99.6459 538.331 99.5259C538.451 99.3659 538.511 99.1059 538.511 98.7459V50.9859ZM562.811 62.2659H576.911V67.9659H562.811V62.2659ZM559.631 77.3859H578.291V82.3659H559.631V77.3859ZM563.411 100.246H580.751V106.366H563.411V100.246ZM560.411 69.9459H584.411V89.8659H560.111V83.9859H576.671V75.8859H560.411V69.9459ZM560.291 91.4859H586.091V107.806H578.471V97.6059H567.551V107.926H560.291V91.4859ZM554.651 69.9459H562.871V79.6659C562.871 81.7459 562.771 84.0059 562.571 86.4459C562.411 88.8859 562.071 91.3859 561.551 93.9459C561.031 96.4659 560.291 98.9059 559.331 101.266C558.371 103.626 557.131 105.746 555.611 107.626C555.131 107.146 554.451 106.586 553.571 105.946C552.731 105.346 551.851 104.746 550.931 104.146C550.011 103.586 549.211 103.166 548.531 102.886C550.411 100.646 551.771 98.1459 552.611 95.3859C553.491 92.6259 554.051 89.8659 554.291 87.1059C554.531 84.3459 554.651 81.8259 554.651 79.5459V69.9459ZM568.151 50.0259L575.351 52.9059C573.671 55.3859 571.651 57.7859 569.291 60.1059C566.931 62.4259 564.391 64.5459 561.671 66.4659C558.951 68.3859 556.211 70.0259 553.451 71.3859C553.251 70.7859 552.911 70.0059 552.431 69.0459C551.951 68.0859 551.451 67.1259 550.931 66.1659C550.411 65.1659 549.931 64.3659 549.491 63.7659C551.891 62.7659 554.251 61.5659 556.571 60.1659C558.931 58.7659 561.111 57.2059 563.111 55.4859C565.111 53.7659 566.791 51.9459 568.151 50.0259ZM572.591 52.6659C573.871 53.9859 575.451 55.3059 577.331 56.6259C579.211 57.9459 581.231 59.1659 583.391 60.2859C585.551 61.4059 587.691 62.3259 589.811 63.0459C589.411 63.6859 588.991 64.4659 588.551 65.3859C588.111 66.3059 587.711 67.2459 587.351 68.2059C586.991 69.1259 586.711 69.9459 586.511 70.6659C584.151 69.5459 581.751 68.2059 579.311 66.6459C576.911 65.0459 574.631 63.3659 572.471 61.6059C570.351 59.8059 568.491 58.0459 566.891 56.3259L572.591 52.6659ZM609.251 75.5259L616.151 73.7259C616.671 75.0859 617.171 76.5459 617.651 78.1059C618.171 79.6259 618.631 81.1059 619.031 82.5459C619.431 83.9859 619.711 85.2659 619.871 86.3859L612.491 88.5459C612.371 87.4259 612.131 86.1259 611.771 84.6459C611.451 83.1259 611.071 81.5859 610.631 80.0259C610.191 78.4259 609.731 76.9259 609.251 75.5259ZM603.851 92.3859L610.811 90.5259C611.251 92.4859 611.651 94.6059 612.011 96.8859C612.411 99.1659 612.691 101.166 612.851 102.886L605.531 104.986C605.491 103.266 605.291 101.226 604.931 98.8659C604.611 96.5059 604.251 94.3459 603.851 92.3859ZM595.931 91.0659L603.611 92.6259C603.211 95.2259 602.651 97.8659 601.931 100.546C601.211 103.186 600.491 105.406 599.771 107.206C599.171 106.886 598.411 106.566 597.491 106.246C596.571 105.926 595.631 105.606 594.671 105.286C593.751 105.006 592.951 104.786 592.271 104.626C593.071 102.946 593.791 100.866 594.431 98.3859C595.111 95.8659 595.611 93.4259 595.931 91.0659ZM594.911 75.5859C594.791 75.0259 594.571 74.2659 594.251 73.3059C593.931 72.3459 593.571 71.3659 593.171 70.3659C592.811 69.3259 592.471 68.4459 592.151 67.7259C592.831 67.5259 593.471 67.1859 594.071 66.7059C594.671 66.1859 595.311 65.5059 595.991 64.6659C596.351 64.2659 596.831 63.6059 597.431 62.6859C598.071 61.7659 598.751 60.6659 599.471 59.3859C600.231 58.1059 600.971 56.7259 601.691 55.2459C602.451 53.7259 603.131 52.2059 603.731 50.6859L611.951 54.1659C610.351 57.2459 608.451 60.3259 606.251 63.4059C604.051 66.4859 601.891 69.1459 599.771 71.3859V71.5659C599.771 71.5659 599.531 71.7059 599.051 71.9859C598.571 72.2659 597.991 72.6259 597.311 73.0659C596.671 73.4659 596.111 73.9059 595.631 74.3859C595.151 74.8259 594.911 75.2259 594.911 75.5859ZM594.911 75.5859L594.671 69.7659L598.031 67.5459L608.411 66.8859C608.171 67.9259 607.971 69.1059 607.811 70.4259C607.651 71.7459 607.551 72.8259 607.511 73.6659C605.231 73.8659 603.351 74.0459 601.871 74.2059C600.391 74.3659 599.191 74.5259 598.271 74.6859C597.391 74.8459 596.691 75.0059 596.171 75.1659C595.651 75.2859 595.231 75.4259 594.911 75.5859ZM595.091 89.7459C594.971 89.1859 594.751 88.4259 594.431 87.4659C594.111 86.4659 593.751 85.4459 593.351 84.4059C592.991 83.3259 592.631 82.4059 592.271 81.6459C593.191 81.4459 594.051 81.0459 594.851 80.4459C595.651 79.8059 596.611 78.9459 597.731 77.8659C598.331 77.3459 599.171 76.4859 600.251 75.2859C601.331 74.0459 602.511 72.5859 603.791 70.9059C605.111 69.1859 606.431 67.3459 607.751 65.3859C609.111 63.3859 610.331 61.3659 611.411 59.3259L618.851 64.3659C616.411 68.2459 613.551 72.0259 610.271 75.7059C607.031 79.3859 603.751 82.6459 600.431 85.4859V85.6659C600.431 85.6659 600.151 85.8059 599.591 86.0859C599.071 86.3659 598.451 86.7259 597.731 87.1659C597.051 87.5659 596.431 88.0059 595.871 88.4859C595.351 88.9659 595.091 89.3859 595.091 89.7459ZM595.091 89.7459L594.611 83.3859L598.211 80.9859L615.011 78.7059C614.851 79.7859 614.711 81.0259 614.591 82.4259C614.511 83.7859 614.491 84.8859 614.531 85.7259C610.811 86.3259 607.771 86.8459 605.411 87.2859C603.051 87.6859 601.191 88.0259 599.831 88.3059C598.511 88.5859 597.491 88.8459 596.771 89.0859C596.091 89.2859 595.531 89.5059 595.091 89.7459ZM611.111 90.2859L617.651 87.8859C618.211 89.0859 618.751 90.4059 619.271 91.8459C619.831 93.2459 620.251 94.4659 620.531 95.5059L613.691 98.2059C613.491 97.1659 613.131 95.9059 612.611 94.4259C612.091 92.9059 611.591 91.5259 611.111 90.2859ZM618.671 55.1859H648.131V63.7059H618.671V55.1859ZM616.751 97.1859H649.211V105.706H616.751V97.1859ZM628.751 59.8059H637.871V102.226H628.751V59.8059ZM653.111 68.6859H682.031V76.7259H653.111V68.6859ZM684.311 58.3659H692.771V92.3859H684.311V58.3659ZM663.971 57.4059H672.491V107.926H663.971V57.4059ZM698.231 52.1259H706.871V97.6059C706.871 100.046 706.611 101.906 706.091 103.186C705.571 104.506 704.611 105.526 703.211 106.246C701.811 106.926 700.031 107.366 697.871 107.566C695.751 107.806 693.311 107.926 690.551 107.926C690.431 107.086 690.211 106.106 689.891 104.986C689.571 103.906 689.211 102.826 688.811 101.746C688.411 100.626 687.991 99.6659 687.551 98.8659C689.431 98.9459 691.251 99.0059 693.011 99.0459C694.771 99.0459 695.971 99.0459 696.611 99.0459C697.171 99.0459 697.571 98.9459 697.811 98.7459C698.091 98.5059 698.231 98.1059 698.231 97.5459V52.1259ZM676.091 51.1659L682.211 57.8259C679.571 58.8659 676.691 59.8059 673.571 60.6459C670.491 61.4859 667.351 62.2059 664.151 62.8059C660.951 63.4059 657.831 63.9259 654.791 64.3659C654.631 63.3659 654.291 62.2059 653.771 60.8859C653.251 59.5659 652.751 58.4659 652.271 57.5859C654.431 57.2259 656.591 56.8259 658.751 56.3859C660.951 55.9059 663.091 55.4059 665.171 54.8859C667.251 54.3259 669.211 53.7459 671.051 53.1459C672.931 52.5059 674.611 51.8459 676.091 51.1659ZM663.971 72.5259L669.731 75.1059C668.971 77.3459 668.091 79.6659 667.091 82.0659C666.131 84.4259 665.071 86.7659 663.911 89.0859C662.751 91.3659 661.511 93.5259 660.191 95.5659C658.911 97.6059 657.551 99.3859 656.111 100.906C655.831 100.026 655.431 99.0659 654.911 98.0259C654.391 96.9859 653.851 95.9659 653.291 94.9659C652.731 93.9259 652.211 93.0259 651.731 92.2659C653.011 91.0259 654.251 89.6259 655.451 88.0659C656.691 86.4659 657.851 84.7859 658.931 83.0259C660.011 81.2259 660.971 79.4259 661.811 77.6259C662.691 75.8259 663.411 74.1259 663.971 72.5259ZM671.171 78.5259C671.771 78.8859 672.591 79.4859 673.631 80.3259C674.711 81.1259 675.851 82.0059 677.051 82.9659C678.251 83.9259 679.351 84.8259 680.351 85.6659C681.351 86.4659 682.051 87.0459 682.451 87.4059L677.531 94.9659C676.851 94.0859 676.051 93.1059 675.131 92.0259C674.211 90.9459 673.251 89.8659 672.251 88.7859C671.251 87.6659 670.271 86.6059 669.311 85.6059C668.351 84.6059 667.491 83.7459 666.731 83.0259L671.171 78.5259Z" fill="white"/>
<defs>
<radialGradient id="paint0_radial_4_5460" cx="0" cy="0" r="1" gradientUnits="userSpaceOnUse" gradientTransform="translate(407.142 1.20406) scale(298.866 122.99)">
<stop stop-color="#97FFFF"/>
<stop offset="0.99" stop-color="#39C0FF"/>
</radialGradient>
<radialGradient id="paint1_radial_4_5460" cx="0" cy="0" r="1" gradientUnits="userSpaceOnUse" gradientTransform="translate(415.448 21.35) scale(295.997 121.809)">
<stop stop-color="#1698FF"/>
<stop offset="0.99" stop-color="#2DC4FF"/>
</radialGradient>
<radialGradient id="paint2_radial_4_5460" cx="0" cy="0" r="1" gradientUnits="userSpaceOnUse" gradientTransform="translate(405.778 95.3017) scale(293.81 101.564)">
<stop stop-color="#1698FF"/>
<stop offset="0.99" stop-color="#007BED"/>
</radialGradient>
<linearGradient id="paint3_linear_4_5460" x1="434.018" y1="136.67" x2="434.018" y2="18.2868" gradientUnits="userSpaceOnUse">
<stop/>
<stop offset="0.12" stop-color="#010104"/>
<stop offset="0.26" stop-color="#040711"/>
<stop offset="0.4" stop-color="#090F27"/>
<stop offset="0.55" stop-color="#111C46"/>
<stop offset="0.69" stop-color="#1B2C6D"/>
<stop offset="0.84" stop-color="#273F9D"/>
<stop offset="0.99" stop-color="#3556D5"/>
<stop offset="1" stop-color="#3657D8"/>
</linearGradient>
<linearGradient id="paint4_linear_4_5460" x1="391.373" y1="137.223" x2="391.373" y2="105.014" gradientUnits="userSpaceOnUse">
<stop stop-color="#43A650"/>
<stop offset="0.03" stop-color="#3F9C4B"/>
<stop offset="0.2" stop-color="#2C6D34"/>
<stop offset="0.37" stop-color="#1C4521"/>
<stop offset="0.54" stop-color="#0F2712"/>
<stop offset="0.7" stop-color="#071108"/>
<stop offset="0.86" stop-color="#010402"/>
<stop offset="1"/>
</linearGradient>
</defs>
</svg>
