<svg width="324" height="70" viewBox="0 0 324 70" fill="none" xmlns="http://www.w3.org/2000/svg">
<path d="M106.649 55.1193C109.749 55.1193 110.499 55.2093 112.009 55.8893C113.889 56.7393 115.199 58.8793 115.199 60.9293C115.199 62.9793 113.879 65.1993 112.009 66.0593C110.509 66.7393 109.849 66.8293 106.649 66.8293H89.6386C81.8386 67.1693 78.4586 64.0993 78.8286 56.9193V17.7093C78.8286 14.5493 79.0186 13.7793 79.7686 12.2393C80.8986 10.3593 83.4286 8.98926 86.0686 8.98926C88.7086 8.98926 91.2386 10.3593 92.2686 12.2393C93.1186 13.7793 93.2086 14.4593 93.2086 17.7093V55.1293H106.649V55.1193Z" fill="white"/>
<path d="M140.998 58.1398C140.998 61.2998 140.808 62.0698 140.058 63.6098C138.928 65.4898 136.398 66.8598 133.858 66.8598C131.318 66.8598 128.688 65.4898 127.558 63.6098C126.708 62.0698 126.618 61.3898 126.618 58.1398V20.7198H119.478C116.378 20.7198 115.628 20.6298 114.118 19.9498C112.238 19.0898 110.918 16.9598 110.918 14.8198C110.918 12.6798 112.238 10.6298 114.118 9.77977C115.618 9.09977 116.278 9.00977 119.478 9.00977H147.858C150.958 9.00977 151.708 9.09977 153.218 9.77977C155.098 10.6298 156.418 12.7698 156.418 14.8198C156.418 16.8698 155.098 19.0898 153.218 19.9498C151.718 20.6298 151.058 20.7198 147.858 20.7198H140.998V58.1398Z" fill="white"/>
<path d="M160.078 29.2701C160.078 24.9101 162.808 22.0901 167.028 22.0901C170.128 22.0901 172.388 23.5401 173.888 26.5301C177.738 23.0301 180.188 21.8301 183.378 21.8301C187.328 21.8301 190.428 24.7401 190.428 28.3201C190.428 31.3101 189.018 32.5101 183.378 34.0401C175.858 36.3501 173.698 38.2301 173.888 42.4101V58.2101C173.888 61.2001 173.798 61.9701 172.948 63.4201C171.918 65.3001 169.468 66.5801 167.028 66.5801C164.588 66.5801 162.048 65.3001 161.018 63.4201C160.168 61.9701 160.078 61.2801 160.078 58.2101V29.2501V29.2701Z" fill="white"/>
<path d="M240.609 49.0896C240.609 53.5296 239.579 56.7796 237.229 59.4296C233.279 64.0396 226.419 66.8596 219.189 66.8596C211.959 66.8596 205.089 64.0396 201.149 59.4296C198.799 56.7796 197.769 53.5396 197.769 49.0896V30.4696C197.769 27.4796 197.859 26.7096 198.709 25.2596C199.739 23.3796 202.189 22.0996 204.719 22.0996C207.249 22.0996 209.609 23.3796 210.639 25.2596C211.489 26.7096 211.579 27.3996 211.579 30.4696V47.5596C211.579 50.2096 212.139 51.4896 213.739 52.9396C215.239 54.2196 217.119 54.9096 219.189 54.9096C221.259 54.9096 223.139 54.2296 224.639 52.9396C226.239 51.4896 226.799 50.2096 226.799 47.5596V30.4696C226.799 27.4796 226.899 26.7096 227.739 25.2596C228.769 23.3796 231.219 22.0996 233.749 22.0996C236.279 22.0996 238.639 23.3796 239.669 25.2596C240.519 26.7096 240.609 27.3996 240.609 30.4696V49.0896Z" fill="white"/>
<path d="M282.998 30.4598C282.998 33.2798 280.458 35.9298 277.638 35.9298C276.138 35.9298 276.038 35.9298 271.808 34.2198C269.738 33.3698 267.958 32.9398 266.548 32.9398C264.298 32.9398 262.888 33.7898 262.888 35.1598C262.888 36.7798 263.638 37.2098 270.128 39.5198C276.238 41.7398 278.208 42.7698 280.658 44.9898C282.818 47.1298 284.038 49.7698 284.038 52.8498C284.038 61.1398 276.618 66.8598 265.808 66.8598C256.408 66.8598 248.138 62.5898 248.138 57.7998C248.138 54.8998 250.958 52.1598 253.868 52.1598C254.935 52.1598 257.315 52.8998 261.008 54.3798C263.268 55.3198 265.048 55.7498 266.548 55.7498C268.808 55.7498 270.588 54.4698 270.588 52.8498C270.588 51.3998 269.558 50.6298 265.328 49.1798C258.468 46.8698 256.588 46.0198 254.238 44.4798C250.948 42.3398 249.538 39.5298 249.538 35.4198C249.538 27.6498 257.148 21.8398 267.298 21.8398C275.658 21.8398 282.988 25.8598 282.988 30.4698L282.998 30.4598Z" fill="white"/>
<path d="M312.288 58.8694C312.288 61.8394 312.198 62.5994 311.348 64.0394C310.318 65.9094 307.868 67.1794 305.428 67.1794C302.988 67.1794 300.448 65.9094 299.418 64.0394C298.568 62.5994 298.478 61.9194 298.478 58.8694V34.8594C294.818 34.9494 292.748 34.3494 291.528 33.0794C290.498 31.8894 289.928 30.6194 289.928 29.2594C289.928 26.3794 291.998 24.1694 295.288 23.7494C295.915 23.6361 296.982 23.5794 298.488 23.5794V17.1294C298.488 14.1594 298.578 13.3994 299.428 12.0394C300.458 10.1694 302.908 8.89941 305.438 8.89941C307.968 8.89941 310.328 10.1694 311.358 11.9494C312.208 13.3894 312.298 14.0694 312.298 17.1194V23.5694H314.838C317.848 23.5694 318.688 23.6594 320.098 24.3294C321.888 25.1794 323.198 27.2094 323.198 29.2494C323.198 31.2894 321.878 33.3194 320.098 34.0894C318.598 34.7694 317.938 34.8494 314.838 34.8494H312.298V58.8594L312.288 58.8694Z" fill="white"/>
<path d="M48.9485 11.5692C45.0485 10.8292 43.6885 9.46918 42.9385 5.55918C42.8085 4.85918 41.7885 4.85918 41.6585 5.55918C40.9185 9.45918 39.5585 10.8192 35.6485 11.5692C34.9485 11.6992 34.9485 12.7192 35.6485 12.8492C39.5485 13.5892 40.9085 14.9492 41.6585 18.8592C41.7885 19.5592 42.8085 19.5592 42.9385 18.8592C43.6785 14.9592 45.0385 13.5992 48.9485 12.8492C49.6485 12.7192 49.6485 11.6992 48.9485 11.5692Z" fill="white"/>
<path d="M53.6886 5.97855C50.4386 5.61855 51.5086 2.16855 50.5186 3.36855C50.1586 6.61855 46.7086 5.54855 47.9086 6.53855C49.6086 6.85855 50.1986 7.45855 50.5186 9.14855C50.5786 9.45855 51.0186 9.45855 51.0786 9.14855C51.4386 5.89855 54.8886 6.96855 53.6886 5.97855Z" fill="white"/>
<path d="M47.9186 1.27889C46.5086 1.14889 46.9286 -0.421105 46.4986 0.108894C46.3586 0.868894 46.0886 1.12889 45.3286 1.27889C45.1886 1.30889 45.1886 1.49889 45.3286 1.52889C46.7386 1.65889 46.3186 3.22889 46.7486 2.69889C46.8786 1.28889 48.4486 1.70889 47.9186 1.27889Z" fill="white"/>
<path d="M48.2086 69.7689C44.3486 69.7689 40.5486 67.9289 38.1886 64.5089L22.3586 41.5089C18.5586 35.9789 19.9486 28.4189 25.4786 24.6189C31.0086 20.8189 38.5686 22.2089 42.3686 27.7389L58.1986 50.7389C61.9986 56.2689 60.6086 63.8289 55.0786 67.6289C52.9786 69.0789 50.5786 69.7689 48.1986 69.7689H48.2086Z" fill="white"/>
<path d="M31.1586 61.4191C27.2986 61.4191 23.4986 59.5791 21.1386 56.1591L2.13862 28.5391C-1.66138 23.0191 -0.261376 15.4491 5.25862 11.6491C10.7886 7.84913 18.3486 9.23913 22.1486 14.7691L41.1586 42.3791C44.9586 47.9091 43.5686 55.4691 38.0386 59.2691C35.9386 60.7191 33.5386 61.4091 31.1586 61.4091V61.4191Z" fill="white"/>
<path d="M28.0186 23.2188C27.1386 23.5588 26.2886 23.9887 25.4786 24.5487C19.9486 28.3488 18.5586 35.9187 22.3586 41.4387L35.4886 60.5088C36.3686 60.1688 37.2286 59.7588 38.0386 59.1988C43.5686 55.3988 44.9586 47.8288 41.1586 42.3088L28.0186 23.2188Z" fill="#E6E6E6"/>
<path d="M46.4486 57.4486C45.2586 57.4486 44.0886 56.8786 43.3686 55.8286L33.4186 41.3686C32.2486 39.6686 32.6786 37.3386 34.3786 36.1686C36.0786 34.9986 38.4086 35.4286 39.5786 37.1286L49.5286 51.5886C50.6986 53.2886 50.2686 55.6186 48.5686 56.7886C47.9186 57.2386 47.1786 57.4486 46.4486 57.4486Z" fill="white"/>
</svg>
