<svg width="318" height="164" viewBox="0 0 318 164" fill="none" xmlns="http://www.w3.org/2000/svg">
<g style="mix-blend-mode:multiply">
<path d="M88.6288 151.898L0.844238 163.43H317.204L275.297 156.207L88.6288 151.898Z" fill="#D9D5E1"/>
</g>
<path fill-rule="evenodd" clip-rule="evenodd" d="M122.753 78.4815L134.672 80.8998H196.642L211.01 76.8272L167.622 53.219L122.753 78.4815Z" fill="url(#paint0_linear_4_2975)"/>
<path fill-rule="evenodd" clip-rule="evenodd" d="M133.151 135.584V74.5505L167.299 56.2358L200.163 73.7471L203.81 135.584H133.151Z" fill="url(#paint1_linear_4_2975)"/>
<path fill-rule="evenodd" clip-rule="evenodd" d="M119.728 76.827L122.753 78.4813L167.622 53.2188L211.01 76.827L212.806 73.6998L167.716 45.822L119.728 76.827Z" fill="url(#paint2_linear_4_2975)"/>
<path fill-rule="evenodd" clip-rule="evenodd" d="M128.897 63.4988C123.549 69.4383 62.0821 69.4383 54.5356 60.6315C54.5356 60.6315 63.5551 47.7363 91.7165 47.7363C119.878 47.7363 128.897 63.4988 128.897 63.4988Z" fill="url(#paint3_linear_4_2975)"/>
<path fill-rule="evenodd" clip-rule="evenodd" d="M128.897 63.4988L91.7165 1.48877L54.5356 60.6315C54.5356 60.6315 61.4598 48.595 93.221 49.7372C120.469 50.7218 128.897 63.4988 128.897 63.4988Z" fill="url(#paint4_linear_4_2975)"/>
<path fill-rule="evenodd" clip-rule="evenodd" d="M205.567 62.01C210.916 67.9495 272.382 67.9495 279.929 59.1427C279.929 59.1427 270.909 46.2476 242.748 46.2476C214.586 46.2476 205.567 62.01 205.567 62.01Z" fill="url(#paint5_linear_4_2975)"/>
<path fill-rule="evenodd" clip-rule="evenodd" d="M57.3872 158.444L60.0103 59.3633C60.0103 59.3633 89.306 41.7969 122.005 60.1352L126.046 158.444H57.3951H57.3872Z" fill="url(#paint6_linear_4_2975)"/>
<path fill-rule="evenodd" clip-rule="evenodd" d="M211.436 158.444L210.916 59.3633C210.916 59.3633 234.162 42.1593 272.91 56.4959L276.951 158.444H211.436Z" fill="url(#paint7_linear_4_2975)"/>
<path fill-rule="evenodd" clip-rule="evenodd" d="M209.521 158.444L208.694 106.981H208.481L208.67 100.853H203.913V105.981L199.013 106.564L197.682 100.853H192.12V106.564H185.338L183.999 100.853H176.996V106.564H169.095L168.544 100.853H162.313L161.753 106.564H151.749L150.52 98.6235H143.297L142.1 106.343L134.214 106.564L133.836 101.885H126.321V108.029H126.51V158.444H209.521Z" fill="url(#paint8_linear_4_2975)"/>
<path fill-rule="evenodd" clip-rule="evenodd" d="M212.042 158.444L211.168 106.981L211.136 100.853H206.087V105.981L200.896 106.564L199.486 100.853H193.585V106.564H186.393L184.976 100.853H177.547V106.564H169.166L168.575 100.853H161.974L161.383 106.564H150.765L149.473 98.6235H141.8L140.54 106.343L132.174 106.564L131.78 101.885H123.801V108.029H123.997V158.444H212.042Z" fill="url(#paint9_linear_4_2975)"/>
<path style="mix-blend-mode:multiply" opacity="0.2" fill-rule="evenodd" clip-rule="evenodd" d="M135.136 152.031L142.777 152.039L143.778 148.817H136.562L136.452 143.823H146.22L146.944 139.751L151.883 129.715L146.999 126.021L150.442 121.94L156.381 125.438L159.548 121.94L161.1 123.405L170.206 121.94L174.342 122.358L180.131 125.162L185.315 121.05L189.639 123.405L184.503 129.439L186.197 130.826L188.978 127.163L192.089 130.211L187.977 134.827L188.647 136.545L195.161 134.378L196.524 139.262L193.113 140.877L194.247 144.375L193.113 145.375L193.98 148.707L199.084 148.258L199.974 152.591L195.161 154.371L195.973 158.444H135.341L135.136 152.031Z" fill="url(#paint10_linear_4_2975)"/>
<path fill-rule="evenodd" clip-rule="evenodd" d="M205.567 62.01L239.77 0L279.929 59.1427C279.929 59.1427 273.004 47.1062 241.243 48.2484C213.996 49.2331 205.567 62.01 205.567 62.01Z" fill="url(#paint11_linear_4_2975)"/>
<path style="mix-blend-mode:multiply" opacity="0.2" fill-rule="evenodd" clip-rule="evenodd" d="M60.4357 114.276V117.608L58.427 119.278V123.406L60.4357 122.555V123.886L65.8001 123.406L66.4303 126.714H69.9278L70.4005 123.406L74.2052 122.941L74.8669 125.273L79.034 124.721V122.665L81.5862 122.334L86.5568 122.941L85.8085 117.86L82.4764 117.529L81.6414 111.944L85.4776 110.865L85.2255 108.699H81.5862L80.3653 99.5532L85.7218 97.5366L85.3122 93.2435L78.8134 94.3778L77.3089 89.7932L79.7272 88.8164L79.0655 86.9889L76.8126 87.6033L73.8113 82.0419L75.8988 76.3861L71.5663 74.7161L70.4005 80.6871H68.7305L66.9266 78.7177L62.3184 82.8612L63.5 84.8541L62.665 88.2965L62.0742 95.9532L59.0572 95.2994L58.9154 100.719L61.444 101.184V108.179L58.7421 107.257L58.5767 113.449L60.4357 114.276Z" fill="url(#paint12_linear_4_2975)"/>
<path fill-rule="evenodd" clip-rule="evenodd" d="M143.257 158.444C143.257 158.444 149.551 123.311 169.205 123.311C187.764 123.311 195.153 158.444 195.153 158.444H143.25H143.257Z" fill="url(#paint13_linear_4_2975)"/>
<path fill-rule="evenodd" clip-rule="evenodd" d="M145.306 158.444C145.306 158.444 151.103 128.542 169.213 128.542C186.307 128.542 193.121 158.444 193.121 158.444H145.314H145.306Z" fill="url(#paint14_linear_4_2975)"/>
<path fill-rule="evenodd" clip-rule="evenodd" d="M144.975 158.444C144.975 158.444 149.859 126.021 169.387 126.021C188.914 126.021 193.987 158.444 193.987 158.444H192.869C192.869 158.444 188.229 129.44 169.387 129.44C150.544 129.44 145.904 158.444 145.904 158.444H144.983H144.975Z" fill="#B8574F"/>
<path fill-rule="evenodd" clip-rule="evenodd" d="M144.36 158.444C144.36 158.444 149.331 125.438 169.205 125.438C189.08 125.438 194.247 158.444 194.247 158.444H193.113C193.113 158.444 188.394 127.864 169.205 127.864C150.016 127.864 145.298 158.444 145.298 158.444H144.353H144.36Z" fill="url(#paint15_linear_4_2975)"/>
<path style="mix-blend-mode:multiply" opacity="0.2" fill-rule="evenodd" clip-rule="evenodd" d="M216.028 95.4412V99.7422L212.956 102.83L213.358 108.903L217.903 104.91L223.756 104.744L224.362 106.824L227.875 106.493V104.744L233.862 104.161L237.683 108.187L240.093 106.162L237.438 103.24L237.265 98.9938L239.849 98.4976L239.77 96.0792H237.352L236.824 92.4163L242.362 90.9984V87.6663H237.517L237.186 86.9573L239.683 86.0042L239.187 83.3338L235.603 83.0029L234.524 77.0871L239.683 74.842L239.353 72.3449L233.862 72.8806L232.547 69.3752L234.272 67.5083L232.106 63.6799L230.191 64.5149L227.875 62.3487L227.363 58.6936H223.756L223.196 62.1832L221.526 62.8449L219.108 66.5945L214.862 64.9324L213.744 68.6741L217.446 70.1787L216.682 73.4241L213.744 73.6762V77.5046L216.115 78.4183L215.863 84.5232L212.806 86.1696V89.6671L215.949 89.0842V90.8329L214.516 91.8334L215.028 95.4412H216.028Z" fill="url(#paint16_linear_4_2975)"/>
<path fill-rule="evenodd" clip-rule="evenodd" d="M217.95 103.823L236.824 102.822C236.824 102.822 234.492 62.5142 225.662 62.845C216.831 63.1759 217.95 103.823 217.95 103.823Z" fill="url(#paint17_linear_4_2975)"/>
<path fill-rule="evenodd" clip-rule="evenodd" d="M216.729 103.823L235.603 102.822C235.603 102.822 233.271 62.5142 224.441 62.845C215.61 63.1759 216.729 103.823 216.729 103.823Z" fill="url(#paint18_linear_4_2975)"/>
<path fill-rule="evenodd" clip-rule="evenodd" d="M232.547 101.176H218.738C218.738 101.176 218.462 67.083 224.78 66.2165C225.701 66.0905 226.513 66.7128 227.23 67.8707C231.57 74.8342 232.547 101.176 232.547 101.176Z" fill="url(#paint19_linear_4_2975)"/>
<path fill-rule="evenodd" clip-rule="evenodd" d="M232.547 101.176H223.204C223.204 101.176 222.991 74.8263 227.229 67.8706C231.57 74.8341 232.547 101.176 232.547 101.176Z" fill="url(#paint20_linear_4_2975)"/>
<path fill-rule="evenodd" clip-rule="evenodd" d="M221.44 80.0017C221.44 80.0017 220.825 80.7264 221.077 81.8922L230.695 80.6476L230.443 79.0564L221.44 80.0017Z" fill="url(#paint21_linear_4_2975)"/>
<path fill-rule="evenodd" clip-rule="evenodd" d="M62.7125 122.941L81.5864 121.94C81.5864 121.94 79.2548 81.6324 70.4243 81.9632C61.5939 82.2941 62.7125 122.941 62.7125 122.941Z" fill="url(#paint22_linear_4_2975)"/>
<path fill-rule="evenodd" clip-rule="evenodd" d="M61.4913 122.941L80.3652 121.94C80.3652 121.94 78.0336 81.6324 69.2031 81.9632C60.3727 82.2941 61.4913 122.941 61.4913 122.941Z" fill="url(#paint23_linear_4_2975)"/>
<path fill-rule="evenodd" clip-rule="evenodd" d="M77.309 120.294H63.5001C63.5001 120.294 63.2244 86.2012 69.5419 85.3347C70.4636 85.2086 71.275 85.8309 71.9918 86.9889C76.3322 93.9524 77.309 120.294 77.309 120.294Z" fill="url(#paint24_linear_4_2975)"/>
<path fill-rule="evenodd" clip-rule="evenodd" d="M77.3091 120.294H67.9666C67.9666 120.294 67.7539 93.9444 71.9919 86.9888C76.3323 93.9523 77.3091 120.294 77.3091 120.294Z" fill="url(#paint25_linear_4_2975)"/>
<path fill-rule="evenodd" clip-rule="evenodd" d="M66.2098 99.1198C66.2098 99.1198 65.6111 99.7658 65.8632 100.932L75.4971 99.9391L75.2136 98.1746L66.2098 99.1198Z" fill="url(#paint26_linear_4_2975)"/>
<path style="mix-blend-mode:multiply" opacity="0.2" fill-rule="evenodd" clip-rule="evenodd" d="M254.256 141.185H247.387L248.167 135.434H252.5L253.39 127.88H250.822L251.389 121.216H254.249V119.262L249.845 117.411L250.822 111.984L254.256 112.448L255.084 109.337L255.997 104.169L257.88 97.0088L255.084 91.5971L260.164 88.0129L263.024 92.3454L265.938 93.6452L268.042 90.9039L270.381 94.236L268.932 96.5047L270.381 99.5768L271.153 104.169L273.319 102.783L274.485 106.336L272.484 108.226L273.319 116.111L274.95 128.439L276.084 128.1V132.275L274.95 133.331L275.596 141.988L254.256 141.185Z" fill="url(#paint27_linear_4_2975)"/>
<path fill-rule="evenodd" clip-rule="evenodd" d="M274.95 141.185H254.256C254.256 141.185 253.918 106.217 259.637 96.5597C260.968 94.3147 262.268 93.653 263.41 93.6451C272.075 93.5663 274.958 141.185 274.958 141.185H274.95Z" fill="url(#paint28_linear_4_2975)"/>
<path fill-rule="evenodd" clip-rule="evenodd" d="M274.95 141.184H255.084C255.084 141.184 255.73 105.957 261.197 96.1579C262.071 94.5745 263.087 93.645 264.229 93.645C273.312 93.645 274.942 141.184 274.942 141.184H274.95Z" fill="url(#paint29_linear_4_2975)"/>
<path fill-rule="evenodd" clip-rule="evenodd" d="M273.319 139.042H257.549C257.549 139.042 258.045 106.989 262.212 98.0721C262.882 96.6306 263.654 95.7956 264.528 95.7877C271.13 95.7168 273.327 139.042 273.327 139.042H273.319Z" fill="url(#paint30_linear_4_2975)"/>
<path fill-rule="evenodd" clip-rule="evenodd" d="M268.499 139.042H257.549C257.549 139.042 258.045 106.989 262.212 98.0723C266.876 107.005 268.499 139.042 268.499 139.042Z" fill="url(#paint31_linear_4_2975)"/>
<path fill-rule="evenodd" clip-rule="evenodd" d="M269.46 110.967C269.46 110.967 270.106 112.078 269.657 112.834L259.101 112.992L259.345 110.967H269.46Z" fill="url(#paint32_linear_4_2975)"/>
<path style="mix-blend-mode:multiply" opacity="0.2" fill-rule="evenodd" clip-rule="evenodd" d="M211.648 135.584L237.147 137.419L237.635 147.652L225.867 149.133L226.166 152.04H267.049L269.664 158.444H212.042L211.648 135.584Z" fill="url(#paint33_linear_4_2975)"/>
<path style="mix-blend-mode:multiply" opacity="0.2" fill-rule="evenodd" clip-rule="evenodd" d="M222.046 134.245L222.676 127.163H242.267V134.245H222.046Z" fill="url(#paint34_linear_4_2975)"/>
<path style="mix-blend-mode:multiply" opacity="0.2" fill-rule="evenodd" clip-rule="evenodd" d="M57.9544 137.112L81.3342 138.112V144.367H73.961V146.195H95.4582L96.9155 151.701L67.9191 152.158L67.7458 158.444H57.3872L57.5605 152.04L67.9191 152.158L68.1476 146.108L57.7338 145.304L57.9544 137.112Z" fill="url(#paint35_linear_4_2975)"/>
<path style="mix-blend-mode:multiply" opacity="0.2" fill-rule="evenodd" clip-rule="evenodd" d="M107.794 112.779L108.464 103.586H123.785L124.163 112.779H107.794Z" fill="url(#paint36_linear_4_2975)"/>
<g style="mix-blend-mode:multiply" opacity="0.2">
<path fill-rule="evenodd" clip-rule="evenodd" d="M247.962 73.4715C247.962 73.4715 254.808 72.8492 264.985 74.1804L265.166 80.3326C265.166 80.3326 259.038 79.3637 247.955 79.5055V73.4715H247.962Z" fill="#FF8B70"/>
</g>
<path style="mix-blend-mode:multiply" opacity="0.2" fill-rule="evenodd" clip-rule="evenodd" d="M153.159 96.2053L149.41 97.2688L148.874 94.2911L155.357 92.7078L155.94 90.7779L151.103 90.959L151.017 87.6269L155.129 86.9731L156.097 83.7592L153.159 81.4354L154.223 79.4661L157.153 80.6634L157.626 79.8284L156.373 78.4578L158.398 75.5274L160.068 76.2915L160.903 75.5274L160.186 74.6924L162.21 73.1249L162.746 73.8417L163.998 73.1249L163.305 68.8396L167.85 68.304L168.622 72.8019L169.709 73.1249L171.08 70.3048L173.695 71.6754L172.333 73.8417L173.695 74.6924L175.72 77.032L178.162 76.2915L179.588 77.741L177.862 79.7103L178.642 81.719L181.376 80.8997L182.392 83.2157L180.304 84.7675L181.053 86.7289L180.304 88.2808L180.785 90.1871L183.282 89.6514L183.881 91.9673L181.439 92.9835L181.911 95.7799L183.282 97.2688L180.186 98.3952L176.972 97.0324H170.6L170.544 97.6863H167.638L166.921 96.741H159.051L158.642 97.5051L154.648 97.3239L154.223 96.0478L153.159 96.2053Z" fill="url(#paint37_linear_4_2975)"/>
<g style="mix-blend-mode:multiply" opacity="0.2">
<path fill-rule="evenodd" clip-rule="evenodd" d="M243.323 82.1758C243.323 82.1758 250.964 81.5062 257.518 82.1758V88.4776C257.518 88.4776 251.342 87.619 243.323 88.0601V82.1758Z" fill="#FF8B70"/>
</g>
<g style="mix-blend-mode:multiply" opacity="0.2">
<path fill-rule="evenodd" clip-rule="evenodd" d="M66.9268 65.9092C66.9268 65.9092 72.9765 63.9793 88.4711 63.4988V71.3052C88.4711 71.3052 79.0342 71.1397 66.9268 73.0776V65.9092Z" fill="#FF8B70"/>
</g>
<g style="mix-blend-mode:multiply" opacity="0.2">
<path fill-rule="evenodd" clip-rule="evenodd" d="M81.6414 74.3852C81.6414 74.3852 92.6381 73.2823 104.627 74.3852V82.8375C104.627 82.8375 95.3006 81.8134 81.6414 82.8375V74.3852Z" fill="#FF8B70"/>
</g>
<path fill-rule="evenodd" clip-rule="evenodd" d="M168.213 128.731C168.213 128.731 169.465 128.187 170.379 128.731V158.444H168.04L168.213 128.731Z" fill="url(#paint38_linear_4_2975)"/>
<path fill-rule="evenodd" clip-rule="evenodd" d="M181.754 158.444L181.1 133.685C181.1 133.685 182.439 133.748 182.959 135.143L183.999 158.444H181.754Z" fill="url(#paint39_linear_4_2975)"/>
<path fill-rule="evenodd" clip-rule="evenodd" d="M156.759 158.444L157.413 133.685C157.413 133.685 156.074 133.748 155.554 135.143L154.514 158.444H156.759Z" fill="url(#paint40_linear_4_2975)"/>
<path style="mix-blend-mode:multiply" opacity="0.2" fill-rule="evenodd" clip-rule="evenodd" d="M122.005 60.135C122.005 60.135 121.296 116.45 113.796 137.112C106.022 158.554 57.395 158.444 57.395 158.444H126.046L122.005 60.135Z" fill="url(#paint41_linear_4_2975)"/>
<path style="mix-blend-mode:multiply" opacity="0.2" fill-rule="evenodd" clip-rule="evenodd" d="M212.042 158.444L210.924 59.363C210.924 59.363 213.192 125.871 222.054 139.743C234.737 159.586 276.951 158.444 276.951 158.444H212.042Z" fill="url(#paint42_linear_4_2975)"/>
<path fill-rule="evenodd" clip-rule="evenodd" d="M155.712 96.0478C155.712 96.0478 157.437 74.6373 166.921 73.8653C177.784 72.9831 179.564 96.2053 179.564 96.2053L155.72 96.0478H155.712Z" fill="url(#paint43_linear_4_2975)"/>
<path fill-rule="evenodd" clip-rule="evenodd" d="M155.712 95.3307C155.712 95.3307 157.437 73.9203 166.921 73.1483C177.784 72.266 179.564 95.4883 179.564 95.4883L155.72 95.3307H155.712Z" fill="url(#paint44_linear_4_2975)"/>
<path fill-rule="evenodd" clip-rule="evenodd" d="M157.382 93.7868C157.382 93.7868 158.87 75.3697 167.023 74.708C176.366 73.9517 177.894 93.9207 177.894 93.9207L157.389 93.7868H157.382Z" fill="url(#paint45_linear_4_2975)"/>
<path fill-rule="evenodd" clip-rule="evenodd" d="M243.323 5.23047L257.518 23.8839C257.518 23.8839 249.357 21.8831 240.66 23.8839V5.23047H243.331H243.323Z" fill="#D381FF"/>
<path fill-rule="evenodd" clip-rule="evenodd" d="M232.941 12.3909H238.281L236.17 31.6587C236.17 31.6587 225.638 31.0128 218.73 35.6604L232.941 12.3909Z" fill="#D381FF"/>
<path fill-rule="evenodd" clip-rule="evenodd" d="M229.971 33.6203C229.971 33.6203 236.083 32.1079 247.97 32.8168L252.831 48.4454C252.831 48.4454 242.314 46.2949 225.638 50.4068L229.971 33.6124V33.6203Z" fill="#C860FF"/>
<path fill-rule="evenodd" clip-rule="evenodd" d="M245.836 24.6637L251.61 40.8752C251.61 40.8752 263.048 40.5443 271.043 44.4278L256.572 24.7425C256.572 24.7425 252.279 24.2147 245.836 24.6558V24.6637Z" fill="#C860FF"/>
<path fill-rule="evenodd" clip-rule="evenodd" d="M219.21 37.283C219.21 37.283 223.448 35.4318 227.592 34.8726L223.204 49.3195C223.204 49.3195 212.814 50.4144 206.859 56.2279L219.21 37.2751V37.283Z" fill="#EC81FF"/>
<path fill-rule="evenodd" clip-rule="evenodd" d="M240.652 23.884L241.472 24.4826C241.472 24.4826 250.011 23.0805 256.564 24.7426L257.51 23.884C257.51 23.884 250.404 21.1112 240.652 23.884Z" fill="#8E42B5"/>
<path fill-rule="evenodd" clip-rule="evenodd" d="M251.61 40.8752L252.051 41.8993C252.051 41.8993 261.803 41.9387 271.169 46.2475L271.043 44.4279C271.043 44.4279 266.159 40.4262 251.61 40.8752Z" fill="#8E42B5"/>
<path fill-rule="evenodd" clip-rule="evenodd" d="M218.73 35.6525L219.975 35.8888C219.975 35.8888 226.836 32.6749 236.162 32.407L236.241 31.0049C236.241 31.0049 225.221 30.9891 218.73 35.6525Z" fill="#8E42B5"/>
<path fill-rule="evenodd" clip-rule="evenodd" d="M206.859 56.2358L208.379 56.9211C208.379 56.9211 209.167 54.1247 222.779 50.6035L223.204 49.3274C223.204 49.3274 212.302 50.1703 206.859 56.2358Z" fill="#8E42B5"/>
<path fill-rule="evenodd" clip-rule="evenodd" d="M239.77 0L227.868 18.7716L228.506 19.646C228.506 19.646 235.477 16.9992 243.929 17.5506L239.77 0Z" fill="#EC81FF"/>
<path fill-rule="evenodd" clip-rule="evenodd" d="M228.506 19.6458L227.868 18.7714C227.868 18.7714 234.39 16.164 243.709 16.6366L243.922 17.5504C243.922 17.5504 235.548 17.3456 228.498 19.6458H228.506Z" fill="#8E42B5"/>
<path fill-rule="evenodd" clip-rule="evenodd" d="M91.7166 1.48877L95.3086 19.6459C95.3086 19.6459 100.862 18.7715 107.306 23.6949L91.7166 1.48877Z" fill="#EC81FF"/>
<path fill-rule="evenodd" clip-rule="evenodd" d="M91.7166 1.48877L73.4807 27.6571C73.4807 27.6571 78.8136 24.4353 88.4712 23.8839L92.5359 2.66249L91.7166 1.48877Z" fill="#EC81FF"/>
<path fill-rule="evenodd" clip-rule="evenodd" d="M86.0841 25.4909C86.0841 25.4909 89.9676 23.6948 98.1363 25.4909L103.469 40.1505C103.469 40.1505 98.2781 37.3777 82.6023 39.1501L86.0919 25.4909H86.0841Z" fill="#EC81FF"/>
<path fill-rule="evenodd" clip-rule="evenodd" d="M99.5073 23.3244L104.635 37.5666C104.635 37.5666 111.465 37.9841 116.963 40.7332L106.715 25.1598C106.715 25.1598 104.053 22.8282 99.5073 23.3244Z" fill="#C860FF"/>
<path fill-rule="evenodd" clip-rule="evenodd" d="M74.7093 28.5392L61.1604 48.2246C61.1604 48.2246 67.7379 44.2229 79.3176 42.5608L84.233 26.7353C84.233 26.7353 79.9399 26.4202 74.7172 28.5392H74.7093Z" fill="#C860FF"/>
<path fill-rule="evenodd" clip-rule="evenodd" d="M93.6385 40.1504C93.6385 40.1504 99.5465 39.8826 106.439 41.718L112.213 53.6442C112.213 53.6442 103.966 50.5642 92.1418 50.895L93.6385 40.1504Z" fill="#C860FF"/>
<path fill-rule="evenodd" clip-rule="evenodd" d="M107.298 23.6949L105.415 24.3329C105.415 24.3329 102.469 21.5759 95.2771 20.6857L95.3086 19.638C95.3086 19.638 101.973 19.063 107.306 23.687L107.298 23.6949Z" fill="#8E42B5"/>
<path fill-rule="evenodd" clip-rule="evenodd" d="M73.4807 27.6571L74.7096 28.5393C74.7096 28.5393 78.3568 26.57 88.227 25.4514L88.4791 23.8838C88.4791 23.8838 81.3186 23.7027 73.4886 27.6571H73.4807Z" fill="#8E42B5"/>
<path fill-rule="evenodd" clip-rule="evenodd" d="M82.5945 39.15L83.138 40.7097C83.138 40.7097 92.8507 39.8196 102.847 41.4817L103.461 40.1504C103.461 40.1504 96.8839 37.0704 82.5945 39.15Z" fill="#8E42B5"/>
<path fill-rule="evenodd" clip-rule="evenodd" d="M61.1526 48.2326L61.6174 49.3669C61.6174 49.3669 65.0912 45.9324 78.9789 44.097L79.3097 42.5688C79.3097 42.5688 67.1472 43.2069 61.1526 48.2326Z" fill="#8E42B5"/>
<path fill-rule="evenodd" clip-rule="evenodd" d="M104.635 37.5667V38.7089C104.635 38.7089 109.551 38.2283 115.837 41.718L116.963 40.7412C116.963 40.7412 112.245 37.5509 104.635 37.5745V37.5667Z" fill="#8E42B5"/>
<path style="mix-blend-mode:multiply" opacity="0.5" fill-rule="evenodd" clip-rule="evenodd" d="M272.949 57.4727C272.949 57.4727 226.143 44.4279 211.026 70.9744L210.916 59.3711C210.916 59.3711 231.468 41.8599 272.91 56.5038L272.949 57.4806V57.4727Z" fill="url(#paint46_linear_4_2975)"/>
<path style="mix-blend-mode:multiply" opacity="0.5" fill-rule="evenodd" clip-rule="evenodd" d="M60.0103 59.3632L59.9473 61.6397C59.9473 61.6397 68.8171 54.432 92.1339 56.1965C115.459 57.9689 122.446 70.9585 122.446 70.9585L122.005 60.1194C122.005 60.1194 110.354 51.7773 91.7164 51.7773C73.0787 51.7773 60.0103 59.3553 60.0103 59.3553V59.3632Z" fill="url(#paint47_linear_4_2975)"/>
<g style="mix-blend-mode:multiply" opacity="0.2">
<path fill-rule="evenodd" clip-rule="evenodd" d="M133.151 85.1771H144.361V78.3632L136.783 78.4814L136.278 76.8272L153.104 74.7161L155.042 67.0593L146.015 67.6501L133.151 74.5506V85.1771Z" fill="#FF8B70"/>
</g>
<g style="mix-blend-mode:multiply" opacity="0.2">
<path fill-rule="evenodd" clip-rule="evenodd" d="M200.801 84.5232L188.339 84.3105V89.289L200.801 88.8794V84.5232Z" fill="#FF8B70"/>
</g>
<g style="mix-blend-mode:multiply" opacity="0.2">
<path fill-rule="evenodd" clip-rule="evenodd" d="M196.335 77.2998L196.752 81.8765L200.644 81.8922L200.344 76.8271L196.335 77.2998Z" fill="#FF8B70"/>
</g>
<path style="mix-blend-mode:multiply" opacity="0.5" fill-rule="evenodd" clip-rule="evenodd" d="M133.151 74.5506V79.0564C133.151 79.0564 159.895 59.2923 168.04 60.1273C176.185 60.9702 200.305 76.1103 200.305 76.1103L200.163 73.7392L167.299 56.228L133.151 74.5427V74.5506Z" fill="url(#paint48_linear_4_2975)"/>
<path fill-rule="evenodd" clip-rule="evenodd" d="M160.249 81.3644L174.775 80.8997C174.775 80.8997 175.184 81.8449 175.271 82.0734L159.91 82.223C159.91 82.223 160.139 81.6401 160.249 81.3644Z" fill="url(#paint49_linear_4_2975)"/>
<g style="mix-blend-mode:multiply" opacity="0.2">
<path fill-rule="evenodd" clip-rule="evenodd" d="M198.194 114.504H211.538L211.648 120.168L198.493 119.388L198.194 114.504Z" fill="#FF8B70"/>
</g>
<g style="mix-blend-mode:multiply" opacity="0.2">
<path fill-rule="evenodd" clip-rule="evenodd" d="M204.409 122.051L204.921 126.021H211.648L211.625 122.051H204.409Z" fill="#FF8B70"/>
</g>
<path style="mix-blend-mode:multiply" opacity="0.2" fill-rule="evenodd" clip-rule="evenodd" d="M131.371 115.859H141.942L142.612 119.191H131.371V115.859Z" fill="url(#paint50_linear_4_2975)"/>
<path style="mix-blend-mode:multiply" opacity="0.2" fill-rule="evenodd" clip-rule="evenodd" d="M133.947 115.111H143.258L143.691 110.699H133.151L133.947 115.111Z" fill="url(#paint51_linear_4_2975)"/>
<path fill-rule="evenodd" clip-rule="evenodd" d="M167.717 45.822L183.881 53.6442L183.054 55.3063L167.717 45.822Z" fill="#D381FF"/>
<path fill-rule="evenodd" clip-rule="evenodd" d="M166.062 46.8936L144.093 60.1353L144.518 60.8127L166.062 46.8936Z" fill="#D381FF"/>
<path fill-rule="evenodd" clip-rule="evenodd" d="M144.518 60.8125L130.063 69.0285L130.315 69.9895L144.518 60.8125Z" fill="#D381FF"/>
<path fill-rule="evenodd" clip-rule="evenodd" d="M185.669 56.9211L203.81 66.2085L203.023 67.65L185.669 56.9211Z" fill="#D381FF"/>
<defs>
<linearGradient id="paint0_linear_4_2975" x1="166.882" y1="80.8998" x2="166.882" y2="53.219" gradientUnits="userSpaceOnUse">
<stop stop-color="#8E3BA4"/>
<stop offset="1" stop-color="#541895"/>
</linearGradient>
<linearGradient id="paint1_linear_4_2975" x1="168.481" y1="135.584" x2="168.481" y2="56.2358" gradientUnits="userSpaceOnUse">
<stop stop-color="#FF98A0"/>
<stop offset="1" stop-color="#FFD790"/>
</linearGradient>
<linearGradient id="paint2_linear_4_2975" x1="166.267" y1="78.4813" x2="166.267" y2="45.822" gradientUnits="userSpaceOnUse">
<stop stop-color="#AB4AD4"/>
<stop offset="1" stop-color="#FF6FF4"/>
</linearGradient>
<linearGradient id="paint3_linear_4_2975" x1="128.897" y1="57.6932" x2="54.5356" y2="57.6932" gradientUnits="userSpaceOnUse">
<stop stop-color="#8E3BA4"/>
<stop offset="1" stop-color="#541895"/>
</linearGradient>
<linearGradient id="paint4_linear_4_2975" x1="91.7165" y1="63.4988" x2="91.7165" y2="1.48877" gradientUnits="userSpaceOnUse">
<stop stop-color="#AB4AD4"/>
<stop offset="1" stop-color="#FF6FF4"/>
</linearGradient>
<linearGradient id="paint5_linear_4_2975" x1="205.567" y1="56.2045" x2="279.929" y2="56.2045" gradientUnits="userSpaceOnUse">
<stop stop-color="#8E3BA4"/>
<stop offset="1" stop-color="#541895"/>
</linearGradient>
<linearGradient id="paint6_linear_4_2975" x1="91.7164" y1="158.444" x2="91.7164" y2="51.7774" gradientUnits="userSpaceOnUse">
<stop stop-color="#FF98A0"/>
<stop offset="1" stop-color="#FFD790"/>
</linearGradient>
<linearGradient id="paint7_linear_4_2975" x1="243.93" y1="158.444" x2="243.93" y2="50.7928" gradientUnits="userSpaceOnUse">
<stop stop-color="#FF98A0"/>
<stop offset="1" stop-color="#FFD790"/>
</linearGradient>
<linearGradient id="paint8_linear_4_2975" x1="167.921" y1="158.444" x2="167.921" y2="98.6235" gradientUnits="userSpaceOnUse">
<stop stop-color="#E57475"/>
<stop offset="1" stop-color="#D17074"/>
</linearGradient>
<linearGradient id="paint9_linear_4_2975" x1="167.921" y1="158.444" x2="167.921" y2="98.6235" gradientUnits="userSpaceOnUse">
<stop stop-color="#FF98A0"/>
<stop offset="1" stop-color="#FFD790"/>
</linearGradient>
<linearGradient id="paint10_linear_4_2975" x1="135.136" y1="139.751" x2="199.974" y2="139.751" gradientUnits="userSpaceOnUse">
<stop stop-color="#A8437E"/>
<stop offset="1" stop-color="#FF8B70"/>
</linearGradient>
<linearGradient id="paint11_linear_4_2975" x1="242.748" y1="62.01" x2="242.748" y2="0" gradientUnits="userSpaceOnUse">
<stop stop-color="#AB4AD4"/>
<stop offset="1" stop-color="#FF6FF4"/>
</linearGradient>
<linearGradient id="paint12_linear_4_2975" x1="58.427" y1="100.719" x2="86.5568" y2="100.719" gradientUnits="userSpaceOnUse">
<stop stop-color="#A8437E"/>
<stop offset="1" stop-color="#FF8B70"/>
</linearGradient>
<linearGradient id="paint13_linear_4_2975" x1="169.205" y1="158.444" x2="169.205" y2="123.311" gradientUnits="userSpaceOnUse">
<stop stop-color="#E57475"/>
<stop offset="1" stop-color="#D17074"/>
</linearGradient>
<linearGradient id="paint14_linear_4_2975" x1="169.205" y1="158.444" x2="169.205" y2="128.542" gradientUnits="userSpaceOnUse">
<stop stop-color="#AE4857"/>
<stop offset="0.99" stop-color="#790244"/>
</linearGradient>
<linearGradient id="paint15_linear_4_2975" x1="169.308" y1="158.444" x2="169.308" y2="125.438" gradientUnits="userSpaceOnUse">
<stop stop-color="#FF9D31"/>
<stop offset="1" stop-color="#FFCC1B"/>
</linearGradient>
<linearGradient id="paint16_linear_4_2975" x1="227.584" y1="108.903" x2="227.584" y2="58.6936" gradientUnits="userSpaceOnUse">
<stop stop-color="#A8437E"/>
<stop offset="1" stop-color="#FF8B70"/>
</linearGradient>
<linearGradient id="paint17_linear_4_2975" x1="227.363" y1="103.823" x2="227.363" y2="62.845" gradientUnits="userSpaceOnUse">
<stop stop-color="#E57475"/>
<stop offset="1" stop-color="#D17074"/>
</linearGradient>
<linearGradient id="paint18_linear_4_2975" x1="226.142" y1="103.823" x2="226.142" y2="62.845" gradientUnits="userSpaceOnUse">
<stop stop-color="#FFCAA4"/>
<stop offset="1" stop-color="#FFD790"/>
</linearGradient>
<linearGradient id="paint19_linear_4_2975" x1="225.638" y1="101.176" x2="225.638" y2="66.2086" gradientUnits="userSpaceOnUse">
<stop stop-color="#E57475"/>
<stop offset="1" stop-color="#D17074"/>
</linearGradient>
<linearGradient id="paint20_linear_4_2975" x1="227.875" y1="101.176" x2="227.875" y2="67.8785" gradientUnits="userSpaceOnUse">
<stop stop-color="#AE4857"/>
<stop offset="0.99" stop-color="#790244"/>
</linearGradient>
<linearGradient id="paint21_linear_4_2975" x1="221.022" y1="80.4743" x2="230.703" y2="80.4743" gradientUnits="userSpaceOnUse">
<stop stop-color="#FF9D31"/>
<stop offset="1" stop-color="#FFCC1B"/>
</linearGradient>
<linearGradient id="paint22_linear_4_2975" x1="72.1258" y1="122.941" x2="72.1258" y2="81.9553" gradientUnits="userSpaceOnUse">
<stop stop-color="#E57475"/>
<stop offset="1" stop-color="#D17074"/>
</linearGradient>
<linearGradient id="paint23_linear_4_2975" x1="70.9046" y1="122.941" x2="70.9046" y2="81.9553" gradientUnits="userSpaceOnUse">
<stop stop-color="#FFCAA4"/>
<stop offset="1" stop-color="#FFD790"/>
</linearGradient>
<linearGradient id="paint24_linear_4_2975" x1="70.4006" y1="120.294" x2="70.4006" y2="85.3189" gradientUnits="userSpaceOnUse">
<stop stop-color="#E57475"/>
<stop offset="1" stop-color="#D17074"/>
</linearGradient>
<linearGradient id="paint25_linear_4_2975" x1="72.6378" y1="120.294" x2="72.6378" y2="86.9888" gradientUnits="userSpaceOnUse">
<stop stop-color="#AE4857"/>
<stop offset="0.99" stop-color="#790244"/>
</linearGradient>
<linearGradient id="paint26_linear_4_2975" x1="65.8002" y1="99.5531" x2="75.4893" y2="99.5531" gradientUnits="userSpaceOnUse">
<stop stop-color="#FF9D31"/>
<stop offset="1" stop-color="#FFCC1B"/>
</linearGradient>
<linearGradient id="paint27_linear_4_2975" x1="261.74" y1="141.988" x2="261.74" y2="88.0129" gradientUnits="userSpaceOnUse">
<stop stop-color="#A8437E"/>
<stop offset="1" stop-color="#FF8B70"/>
</linearGradient>
<linearGradient id="paint28_linear_4_2975" x1="264.599" y1="141.185" x2="264.599" y2="93.6451" gradientUnits="userSpaceOnUse">
<stop stop-color="#E57475"/>
<stop offset="1" stop-color="#D17074"/>
</linearGradient>
<linearGradient id="paint29_linear_4_2975" x1="265.017" y1="141.184" x2="265.017" y2="93.645" gradientUnits="userSpaceOnUse">
<stop stop-color="#FFCAA4"/>
<stop offset="1" stop-color="#FFD790"/>
</linearGradient>
<linearGradient id="paint30_linear_4_2975" x1="265.434" y1="139.042" x2="265.434" y2="95.7877" gradientUnits="userSpaceOnUse">
<stop stop-color="#E57475"/>
<stop offset="1" stop-color="#D17074"/>
</linearGradient>
<linearGradient id="paint31_linear_4_2975" x1="263.024" y1="139.042" x2="263.024" y2="98.0723" gradientUnits="userSpaceOnUse">
<stop stop-color="#AE4857"/>
<stop offset="0.99" stop-color="#790244"/>
</linearGradient>
<linearGradient id="paint32_linear_4_2975" x1="259.109" y1="111.983" x2="269.822" y2="111.983" gradientUnits="userSpaceOnUse">
<stop stop-color="#FF9D31"/>
<stop offset="1" stop-color="#FFCC1B"/>
</linearGradient>
<linearGradient id="paint33_linear_4_2975" x1="240.652" y1="158.444" x2="240.652" y2="135.584" gradientUnits="userSpaceOnUse">
<stop stop-color="#A8437E"/>
<stop offset="1" stop-color="#FF8B70"/>
</linearGradient>
<linearGradient id="paint34_linear_4_2975" x1="222.046" y1="130.708" x2="242.267" y2="130.708" gradientUnits="userSpaceOnUse">
<stop stop-color="#FF8B70"/>
<stop offset="0.99" stop-color="#A8437E"/>
</linearGradient>
<linearGradient id="paint35_linear_4_2975" x1="57.3872" y1="147.778" x2="96.9155" y2="147.778" gradientUnits="userSpaceOnUse">
<stop stop-color="#A8437E"/>
<stop offset="1" stop-color="#FF8B70"/>
</linearGradient>
<linearGradient id="paint36_linear_4_2975" x1="107.794" y1="108.179" x2="124.163" y2="108.179" gradientUnits="userSpaceOnUse">
<stop stop-color="#FF8B70"/>
<stop offset="0.99" stop-color="#A8437E"/>
</linearGradient>
<linearGradient id="paint37_linear_4_2975" x1="166.377" y1="98.3952" x2="166.377" y2="68.304" gradientUnits="userSpaceOnUse">
<stop stop-color="#A8437E"/>
<stop offset="1" stop-color="#FF8B70"/>
</linearGradient>
<linearGradient id="paint38_linear_4_2975" x1="169.205" y1="158.444" x2="169.205" y2="128.486" gradientUnits="userSpaceOnUse">
<stop stop-color="#FF9D31"/>
<stop offset="1" stop-color="#FFCC1B"/>
</linearGradient>
<linearGradient id="paint39_linear_4_2975" x1="182.557" y1="158.444" x2="182.557" y2="133.685" gradientUnits="userSpaceOnUse">
<stop stop-color="#FF9D31"/>
<stop offset="1" stop-color="#FFCC1B"/>
</linearGradient>
<linearGradient id="paint40_linear_4_2975" x1="155.956" y1="158.444" x2="155.956" y2="133.685" gradientUnits="userSpaceOnUse">
<stop stop-color="#FF9D31"/>
<stop offset="1" stop-color="#FFCC1B"/>
</linearGradient>
<linearGradient id="paint41_linear_4_2975" x1="91.7164" y1="158.444" x2="91.7164" y2="60.135" gradientUnits="userSpaceOnUse">
<stop stop-color="#9F2F70"/>
<stop offset="1" stop-color="#FFD8CF"/>
</linearGradient>
<linearGradient id="paint42_linear_4_2975" x1="243.929" y1="158.459" x2="243.929" y2="59.363" gradientUnits="userSpaceOnUse">
<stop stop-color="#9F2F70"/>
<stop offset="1" stop-color="#FFD8CF"/>
</linearGradient>
<linearGradient id="paint43_linear_4_2975" x1="167.638" y1="96.2053" x2="167.638" y2="73.8417" gradientUnits="userSpaceOnUse">
<stop stop-color="#E57475"/>
<stop offset="1" stop-color="#D17074"/>
</linearGradient>
<linearGradient id="paint44_linear_4_2975" x1="167.638" y1="95.4883" x2="167.638" y2="73.1247" gradientUnits="userSpaceOnUse">
<stop stop-color="#FFCAA4"/>
<stop offset="1" stop-color="#FFD790"/>
</linearGradient>
<linearGradient id="paint45_linear_4_2975" x1="167.638" y1="93.9207" x2="167.638" y2="74.6922" gradientUnits="userSpaceOnUse">
<stop stop-color="#AE4857"/>
<stop offset="0.99" stop-color="#790244"/>
</linearGradient>
<linearGradient id="paint46_linear_4_2975" x1="210.916" y1="60.8127" x2="272.949" y2="60.8127" gradientUnits="userSpaceOnUse">
<stop stop-color="#890050"/>
<stop offset="1" stop-color="#DB6D57"/>
</linearGradient>
<linearGradient id="paint47_linear_4_2975" x1="59.9473" y1="61.3798" x2="122.446" y2="61.3798" gradientUnits="userSpaceOnUse">
<stop stop-color="#890050"/>
<stop offset="1" stop-color="#DB6D57"/>
</linearGradient>
<linearGradient id="paint48_linear_4_2975" x1="166.724" y1="79.0564" x2="166.724" y2="56.2359" gradientUnits="userSpaceOnUse">
<stop stop-color="#DB6D57"/>
<stop offset="1" stop-color="#890050"/>
</linearGradient>
<linearGradient id="paint49_linear_4_2975" x1="159.91" y1="81.5614" x2="175.271" y2="81.5614" gradientUnits="userSpaceOnUse">
<stop stop-color="#FF9D31"/>
<stop offset="1" stop-color="#FFCC1B"/>
</linearGradient>
<linearGradient id="paint50_linear_4_2975" x1="131.371" y1="117.529" x2="142.612" y2="117.529" gradientUnits="userSpaceOnUse">
<stop stop-color="#FF8B70"/>
<stop offset="0.99" stop-color="#A8437E"/>
</linearGradient>
<linearGradient id="paint51_linear_4_2975" x1="133.151" y1="112.905" x2="143.691" y2="112.905" gradientUnits="userSpaceOnUse">
<stop stop-color="#FF8B70"/>
<stop offset="0.99" stop-color="#A8437E"/>
</linearGradient>
</defs>
</svg>
