<svg viewBox="0 0 1292 279" fill="none" xmlns="http://www.w3.org/2000/svg" preserveAspectRatio="none">
<g style="mix-blend-mode:multiply" opacity="0.5">
<path d="M154.93 153.924C154.93 153.924 259.1 122.518 358.598 120.241C571.001 115.389 1133.24 142.959 1147.3 146.646C1148.09 146.85 1148.9 146.401 1149.14 145.614L1158.15 115.554C1158.41 114.687 1157.87 113.797 1156.98 113.632C1132.48 109.173 284.402 64.6746 149.613 128.827L154.938 153.924H154.93Z" fill="#932C11"/>
</g>
<path d="M1244.1 157.58L1289.48 171.357C1290.87 171.774 1291.97 170.191 1291.11 169.025C1291.1 169.01 1291.1 169.002 1291.08 168.986C1264.37 132.68 1242.41 100.501 1199.3 79.1376C1198.53 78.7516 1197.58 79.106 1197.24 79.8938C1197.17 80.0671 1197.09 80.2404 1197.01 80.4137C1184.96 107.866 1139.49 133.152 1124.12 159.699C1123.56 160.66 1124.22 161.881 1125.33 161.959C1148.12 163.551 1161.96 168.34 1181.02 181.519C1212.09 203.008 1224.07 237.518 1250.13 267.231C1251.18 268.437 1253.14 267.389 1252.73 265.837C1237.1 206.647 1240.99 167.355 1242.14 158.816C1242.26 157.895 1243.19 157.304 1244.08 157.572L1244.1 157.58Z" fill="url(#paint0_linear_4_2962)"/>
<path d="M1191.27 148.103L1125.64 161.274C1124.48 161.51 1123.51 160.376 1123.92 159.265L1135.03 129.41C1135.23 128.875 1135.72 128.497 1136.28 128.434C1141.62 127.858 1168.82 126.031 1191.94 145.464C1192.91 146.276 1192.5 147.859 1191.27 148.111V148.103Z" fill="url(#paint1_linear_4_2962)"/>
<path d="M51.612 163.621L0 179.297C1.00829 178.1 1.99295 176.855 2.95398 175.54C29.9573 138.832 52.1004 106.346 96.1581 84.9902C96.4417 85.6519 96.7253 86.3136 97.0088 86.9674C109.384 115.145 156.955 141.045 171.047 168.356C146.833 169.781 132.701 174.437 112.992 188.065C80.2853 210.688 68.7294 247.751 39.6306 278.441C59.4735 207.671 51.6041 163.613 51.6041 163.613L51.612 163.621Z" fill="url(#paint2_linear_4_2962)"/>
<path d="M99.7659 154.05L171.055 168.363L158.68 135.098C158.68 135.098 125.95 130.072 99.7659 154.05Z" fill="url(#paint3_linear_4_2962)"/>
<path d="M1219.92 57.8371L1194.44 146.071C1194.21 146.866 1193.39 147.331 1192.59 147.11C1179.96 143.684 1125.98 135.94 1114.79 133.506C1094.86 129.166 1034.65 127.26 1003.72 123.266C971.798 119.146 408.185 111.064 366.822 110.213C286.67 108.559 220.722 123.353 178.389 132.774C161.886 136.452 111.093 150.616 99.7423 153.916L79.0723 58.2074C79.0723 58.2074 203.037 21.8773 370.162 12.3537C663.173 -4.3462 716.999 -3.55847 929.686 12.9838C980.25 16.9146 1220.14 57.0809 1219.92 57.8371H1219.92Z" fill="url(#paint4_linear_4_2962)"/>
<path d="M102.224 125.283L85.5317 61.4529C85.5317 61.4529 163.588 33.6539 235.121 28.384C235.121 28.384 119.869 58.2705 113.496 76.8372C107.123 95.3961 102.232 125.29 102.232 125.29L102.224 125.283Z" fill="url(#paint5_linear_4_2962)"/>
<path d="M1199.97 112.844L1213.98 59.2709C1214.18 58.5068 1213.76 57.7191 1213.02 57.4591C1203.29 54.0876 1141.17 33.1971 1079.57 26.2414C1077.74 26.0366 1077.19 28.644 1078.94 29.1954C1109.06 38.6009 1177.4 60.996 1186.37 73.3082C1193.2 82.6664 1195.94 101.375 1197.01 112.608C1197.17 114.294 1199.55 114.483 1199.98 112.844H1199.97Z" fill="url(#paint6_linear_4_2962)"/>
<defs>
<linearGradient id="paint0_linear_4_2962" x1="1258.87" y1="194.918" x2="1213.7" y2="165.173" gradientUnits="userSpaceOnUse">
<stop stop-color="#E2421B"/>
<stop offset="1" stop-color="#A5161B"/>
</linearGradient>
<linearGradient id="paint1_linear_4_2962" x1="1187.86" y1="99.5711" x2="1130.8" y2="191.019" gradientUnits="userSpaceOnUse">
<stop stop-color="#4D071B"/>
<stop offset="1" stop-color="#A5161B"/>
</linearGradient>
<linearGradient id="paint2_linear_4_2962" x1="40.954" y1="194.674" x2="99.6871" y2="166.441" gradientUnits="userSpaceOnUse">
<stop stop-color="#E2421B"/>
<stop offset="1" stop-color="#A5161B"/>
</linearGradient>
<linearGradient id="paint3_linear_4_2962" x1="118.498" y1="108.402" x2="155.395" y2="223.599" gradientUnits="userSpaceOnUse">
<stop stop-color="#4D071B"/>
<stop offset="1" stop-color="#A5161B"/>
</linearGradient>
<linearGradient id="paint4_linear_4_2962" x1="649.491" y1="73.2294" x2="649.491" y2="165.323" gradientUnits="userSpaceOnUse">
<stop stop-color="#E2421B"/>
<stop offset="1" stop-color="#A5161B"/>
</linearGradient>
<linearGradient id="paint5_linear_4_2962" x1="128.92" y1="10.928" x2="157.53" y2="58.365" gradientUnits="userSpaceOnUse">
<stop stop-color="white"/>
<stop offset="0.22" stop-color="white" stop-opacity="0.5776"/>
<stop offset="0.6" stop-color="white" stop-opacity="0.1296"/>
<stop offset="0.87" stop-color="white" stop-opacity="0.01"/>
<stop offset="1" stop-color="white" stop-opacity="0"/>
</linearGradient>
<linearGradient id="paint6_linear_4_2962" x1="1173.87" y1="12.212" x2="1148.49" y2="54.2924" gradientUnits="userSpaceOnUse">
<stop stop-color="white"/>
<stop offset="0.22" stop-color="white" stop-opacity="0.5776"/>
<stop offset="0.6" stop-color="white" stop-opacity="0.1296"/>
<stop offset="0.87" stop-color="white" stop-opacity="0.01"/>
<stop offset="1" stop-color="white" stop-opacity="0"/>
</linearGradient>
</defs>
</svg>
